<svg width="20" height="20" viewBox="0 0 20 20" fill="none" xmlns="http://www.w3.org/2000/svg">
<path opacity="0.5" d="M13.4001 8.10001C14.5001 9.80001 14.1001 11.5 14.1001 11.5C14.1001 11.5 15.2001 10.2 15.3001 7.70001C15.5001 5.30001 14.4001 3.00001 13.0001 1.90001C11.6001 1.00001 10.0001 1.40001 10.0001 1.40001C10.0001 1.40001 7.60011 -0.299991 4.70011 1.00001C2.50011 2.00001 0.200111 3.70001 0.400111 8.10001C0.600111 12.5 4.10011 15.1 4.10011 15.1C4.10011 15.1 3.10011 13.8 2.70011 12.8C2.30011 11.8 2.30011 10.5 2.70011 10.1C3.10011 9.70001 4.50011 9.90001 7.40011 8.90001C10.3001 7.90001 10.1001 5.90001 10.1001 5.90001C10.1001 5.90001 12.3001 6.40001 13.4001 8.10001Z" fill="white"/>
<path d="M20 8H13V16H20V8Z" fill="white"/>
<path d="M11 12V18H17V17H12V12H11Z" fill="white"/>
<path d="M9 15V20H13V19H10V15H9Z" fill="white"/>
</svg>
