<?xml version="1.0" encoding="UTF-8"?><svg id="a" xmlns="http://www.w3.org/2000/svg" viewBox="0 0 16 16"><defs><style>.b{fill:#fff;fill-rule:evenodd;}</style></defs><path class="b" d="M10.76,2.02c.44,.01,.99,.6,1.42,.9,.99,.69,1.93,1.42,2.25,1.6,.05,.03,.07,.09,.05,.15l-1.32,3.09-.66-.45-.42-.25c-.14-.02-.26,.09-.26,.23v6.99H4.14V7.28c0-.14-.12-.25-.26-.23l-.43,.23-.7,.38-1.27-3c-.02-.06,0-.12,.05-.15,.28-.15,1.02-.88,1.85-1.44,.51-.35,1.24-1.07,1.76-1.08,.49,0,.81,0,.97,0,.08,0,.16,.04,.22,.09,.26,.24,.9,.65,1.57,.65,.7,0,1.44-.41,1.72-.65,.06-.06,.14-.09,.23-.08,.17,0,.48,0,.91,.02Zm-2.88,1.85c.6,0,1.07-.44,1.22-.58,.29-.27,.45-.55,.54-.74-.54,.4-1.07,.57-1.73,.57-.55,0-1.17-.23-1.62-.55,.31,.77,.95,1.3,1.6,1.3Z"/></svg>