<?xml version="1.0" encoding="UTF-8"?><svg id="a" xmlns="http://www.w3.org/2000/svg" xmlns:xlink="http://www.w3.org/1999/xlink" viewBox="0 0 64 64"><defs><style>.d{fill:url(#b);fill-rule:evenodd;}.e{fill:url(#c);stroke:#fff;stroke-miterlimit:10;}</style><linearGradient id="b" x1="32" y1="6.25" x2="32" y2="59.81" gradientTransform="matrix(1, 0, 0, 1, 0, 0)" gradientUnits="userSpaceOnUse"><stop offset="0" stop-color="#fff"/><stop offset=".98" stop-color="#454545"/></linearGradient><linearGradient id="c" x1="31.65" y1="44.33" x2="75.11" y2="44.33" gradientTransform="matrix(1, 0, 0, 1, 0, 0)" gradientUnits="userSpaceOnUse"><stop offset="0" stop-color="#000"/><stop offset=".1" stop-color="#050505"/><stop offset=".21" stop-color="#131313"/><stop offset=".33" stop-color="#2b2b2b"/><stop offset=".46" stop-color="#4d4d4d"/><stop offset=".6" stop-color="#797979"/><stop offset=".74" stop-color="#aeaeae"/><stop offset=".88" stop-color="#ececec"/><stop offset=".92" stop-color="#fff"/></linearGradient></defs><path class="d" d="M39.8,6.29c-.35,0-.68,.12-.95,.35-1.17,1.01-4.23,2.74-7.17,2.73s-5.46-1.73-6.55-2.72c-.26-.24-.58-.38-.93-.39-.68-.01-2-.03-4.05,.01-2.18,.04-5.21,3.03-7.35,4.48-3.48,2.36-6.55,5.38-7.71,6.01-.22,.12-.31,.39-.21,.62l5.3,12.49,2.94-1.6,1.79-.96c.57-.08,1.07,.38,1.07,.96v29.15H48.01V28.29c0-.59,.5-1.04,1.07-.96l1.75,1.04,2.77,1.88,5.51-12.86c.1-.23,0-.5-.21-.62-1.33-.72-5.28-3.78-9.39-6.65-1.8-1.25-4.06-3.7-5.91-3.75s-3.1-.08-3.79-.09Zm-14.87,2.39c1.89,1.3,4.45,2.28,6.75,2.28,2.78,0,4.97-.72,7.22-2.36-.37,.78-1.04,1.97-2.24,3.07-.61,.57-2.59,2.41-5.08,2.41-2.71,0-5.35-2.17-6.66-5.4Z"/><path class="e" d="M52.34,47.24c-.12,.61-.66,1.94-.96,2.39,.27,.45,1.5,2.54,1.5,2.54l-2.97,3.01s-2.07-1.29-2.38-1.53c-.49,.38-2.24,1.03-2.44,.97-.11,.57-.54,2.82-.54,2.82h-4.25s-.43-2.25-.54-2.82c-.21,.05-1.95-.59-2.44-.97-.32,.24-2.39,1.53-2.39,1.53l-2.97-3.01s1.23-2.08,1.5-2.54c-.29-.45-.84-1.78-.96-2.39-.56-.11-2.78-.69-2.78-.69v-4.38s2.49-.52,2.79-.6c.04-.6,.67-2.24,.93-2.56-.17-.25-1.45-2.44-1.45-2.44l2.98-2.99s2.18,1.4,2.29,1.52c.47-.3,1.82-.88,2.41-.98l.69-2.91h4.14l.68,2.91c.6,.1,1.94,.68,2.42,.98,.11-.12,2.29-1.52,2.29-1.52l2.97,2.99s-1.27,2.18-1.45,2.44c.25,.33,.89,1.97,.92,2.56,.31,.08,2.8,.6,2.8,.6v4.38s-2.22,.58-2.78,.69Zm-9.92-8.36c-3.11,0-5.63,2.61-5.63,5.83s2.52,5.83,5.63,5.83,5.63-2.61,5.63-5.83-2.52-5.83-5.63-5.83Z"/></svg>