<?xml version="1.0" encoding="UTF-8"?><svg id="a" xmlns="http://www.w3.org/2000/svg" viewBox="0 0 64 64"><defs><style>.b{fill:#fff;stroke:#fff;stroke-miterlimit:10;}</style></defs><path class="b" d="M45.08,54.62c-.11,.57-.54,2.82-.54,2.82h3.48v-3.46c-.23-.15-.41-.27-.49-.33-.49,.38-2.24,1.03-2.44,.97Z"/><path class="b" d="M49.08,27.33l1.75,1.04,2.77,1.88,5.51-12.86c.1-.23,0-.5-.21-.62-1.33-.72-5.28-3.78-9.39-6.65-1.8-1.25-4.06-3.7-5.91-3.75-1.8-.05-3.1-.08-3.79-.09-.35,0-.68,.12-.95,.35-1.17,1.01-4.23,2.74-7.17,2.73-2.79-.02-5.46-1.73-6.55-2.72-.26-.24-.58-.38-.93-.39-.68-.01-2-.03-4.05,.01-2.18,.04-5.21,3.03-7.35,4.48-3.48,2.36-6.55,5.38-7.71,6.01-.22,.12-.31,.39-.21,.62l5.3,12.49,2.94-1.6,1.79-.96c.57-.08,1.07,.38,1.07,.96v29.15h24.3s-.43-2.25-.54-2.82c-.21,.05-1.95-.59-2.44-.97-.32,.24-2.39,1.53-2.39,1.53l-2.97-3.01s1.23-2.08,1.5-2.54c-.29-.45-.84-1.78-.96-2.39-.56-.11-2.78-.69-2.78-.69v-4.38s2.49-.52,2.79-.6c.04-.6,.67-2.24,.93-2.56-.17-.25-1.45-2.44-1.45-2.44l2.98-2.99s2.18,1.4,2.29,1.52c.47-.3,1.82-.88,2.41-.98l.69-2.91h4.14l.68,2.91c.6,.1,1.94,.68,2.42,.98,.03-.03,.2-.15,.43-.31v-6.5c0-.59,.5-1.04,1.07-.96Zm-12.41-15.66c-.61,.57-2.59,2.41-5.08,2.41-2.71,0-5.35-2.17-6.66-5.4,1.89,1.3,4.45,2.28,6.75,2.28,2.78,0,4.97-.72,7.22-2.36-.37,.78-1.04,1.97-2.24,3.07Z"/><path class="b" d="M42.41,38.88c-3.11,0-5.63,2.61-5.63,5.83s2.52,5.83,5.63,5.83c2.92,0,5.33-2.31,5.6-5.27v-1.13c-.27-2.96-2.68-5.27-5.6-5.27Z"/><path class="b" d="M48.04,44.71c0,.19-.01,.38-.03,.56v8.71c.71,.46,1.89,1.2,1.89,1.2l2.97-3.01s-1.23-2.08-1.5-2.54c.3-.45,.85-1.78,.96-2.39,.56-.11,2.78-.69,2.78-.69v-4.38s-2.49-.52-2.8-.6c-.03-.6-.67-2.24-.92-2.56,.17-.25,1.45-2.44,1.45-2.44l-2.97-2.99s-1.19,.77-1.86,1.21v9.35c.02,.19,.03,.37,.03,.56Z"/></svg>