<?xml version="1.0" encoding="UTF-8"?><svg id="a" xmlns="http://www.w3.org/2000/svg" xmlns:xlink="http://www.w3.org/1999/xlink" viewBox="0 0 64 64"><defs><style>.c{fill:url(#b);fill-rule:evenodd;}</style><linearGradient id="b" x1="32" y1="6.25" x2="32" y2="59.81" gradientTransform="matrix(1, 0, 0, 1, 0, 0)" gradientUnits="userSpaceOnUse"><stop offset="0" stop-color="#fff"/><stop offset=".98" stop-color="#454545"/></linearGradient></defs><path class="c" d="M39.8,6.29c-.35,0-.68,.12-.95,.35-1.17,1.01-4.23,2.74-7.17,2.73s-5.46-1.73-6.55-2.72c-.26-.24-.58-.38-.93-.39-.68-.01-2-.03-4.05,.01-2.18,.04-5.21,3.03-7.35,4.48-3.48,2.36-6.55,5.38-7.71,6.01-.22,.12-.31,.39-.21,.62l5.3,12.49,2.94-1.6,1.79-.96c.57-.08,1.07,.38,1.07,.96v29.15H48.01V28.29c0-.59,.5-1.04,1.07-.96l1.75,1.04,2.77,1.88,5.51-12.86c.1-.23,0-.5-.21-.62-1.33-.72-5.28-3.78-9.39-6.65-1.8-1.25-4.06-3.7-5.91-3.75s-3.1-.08-3.79-.09Zm-14.87,2.39c1.89,1.3,4.45,2.28,6.75,2.28,2.78,0,4.97-.72,7.22-2.36-.37,.78-1.04,1.97-2.24,3.07-.61,.57-2.59,2.41-5.08,2.41-2.71,0-5.35-2.17-6.66-5.4Z"/></svg>