<svg width="16" height="16" viewBox="0 0 16 16" fill="none" xmlns="http://www.w3.org/2000/svg">
<g clip-path="url(#clip0_12057_10080)">
<path d="M9.61998 1.94001C9.33921 1.6771 9.16184 1.32236 9.11998 0.940006C9.08088 0.673314 8.94523 0.430272 8.73877 0.256992C8.5323 0.0837114 8.26941 -0.00774764 7.99998 3.34106e-06C7.7294 -0.00804914 7.46521 0.0830522 7.25711 0.256168C7.049 0.429284 6.91131 0.672482 6.86998 0.940006C6.82811 1.32236 6.65075 1.6771 6.36998 1.94001C6.18863 2.16065 5.93226 2.30664 5.64997 2.35001C5.46134 2.38987 5.29279 2.49491 5.17392 2.6467C5.05504 2.79849 4.99346 2.98731 4.99998 3.18V4H11V3.18C11.0065 2.98731 10.9449 2.79849 10.826 2.6467C10.7072 2.49491 10.5386 2.38987 10.35 2.35001C10.0647 2.30717 9.80501 2.16131 9.61998 1.94001ZM7.99998 3.35001C7.80008 3.36202 7.60117 3.31372 7.42903 3.2114C7.25688 3.10907 7.11942 2.95744 7.03445 2.7761C6.94948 2.59475 6.92092 2.39207 6.95246 2.19431C6.984 1.99655 7.0742 1.81282 7.21136 1.6669C7.34852 1.52099 7.52633 1.41962 7.72177 1.37592C7.9172 1.33222 8.12126 1.34819 8.30751 1.42179C8.49375 1.49539 8.6536 1.62321 8.76637 1.7887C8.87914 1.95419 8.93962 2.14975 8.93998 2.35001C8.94044 2.60515 8.84335 2.85081 8.66861 3.03672C8.49386 3.22262 8.25466 3.3347 7.99998 3.35001Z" fill="white"/>
<path opacity="0.5" d="M13 3H11.5V4.5H4.5V3H3C2.73478 3 2.48043 3.10537 2.29289 3.29291C2.10536 3.48044 2 3.73478 2 4V14C2 14.2652 2.10536 14.5196 2.29289 14.7071C2.48043 14.8946 2.73478 15 3 15H13C13.2652 15 13.5196 14.8946 13.7071 14.7071C13.8946 14.5196 14 14.2652 14 14V4C14 3.73478 13.8946 3.48044 13.7071 3.29291C13.5196 3.10537 13.2652 3 13 3Z" fill="white"/>
<path d="M12 7H4V8H12V7Z" fill="white"/>
<path d="M12 9H4V10H12V9Z" fill="white"/>
<path d="M12 11H4V12H12V11Z" fill="white"/>
</g>
<defs>
<clipPath id="clip0_12057_10080">
<rect width="16" height="16" fill="white"/>
</clipPath>
</defs>
</svg>
