<svg width="16" height="16" viewBox="0 0 16 16" fill="none" xmlns="http://www.w3.org/2000/svg">
<path d="M0 15V13.73C0 11.86 2.47 9.80005 5.5 9.80005C8.5 9.80005 11 11.86 11 13.73V15H0ZM5.5 3.07996C4.90666 3.07996 4.32666 3.25593 3.83331 3.58557C3.33997 3.91522 2.9554 4.38383 2.72833 4.93201C2.50127 5.48019 2.44186 6.08334 2.55762 6.66528C2.67337 7.24723 2.9591 7.78174 3.37866 8.20129C3.79822 8.62085 4.33279 8.90658 4.91473 9.02234C5.49668 9.13809 6.09989 9.07875 6.64807 8.85168C7.19625 8.62462 7.66474 8.24005 7.99438 7.7467C8.32403 7.25336 8.5 6.6733 8.5 6.07996C8.5 5.28431 8.18395 4.52135 7.62134 3.95874C7.05873 3.39613 6.29565 3.07996 5.5 3.07996Z" fill="white"/>
<path opacity="0.5" d="M11.5001 4.92004C11.0214 4.92004 10.5535 4.77812 10.1556 4.5122C9.75761 4.24629 9.44745 3.86834 9.26428 3.42614C9.08112 2.98395 9.03321 2.49726 9.12659 2.02783C9.21996 1.55839 9.45044 1.12726 9.78888 0.788815C10.1273 0.450371 10.5585 0.219837 11.028 0.126461C11.4974 0.0330848 11.984 0.0809923 12.4261 0.264156C12.8683 0.44732 13.2463 0.757547 13.5122 1.15551C13.7781 1.55348 13.92 2.02137 13.92 2.5C13.92 2.8178 13.8575 3.13254 13.7358 3.42614C13.6142 3.71975 13.436 3.98646 13.2112 4.21118C12.9865 4.4359 12.7198 4.61422 12.4261 4.73584C12.1325 4.85745 11.8179 4.92004 11.5001 4.92004ZM11.5001 5.75C10.9924 5.755 10.4878 5.82898 10.0001 5.96997V6.04004C10.0663 6.59771 9.99428 7.16306 9.79022 7.68628C9.58617 8.20949 9.25642 8.67449 8.83008 9.04004C9.44215 9.22038 9.99239 9.56647 10.42 10.04H16.0001V9.04004C16.0001 7.43004 14.0001 5.75 11.5001 5.75Z" fill="white"/>
</svg>
