<svg width="16" height="16" viewBox="0 0 16 16" fill="none" xmlns="http://www.w3.org/2000/svg">
<path opacity="0.5" d="M13.9301 3H8.27002L5.93005 0.370117C5.83216 0.255926 5.71104 0.163647 5.57483 0.0998535C5.43862 0.0360597 5.29041 0.00209463 5.14001 0H1C0.734784 0 0.480383 0.105432 0.292847 0.292969C0.10531 0.480505 0 0.734784 0 1V3V13.5L3.3768 10.1803L0.944754 8.11346C0.59069 7.8534 0.667851 7.06649 1.31828 6.96799C4.36704 6.5063 7.75115 5.99684 11.5 5.5L10.5 14H13.88C14.0245 14.0027 14.168 13.9769 14.3025 13.9241C14.437 13.8712 14.5597 13.7922 14.6637 13.6919C14.7677 13.5916 14.851 13.4718 14.9087 13.3394C14.9664 13.2069 14.9974 13.0644 15 12.9199V4C15.0003 3.86257 14.9723 3.72647 14.9177 3.60034C14.8632 3.47422 14.7833 3.36068 14.6829 3.26685C14.5825 3.17301 14.4638 3.10086 14.3342 3.05493C14.2047 3.009 14.0671 2.99038 13.9301 3Z" fill="white"/>
<path fill-rule="evenodd" clip-rule="evenodd" d="M1 15L6 10L3 8L10 7L9 14L7 11L2 16L1 15Z" fill="white"/>
</svg>
