<svg width="16" height="16" viewBox="0 0 16 16" fill="none" xmlns="http://www.w3.org/2000/svg">
<g clip-path="url(#clip0_12321_11675)">
<path fill-rule="evenodd" clip-rule="evenodd" d="M9.00009 4.88C9.01226 5.0005 8.98031 5.12128 8.91012 5.21997C8.88429 5.2532 8.85079 5.2797 8.81247 5.29712C8.77415 5.31454 8.73206 5.32239 8.69003 5.32001C8.64656 5.32237 8.60325 5.31454 8.56332 5.29718C8.5234 5.27982 8.48798 5.25337 8.46005 5.21997C8.3506 5.0569 8.1881 4.93679 8.00009 4.88V4H6.00009V11H6.44003C6.49352 11.1788 6.60647 11.334 6.7601 11.44C6.79083 11.4716 6.81468 11.5093 6.83017 11.5506C6.84566 11.5919 6.85242 11.6359 6.85007 11.68C6.85105 11.7224 6.84367 11.7645 6.82822 11.804C6.81277 11.8435 6.78959 11.8795 6.7601 11.91C6.66796 11.978 6.5541 12.01 6.44003 12H4.56015C4.44608 12.01 4.33222 11.978 4.24008 11.91C4.21059 11.8795 4.18742 11.8435 4.17197 11.804C4.15652 11.7645 4.14913 11.7224 4.15012 11.68C4.14777 11.6359 4.15452 11.5919 4.17001 11.5506C4.1855 11.5093 4.20935 11.4716 4.24008 11.44C4.39371 11.334 4.50666 11.1788 4.56015 11H5.00009V4H3.00009V4.88C2.81208 4.93679 2.64958 5.0569 2.54013 5.21997C2.51221 5.25337 2.47678 5.27982 2.43686 5.29718C2.39693 5.31454 2.35362 5.32237 2.31015 5.32001C2.26823 5.32157 2.22651 5.31332 2.18832 5.29596C2.15014 5.2786 2.11644 5.25258 2.09006 5.21997C2.01987 5.12128 1.98792 5.0005 2.00009 4.88V3H9.00009V4.88Z" fill="white"/>
<path opacity="0.5" d="M15 2V14H1V2H15ZM16 1H0V15H16V1Z" fill="white"/>
<path d="M14 9H8V10H14V9Z" fill="white"/>
<path d="M14 7H8V8H14V7Z" fill="white"/>
<path d="M14 11H9V12H14V11Z" fill="white"/>
<path d="M14 5H11V6H14V5Z" fill="white"/>
</g>
<defs>
<clipPath id="clip0_12321_11675">
<rect width="16" height="16" fill="white"/>
</clipPath>
</defs>
</svg>
