<svg width="16" height="16" viewBox="0 0 16 16" fill="none" xmlns="http://www.w3.org/2000/svg">
<g clip-path="url(#clip0_12540_10543)">
<path opacity="0.5" fill-rule="evenodd" clip-rule="evenodd" d="M9.50014 0C7.77705 0.00264482 6.12529 0.688325 4.90688 1.90674C3.68847 3.12515 3.00279 4.77691 3.00014 6.5C2.99019 6.66652 2.99019 6.83348 3.00014 7H11.0902C10.9802 10 9.94011 11.5701 9.47011 11.5701C9.34011 11.5701 9.16011 11.4299 8.97011 11.1799V13C9.13663 13.01 9.30359 13.01 9.47011 13C11.194 13 12.8474 12.3152 14.0664 11.0962C15.2853 9.8772 15.9701 8.22391 15.9701 6.5C15.9701 4.77609 15.2853 3.1228 14.0664 1.90381C12.8474 0.684822 11.194 0 9.47011 0H9.50014ZM6.87014 6H4.00014C4.10616 4.85427 4.56819 3.77045 5.32143 2.90063C6.07467 2.03082 7.08133 1.41857 8.20015 1.1499C7.28627 2.59917 6.82335 4.28729 6.87014 6ZM7.87014 6C7.98014 3 9.02013 1.42993 9.49013 1.42993C9.96013 1.42993 11.0001 2.99 11.1101 6H7.87014ZM10.7602 11.8501C11.6846 10.4041 12.158 8.71579 12.1201 7H15.0001C14.8922 8.14971 14.4258 9.23642 13.6668 10.1067C12.9077 10.977 11.8945 11.5869 10.7702 11.8501H10.7602ZM12.1201 6C12.158 4.28421 11.6846 2.59586 10.7602 1.1499C11.8864 1.41128 12.9018 2.02045 13.6627 2.89087C14.4237 3.76129 14.8916 4.84896 15.0001 6H12.1201Z" fill="white"/>
<path fill-rule="evenodd" clip-rule="evenodd" d="M0 15L4 11L1 9L8 8L7 15L5 12L1 16L0 15Z" fill="white"/>
</g>
<defs>
<clipPath id="clip0_12540_10543">
<rect width="16" height="16" fill="white"/>
</clipPath>
</defs>
</svg>
