<svg width="21" height="20" viewBox="0 0 21 20" fill="none" xmlns="http://www.w3.org/2000/svg">
<path d="M17 5.5L11 8V12L13.5 15.7L17 17V5.5Z" fill="white"/>
<path opacity="0.5" d="M21 14.6L17 17V5.5L21 8.3V14.6Z" fill="white"/>
<path fill-rule="evenodd" clip-rule="evenodd" d="M11.8 5.5C11.8 2.6 9.39998 0.299999 6.59998 0.299999C3.79998 0.299999 1.40002 2.7 1.40002 5.5C1.40002 7 2.09998 8.4 3.09998 9.4L6 5.1L9 8.85V6.8L11.8 5.5Z" fill="white"/>
<path opacity="0.5" d="M11.6 16.9L6 8V20L11.6 16.9Z" fill="white"/>
<path d="M6 20V8L1 16.6L6 20Z" fill="white"/>
</svg>
