<svg width="20" height="20" viewBox="0 0 20 20" fill="none" xmlns="http://www.w3.org/2000/svg">
<path d="M18.1 10H14L13.3 11H18C18.5 11 18.9 11.4 18.9 11.9V18.1C18.9 18.6 18.5 19 18 19H1.9C1.4 19 1 18.6 1 18.1V11.9C1 11.4 1.4 11 1.9 11H5.6L5 10H1.9C0.9 10 0 10.9 0 11.9V18.1C0 19.1 0.9 20 1.9 20H18.1C19.2 20 20 19.1 20 18.1V11.9C20 10.9 19.1 10 18.1 10Z" fill="white"/>
<path d="M11 0H8V6H5L9.5 11L14 6H11V0Z" fill="white"/>
<path opacity="0.5" d="M14.1 13H17V16.5L15.9 16.6L13.8 13.6L14.1 13ZM12.8 13H7L6.8 13.1L7.6 15.6L12.8 13ZM13 14.4L8.1 16.9L8.2 17H14.6L13 14.4ZM5.2 13H3V17H6.3L5.3 13.3L5.2 13Z" fill="white"/>
</svg>
