<svg width="20" height="20" viewBox="0 0 20 20" fill="none" xmlns="http://www.w3.org/2000/svg">
<g clip-path="url(#clip0)">
<path opacity="0.5" d="M13 10.07L12.8999 10.71L13.21 11.78L12 13V9.64L13 10.07ZM14 4.5L14.1899 5.89999L15 8.17999V3.12L14.3601 2.67L14 4.5ZM13.8899 2.31L12 1V5.59L12.8799 4.59L13.48 3.89L13.8899 2.31ZM14.5801 8.53L14.51 8.39999L14.4099 8.7L14.5801 8.53ZM13.1699 5.92L12.02 6.78999V8.69L13.3 9.27L13.6699 7.59L13.1699 5.92Z" fill="white"/>
<path d="M8.6001 3.3L8.37012 4.05L7.01001 5.85001L4.33008 6.38L3.92993 4.24001L4.54004 1.78L5.68994 1.64999L8.38989 1.37L8.6001 3.3ZM1.6001 9.89999L4.40991 11.53L5.32007 10.53L3.8999 7.28999L1.3999 9.28999L1.6001 9.89999ZM12 9.52L9.34009 10.12L8.34009 10.94L8.58008 13.65L11.0601 13.91L11.97 13L12 9.52ZM12 8.69V6.60001L8.80005 4.82001L7.62988 6.34L9.55005 9.34L12 8.69ZM7.76001 13.56L7.56006 11.13L5.90991 11L4.90991 12.18V13.27L7.76001 13.56ZM6.90991 6.66L4.6001 7.13L5.97998 10.21L7.78003 10.39L8.78003 9.52L6.90991 6.66ZM9.44995 3.21001L9.20996 4.08L12 5.59V1L9.22998 1.28L9.44995 3.21001ZM4.12988 12.21L1.37012 10.57L1 10.74V12.88L4.18994 13.21L4.12988 12.21ZM3.20996 4.82001L1 5.82001V8.74001L3.65991 6.59L3.20996 4.82001ZM3.72998 1.82001L1 2.10001V5L3.16992 4L3.72998 1.82001Z" fill="white"/>
<path fill-rule="evenodd" clip-rule="evenodd" d="M18.29 12.2199L19.8501 10.6599C20.015 11.1119 20.0469 11.6016 19.9424 12.0712C19.8378 12.5408 19.601 12.9706 19.26 13.3099C18.9291 13.6444 18.5101 13.8783 18.0518 13.9845C17.5934 14.0907 17.1142 14.0648 16.6699 13.9099L12.3301 18.2599C12.3425 18.4903 12.3061 18.7207 12.2234 18.9361C12.1407 19.1515 12.0135 19.3471 11.8501 19.5099C11.537 19.8226 11.1124 19.9982 10.6699 19.9982C10.2274 19.9982 9.80311 19.8226 9.48999 19.5099C9.17734 19.1968 9.00171 18.7724 9.00171 18.3299C9.00171 17.8874 9.17734 17.463 9.48999 17.1499C9.6598 16.9822 9.86394 16.8534 10.0884 16.7722C10.3128 16.6911 10.5523 16.6596 10.79 16.6799L15.1001 12.3699C14.9406 11.9205 14.9112 11.4351 15.0156 10.9698C15.12 10.5045 15.3537 10.0781 15.6899 9.73993C16.0342 9.3935 16.4721 9.15503 16.95 9.05379C17.4278 8.95254 17.9247 8.9929 18.3799 9.16992L16.8101 10.7299C16.614 10.9283 16.5042 11.196 16.5042 11.4749C16.5042 11.7538 16.614 12.0215 16.8101 12.2199C16.9038 12.323 17.0181 12.4054 17.1455 12.4618C17.2729 12.5182 17.4107 12.5473 17.55 12.5473C17.6894 12.5473 17.8272 12.5182 17.9546 12.4618C18.082 12.4054 18.1963 12.323 18.29 12.2199ZM11.23 17.7799C11.1585 17.7083 11.0735 17.6514 10.98 17.6126C10.8865 17.5738 10.7863 17.5539 10.6851 17.5539C10.5838 17.5539 10.4834 17.5738 10.3899 17.6126C10.2964 17.6514 10.2114 17.7083 10.1399 17.7799C10.0667 17.8516 10.0087 17.9372 9.96899 18.0316C9.92931 18.1261 9.90894 18.2275 9.90894 18.3299C9.90894 18.4324 9.92931 18.5338 9.96899 18.6282C10.0087 18.7227 10.0667 18.8082 10.1399 18.8799C10.2107 18.9528 10.2955 19.0107 10.3892 19.0503C10.4828 19.0899 10.5834 19.1102 10.6851 19.1102C10.7867 19.1102 10.8871 19.0899 10.9807 19.0503C11.0743 19.0107 11.1592 18.9528 11.23 18.8799C11.3032 18.8082 11.3612 18.7227 11.4009 18.6282C11.4406 18.5338 11.4612 18.4324 11.4612 18.3299C11.4612 18.2275 11.4406 18.1261 11.4009 18.0316C11.3612 17.9372 11.3032 17.8516 11.23 17.7799Z" fill="white"/>
</g>
<defs>
<clipPath id="clip0">
<rect width="20" height="20" fill="white"/>
</clipPath>
</defs>
</svg>
