<svg width="20" height="20" viewBox="0 0 20 20" fill="none" xmlns="http://www.w3.org/2000/svg">
<path opacity="0.5" d="M15.5 18C16.3284 18 17 17.3284 17 16.5C17 15.6716 16.3284 15 15.5 15C14.6716 15 14 15.6716 14 16.5C14 17.3284 14.6716 18 15.5 18Z" fill="white"/>
<path opacity="0.5" d="M14.5 11.3C15.4941 11.3 16.3 10.4941 16.3 9.49995C16.3 8.50584 15.4941 7.69995 14.5 7.69995C13.5058 7.69995 12.7 8.50584 12.7 9.49995C12.7 10.4941 13.5058 11.3 14.5 11.3Z" fill="white"/>
<path opacity="0.5" d="M9.49995 11.3C10.4941 11.3 11.3 10.4941 11.3 9.49995C11.3 8.50584 10.4941 7.69995 9.49995 7.69995C8.50584 7.69995 7.69995 8.50584 7.69995 9.49995C7.69995 10.4941 8.50584 11.3 9.49995 11.3Z" fill="white"/>
<path opacity="0.5" d="M4.49995 11.3C5.49406 11.3 6.29995 10.4941 6.29995 9.49995C6.29995 8.50584 5.49406 7.69995 4.49995 7.69995C3.50584 7.69995 2.69995 8.50584 2.69995 9.49995C2.69995 10.4941 3.50584 11.3 4.49995 11.3Z" fill="white"/>
<path opacity="0.5" d="M9.5 4C10.3284 4 11 3.32843 11 2.5C11 1.67157 10.3284 1 9.5 1C8.67157 1 8 1.67157 8 2.5C8 3.32843 8.67157 4 9.5 4Z" fill="white"/>
<path opacity="0.5" d="M3.5 18C4.32843 18 5 17.3284 5 16.5C5 15.6716 4.32843 15 3.5 15C2.67157 15 2 15.6716 2 16.5C2 17.3284 2.67157 18 3.5 18Z" fill="white"/>
<path opacity="0.5" d="M9.5 18C10.3284 18 11 17.3284 11 16.5C11 15.6716 10.3284 15 9.5 15C8.67157 15 8 15.6716 8 16.5C8 17.3284 8.67157 18 9.5 18Z" fill="white"/>
<path d="M18 7V12H1V7H18ZM18 6H1C0.734784 6 0.480505 6.10536 0.292969 6.29289C0.105432 6.48043 0 6.73478 0 7V12C0 12.2652 0.105432 12.5196 0.292969 12.7071C0.480505 12.8946 0.734784 13 1 13H18C18.2652 13 18.5195 12.8946 18.707 12.7071C18.8946 12.5196 19 12.2652 19 12V7C19 6.73478 18.8946 6.48043 18.707 6.29289C18.5195 6.10536 18.2652 6 18 6Z" fill="white"/>
</svg>
