<svg width="20" height="20" viewBox="0 0 20 20" fill="none" xmlns="http://www.w3.org/2000/svg">
<path opacity="0.5" d="M18.1 0H1.9C0.9 0 0 0.9 0 1.9V8.1C0 9.1 0.9 10 1.9 10H5L5.7 9H1.9C1.4 9 1 8.6 1 8.1V1.9C1 1.4 1.4 1 1.9 1H18.1C18.6 1 19 1.4 19 1.9V8.1C19 8.6 18.6 9 18.1 9H13.4L14.1 10H18.2C19.3 10 20 9.1 20 8.1V1.9C19.9 0.9 19.1 0 18.1 0Z" fill="white"/>
<path d="M14.1 3H17V6.5L15.9 6.6L13.8 3.6L14.1 3ZM12.8 3H6.9L6.7 3.1L7.5 5.6L12.8 3ZM13 4.4L8.1 6.9L8.2 7H14.6L13 4.4ZM5.2 3H3V7H6.3L5.3 3.3L5.2 3Z" fill="white"/>
<path fill-rule="evenodd" clip-rule="evenodd" d="M11 13H14L9.5 8L5 13H8C7.8 15.6 6 18 2 18V20C5.4 20 8 19 9.5 14.9C11 19 13.6 20 17 20V18C13 18 11.2 15.6 11 13Z" fill="white"/>
</svg>
