<svg width="20" height="20" viewBox="0 0 20 20" fill="none" xmlns="http://www.w3.org/2000/svg">
<path opacity="0.5" d="M18.1 11H13V12H18.1C18.6 12 19 12.4 19 12.9V18.1C19 18.6 18.6 19 18.1 19H1.90002C1.40002 19 1 18.6 1 18.1V12.9C1 12.4 1.40002 12 1.90002 12H6V11H1.90002C0.800024 11 0 11.9 0 12.9V18.1C0 19.2 0.900024 20 1.90002 20H18.1C19.2 20 20 19.1 20 18.1V12.9C20 11.9 19.1 11 18.1 11Z" fill="white"/>
<path d="M11 16H8V10H5L9.5 5L14 10H11V16Z" fill="white"/>
<path d="M14.1 0H17V3.5L15.9 3.6L13.8 0.6L14.1 0ZM12.8 0H7L6.79999 0.0999999L7.59998 2.6L12.8 0ZM13 1.4L8.09998 3.9L8.20001 4H14.6L13 1.4ZM5.20001 0H3V4H6.29999L5.29999 0.3L5.20001 0Z" fill="white"/>
</svg>
