<svg width="20" height="20" viewBox="0 0 20 20" fill="none" xmlns="http://www.w3.org/2000/svg">
<path d="M20 10H15V15H20V10Z" fill="white"/>
<path opacity="0.5" fill-rule="evenodd" clip-rule="evenodd" d="M17.33 8.51008C17.41 5.89008 16.6 2.51008 13.23 1.59008C17.38 1.42008 19.7 5.52008 19.8 8.52008L17.33 8.51008Z" fill="white"/>
<path opacity="0.5" fill-rule="evenodd" clip-rule="evenodd" d="M9.71008 16.8501C11.6601 17.8501 14.5101 18.8501 16.5901 15.8501C15.5901 19.8501 10.4201 20.4201 8.33008 19.2601L9.71008 16.8501Z" fill="white"/>
<path opacity="0.5" fill-rule="evenodd" clip-rule="evenodd" d="M4.65999 5.00012C2.08999 5.73012 0.469985 6.88012 0.699985 10.6401C-0.750015 6.38012 1.32999 2.84012 4.99999 1.87012L4.65999 5.00012Z" fill="white"/>
<path d="M4.49997 18.25C3.95607 18.25 3.42439 18.0887 2.97215 17.7865C2.51992 17.4843 2.16744 17.0548 1.9593 16.5523C1.75116 16.0498 1.6967 15.4969 1.80281 14.9635C1.90892 14.43 2.17083 13.94 2.55543 13.5554C2.94002 13.1708 3.43002 12.9089 3.96347 12.8028C4.49692 12.6967 5.04985 12.7511 5.55235 12.9593C6.05485 13.1674 6.48434 13.5199 6.78651 13.9721C7.08869 14.4244 7.24997 14.9561 7.24997 15.5C7.24997 16.2293 6.96024 16.9288 6.44451 17.4445C5.92879 17.9602 5.22932 18.25 4.49997 18.25ZM1.99997 11.67C2.65475 11.2342 3.42345 11.0012 4.20997 11H4.78997C5.57649 11.0012 6.3452 11.2342 6.99997 11.67L7.25997 11.85C7.03241 11.3028 6.64788 10.8352 6.1549 10.5064C5.66193 10.1775 5.08259 10.002 4.48997 10.002C3.89735 10.002 3.31801 10.1775 2.82504 10.5064C2.33206 10.8352 1.94753 11.3028 1.71997 11.85L1.99997 11.67Z" fill="white"/>
<path d="M10 0L8.5 2H11.5L10 0ZM10 8L8.5 6H11.5L10 8ZM14 4L12 2.5V5.5L14 4ZM6 4L8 2.5V5.5L6 4ZM11 3H9V5H11V3Z" fill="white"/>
</svg>
