<svg width="20" height="20" viewBox="0 0 20 20" fill="none" xmlns="http://www.w3.org/2000/svg">
<path d="M3.05 16.86L1.05 15.94V12L3.1 12.3L3.05 16.86ZM3.05 3.13L1 4.07V8L3.05 7.68V3.13ZM5.88 7.27L3.05 7.71V12.28L5.88 12.7V7.27ZM10 13.27L5.88 12.7V18.14L10 20V13.27ZM10 0L5.88 1.83V7.27L10 6.62V0Z" fill="white"/>
<path opacity="0.5" d="M9.5 0.77V19.23L1.5 15.68V4.32L9.5 0.77ZM10 0L1 4V16L10 20V0Z" fill="white"/>
<path d="M17.5699 7L14.5699 12.14H18.8599L13.2899 19L15.4299 13.86H11.1399L17.5699 7Z" fill="white"/>
</svg>
