<svg width="20" height="20" viewBox="0 0 20 20" fill="none" xmlns="http://www.w3.org/2000/svg">
<path opacity="0.5" d="M18 1H2C0.9 1 0 1.9 0 3V9C0 9.8 0.499988 10.6 1.29999 10.8L2.29999 9.9H2C1.5 9.9 1 9.5 1 8.9V3C1 2.5 1.4 2 2 2H18C18.5 2 19 2.4 19 3V9C19 9.5 18.6 10 18 10H9.20001L9.10001 11H18C19.1 11 20 10.1 20 9V3C20 1.9 19.1 1 18 1Z" fill="white"/>
<path d="M7.5 6.6L6.70001 4.1L6.89999 4H12.7L7.5 6.6ZM13.8 4.6L15.9 7.6L17 7.5V4H14.1L13.8 4.6ZM13 5.4L8.10001 7.9L8.20001 8H14.6L13 5.4ZM5.20001 4H3V8H6.29999L5.29999 4.3L5.20001 4Z" fill="white"/>
<path d="M7.6001 8L4.6001 13.1H8.90009L3.30008 20L5.40009 14.9H1.1001L7.6001 8Z" fill="white"/>
</svg>
