<svg width="20" height="20" viewBox="0 0 20 20" fill="none" xmlns="http://www.w3.org/2000/svg">
<path d="M19.6 9.40005L9 0.300049L9.1 14.3L12.2 10L15.3 16.3L17.5 15.2L14.5 9.00005L19.6 9.40005Z" fill="white"/>
<path opacity="0.5" d="M5.1 16.3L7 13.7V4.00005L5 2.30005L5.1 16.3Z" fill="white"/>
<path opacity="0.5" d="M12.0001 15L11.0001 15.9L10.1001 15.8L11.3001 18.3L12.5001 17.7L12.0001 15Z" fill="white"/>
<path opacity="0.5" d="M8.5001 19.7L8.0001 17L7.0001 17.9L6.1001 17.8L7.1001 20H7.9001L8.5001 19.7Z" fill="white"/>
<path opacity="0.5" d="M1.1 18.3L3 15.7V6.00005L1 4.30005L1.1 18.3Z" fill="white"/>
</svg>
