<svg width="20" height="20" viewBox="0 0 20 20" fill="none" xmlns="http://www.w3.org/2000/svg">
<path d="M9.5 6C10.8807 6 12 4.88071 12 3.5C12 2.11929 10.8807 1 9.5 1C8.11929 1 7 2.11929 7 3.5C7 4.88071 8.11929 6 9.5 6Z" fill="white"/>
<path opacity="0.5" d="M15.5 12C16.3284 12 17 11.3284 17 10.5C17 9.67157 16.3284 9 15.5 9C14.6716 9 14 9.67157 14 10.5C14 11.3284 14.6716 12 15.5 12Z" fill="white"/>
<path opacity="0.5" d="M15.5 18C16.3284 18 17 17.3284 17 16.5C17 15.6716 16.3284 15 15.5 15C14.6716 15 14 15.6716 14 16.5C14 17.3284 14.6716 18 15.5 18Z" fill="white"/>
<path opacity="0.5" d="M9.5 18C10.3284 18 11 17.3284 11 16.5C11 15.6716 10.3284 15 9.5 15C8.67157 15 8 15.6716 8 16.5C8 17.3284 8.67157 18 9.5 18Z" fill="white"/>
<path opacity="0.5" d="M3.5 18C4.32843 18 5 17.3284 5 16.5C5 15.6716 4.32843 15 3.5 15C2.67157 15 2 15.6716 2 16.5C2 17.3284 2.67157 18 3.5 18Z" fill="white"/>
<path opacity="0.5" d="M3.5 12C4.32843 12 5 11.3284 5 10.5C5 9.67157 4.32843 9 3.5 9C2.67157 9 2 9.67157 2 10.5C2 11.3284 2.67157 12 3.5 12Z" fill="white"/>
<path opacity="0.5" d="M9.5 12C10.3284 12 11 11.3284 11 10.5C11 9.67157 10.3284 9 9.5 9C8.67157 9 8 9.67157 8 10.5C8 11.3284 8.67157 12 9.5 12Z" fill="white"/>
</svg>
