<svg width="20" height="20" viewBox="0 0 20 20" fill="none" xmlns="http://www.w3.org/2000/svg">
<path opacity="0.5" d="M18.08 10H16L16.33 11H18.08C18.324 11 18.558 11.0969 18.7305 11.2695C18.9031 11.442 19 11.676 19 11.92V18.08C19 18.324 18.9031 18.558 18.7305 18.7305C18.558 18.9031 18.324 19 18.08 19H1.92C1.676 19 1.442 18.9031 1.26946 18.7305C1.09693 18.558 1 18.324 1 18.08V11.92C1 11.676 1.09693 11.442 1.26946 11.2695C1.442 11.0969 1.676 11 1.92 11H3.67L5 10H1.92C1.41078 10 0.922425 10.2023 0.562355 10.5624C0.202285 10.9224 0 11.4108 0 11.92L0 18.08C0 18.3321 0.0496623 18.5818 0.146151 18.8148C0.24264 19.0477 0.384066 19.2594 0.562355 19.4376C0.740644 19.6159 0.952303 19.7574 1.18525 19.8538C1.41819 19.9503 1.66786 20 1.92 20H18.08C18.3321 20 18.5818 19.9503 18.8148 19.8538C19.0477 19.7574 19.2594 19.6159 19.4376 19.4376C19.6159 19.2594 19.7574 19.0477 19.8538 18.8148C19.9503 18.5818 20 18.3321 20 18.08V11.92C20 11.6679 19.9503 11.4182 19.8538 11.1852C19.7574 10.9523 19.6159 10.7406 19.4376 10.5624C19.2594 10.3841 19.0477 10.2426 18.8148 10.1462C18.5818 10.0497 18.3321 10 18.08 10Z" fill="white"/>
<path d="M11.15 1.62006L8 4.26006L8.46 6.00006L13.9 3.00006L11.15 1.62006ZM7.83 1.44006L8.28 0.440059L4.61 0.0600586L3.47 0.290059L4.25 2.77006L7.83 1.44006ZM16.1 1.00006H19L19.69 4.06006L17.9 4.54006L15.79 1.54006L16.1 1.00006ZM2.18 3.00006H0L1 6.00006L3.32 7.00006L2.32 3.30006L2.18 3.00006Z" fill="white"/>
<path d="M5 13L6.5 11.5L7.7 12.7L6.2 14.2L5 13ZM11.3 10.3L12.05 11.05C13.55 12.55 13.8 13.8 12.8 14.8C11.8 15.8 10.55 15.55 9.05 14.05L8.3 13.3L6.8 14.8L7.55 15.55C9.8 17.8 12.39 18.2 14.29 16.3C16.19 14.4 15.79 11.8 13.55 9.55L12.8 8.8L11.3 10.3ZM12.2 8.2L11 7L9.5 8.49L10.7 9.69L12.2 8.2Z" fill="white"/>
</svg>
