<svg width="20" height="20" viewBox="0 0 20 20" fill="none" xmlns="http://www.w3.org/2000/svg">
<path fill-rule="evenodd" clip-rule="evenodd" d="M17.83 0L15.5 2.33L13.17 0L12 1.17L14.33 3.5L12 5.83L13.17 7L15.5 4.67L17.83 7L19 5.83L16.67 3.5L19 1.17L17.83 0Z" fill="white"/>
<path fill-rule="evenodd" clip-rule="evenodd" d="M3 15.37V3.71001C3.03896 2.87121 3.38964 2.07717 3.9834 1.48341C4.57715 0.889658 5.37117 0.538962 6.20996 0.5C7.04976 0.538777 7.84504 0.889128 8.44043 1.48267C9.03582 2.0762 9.38854 2.87033 9.42993 3.71001V13.36H7.82007V3.71001C7.75628 3.32321 7.56141 2.97008 7.26831 2.70975C6.97521 2.44942 6.60158 2.2977 6.20996 2.28C5.81411 2.27998 5.43211 2.42579 5.13696 2.68958C4.84182 2.95336 4.65436 3.31664 4.61011 3.71001V15C4.61011 16.58 6.52006 18 8.56006 18C10.6001 18 12.6399 16.53 12.6399 15V9H14.25V15.44C14.25 17.64 11.7701 19.86 8.56006 19.86C5.38006 19.79 3 17.57 3 15.37Z" fill="white"/>
</svg>
