<svg width="20" height="20" viewBox="0 0 20 20" fill="none" xmlns="http://www.w3.org/2000/svg">
<path d="M6.19995 9.50005L8.09991 13.9L10.4999 14.1L11.9 12.9L9.29993 8.80005L6.19995 9.50005Z" fill="white"/>
<path d="M4.09998 4.89995L4.90002 1.69995L1 1.99995V6.29995L4.09998 4.89995Z" fill="white"/>
<path d="M10.3 8.29995L12.8 12.6L16.0001 11.6V8.69995L11.9001 6.19995L10.3 8.29995Z" fill="white"/>
<path d="M15.9999 7.4L12.3999 5.2L12.6999 4L12.3999 1.2L15.9999 1V7.4Z" fill="white"/>
<path d="M4.20001 6L1 7.4V11.8L4.79999 8.6L4.20001 6Z" fill="white"/>
<path d="M5.19995 5.20005L5.79993 8.40005L9.49994 7.60005L11.2999 5.10005L11.5999 4.10005L11.2999 1.30005L7.69995 1.50005L6.09991 1.70005L5.19995 5.20005Z" fill="white"/>
<path d="M5.5 16.9001L1.59998 14.6001L1 14.8001V18.0001L5.59998 18.3001L5.5 16.9001Z" fill="white"/>
<path d="M16.0001 19L11.6 18.7L11.3 14.9L12.6 13.7L16.0001 12.8V19Z" fill="white"/>
<path d="M5.90015 15.9L7.20013 14.3L5.20013 9.69995L1.6001 12.6L1.90015 13.6L5.90015 15.9Z" fill="white"/>
<path d="M10.2001 15.2L8.00012 15L6.6001 16.8V18.4L10.5001 18.6L10.2001 15.2Z" fill="white"/>
<path opacity="0.5" d="M17.3 12.5L16 11.7V9L17.1 7.8L17.6 10.1L17.3 12.5ZM19 3.9L18.4 3.3L18 5.8L18.2 7.7L19 11V3.9ZM16 1V7.4L16.9 6L17.5 5L17.9 2.8L16 1ZM17.5 17.5L16.9 14.5L17 13.6L16 13V19L17.1 18L17.5 17.5ZM18.2 16.8L18.9 16.1V12.7L18.4 11.3L17.7 14.4L18.2 16.8Z" fill="white"/>
</svg>
