<svg width="20" height="20" viewBox="0 0 20 20" fill="none" xmlns="http://www.w3.org/2000/svg">
<path opacity="0.5" d="M12 7H14V2.32L9 0V7.41C9.97686 7.13829 10.9861 7.00036 12 7V7Z" fill="white"/>
<path d="M9 7.41V0L0 1.75V12.27L2.17993 12.68C3.71268 10.1309 6.14667 8.25013 9 7.41V7.41Z" fill="white"/>
<path d="M12 9C7.58 9 4.62012 13.5 4.62012 13.5C4.62012 13.5 7.62 18 12 18C16.38 18 19.3799 13.5 19.3799 13.5C19.3799 13.5 16.42 9 12 9Z" stroke="white" stroke-miterlimit="10"/>
<path d="M12 16C11.5055 16 11.0222 15.8534 10.6111 15.5787C10.1999 15.304 9.87939 14.9135 9.69017 14.4567C9.50095 13.9999 9.45162 13.4972 9.54808 13.0123C9.64455 12.5273 9.88253 12.0819 10.2322 11.7322C10.5818 11.3826 11.0272 11.1445 11.5122 11.048C11.9971 10.9516 12.5 11.0011 12.9568 11.1903C13.4136 11.3795 13.8039 11.7 14.0786 12.1111C14.3533 12.5222 14.5 13.0055 14.5 13.5C14.5 14.163 14.2367 14.7989 13.7678 15.2678C13.299 15.7366 12.663 16 12 16V16Z" fill="white"/>
</svg>
