<svg width="20" height="20" viewBox="0 0 20 20" fill="none" xmlns="http://www.w3.org/2000/svg">
<path d="M3.40002 6.2L4 6.6L9.19995 14.9L12.3 9.3L12.9 9.6L16 13.7V1L1 1.9V10.9L3.40002 6.2ZM9.5 2.6C10.9 2.5 12 3.7 12 5.3C12 6.8 10.9 8.1 9.5 8.1C8.2 8.1 7.09998 6.9 7.09998 5.4C7.09998 3.9 8.2 2.6 9.5 2.6Z" fill="white"/>
<path d="M9.49991 6.9001C10.2999 6.9001 10.9999 6.1001 10.9999 5.2001C10.9999 4.3001 10.2999 3.6001 9.49991 3.6001C8.69991 3.6001 8.09989 4.4001 8.09989 5.3001C7.99989 6.2001 8.69991 7.0001 9.49991 6.9001Z" fill="white"/>
<path d="M3.80005 8.5L1 13.5V18.1L10 18.6L3.80005 8.5Z" fill="white"/>
<path d="M12.6 11.6001L10.2 16.3001L11.7 18.7001L16 19.0001V16.0001L12.6 11.6001Z" fill="white"/>
<path opacity="0.5" d="M19 13.2L16 13.7V1L19 1.9V13.2ZM16 15.6V19L19 18.1V14.8L16 15.6Z" fill="white"/>
</svg>
