<svg width="20" height="20" viewBox="0 0 20 20" fill="none" xmlns="http://www.w3.org/2000/svg">
<path d="M19.3 15.3L12 9L12.1 18.6L14.2 15.7L16.3 20L17.8 19.3L15.8 15L19.3 15.3Z" fill="white"/>
<path opacity="0.5" d="M8.00005 5.6999L7.50005 6.2999L1.90005 2.1999L2.50005 1.5999L8.00005 5.6999ZM9.30005 6.6999V7.4999L16.8 7.7999V6.9999L9.30005 6.6999ZM1.30005 8.9999L1.60005 9.6999L7.80005 7.6999L7.50005 6.9999L1.30005 8.9999ZM7.80005 13.9999H8.60005L9.20005 7.2999H8.40005L7.80005 13.9999ZM8.90005 6.0999L9.60005 6.3999L12.8 1.5999L12 1.3999L8.90005 6.0999Z" fill="white"/>
<path d="M8.60005 9.29995C9.8703 9.29995 10.9 8.27021 10.9 6.99995C10.9 5.7297 9.8703 4.69995 8.60005 4.69995C7.32979 4.69995 6.30005 5.7297 6.30005 6.99995C6.30005 8.27021 7.32979 9.29995 8.60005 9.29995Z" fill="white"/>
<path d="M2.1 3.39995C2.98366 3.39995 3.7 2.68361 3.7 1.79995C3.7 0.916295 2.98366 0.199951 2.1 0.199951C1.21634 0.199951 0.5 0.916295 0.5 1.79995C0.5 2.68361 1.21634 3.39995 2.1 3.39995Z" fill="white"/>
<path d="M1.6 10.9C2.48366 10.9 3.2 10.1836 3.2 9.29995C3.2 8.4163 2.48366 7.69995 1.6 7.69995C0.716344 7.69995 0 8.4163 0 9.29995C0 10.1836 0.716344 10.9 1.6 10.9Z" fill="white"/>
<path d="M8.1 15.5999C8.98366 15.5999 9.7 14.8836 9.7 13.9999C9.7 13.1162 8.98366 12.3999 8.1 12.3999C7.21634 12.3999 6.5 13.1162 6.5 13.9999C6.5 14.8836 7.21634 15.5999 8.1 15.5999Z" fill="white"/>
<path d="M12.3 3.2C13.1836 3.2 13.9 2.48366 13.9 1.6C13.9 0.716344 13.1836 0 12.3 0C11.4163 0 10.7 0.716344 10.7 1.6C10.7 2.48366 11.4163 3.2 12.3 3.2Z" fill="white"/>
<path d="M16.4 8.89995C17.2837 8.89995 18 8.18361 18 7.29995C18 6.4163 17.2837 5.69995 16.4 5.69995C15.5164 5.69995 14.8 6.4163 14.8 7.29995C14.8 8.18361 15.5164 8.89995 16.4 8.89995Z" fill="white"/>
</svg>
