<svg width="20" height="20" viewBox="0 0 20 20" fill="none" xmlns="http://www.w3.org/2000/svg">
<g clip-path="url(#clip0_9538_27217)">
<path fill-rule="evenodd" clip-rule="evenodd" d="M18.2901 12.2199L19.8502 10.6599C20.015 11.1119 20.047 11.6016 19.9424 12.0712C19.8379 12.5408 19.6011 12.9706 19.2601 13.3099C18.9292 13.6444 18.5102 13.8783 18.0518 13.9845C17.5934 14.0907 17.1143 14.0648 16.67 13.9099L12.3301 18.2599C12.3426 18.4903 12.3062 18.7207 12.2235 18.9361C12.1407 19.1515 12.0136 19.3471 11.8502 19.5099C11.5333 19.8033 11.1152 19.9626 10.6834 19.9543C10.2517 19.9461 9.83983 19.7708 9.53449 19.4655C9.22914 19.1602 9.054 18.7484 9.04572 18.3167C9.03744 17.8849 9.19664 17.4667 9.49005 17.1499C9.65986 16.9822 9.86401 16.8534 10.0884 16.7722C10.3129 16.6911 10.5523 16.6596 10.7901 16.6799L15.1002 12.3699C14.9406 11.9205 14.9113 11.4351 15.0157 10.9698C15.1201 10.5045 15.3538 10.0781 15.69 9.73993C16.0343 9.3935 16.4722 9.15503 16.95 9.05379C17.4278 8.95254 17.9247 8.9929 18.3799 9.16992L16.8101 10.7299C16.6141 10.9283 16.5042 11.196 16.5042 11.4749C16.5042 11.7538 16.6141 12.0215 16.8101 12.2199C16.9038 12.323 17.0181 12.4054 17.1456 12.4618C17.273 12.5182 17.4108 12.5473 17.5501 12.5473C17.6895 12.5473 17.8272 12.5182 17.9547 12.4618C18.0821 12.4054 18.1964 12.323 18.2901 12.2199V12.2199ZM11.23 17.7799C11.0842 17.6354 10.8868 17.5547 10.6815 17.5556C10.4761 17.5566 10.2796 17.6391 10.1351 17.7849C9.99053 17.9308 9.90977 18.1281 9.91071 18.3335C9.91165 18.5388 9.99409 18.7354 10.14 18.8799C10.2108 18.9528 10.2956 19.0107 10.3892 19.0503C10.4828 19.0898 10.5835 19.1102 10.6851 19.1102C10.7867 19.1102 10.8872 19.0898 10.9808 19.0503C11.0744 19.0107 11.1592 18.9528 11.23 18.8799C11.3032 18.8082 11.3613 18.7227 11.4009 18.6282C11.4406 18.5338 11.4612 18.4324 11.4612 18.3299C11.4612 18.2275 11.4406 18.1261 11.4009 18.0316C11.3613 17.9372 11.3032 17.8516 11.23 17.7799Z" fill="white"/>
<path d="M11.98 9.33004L2 0.790039L2.13 13.93L5.04 9.91004L7.87 15.79L9.97 14.79L7.16 8.94004L11.98 9.33004Z" fill="white"/>
</g>
<defs>
<clipPath id="clip0_9538_27217">
<rect width="20" height="20" fill="white"/>
</clipPath>
</defs>
</svg>
