<svg width="20" height="20" viewBox="0 0 20 20" fill="none" xmlns="http://www.w3.org/2000/svg">
<path d="M7.6001 12.7L8.1001 13.9H9.80011L11.1001 12.6L10.8001 11.5L7.6001 12.7Z" fill="white"/>
<path d="M10.4999 10.4L10.2 9.30005L6.19995 9.50005L7.09991 11.5L10.4999 10.4Z" fill="white"/>
<path d="M4.29999 4.79995L5 1.69995L1 1.89995V6.29995L4.29999 4.79995Z" fill="white"/>
<path d="M11.1001 8.9001L12.1001 12.3001L16.0001 11.6001V8.7001L12.6001 6.6001L11.1001 8.9001Z" fill="white"/>
<path d="M13.1001 5.5999L16.0001 7.3999V3.8999L13.3001 4.8999L13.1001 5.5999Z" fill="white"/>
<path d="M4.40002 5.8999L1 7.3999V11.7999L4.90002 8.5999L4.40002 5.8999Z" fill="white"/>
<path d="M10.2 2.90005L9.19995 1.40005L11.2999 1.30005L11.5999 2.00005L10.2 2.90005Z" fill="white"/>
<path d="M10.8999 3.79995L12.0999 5.49995L12.2999 4.49995L11.8999 3.19995L10.8999 3.79995Z" fill="white"/>
<path d="M7.69995 1.5L5.69995 1.9L5.19995 5.2L5.79993 8.4L10.2999 8.2L11.2 6.8L7.69995 1.5Z" fill="white"/>
<path d="M12.8999 2.2L12.3999 1.2L15.9999 1V2.7L15.3999 2.8L12.8999 2.2Z" fill="white"/>
<path d="M14.6 3.3001L13.3 3.8001L13 3.1001L14.6 3.3001Z" fill="white"/>
<path d="M4.00012 16L5.50012 16.9L5.6001 18.3L3.1001 18.2L4.00012 16Z" fill="white"/>
<path d="M2.09998 18.1001H1V14.8001L1.59998 14.6001L3.09998 15.5001L2.09998 18.1001Z" fill="white"/>
<path d="M11.1001 16L11.6001 18.7L16.0001 19V17.8L11.1001 16Z" fill="white"/>
<path d="M13.3999 15.8L15.9999 16.7V12.8L12.8999 13.3L13.3999 15.8Z" fill="white"/>
<path d="M12.1 15.3L10.6 14.8L10.5 14.7L11.9 13.5L12.1 15.3Z" fill="white"/>
<path d="M4.5 15.0999L5.90002 15.8999L7.20001 14.3999L6.79999 13.3999L4.5 15.0999Z" fill="white"/>
<path d="M3.50012 14.5L1.90015 13.6L1.6001 12.6L5.20013 9.69995L6.30011 12.3L3.50012 14.5Z" fill="white"/>
<path d="M8 18.5L6.59998 18.4L6.5 16.8L8 15.1L8.70001 15L8 18.5Z" fill="white"/>
<path d="M9.1001 18.6L10.5001 18.7L9.6001 15L9.1001 18.6Z" fill="white"/>
<path opacity="0.5" d="M17.7 5.1L18.2 2.6L18.9 3.1V6.8L17.7 5.1ZM16.8 7.4L16 8.7V11.6L16.8 12.1L17.6 9.4L16.8 7.4ZM17 5.1L16 3.9V7.3L16.9 6.1L17 5.1ZM17.6 7.5L19 10.7V7.8L17.7 6.3L17.6 7.5ZM17.1 4.2L17.8 2.3L17 1.7L16.8 1.5L16 1V2.7L17.1 4.2ZM18.1 17.5L18.9 16.9V14.1H18.8L17.9 15.5L18.1 17.5ZM16 18V19L17.6 17.8L17.4 16.1L16 18ZM16.6 13.2L16 12.8V16.7L17.2 15.2L16.6 13.2ZM17.7 14.6L19 13.1V12L18.2 10.3L17.3 13L17.7 14.6Z" fill="white"/>
</svg>
