<svg width="20" height="20" viewBox="0 0 20 20" fill="none" xmlns="http://www.w3.org/2000/svg">
<g clip-path="url(#clip0_13081_10833)">
<path d="M10.01 12.3799C11.6503 12.3799 12.98 11.0502 12.98 9.40994C12.98 7.76966 11.6503 6.43994 10.01 6.43994C8.36972 6.43994 7.04001 7.76966 7.04001 9.40994C7.04001 11.0502 8.36972 12.3799 10.01 12.3799Z" fill="white"/>
<path d="M1.71001 4.51999C2.61575 4.51999 3.35001 3.78574 3.35001 2.87999C3.35001 1.97424 2.61575 1.23999 1.71001 1.23999C0.80426 1.23999 0.0700073 1.97424 0.0700073 2.87999C0.0700073 3.78574 0.80426 4.51999 1.71001 4.51999Z" fill="white"/>
<path d="M1.64 14.03C2.54575 14.03 3.28 13.2957 3.28 12.39C3.28 11.4843 2.54575 10.75 1.64 10.75C0.734253 10.75 0 11.4843 0 12.39C0 13.2957 0.734253 14.03 1.64 14.03Z" fill="white"/>
<path d="M8.84999 20C9.75574 20 10.49 19.2657 10.49 18.36C10.49 17.4542 9.75574 16.72 8.84999 16.72C7.94424 16.72 7.20999 17.4542 7.20999 18.36C7.20999 19.2657 7.94424 20 8.84999 20Z" fill="white"/>
<path d="M14.77 3.28C15.6758 3.28 16.41 2.54575 16.41 1.64C16.41 0.734253 15.6758 0 14.77 0C13.8643 0 13.13 0.734253 13.13 1.64C13.13 2.54575 13.8643 3.28 14.77 3.28Z" fill="white"/>
<path d="M18.36 11.28C19.2657 11.28 20 10.5457 20 9.64C20 8.73425 19.2657 8 18.36 8C17.4543 8 16.72 8.73425 16.72 9.64C16.72 10.5457 17.4543 11.28 18.36 11.28Z" fill="white"/>
<path opacity="0.5" d="M1.79999 2.90991L9.94999 9.16991" stroke="white" stroke-width="0.75" stroke-miterlimit="10"/>
<path opacity="0.5" d="M1.79999 12.7299L9.94999 9.16992" stroke="white" stroke-width="0.75" stroke-miterlimit="10"/>
<path opacity="0.5" d="M8.89001 18.5799L9.95001 9.16992" stroke="white" stroke-width="0.75" stroke-miterlimit="10"/>
<path opacity="0.5" d="M18.5 9.5H10" stroke="white" stroke-width="0.75" stroke-miterlimit="10"/>
<path opacity="0.5" d="M14.89 1.81006L9.95001 9.17006" stroke="white" stroke-width="0.75" stroke-miterlimit="10"/>
</g>
<defs>
<clipPath id="clip0_13081_10833">
<rect width="20" height="20" fill="white"/>
</clipPath>
</defs>
</svg>
