<svg width="20" height="20" viewBox="0 0 20 20" fill="none" xmlns="http://www.w3.org/2000/svg">
<path opacity="0.5" d="M16 1L19 3.1V9.8L16 9.7V1ZM16 10.8V19L19 16.9V10.5L16 10.8Z" fill="white"/>
<path d="M5.3999 7.30005L8.8999 6.00005L9.49988 3.80005L3.8999 6.10005L5.3999 7.30005Z" fill="white"/>
<path d="M5.79993 11.5L7.29993 10.2L5.69995 8.80005L5.79993 11.5Z" fill="white"/>
<path d="M8.59985 7.19995L6.3999 8.09995L7.99988 9.39995L8.59985 7.19995Z" fill="white"/>
<path d="M14.1 9.59995L10.4001 4.19995L9.80005 6.29995L12.0001 9.59995H14.1Z" fill="white"/>
<path d="M10.8 2.9L15.3 9.6H16.0001V1L11.2001 1.3L10.8 2.9Z" fill="white"/>
<path d="M8.8999 9.7001L10.7999 9.6001L9.3999 7.6001L8.8999 9.7001Z" fill="white"/>
<path d="M3.49988 13.5L4.8999 12.3L4.79987 8.1L3.3999 7L3.49988 13.5Z" fill="white"/>
<path d="M7.89996 11L6.19995 12.5L8.59991 13.4L7.89996 11Z" fill="white"/>
<path d="M9 14.6L5.29999 13.2L4 14.2999L9.5 16.6L9 14.6Z" fill="white"/>
<path d="M15.4001 10.8L10.8 17.6L11.1 18.7L16.0001 19V10.8H15.4001Z" fill="white"/>
<path d="M1 15.4999L2.59998 14.1999V6.1999L1 4.8999V15.4999Z" fill="white"/>
<path d="M9.90002 17.9L3.09998 15L1 16.8V18.1L10.1 18.6L9.90002 17.9Z" fill="white"/>
<path d="M8.80005 10.7L9.50006 12.9L10.9001 10.7H8.80005Z" fill="white"/>
<path d="M14.1 10.7H12.1L9.80005 14.2L10.4001 16.3L14.1 10.7Z" fill="white"/>
<path d="M3.09998 5.3999L9.79999 2.5999L10.2 1.3999L1 1.8999V3.6999L3.09998 5.3999Z" fill="white"/>
</svg>
