<svg width="20" height="20" viewBox="0 0 20 20" fill="none" xmlns="http://www.w3.org/2000/svg">
<path opacity="0.5" d="M12 7H14V2.32L9 0V7.41C9.97686 7.13829 10.9861 7.00036 12 7V7Z" fill="white"/>
<path d="M9 7.41V0L0 1.75V12.27L2.17993 12.68C3.71268 10.1309 6.14667 8.25013 9 7.41V7.41Z" fill="white"/>
<path d="M18.1201 14.8C18.3901 14.59 18.6499 14.39 18.8899 14.17C19.3566 13.5003 19.7301 12.7703 20 12C19.3424 12.4636 18.6578 12.8877 17.95 13.27C17.3988 13.7701 16.8029 14.2186 16.1699 14.61C14.916 15.4013 13.4721 15.84 11.99 15.88C10.5089 15.842 9.06538 15.4068 7.81006 14.62C7.18523 14.2146 6.59639 13.7562 6.05005 13.25C5.34382 12.8721 4.65936 12.4548 4 12C4.25699 12.7758 4.63144 13.5076 5.11011 14.17C5.34011 14.38 5.59008 14.57 5.83008 14.76L4.15991 16.86L6.59009 15.31C6.76009 15.43 6.9201 15.55 7.1001 15.66C7.51087 15.9095 7.93837 16.1301 8.37988 16.32L7.6499 19.17L9.33008 16.68C10.0316 16.8987 10.7567 17.0329 11.49 17.08L12 20L12.52 17.08C13.2292 17.0356 13.9307 16.9081 14.6101 16.7L16.29 19.16L15.5601 16.33C16.0309 16.1363 16.4855 15.9056 16.9199 15.64L17.3899 15.32L19.78 16.84L18.1201 14.8Z" fill="white"/>
</svg>
