<svg width="20" height="20" viewBox="0 0 20 20" fill="none" xmlns="http://www.w3.org/2000/svg">
<path opacity="0.5" d="M17.5 10C18.3284 10 19 9.32843 19 8.5C19 7.67157 18.3284 7 17.5 7C16.6716 7 16 7.67157 16 8.5C16 9.32843 16.6716 10 17.5 10Z" fill="white"/>
<path opacity="0.5" d="M15.5002 18.3C16.4943 18.3 17.3002 17.4941 17.3002 16.5C17.3002 15.5058 16.4943 14.7 15.5002 14.7C14.5061 14.7 13.7002 15.5058 13.7002 16.5C13.7002 17.4941 14.5061 18.3 15.5002 18.3Z" fill="white"/>
<path opacity="0.5" d="M10.5002 18.3C11.4943 18.3 12.3002 17.4941 12.3002 16.5C12.3002 15.5058 11.4943 14.7 10.5002 14.7C9.50608 14.7 8.7002 15.5058 8.7002 16.5C8.7002 17.4941 9.50608 18.3 10.5002 18.3Z" fill="white"/>
<path opacity="0.5" d="M4.5002 10.2999C5.49431 10.2999 6.3002 9.49406 6.3002 8.49995C6.3002 7.50584 5.49431 6.69995 4.5002 6.69995C3.50608 6.69995 2.7002 7.50584 2.7002 8.49995C2.7002 9.49406 3.50608 10.2999 4.5002 10.2999Z" fill="white"/>
<path opacity="0.5" d="M9.5002 10.2999C10.4943 10.2999 11.3002 9.49406 11.3002 8.49995C11.3002 7.50584 10.4943 6.69995 9.5002 6.69995C8.50608 6.69995 7.7002 7.50584 7.7002 8.49995C7.7002 9.49406 8.50608 10.2999 9.5002 10.2999Z" fill="white"/>
<path opacity="0.5" d="M12.5 4C13.3284 4 14 3.32843 14 2.5C14 1.67157 13.3284 1 12.5 1C11.6716 1 11 1.67157 11 2.5C11 3.32843 11.6716 4 12.5 4Z" fill="white"/>
<path d="M13 6V11H1V6H13ZM13 5H1C0.734784 5 0.480505 5.10537 0.292969 5.29291C0.105432 5.48044 0 5.73478 0 6V11C0 11.2652 0.105432 11.5196 0.292969 11.7071C0.480505 11.8946 0.734784 12 1 12H13C13.2652 12 13.5195 11.8946 13.707 11.7071C13.8946 11.5196 14 11.2652 14 11V6C14 5.73478 13.8946 5.48044 13.707 5.29291C13.5195 5.10537 13.2652 5 13 5Z" fill="white"/>
<path d="M19 14V19H7V14H19ZM19 13H7C6.73478 13 6.48051 13.1054 6.29297 13.2929C6.10543 13.4804 6 13.7348 6 14V19C6 19.2652 6.10543 19.5196 6.29297 19.7071C6.48051 19.8946 6.73478 20 7 20H19C19.2652 20 19.5195 19.8946 19.707 19.7071C19.8946 19.5196 20 19.2652 20 19V14C20 13.7348 19.8946 13.4804 19.707 13.2929C19.5195 13.1054 19.2652 13 19 13Z" fill="white"/>
</svg>
