<svg width="20" height="20" viewBox="0 0 20 20" fill="none" xmlns="http://www.w3.org/2000/svg">
<path d="M10.3999 12.5001L5.8999 12.4001V7.7001L10.3999 7.6001V12.5001Z" fill="white"/>
<path d="M10.3999 6.4999L5.8999 6.6999V1.5999L10.3999 1.3999V6.4999Z" fill="white"/>
<path d="M5.20001 6.69995L1 6.79995V1.99995L5.20001 1.69995V6.69995Z" fill="white"/>
<path d="M5.20001 18.2999L1 18V13.2L5.20001 13.2999V18.2999Z" fill="white"/>
<path d="M16.0001 12.6L11.1001 12.5V7.6L16.0001 7.5V12.6Z" fill="white"/>
<path d="M16.0001 6.4L11.1001 6.5V1.3L16.0001 1V6.4Z" fill="white"/>
<path d="M16.0001 19L11.1001 18.7V13.5L16.0001 13.6V19Z" fill="white"/>
<path d="M5.20001 12.4L1 12.3V7.79995L5.20001 7.69995V12.4Z" fill="white"/>
<path d="M10.3999 18.6L5.8999 18.4V13.3L10.3999 13.5V18.6Z" fill="white"/>
<path opacity="0.5" d="M16 12.7V7.3L17.4 7.5V12.4L16 12.7ZM17.3 6.9V2L16 1V6.4L17.3 6.9ZM18.3 12.2L18.9 12V7.9L18.3 7.7H18.1V12.2H18.3ZM18.3 7.1L18.9 7.2V3.1L18.3 2.6L18.1 2.4V7L18.3 7.1ZM18.3 17.3L18.9 16.9V12.8L18.3 12.9L18.1 13.1V17.6L18.3 17.3ZM17.4 18.1V13.2L16 13.6V19L17.4 18.1Z" fill="white"/>
</svg>
