<svg width="20" height="20" viewBox="0 0 20 20" fill="none" xmlns="http://www.w3.org/2000/svg">
<g clip-path="url(#clip0)">
<path opacity="0.5" d="M14 15.44V20L17 18.24V14.5C16.0672 14.9974 15.0498 15.3162 14 15.44Z" fill="white"/>
<path d="M13 15.5C10.7465 15.4973 8.586 14.6009 6.99252 13.0074C5.39903 11.4139 4.50265 9.25348 4.5 6.99995C4.50329 6.22242 4.61092 5.44885 4.82 4.69995L1 4.99995V19L14 20V15.44C13.67 15.47 13.34 15.5 13 15.5Z" fill="white"/>
<path opacity="0.5" d="M14 13.92C15.0782 13.7654 16.1054 13.3614 17 12.74V5.74L14 4V13.92Z" fill="white"/>
<path d="M6 7C6 8.85652 6.7375 10.637 8.05025 11.9497C9.36301 13.2625 11.1435 14 13 14C13.3349 13.9986 13.6692 13.9719 14 13.92V4L6.44 4.57C6.15048 5.34752 6.0015 6.17033 6 7Z" fill="white"/>
<path opacity="0.5" d="M14.4499 3.00005L17.9999 5.08005V11.8901C18.7015 11.1788 19.2427 10.3256 19.5871 9.38786C19.9316 8.45009 20.0713 7.44945 19.9969 6.4532C19.9225 5.45694 19.6358 4.48815 19.1559 3.61192C18.676 2.7357 18.0141 1.97234 17.2147 1.37315C16.4153 0.773968 15.4969 0.352833 14.5213 0.138052C13.5456 -0.0767295 12.5353 -0.0801811 11.5581 0.127929C10.581 0.336039 9.65978 0.750889 8.85631 1.3446C8.05284 1.93831 7.38576 2.69713 6.8999 3.57005L14.4499 3.00005Z" fill="white"/>
</g>
<defs>
<clipPath id="clip0">
<rect width="20" height="20" fill="white"/>
</clipPath>
</defs>
</svg>
