<svg width="20" height="20" viewBox="0 0 20 20" fill="none" xmlns="http://www.w3.org/2000/svg">
<g clip-path="url(#clip0)">
<path d="M10 13.3L0 4.80005L0.1 17.9L3 13.9L5.9 19.8L8 18.8L5.2 12.9L10 13.3Z" fill="white"/>
<path d="M13.1 1.5L16 7.4L19 3.4V16.5L9 8L13.8 8.4L11 2.5L13.1 1.5ZM13.1 0.5C13 0.5 12.8 0.5 12.7 0.6L10.6 1.6C10.4 1.7 10.2 1.9 10.1 2.2C10 2.5 10 2.7 10.1 3L12.2 7.3L9.1 7H9C8.6 7 8.3 7.2 8.1 7.6C7.9 8 8 8.4 8.4 8.7L18.4 17.2C18.6 17.4 18.8 17.4 19.1 17.4C19.2 17.4 19.4 17.4 19.5 17.3C19.9 17.1 20.1 16.8 20.1 16.4V3.4C20.1 3 19.8 2.6 19.4 2.5C19.3 2.5 19.2 2.4 19.1 2.4C18.8 2.4 18.5 2.5 18.3 2.8L16.2 5.5L14 1.1C13.9 0.7 13.5 0.5 13.1 0.5Z" fill="white"/>
</g>
<defs>
<clipPath id="clip0">
<rect width="20" height="20" fill="white"/>
</clipPath>
</defs>
</svg>
