<svg width="20" height="20" viewBox="0 0 20 20" fill="none" xmlns="http://www.w3.org/2000/svg">
<path opacity="0.5" d="M9.5 4C10.3284 4 11 3.32843 11 2.5C11 1.67157 10.3284 1 9.5 1C8.67157 1 8 1.67157 8 2.5C8 3.32843 8.67157 4 9.5 4Z" fill="white"/>
<path d="M15.5 18.5C16.6046 18.5 17.5 17.6046 17.5 16.5C17.5 15.3954 16.6046 14.5 15.5 14.5C14.3954 14.5 13.5 15.3954 13.5 16.5C13.5 17.6046 14.3954 18.5 15.5 18.5Z" fill="white"/>
<path d="M15.5 11.5C16.6046 11.5 17.5 10.6046 17.5 9.5C17.5 8.39543 16.6046 7.5 15.5 7.5C14.3954 7.5 13.5 8.39543 13.5 9.5C13.5 10.6046 14.3954 11.5 15.5 11.5Z" fill="white"/>
<path d="M9.5 18.5C10.6046 18.5 11.5 17.6046 11.5 16.5C11.5 15.3954 10.6046 14.5 9.5 14.5C8.39543 14.5 7.5 15.3954 7.5 16.5C7.5 17.6046 8.39543 18.5 9.5 18.5Z" fill="white"/>
<path d="M3.5 11.5C4.60457 11.5 5.5 10.6046 5.5 9.5C5.5 8.39543 4.60457 7.5 3.5 7.5C2.39543 7.5 1.5 8.39543 1.5 9.5C1.5 10.6046 2.39543 11.5 3.5 11.5Z" fill="white"/>
<path d="M9.5 11.5C10.6046 11.5 11.5 10.6046 11.5 9.5C11.5 8.39543 10.6046 7.5 9.5 7.5C8.39543 7.5 7.5 8.39543 7.5 9.5C7.5 10.6046 8.39543 11.5 9.5 11.5Z" fill="white"/>
<path d="M3.5 18.5C4.60457 18.5 5.5 17.6046 5.5 16.5C5.5 15.3954 4.60457 14.5 3.5 14.5C2.39543 14.5 1.5 15.3954 1.5 16.5C1.5 17.6046 2.39543 18.5 3.5 18.5Z" fill="white"/>
</svg>
