<svg width="20" height="20" viewBox="0 0 20 20" fill="none" xmlns="http://www.w3.org/2000/svg">
<path d="M12.5001 1.6001L15.2001 7.2001L18.0001 3.4001V15.8001L8.6001 7.7001L13.2001 8.1001L10.5001 2.6001L12.5001 1.6001ZM12.5001 0.600098C12.4001 0.600098 12.2001 0.600098 12.1001 0.700098L10.1001 1.7001C9.9001 1.8001 9.7001 2.0001 9.6001 2.3001C9.5001 2.6001 9.5001 2.8001 9.6001 3.1001L11.5001 7.0001L8.7001 6.8001H8.6001C8.2001 6.8001 7.8001 7.0001 7.7001 7.4001C7.5001 7.8001 7.6001 8.3001 8.0001 8.5001L17.4001 16.6001C17.6001 16.8001 17.8001 16.8001 18.1001 16.8001C18.2001 16.8001 18.4001 16.8001 18.5001 16.7001C18.9001 16.5001 19.1001 16.2001 19.1001 15.8001V3.4001C19.1001 3.0001 18.8001 2.6001 18.4001 2.5001C18.3001 2.5001 18.2001 2.4001 18.1001 2.4001C17.8001 2.4001 17.5001 2.5001 17.3001 2.8001L15.4001 5.3001L13.4001 1.2001C13.2001 0.800098 12.8001 0.600098 12.5001 0.600098Z" fill="white"/>
<path opacity="0.5" d="M5.70005 9.3001L14 16.3001V18.0001L3.30005 9.0001H5.70005V9.3001ZM6.20005 3.6001C6.10005 3.7001 5.90005 3.8001 5.90005 4.0001C5.90005 4.2001 5.90005 4.3001 5.90005 4.5001L6.90005 6.5001L8.20005 6.0001H8.50005L7.30005 3.1001L6.20005 3.6001Z" fill="white"/>
<path opacity="0.5" d="M3.20005 5.2999L4.10005 4.8999L5.20005 7.6999H4.90005L3.80005 7.9999L2.90005 6.0999C2.80005 5.9999 2.80005 5.7999 2.90005 5.5999C2.90005 5.4999 3.10005 5.3999 3.20005 5.2999ZM0.300049 10.5999L11 19.6999V18.2999L2.40005 10.9999V10.5999H0.300049Z" fill="white"/>
</svg>
