<svg width="20" height="20" viewBox="0 0 20 20" fill="none" xmlns="http://www.w3.org/2000/svg">
<path d="M12.9 9.8999H7V6.0999L12.9 5.8999V9.8999Z" fill="white"/>
<path d="M9.00012 4.8999L3.6001 5.0999V1.6999L9.00012 1.3999V4.8999Z" fill="white"/>
<path d="M3 5.10005L1 5.20005V1.90005L3 1.80005V5.10005Z" fill="white"/>
<path d="M3 14.3L1 14.2V10.8H3V14.3Z" fill="white"/>
<path d="M16.0001 9.80005H13.8V5.90005L16.0001 5.80005V9.80005Z" fill="white"/>
<path d="M15.9999 4.7L9.8999 4.9V1.4L15.9999 1V4.7Z" fill="white"/>
<path d="M15.9999 14.6L9.8999 14.4V10.8H15.9999V14.6Z" fill="white"/>
<path d="M6.09998 9.9H1V6.2L6.09998 6V9.9Z" fill="white"/>
<path d="M12.9 18.8L7 18.5V15.3L12.9 15.5V18.8Z" fill="white"/>
<path d="M16.0001 19L13.8 18.9V15.5L16.0001 15.6V19Z" fill="white"/>
<path d="M6.09998 18.4L1 18.1V15.2L6.09998 15.2999V18.4Z" fill="white"/>
<path d="M9.00012 14.4L3.6001 14.3V10.8H9.00012V14.4Z" fill="white"/>
<path opacity="0.5" d="M17.6 10.8V14.2L16 14.6V10.8H17.6ZM18.9 13.8V10.7H18V14L18.9 13.8ZM16 5.8V9.8L17.6 9.9V6.2L16 5.8ZM18.9 10V6.5L18 6.3V9.9L18.9 10ZM16 1V4.7L17.6 5.3V1.9L16 1ZM18.9 5.8V2.7L18 2.2V5.5L18.9 5.8ZM16 15.6V19L17.6 18.1V15.1L16 15.6ZM18.9 17.3V14.6L18 14.9V17.8L18.9 17.3Z" fill="white"/>
</svg>
