<svg width="20" height="20" viewBox="0 0 20 20" fill="none" xmlns="http://www.w3.org/2000/svg">
<g clip-path="url(#clip0_11458_8651)">
<path d="M19.6699 6.21002L13.8301 0.210022C13.756 0.128429 13.6657 0.0632191 13.5649 0.0186005C13.4642 -0.0260181 13.3553 -0.0490723 13.2451 -0.0490723C13.1349 -0.0490723 13.0258 -0.0260181 12.925 0.0186005C12.8243 0.0632191 12.734 0.128429 12.6599 0.210022L5.79004 7.08002C4.94398 7.78133 4.24689 8.64497 3.73999 9.62001L3.61011 10.22C3.61008 10.6665 3.70958 11.1074 3.90161 11.5105C4.09364 11.9136 4.37322 12.2687 4.71997 12.55V12.55L7.42993 15.26L7.48999 15.2C9.76999 17.48 11.4399 15.57 12.8999 14.1L16.8301 10.18L17.4299 9.58002L19.6599 7.35002C19.7587 7.17662 19.8115 6.98084 19.8132 6.78131C19.815 6.58178 19.7656 6.38512 19.6699 6.21002V6.21002ZM18.1101 7.21002L16.3 9.01001H5.8501C5.8501 9.01001 6.61 8.18001 7 7.79001L13 1.79001L18.1399 7.02002L18.1101 7.21002Z" fill="white"/>
<path opacity="0.5" d="M2.6001 15C1.4201 16.19 0 20 0 20C0 20 4.00005 18.51 5.05005 17.47L6.48999 16.03L4.01001 13.55L2.6001 15Z" fill="white"/>
</g>
<defs>
<clipPath id="clip0_11458_8651">
<rect width="20" height="20" fill="white"/>
</clipPath>
</defs>
</svg>
