<svg xmlns="http://www.w3.org/2000/svg" viewBox="0 0 20 20"><defs><style>.cls-1,.cls-2,.cls-3{fill:#fff;}.cls-2{opacity:0.5;}.cls-3{fill-rule:evenodd;}.cls-4{fill:none;}</style></defs><g id="Layer_2" data-name="Layer 2"><g id="Layer_6" data-name="Layer 6"><g id="FractureReset"><polygon class="cls-1" points="18 15.85 18 14.26 15.88 13.13 14.96 14.37 12.83 14.7 13.74 16.98 15.08 17.03 15.79 16.35 18 15.85"/><polygon class="cls-1" points="10 10.54 11.9 10.41 11.33 12.37 11.79 14.21 10 15.28 10 10.54"/><polygon class="cls-1" points="18 13.36 16.33 12.39 16.42 11.55 16.1 10.13 18 10 18 13.36"/><polygon class="cls-1" points="12.26 12.32 12.63 13.92 14.52 13.65 15.48 12.25 15.58 11.57 15.27 10.18 12.71 10.36 12.26 12.32"/><polygon class="cls-1" points="12.15 19.51 10 19.36 10 16.27 12.1 15.04 12.96 17.14 12.23 18.17 12.15 19.51"/><polygon class="cls-1" points="18 19.9 18 16.81 16.23 17.18 15.35 17.92 13.54 17.75 13.04 18.46 12.96 19.56 18 19.9"/><path class="cls-2" d="M18.85,16.3,18,15.85V14.33l.77-.58L19.1,15ZM20,11.6l-.43-.34-.25,1.4.13,1.07L20,15.52ZM18,10v3.36l.59-.61.39-.53L19.24,11Zm1,9.06-.42-1.67.06-.49-.67,0v3l.71-.57Zm.47-.36.5-.4V16.42l-.33-.79-.49,1.69Z"/><polygon class="cls-1" points="7 0 0 1.5 0 9.5 7 10 7 0"/><polygon class="cls-2" points="10 9 7 10 7 0 10 2 10 9"/><path class="cls-3" d="M14,2.5c4,0,6,2,6,7-1-4-2-5-6-5v2l-4-3,4-3Z"/><rect class="cls-4" width="20" height="20"/></g></g></g></svg>