<svg width="20" height="20" viewBox="0 0 20 20" fill="none" xmlns="http://www.w3.org/2000/svg">
<path d="M15 7L20 7V2L15 2V7Z" fill="white"/>
<path opacity="0.5" d="M18 0V1H14V5H13V0H18Z" fill="white"/>
<path fill-rule="evenodd" clip-rule="evenodd" d="M14 15.6099V10.4299C14 10.0321 14.158 9.65058 14.4393 9.36927C14.7206 9.08797 15.1022 8.92993 15.5 8.92993C15.8978 8.92993 16.2794 9.08797 16.5607 9.36927C16.842 9.65058 17 10.0321 17 10.4299V14.9999H16V10.7499C16 10.6173 15.9473 10.4901 15.8536 10.3964C15.7598 10.3026 15.6326 10.2499 15.5 10.2499C15.3674 10.2499 15.2402 10.3026 15.1464 10.3964C15.0527 10.4901 15 10.6173 15 10.7499V15.4299C15.0076 15.6178 15.0527 15.8023 15.1327 15.9725C15.2126 16.1427 15.3258 16.2951 15.4656 16.4209C15.6054 16.5467 15.7689 16.6433 15.9465 16.7049C16.1242 16.7666 16.3124 16.7921 16.5 16.7799C16.6876 16.7921 16.8758 16.7666 17.0535 16.7049C17.2311 16.6433 17.3946 16.5467 17.5344 16.4209C17.6742 16.2951 17.7874 16.1427 17.8673 15.9725C17.9473 15.8023 17.9924 15.6178 18 15.4299V11.9999H19V15.6099C18.9366 16.2409 18.6498 16.8285 18.1915 17.2667C17.7331 17.7049 17.1332 17.965 16.5 17.9999C15.8655 17.969 15.2633 17.7103 14.8041 17.2713C14.3449 16.8323 14.0594 16.2424 14 15.6099Z" fill="white"/>
<path d="M7 9L1 10.25V17.76L7 19V9Z" fill="white"/>
<path opacity="0.5" d="M11 17.13L7 19V9L11 10.66V17.13Z" fill="white"/>
<path opacity="0.5" d="M3.56 8L3 7.44L4.44 6L5 6.56L3.56 8ZM6.56 5L6 4.44L7.44 3L8 3.56L6.56 5ZM9.56 2L9 1.44L10.44 0L11 0.56L9.56 2Z" fill="white"/>
</svg>
