<svg width="20" height="20" viewBox="0 0 20 20" fill="none" xmlns="http://www.w3.org/2000/svg">
<path fill-rule="evenodd" clip-rule="evenodd" d="M3.21997 4.31999C3.02126 4.61623 2.7443 4.85161 2.41992 4.99999C1.61585 4.85156 0.860502 4.5082 0.219966 3.99999C0.365128 3.54463 0.602628 3.12405 0.917475 2.76447C1.23232 2.40489 1.61784 2.11403 2.05004 1.91C3.00004 2.08 3.08997 3.85999 3.21997 4.31999ZM2.92993 9.91C2.35303 9.59608 1.68917 9.48015 1.04003 9.57999C0.719493 9.88094 0.46512 10.2453 0.292964 10.6498C0.120808 11.0544 0.0346341 11.4904 0.0400339 11.93C0.961919 12.1019 1.91257 12.033 2.80004 11.73C3.04313 11.1543 3.08872 10.5144 2.92993 9.91V9.91ZM4.92993 5.91C4.39993 6.17 3.46998 6.59999 3.48998 7.01999C4.29385 7.68629 5.28037 8.09412 6.32006 8.18999C6.92006 7.65999 7.68994 6.76 7.43994 6.41C6.64125 6.10317 5.79535 5.93737 4.93994 5.91999L4.92993 5.91ZM6.85009 10.24C6.69039 10.6304 6.56969 11.0357 6.48998 11.45C6.75998 11.85 6.78 13.01 7.26 13.24C7.77758 13.0161 8.22467 12.6561 8.55395 12.1982C8.88323 11.7404 9.08225 11.2019 9.12988 10.64C8.40471 10.3675 7.63463 10.2352 6.8601 10.25L6.85009 10.24ZM7.28002 0.23999C6.82002 0.57999 6.65998 1.70999 6.48998 2.30999C6.58566 2.57587 6.73951 2.81707 6.94018 3.01601C7.14085 3.21495 7.3832 3.36663 7.6499 3.45999C8.3199 3.17999 9.31999 2.80999 9.48999 2.32999C9.49999 1.69999 8.00003 0.609992 7.29003 0.249992L7.28002 0.23999Z" fill="white"/>
<path d="M2 17V15H11V12.5L16 16L11 19.5V17H2Z" fill="white"/>
<path fill-rule="evenodd" clip-rule="evenodd" d="M18.26 0.499884C20.35 4.17988 19.5101 10.4999 17.8701 13.4999C16.1801 13.7999 14.1099 9.91989 12.6799 9.18989C12.2999 7.28989 11.68 6.41988 11.5 4.27988C13.15 2.79988 16.88 0.479884 18.26 0.499884Z" fill="white"/>
</svg>
