<svg width="20" height="20" viewBox="0 0 20 20" fill="none" xmlns="http://www.w3.org/2000/svg">
<path opacity="0.5" d="M16.5 10C17.3284 10 18 9.32843 18 8.5C18 7.67157 17.3284 7 16.5 7C15.6716 7 15 7.67157 15 8.5C15 9.32843 15.6716 10 16.5 10Z" fill="white"/>
<path opacity="0.5" d="M10.5 4C11.3284 4 12 3.32843 12 2.5C12 1.67157 11.3284 1 10.5 1C9.67157 1 9 1.67157 9 2.5C9 3.32843 9.67157 4 10.5 4Z" fill="white"/>
<path opacity="0.5" d="M10.5 10C11.3284 10 12 9.32843 12 8.5C12 7.67157 11.3284 7 10.5 7C9.67157 7 9 7.67157 9 8.5C9 9.32843 9.67157 10 10.5 10Z" fill="white"/>
<path d="M4.5 10.5C5.60457 10.5 6.5 9.60457 6.5 8.5C6.5 7.39543 5.60457 6.5 4.5 6.5C3.39543 6.5 2.5 7.39543 2.5 8.5C2.5 9.60457 3.39543 10.5 4.5 10.5Z" fill="white"/>
<path d="M10.5 17.5C11.6046 17.5 12.5 16.6046 12.5 15.5C12.5 14.3954 11.6046 13.5 10.5 13.5C9.39543 13.5 8.5 14.3954 8.5 15.5C8.5 16.6046 9.39543 17.5 10.5 17.5Z" fill="white"/>
<path d="M16.5 17.5C17.6046 17.5 18.5 16.6046 18.5 15.5C18.5 14.3954 17.6046 13.5 16.5 13.5C15.3954 13.5 14.5 14.3954 14.5 15.5C14.5 16.6046 15.3954 17.5 16.5 17.5Z" fill="white"/>
</svg>
