<svg width="20" height="20" viewBox="0 0 20 20" fill="none" xmlns="http://www.w3.org/2000/svg">
<path opacity="0.5" d="M18 1H2C0.9 1 0 1.9 0 3V9C0 10.1 0.9 11 2 11H11V10H2C1.5 10 1 9.6 1 9V3C1 2.5 1.4 2 2 2H18C18.5 2 19 2.4 19 3V9C19 9.5 18.6 10 18 10H17.4L18.6 10.9C19.4 10.7 20 9.9 20 9V3C20 1.9 19.1 1 18 1Z" fill="white"/>
<path d="M7.5 6.6L6.7 4.1L6.9 4H12.7L7.5 6.6ZM13.8 4.6L15.9 7.6L17 7.5V4H14.1L13.8 4.6ZM13 5.4L8.1 7.9L8.2 8H14.6L13 5.4ZM5.2 4H3V8H6.3L5.3 4.3L5.2 4Z" fill="white"/>
<path d="M20 15.3L13 9.30005L13.1 18.5L15.1 15.7L17.1 19.8L18.6 19.1L16.6 15L20 15.3Z" fill="white"/>
</svg>
