<svg width="20" height="20" viewBox="0 0 20 20" fill="none" xmlns="http://www.w3.org/2000/svg">
<path opacity="0.5" d="M16 17V12H12V8H8V4H3C1.9 4 1 4.9 1 6V17C1 18.1 1.9 19 3 19H14C15.1 19 16 18.1 16 17Z" fill="white"/>
<path d="M16 17V12H15V17C15 17.5 14.6 18 14 18H3C2.5 18 2 17.6 2 17V6C2 5.5 2.4 5 3 5H8V4H3C1.9 4 1 4.9 1 6V17C1 18.1 1.9 19 3 19H14C15.1 19 16 18.1 16 17Z" fill="white"/>
<path fill-rule="evenodd" clip-rule="evenodd" d="M20 4H16V0H14V4H10V6H14V10H16V6H20V4Z" fill="white"/>
</svg>
