<svg width="20" height="20" viewBox="0 0 20 20" fill="none" xmlns="http://www.w3.org/2000/svg">
<path fill-rule="evenodd" clip-rule="evenodd" d="M13 16.25V9C13.0243 8.47741 13.2429 7.98273 13.6128 7.6128C13.9827 7.24287 14.4774 7.02435 15 7C15.5226 7.02435 16.0173 7.24287 16.3872 7.6128C16.7571 7.98273 16.9757 8.47741 17 9V15H16V9C15.9629 8.75847 15.8428 8.53743 15.6602 8.37497C15.4777 8.21251 15.2442 8.11881 15 8.11C14.7528 8.1085 14.5138 8.19863 14.3291 8.36298C14.1444 8.52734 14.0272 8.75428 14 9V16C14 17 15.19 17.9 16.46 17.9C17.73 17.9 19 17 19 16V11H20V16.25C20 17.62 18.46 19 16.46 19C14.48 19 13 17.62 13 16.25Z" fill="white"/>
<path opacity="0.5" d="M12 14V8.5C12 7.83696 12.2634 7.20107 12.7322 6.73223C13.2011 6.26339 13.837 6 14.5 6H15V3.32L10 1V15L12 14Z" fill="white"/>
<path d="M10 1L1 2.75V13.27L10 15V1Z" fill="white"/>
</svg>
