<svg width="20" height="20" viewBox="0 0 20 20" fill="none" xmlns="http://www.w3.org/2000/svg">
<path d="M5.17993 1.46997C5.17993 1.46997 6.91006 5.67997 6.06006 8.46997C5.11006 11.55 1.53003 14.27 1.53003 14.27L18 11.1L5.17993 1.46997Z" fill="white"/>
<path opacity="0.5" d="M5.17993 1.46997C5.17993 1.46997 9.18006 4.09997 11.8101 4.37997C13.4316 4.53647 15.0649 4.24233 16.53 3.52997C16.1694 4.01256 15.9136 4.56524 15.7793 5.1525C15.645 5.73976 15.6351 6.34861 15.75 6.93997C16.1794 8.46853 16.9485 9.88034 18 11.07L5.17993 1.46997Z" fill="white"/>
<path opacity="0.5" d="M12.3501 18.5901C11.6988 16.9625 10.4603 15.6386 8.87988 14.8801C6.35988 13.8101 1.53003 14.2401 1.53003 14.2401L18 11.0701C18 11.0701 14.8499 11.7601 13.4399 13.8801C12.5067 15.2613 12.1185 16.9393 12.3501 18.5901V18.5901Z" fill="white"/>
<path d="M0.670044 14.4399L4.58004 0.649902L17.5 2.4999L19.33 11.4999L12.33 19.3299L0.670044 14.4399Z" stroke="white" stroke-miterlimit="10"/>
</svg>
