<svg width="20" height="20" viewBox="0 0 20 20" fill="none" xmlns="http://www.w3.org/2000/svg">
<g clip-path="url(#clip0)">
<path d="M2.99989 8H7.99989V7H2.99989V5L0.139893 7.5L2.99989 10V8Z" fill="white"/>
<path d="M17.63 1.67L12.26 7.03L12.97 7.74L18.33 2.37L19.75 3.79L20 0L16.21 0.25L17.63 1.67Z" fill="white"/>
<path d="M20 15V11L18.34 12.66C17.7362 12.0486 16.9516 11.6479 16.1023 11.5172C15.253 11.3865 14.3842 11.5328 13.6246 11.9343C12.8649 12.3359 12.2547 12.9714 11.8844 13.7468C11.5141 14.5222 11.4033 15.3962 11.5685 16.2395C11.7336 17.0827 12.1659 17.8504 12.8014 18.4288C13.4369 19.0072 14.2417 19.3656 15.0967 19.4509C15.9517 19.5362 16.8115 19.3439 17.5487 18.9025C18.286 18.4611 18.8615 17.794 19.19 17H18.19C17.9237 17.4814 17.535 17.8838 17.063 18.1665C16.5911 18.4492 16.0528 18.6021 15.5027 18.6097C14.9527 18.6173 14.4104 18.4793 13.9308 18.2097C13.4513 17.9401 13.0516 17.5486 12.7721 17.0747C12.4927 16.6008 12.3436 16.0615 12.3398 15.5114C12.336 14.9613 12.4778 14.4199 12.7507 13.9423C13.0236 13.4646 13.4179 13.0676 13.8937 12.7915C14.3695 12.5154 14.9099 12.37 15.46 12.37C15.8648 12.3689 16.2657 12.4478 16.6399 12.6023C17.014 12.7568 17.3539 12.9837 17.64 13.27L16 15H20Z" fill="white"/>
<path opacity="0.5" d="M9.8 13C9.94862 12.6427 10.1436 12.3064 10.38 12H6V1C7.89802 1.0853 9.73875 1.67633 11.3317 2.71189C12.9246 3.74746 14.2118 5.18993 15.06 6.89C15.5901 7.88101 16.0189 8.92295 16.34 10H17.39C16.27 6.16 13.2 0 5 0V13H9.8Z" fill="white"/>
</g>
<defs>
<clipPath id="clip0">
<rect width="20" height="20" fill="white"/>
</clipPath>
</defs>
</svg>
