<svg width="20" height="20" viewBox="0 0 20 20" fill="none" xmlns="http://www.w3.org/2000/svg">
<path opacity="0.5" fill-rule="evenodd" clip-rule="evenodd" d="M11 0L12.87 1.31L12.48 2.91L11.88 3.61L11.31 4.25L11 4.39V0ZM13 3.5L13.06 3.93C13.3748 3.92368 13.6896 3.94712 14 4V2.11L13.36 1.66L13 3.5Z" fill="white"/>
<path fill-rule="evenodd" clip-rule="evenodd" d="M6.74 12.33L6.39 12.53L3.88 12.27V11.18L4.88 10L6.53 10.13L6.74 12.33ZM7.37 9.94L7.54 11.94L10.12 10.52C9.80941 10.0235 9.56406 9.48914 9.39 8.93L8.34 9.17L7.37 9.94ZM7.6 2.3L7.39 0.37L4.69 0.65L3.54 0.78L2.93 3.24L3.33 5.38L6 4.85L7.36 3.05L7.6 2.3ZM10.07 5.08L7.8 3.82L6.63 5.34L8.55 8.34L9.21 8.16C9.10377 7.63283 9.11974 7.08832 9.25668 6.56828C9.39363 6.04823 9.6479 5.56648 10 5.16C10.0202 5.13072 10.0437 5.10387 10.07 5.08ZM8.45 2.21L8.21 3.08L10.81 4.49L11 4.39V0L8.23 0.28L8.45 2.21ZM2.73 0.85L0 1.13V4L2.17 3L2.73 0.85ZM3.13 11.2L0.37 9.56L0 9.73V11.87L3.19 12.2L3.13 11.2ZM5 9.21L6.8 9.39L7.8 8.52L5.91 5.66L3.6 6.13L5 9.21ZM2.21 3.81L0 4.77V7.69L2.66 5.54L2.21 3.81ZM0.6 8.9L3.41 10.53L4.32 9.53L2.9 6.26L0.4 8.26L0.6 8.9Z" fill="white"/>
<path fill-rule="evenodd" clip-rule="evenodd" d="M11.6899 12.3001C10.0708 12.9161 8.50268 13.6584 6.9999 14.5201C6.6558 14.7191 6.35764 14.9885 6.12499 15.3108C5.89233 15.6331 5.73043 16.0009 5.6499 16.3901C5.6499 16.3901 8.4299 15.0001 10.9999 14.0001L11.6899 12.3001ZM13.4899 10.0001C13.7299 9.33012 14.7399 9.31012 15.0099 8.09012C15.0342 7.82682 15.0064 7.56131 14.9281 7.30876C14.8498 7.0562 14.7225 6.82154 14.5535 6.61818C14.3845 6.41482 14.1771 6.24674 13.9431 6.12354C13.7091 6.00033 13.4532 5.92441 13.1899 5.90012C12.9266 5.87582 12.6611 5.90363 12.4085 5.98194C12.156 6.06026 11.9213 6.18755 11.718 6.35655C11.5146 6.52556 11.3465 6.73296 11.2233 6.96692C11.1001 7.20088 11.0242 7.45682 10.9999 7.72012C10.9999 9.00012 12.1299 9.28012 12.4799 10.2901C12.9999 11.7301 8.9999 19.7501 8.9999 19.7501C9.38914 19.6696 9.75695 19.5077 10.0792 19.275C10.4015 19.0424 10.6709 18.7442 10.8699 18.4001C12.0135 16.4749 12.8978 14.407 13.4999 12.2501C13.6299 11.0001 13.2199 10.7101 13.4899 10.0001ZM11.9999 8.65012C11.7408 8.38168 11.596 8.02318 11.596 7.65012C11.596 7.27706 11.7408 6.91855 11.9999 6.65012C12.1986 6.44699 12.4533 6.30767 12.7316 6.24994C13.0098 6.19221 13.299 6.21868 13.5621 6.32599C13.8252 6.43329 14.0504 6.61655 14.2089 6.85239C14.3674 7.08823 14.4521 7.36595 14.4521 7.65012C14.4521 7.93428 14.3674 8.212 14.2089 8.44784C14.0504 8.68368 13.8252 8.86695 13.5621 8.97425C13.299 9.08155 13.0098 9.10803 12.7316 9.0503C12.4533 8.99257 12.1986 8.85325 11.9999 8.65012ZM17.3399 10.3701C16.1199 10.6401 16.0999 11.6501 15.4299 11.8901C14.958 12.0147 14.4618 12.0147 13.9899 11.8901L13.7799 13.0001C14.2005 12.8544 14.6509 12.8166 15.0899 12.8901C16.0899 13.2401 16.3399 14.3701 17.6599 14.4201C17.9265 14.3971 18.1859 14.3219 18.4234 14.1986C18.6609 14.0754 18.8718 13.9066 19.0441 13.7018C19.2163 13.497 19.3466 13.2604 19.4273 13.0053C19.5081 12.7502 19.5379 12.4817 19.5149 12.2151C19.4919 11.9485 19.4167 11.6891 19.2934 11.4516C19.1702 11.2141 19.0013 11.0032 18.7966 10.8309C18.5918 10.6587 18.3552 10.5285 18.1001 10.4477C17.845 10.3669 17.5765 10.3371 17.3099 10.3601L17.3399 10.3701ZM18.7799 13.3701C18.5115 13.6292 18.153 13.774 17.7799 13.774C17.4068 13.774 17.0483 13.6292 16.7799 13.3701C16.5768 13.1714 16.4375 12.9167 16.3797 12.6384C16.322 12.3602 16.3485 12.0711 16.4558 11.8079C16.5631 11.5448 16.7463 11.3196 16.9822 11.1611C17.218 11.0026 17.4957 10.9179 17.7799 10.9179C18.0641 10.9179 18.3418 11.0026 18.5776 11.1611C18.8135 11.3196 18.9967 11.5448 19.104 11.8079C19.2113 12.0711 19.2378 12.3602 19.1801 12.6384C19.1223 12.9167 18.983 13.1714 18.7799 13.3701Z" fill="white"/>
</svg>
