<svg width="20" height="20" viewBox="0 0 20 20" fill="none" xmlns="http://www.w3.org/2000/svg">
<path d="M16 12C15.2089 12 14.4356 12.2346 13.7778 12.6741C13.12 13.1137 12.6072 13.7383 12.3044 14.4692C12.0017 15.2001 11.9225 16.0044 12.0769 16.7803C12.2312 17.5563 12.6122 18.269 13.1716 18.8284C13.731 19.3878 14.4438 19.7688 15.2197 19.9232C15.9956 20.0775 16.7998 19.9982 17.5307 19.6955C18.2616 19.3927 18.8864 18.8801 19.3259 18.2223C19.7654 17.5645 20 16.7911 20 16C20 14.9391 19.5785 13.9217 18.8283 13.1716C18.0782 12.4214 17.0608 12 16 12ZM16 19.11C15.3849 19.11 14.7836 18.9276 14.2722 18.5859C13.7608 18.2441 13.3621 17.7584 13.1267 17.1901C12.8913 16.6218 12.8297 15.9965 12.9497 15.3932C13.0697 14.79 13.3658 14.2358 13.8008 13.8009C14.2357 13.366 14.79 13.0698 15.3933 12.9498C15.9966 12.8298 16.6219 12.8913 17.1902 13.1267C17.7584 13.3621 18.2442 13.7607 18.5859 14.2722C18.9276 14.7836 19.1101 15.3849 19.1101 16C19.1101 16.8248 18.7824 17.6159 18.1992 18.1991C17.616 18.7823 16.8248 19.11 16 19.11V19.11ZM17.78 16H16V14.22H15.1101V16.89H17.78V16Z" fill="white"/>
<path opacity="0.5" fill-rule="evenodd" clip-rule="evenodd" d="M15.6399 10.9999L16 6.45996H2L3 18.96H12C11.3383 18.0999 10.9795 17.0451 10.9795 15.96C10.9795 14.8748 11.3383 13.8201 12 12.96V8.95996H14V11.3799C14.5213 11.1615 15.0757 11.033 15.6399 10.9999V10.9999ZM6 16.9999H4V8.99994H6V16.9999ZM10 16.9999H8V8.99994H10V16.9999Z" fill="white"/>
<path opacity="0.5" fill-rule="evenodd" clip-rule="evenodd" d="M11.6399 0H6.36011C6.00022 0.00261745 5.65561 0.146761 5.40112 0.401245C5.14664 0.655729 5.00262 1.0001 5 1.35999V3H7V2C7 1.29 7.29 1 8 1H10C10.71 1 11 1.29 11 2V3H13V1.35999C12.9974 1.0001 12.8534 0.655729 12.5989 0.401245C12.3444 0.146761 11.9998 0.00261745 11.6399 0V0Z" fill="white"/>
<path fill-rule="evenodd" clip-rule="evenodd" d="M0.169922 5C0.200271 4.46394 0.432882 3.95935 0.820801 3.58813C1.20872 3.21692 1.72313 3.00674 2.26001 3H15.74C16.2769 3.00674 16.7913 3.21692 17.1792 3.58813C17.5671 3.95935 17.7997 4.46394 17.8301 5H0.169922Z" fill="white"/>
</svg>
