<svg width="16" height="16" viewBox="0 0 16 16" fill="none" xmlns="http://www.w3.org/2000/svg">
<path d="M8.2 10H0.8C0.4 10 0 10.4 0 10.8V15.2C0 15.6 0.4 16 0.8 16H8.2C8.6 16 9 15.6 9 15.2V10.8C9 10.4 8.6 10 8.2 10ZM5.2 14.5H3.8V11.5H5.3V14.5H5.2Z" fill="white"/>
<path d="M4.5 6.20007C5.3 6.20007 6 6.90007 6 7.70007V9.90009H3V7.70007C3 6.90007 3.7 6.20007 4.5 6.20007ZM4.5 4.80005C2.8 4.80005 1.5 6.10005 1.5 7.80005V11.6H7.5V7.80005C7.5 6.10005 6.2 4.80005 4.5 4.80005Z" fill="white"/>
<path opacity="0.5" fill-rule="evenodd" clip-rule="evenodd" d="M10.5 0C8.10005 0 6.00005 1.60001 5.30005 3.70001C5.60005 3.80001 6.00005 3.9 6.30005 4C6.90005 2.2 8.60005 1 10.5 1C13 1 15 3 15 5.5C15 8 13 10 10.5 10C10.3 10 10.2 10 10 9.90002V10.9C10.2 10.9 10.3 10.9 10.5 10.9C13.5 10.9 16 8.40002 16 5.40002C16 2.40002 13.5 0 10.5 0Z" fill="white"/>
<path fill-rule="evenodd" clip-rule="evenodd" d="M12.1 7.90002L10 5.90002V2.5H11V5.5L12.9 7.20001L12.1 7.90002Z" fill="white"/>
</svg>
