<svg width="16" height="16" viewBox="0 0 16 16" fill="none" xmlns="http://www.w3.org/2000/svg">
<g clip-path="url(#clip0_7970_15087)">
<path d="M14.93 4.00001H0V14C0 14.2652 0.105371 14.5196 0.292908 14.7072C0.480444 14.8947 0.734784 15 1 15H14.88C15.0245 15.0027 15.168 14.9768 15.3025 14.924C15.437 14.8711 15.5597 14.7923 15.6637 14.692C15.7677 14.5917 15.851 14.472 15.9087 14.3395C15.9664 14.207 15.9974 14.0645 16 13.9201V5.00001C16.0003 4.86259 15.9724 4.7266 15.9178 4.60048C15.8632 4.47435 15.7832 4.36081 15.6828 4.26698C15.5824 4.17314 15.4637 4.10099 15.3342 4.05507C15.2047 4.00914 15.0671 3.99039 14.93 4.00001ZM2.92999 14.1801L1.10999 12.37L2.01999 11.46L2.92999 12.37L5.10999 10.1801L6.01999 11.08L2.92999 14.1801ZM2.92999 9.18007L1.10999 7.37001L2.01999 6.45997L2.92999 7.37001L5.10999 5.18007L6.01999 6.07997L2.92999 9.18007ZM14 13H7V11H14V13ZM14 8.00001H7V6.00001H14V8.00001Z" fill="white"/>
<path opacity="0.5" fill-rule="evenodd" clip-rule="evenodd" d="M0 1C0 0.734784 0.105371 0.480383 0.292908 0.292847C0.480444 0.10531 0.734784 0 1 0H5.10001C5.2504 0.00209463 5.39861 0.0361817 5.53482 0.0999756C5.67103 0.163769 5.79212 0.255804 5.89001 0.369995L8.23001 3H0V1Z" fill="white"/>
</g>
<defs>
<clipPath id="clip0_7970_15087">
<rect width="16" height="16" fill="white"/>
</clipPath>
</defs>
</svg>
