<svg width="64" height="64" viewBox="0 0 64 64" fill="none" xmlns="http://www.w3.org/2000/svg">
<g opacity="0.5">
<mask id="mask0_12451_10507" style="mask-type:alpha" maskUnits="userSpaceOnUse" x="2" y="3" width="53" height="57">
<path d="M55 56L41 43V20L55 6V3H2V60H55V56Z" fill="black"/>
</mask>
<g mask="url(#mask0_12451_10507)">
<circle opacity="0.4" cx="30.5" cy="31.5" r="26.625" stroke="white" stroke-width="1.75"/>
<circle cx="30.5" cy="31.5" r="19.75" stroke="white" stroke-width="3.5"/>
</g>
</g>
<g filter="url(#filter0_i_12451_10507)">
<path d="M30 44C36.6274 44 42 38.4036 42 31.5C42 24.5964 36.6274 19 30 19C23.3726 19 18 24.5964 18 31.5C18 38.4036 23.3726 44 30 44Z" fill="url(#paint0_linear_12451_10507)"/>
</g>
<path d="M30 45.5C37.513 45.5 43.5 39.1737 43.5 31.5C43.5 23.8263 37.513 17.5 30 17.5C22.487 17.5 16.5 23.8263 16.5 31.5C16.5 39.1737 22.487 45.5 30 45.5Z" stroke="#2E2E2E" stroke-width="3"/>
<path d="M62 31.5L47.75 19.0312V43.9688L62 31.5Z" fill="url(#paint1_linear_12451_10507)"/>
<defs>
<filter id="filter0_i_12451_10507" x="15" y="14" width="30" height="33" filterUnits="userSpaceOnUse" color-interpolation-filters="sRGB">
<feFlood flood-opacity="0" result="BackgroundImageFix"/>
<feBlend mode="normal" in="SourceGraphic" in2="BackgroundImageFix" result="shape"/>
<feColorMatrix in="SourceAlpha" type="matrix" values="0 0 0 0 0 0 0 0 0 0 0 0 0 0 0 0 0 0 127 0" result="hardAlpha"/>
<feOffset dy="-6"/>
<feGaussianBlur stdDeviation="1"/>
<feComposite in2="hardAlpha" operator="arithmetic" k2="-1" k3="1"/>
<feColorMatrix type="matrix" values="0 0 0 0 1 0 0 0 0 1 0 0 0 0 1 0 0 0 0.4 0"/>
<feBlend mode="normal" in2="shape" result="effect1_innerShadow_12451_10507"/>
</filter>
<linearGradient id="paint0_linear_12451_10507" x1="30" y1="19" x2="30" y2="44" gradientUnits="userSpaceOnUse">
<stop stop-color="#E0E0E0"/>
<stop offset="1" stop-color="#8A8A8A"/>
</linearGradient>
<linearGradient id="paint1_linear_12451_10507" x1="54.875" y1="19.0312" x2="54.875" y2="43.9688" gradientUnits="userSpaceOnUse">
<stop stop-color="#CECECE"/>
<stop offset="1" stop-color="#767676"/>
</linearGradient>
</defs>
</svg>
