<svg width="16" height="16" viewBox="0 0 16 16" fill="none" xmlns="http://www.w3.org/2000/svg">
<g clip-path="url(#clip0_12449_10478)">
<g opacity="0.5">
<mask id="mask0_12449_10478" style="mask-type:alpha" maskUnits="userSpaceOnUse" x="0" y="0" width="14" height="16">
<path d="M14 15L10 13V3L14 1V0H0V16H14V15Z" fill="black"/>
</mask>
<g mask="url(#mask0_12449_10478)">
<path d="M7.15997 2.09009C8.32886 2.09009 9.47153 2.43654 10.4434 3.08594C11.4153 3.73534 12.1728 4.65837 12.6201 5.73828C13.0674 6.81819 13.1845 8.00665 12.9564 9.15308C12.7284 10.2995 12.1655 11.3524 11.339 12.179C10.5125 13.0055 9.45942 13.5683 8.31299 13.7964C7.16656 14.0244 5.97823 13.9075 4.89832 13.4602C3.81841 13.0129 2.89543 12.2553 2.24603 11.2834C1.59663 10.3116 1.25 9.16889 1.25 8C1.25264 6.43338 1.87618 4.93174 2.98395 3.82397C4.09172 2.71621 5.59336 2.09273 7.15997 2.09009M7.15997 0.840088C5.74386 0.840088 4.35959 1.25988 3.18213 2.04663C2.00467 2.83338 1.08697 3.95169 0.545045 5.26001C0.00312126 6.56833 -0.138696 8.00782 0.137574 9.39673C0.413844 10.7856 1.09576 12.0616 2.09711 13.063C3.09845 14.0643 4.37428 14.7462 5.76318 15.0225C7.15209 15.2987 8.59171 15.1569 9.90003 14.615C11.2083 14.0731 12.3266 13.1552 13.1133 11.9778C13.9001 10.8003 14.32 9.41611 14.32 8C14.32 6.10105 13.5657 4.27977 12.2229 2.93701C10.8801 1.59425 9.05892 0.840088 7.15997 0.840088Z" fill="white"/>
</g>
</g>
<path d="M7 11.25C8.79493 11.25 10.25 9.79493 10.25 8C10.25 6.20507 8.79493 4.75 7 4.75C5.20507 4.75 3.75 6.20507 3.75 8C3.75 9.79493 5.20507 11.25 7 11.25Z" fill="white"/>
<path d="M16 8L12 4.5V11.5L16 8Z" fill="white"/>
</g>
<defs>
<clipPath id="clip0_12449_10478">
<rect width="16" height="16" fill="white"/>
</clipPath>
</defs>
</svg>
