<?xml version="1.0" encoding="utf-8"?>
<!-- Generator: Adobe Illustrator 24.3.0, SVG Export Plug-In . SVG Version: 6.00 Build 0)  -->
<svg version="1.1" id="PaperSpriteActor_x5F_64" xmlns="http://www.w3.org/2000/svg" xmlns:xlink="http://www.w3.org/1999/xlink"
	 x="0px" y="0px" viewBox="0 0 64 64" style="enable-background:new 0 0 64 64;" xml:space="preserve">
<style type="text/css">
	.st0{fill:none;}
	.st1{opacity:0.25;}
	.st2{enable-background:new    ;}
	.st3{fill:#FFFFFF;stroke:#4A4A4A;stroke-width:0.25;stroke-miterlimit:10;}
	.st4{fill:url(#SVGID_1_);stroke:#4A4A4A;stroke-width:0.25;stroke-miterlimit:10;enable-background:new    ;}
	.st5{fill:#B3B3B3;stroke:#4A4A4A;stroke-width:0.25;stroke-miterlimit:10;enable-background:new    ;}
	.st6{fill:url(#SVGID_2_);stroke:#4A4A4A;stroke-width:0.25;stroke-miterlimit:10;enable-background:new    ;}
	.st7{fill:url(#SVGID_3_);stroke:#4A4A4A;stroke-width:0.25;stroke-miterlimit:10;enable-background:new    ;}
	.st8{fill:url(#SVGID_4_);stroke:#4A4A4A;stroke-width:0.25;stroke-miterlimit:10;enable-background:new    ;}
</style>
<rect x="0" class="st0" width="64" height="64"/>
<g class="st1">
	<g class="st2">
		<path d="M45.3,6.7h-6.7v6.7h6.7V6.7z"/>
		<path d="M38.7,13.3H32V20h6.7V13.3z"/>
		<path d="M45.3,13.3h-6.7V20h6.7V13.3z"/>
		<path d="M38.7,6.7H32v6.7h6.7V6.7z"/>
		<path d="M38.7,20H32v6.7h6.7V20z"/>
		<path d="M32,26.6h-6.7v6.7H32V26.6z"/>
		<path d="M38.7,26.6H32v6.7h6.7V26.6z"/>
		<path class="st2" d="M45.3,26.6h-6.7v6.7h6.7V26.6z"/>
		<path d="M38.7,33.3H32v6.7h6.7V33.3z"/>
		<path d="M32,33.3h-6.7v6.7H32V33.3z"/>
		<path d="M32,39.9h-6.7v6.7H32V39.9z"/>
		<path d="M38.7,39.9H32v6.7h6.7V39.9z"/>
		<path d="M45.3,46.6h-6.7v6.7h6.7V46.6z"/>
		<path d="M52,53.2h-6.7v6.7H52V53.2z"/>
		<path class="st2" d="M52,33.3h-6.7v6.7H52V33.3z"/>
		<path d="M32,20h-6.7v6.7H32V20z"/>
		<path d="M25.3,20h-6.7v6.7h6.7V20z"/>
		<path d="M18.7,20H12v6.7h6.7V20z"/>
		<path d="M12,26.6H5.4v6.7H12V26.6z"/>
		<path class="st2" d="M12,46.6H5.4v6.7H12V46.6z"/>
		<path class="st2" d="M58.6,33.3H52v6.7h6.7V33.3z"/>
	</g>
	<path class="st2" d="M18.7,46.6H12v6.7h6.7V46.6z"/>
	<path class="st2" d="M25.3,46.6h-6.7v6.7h6.7V46.6z"/>
</g>
<g>
	<g class="st2">
		<path class="st3" d="M45.3,4.1h-6.7v6.7h6.7V4.1z"/>
		<path class="st3" d="M38.7,10.8H32v6.7h6.7V10.8z"/>
		<path class="st3" d="M45.3,10.8h-6.7v6.7h6.7V10.8z"/>
		<path class="st3" d="M38.7,4.1H32v6.7h6.7V4.1z"/>
		<path class="st3" d="M38.7,17.4H32v6.7h6.7V17.4z"/>
		<path class="st3" d="M32,24.1h-6.7v6.7H32V24.1z"/>
		<path class="st3" d="M38.7,24.1H32v6.7h6.7V24.1z"/>
		<linearGradient id="SVGID_1_" gradientUnits="userSpaceOnUse" x1="38.6527" y1="27.3864" x2="45.3053" y2="27.3864">
			<stop  offset="0" style="stop-color:#808080"/>
			<stop  offset="0.5381" style="stop-color:#B2B2B2"/>
		</linearGradient>
		<path class="st4" d="M45.3,24.1h-6.7v6.7h6.7V24.1z"/>
		<path class="st3" d="M38.7,30.7H32v6.7h6.7V30.7z"/>
		<path class="st3" d="M32,30.7h-6.7v6.7H32V30.7z"/>
		<path class="st3" d="M32,37.4h-6.7V44H32V37.4z"/>
		<path class="st3" d="M38.7,37.4H32V44h6.7V37.4z"/>
		<path class="st3" d="M45.3,44h-6.7v6.7h6.7V44z"/>
		<path class="st3" d="M52,50.7h-6.7v6.7H52V50.7z"/>
		<path class="st5" d="M52,30.7h-6.7v6.7H52V30.7z"/>
		<path class="st3" d="M32,17.4h-6.7v6.7H32V17.4z"/>
		<path class="st3" d="M25.3,17.4h-6.7v6.7h6.7V17.4z"/>
		<path class="st3" d="M18.7,17.4H12v6.7h6.7V17.4z"/>
		<path class="st3" d="M12,24.1H5.4v6.7H12V24.1z"/>
		<linearGradient id="SVGID_2_" gradientUnits="userSpaceOnUse" x1="8.7156" y1="50.6138" x2="8.7156" y2="44.4761">
			<stop  offset="0" style="stop-color:#808080"/>
			<stop  offset="1" style="stop-color:#B2B2B2"/>
		</linearGradient>
		<path class="st6" d="M12,44H5.4v6.7H12V44z"/>
		<path class="st5" d="M58.6,30.7H52v6.7h6.7V30.7z"/>
	</g>
	<linearGradient id="SVGID_3_" gradientUnits="userSpaceOnUse" x1="15.3683" y1="50.6138" x2="15.3683" y2="44.4761">
		<stop  offset="0" style="stop-color:#808080"/>
		<stop  offset="1" style="stop-color:#B2B2B2"/>
	</linearGradient>
	<path class="st7" d="M18.7,44H12v6.7h6.7V44z"/>
	<linearGradient id="SVGID_4_" gradientUnits="userSpaceOnUse" x1="22.021" y1="50.6138" x2="22.021" y2="44.4761">
		<stop  offset="0" style="stop-color:#808080"/>
		<stop  offset="1" style="stop-color:#B2B2B2"/>
	</linearGradient>
	<path class="st8" d="M25.3,44h-6.7v6.7h6.7V44z"/>
</g>
</svg>
