<?xml version="1.0" encoding="utf-8"?>
<!-- Generator: Adobe Illustrator 24.3.0, SVG Export Plug-In . SVG Version: 6.00 Build 0)  -->
<svg version="1.1" id="PaperTerrainActor_x5F_64" xmlns="http://www.w3.org/2000/svg" xmlns:xlink="http://www.w3.org/1999/xlink"
	 x="0px" y="0px" viewBox="0 0 64 64" style="enable-background:new 0 0 64 64;" xml:space="preserve">
<style type="text/css">
	.st0{fill:none;}
	.st1{fill:#FFFFFF;}
	.st2{fill:url(#SVGID_1_);enable-background:new    ;}
	.st3{fill:url(#SVGID_2_);enable-background:new    ;}
	.st4{fill:url(#SVGID_3_);}
	.st5{fill:url(#SVGID_4_);}
</style>
<rect x="0" class="st0" width="64" height="64"/>
<g>
	<path class="st1" d="M34.3,30.9c3.2-5.8,11.6-6.5,14.2-0.3c3.5,8.1,9,26.5,9,26.5h-51C6.5,57,24.3,49.3,34.3,30.9z"/>
	<radialGradient id="SVGID_1_" cx="15.8716" cy="34.4546" r="4.5158" gradientUnits="userSpaceOnUse">
		<stop  offset="0" style="stop-color:#B3B3B3"/>
		<stop  offset="1" style="stop-color:#666666"/>
	</radialGradient>
	<path class="st2" d="M15.9,39c2.5,0,4.5-2,4.5-4.5s-2-4.5-4.5-4.5c-2.5,0-4.5,2-4.5,4.5S13.4,39,15.9,39z"/>
	<radialGradient id="SVGID_2_" cx="25.5486" cy="24.7776" r="4.5158" gradientUnits="userSpaceOnUse">
		<stop  offset="0" style="stop-color:#E6E6E6"/>
		<stop  offset="1" style="stop-color:#666666"/>
	</radialGradient>
	<path class="st3" d="M25.5,29.3c2.5,0,4.5-2,4.5-4.5s-2-4.5-4.5-4.5c-2.5,0-4.5,2-4.5,4.5S23.1,29.3,25.5,29.3z"/>
	<radialGradient id="SVGID_3_" cx="35.2257" cy="15.1005" r="4.5158" gradientUnits="userSpaceOnUse">
		<stop  offset="0" style="stop-color:#F2F2F2"/>
		<stop  offset="1" style="stop-color:#B3B3B3"/>
	</radialGradient>
	<path class="st4" d="M35.2,19.6c2.5,0,4.5-2,4.5-4.5s-2-4.5-4.5-4.5c-2.5,0-4.5,2-4.5,4.5S32.7,19.6,35.2,19.6z"/>
</g>
<linearGradient id="SVGID_4_" gradientUnits="userSpaceOnUse" x1="32.0367" y1="55.8816" x2="32.9009" y2="28.7057">
	<stop  offset="0" style="stop-color:#808080"/>
	<stop  offset="1" style="stop-color:#B3B3B3"/>
</linearGradient>
<path class="st5" d="M34.3,33c3.2-5.3,11.6-5.9,14.2-0.3c3.5,7.4,9,24.3,9,24.3h-51C6.5,57,24.3,49.9,34.3,33z"/>
</svg>
