<svg width="16" height="16" viewBox="0 0 16 16" fill="none" xmlns="http://www.w3.org/2000/svg">
<path d="M0 13.8994V7.29956C0 7.29956 4.9 5.69961 8 0.0996094C8 3.29961 8 5.29951 8 8.49951C5.4 12.8995 0 13.8994 0 13.8994Z" fill="white"/>
<path opacity="0.5" d="M2.7998 14.9001C2.7998 14.9001 8.6998 14.3002 11.9998 11.2002C11.9998 8.2002 11.9998 6.2002 11.9998 3.2002C10.4998 5.1002 8.9998 6.2002 8.9998 6.2002C8.9998 6.2002 8.9998 8.30015 8.9998 9.90015C7.0998 13.6001 2.7998 14.9001 2.7998 14.9001Z" fill="white"/>
<path opacity="0.5" d="M6 15.8999C6 15.8999 11.8 15.9999 15 14.8999C15 11.8999 15 9.5 15 6.5C14.1 7.5 13 8 13 8C13 8 13 11.2999 13 12.8999C10.3 15.4999 6 15.8999 6 15.8999Z" fill="white"/>
</svg>
