<?xml version="1.0" encoding="utf-8"?>
<!-- Generator: Adobe Illustrator 25.0.0, SVG Export Plug-In . SVG Version: 6.00 Build 0)  -->
<svg version="1.1" id="PaperSpriteAtlast_x5F_64" xmlns="http://www.w3.org/2000/svg" xmlns:xlink="http://www.w3.org/1999/xlink"
	 x="0px" y="0px" viewBox="0 0 64 64" style="enable-background:new 0 0 64 64;" xml:space="preserve">
<style type="text/css">
	.st0{fill:#FFFFFF;stroke:#3F3F3F;stroke-width:0.2;stroke-miterlimit:10;}
	.st1{fill:url(#SVGID_1_);stroke:#3F3F3F;stroke-width:0.2;stroke-miterlimit:10;enable-background:new    ;}
	.st2{fill:url(#SVGID_2_);stroke:#3F3F3F;stroke-width:0.2;stroke-miterlimit:10;enable-background:new    ;}
	.st3{fill:url(#SVGID_3_);stroke:#3F3F3F;stroke-width:0.2;stroke-miterlimit:10;enable-background:new    ;}
	.st4{fill:url(#SVGID_4_);stroke:#3F3F3F;stroke-width:0.2;stroke-miterlimit:10;enable-background:new    ;}
	.st5{fill:url(#SVGID_5_);stroke:#3F3F3F;stroke-width:0.2;stroke-miterlimit:10;enable-background:new    ;}
	.st6{fill:url(#SVGID_6_);stroke:#3F3F3F;stroke-width:0.2;stroke-miterlimit:10;enable-background:new    ;}
	.st7{fill:url(#SVGID_7_);stroke:#3F3F3F;stroke-width:0.2;stroke-miterlimit:10;enable-background:new    ;}
	.st8{fill:url(#SVGID_8_);stroke:#3F3F3F;stroke-width:0.2;stroke-miterlimit:10;enable-background:new    ;}
	.st9{fill:url(#SVGID_9_);stroke:#3F3F3F;stroke-width:0.2;stroke-miterlimit:10;enable-background:new    ;}
	.st10{fill:url(#SVGID_10_);stroke:#3F3F3F;stroke-width:0.2;stroke-miterlimit:10;enable-background:new    ;}
	.st11{fill:url(#SVGID_11_);stroke:#3F3F3F;stroke-width:0.2;stroke-miterlimit:10;enable-background:new    ;}
	.st12{fill:url(#SVGID_12_);stroke:#3F3F3F;stroke-width:0.2;stroke-miterlimit:10;enable-background:new    ;}
	.st13{fill:url(#SVGID_13_);stroke:#3F3F3F;stroke-width:0.2;stroke-miterlimit:10;enable-background:new    ;}
	.st14{fill:url(#SVGID_14_);stroke:#3F3F3F;stroke-width:0.2;stroke-miterlimit:10;enable-background:new    ;}
	.st15{fill:url(#SVGID_15_);stroke:#3F3F3F;stroke-width:0.2;stroke-miterlimit:10;enable-background:new    ;}
	.st16{fill:url(#SVGID_16_);stroke:#3F3F3F;stroke-width:0.2;stroke-miterlimit:10;enable-background:new    ;}
	.st17{fill:url(#SVGID_17_);stroke:#3F3F3F;stroke-width:0.2;stroke-miterlimit:10;enable-background:new    ;}
	.st18{fill:url(#SVGID_18_);stroke:#3F3F3F;stroke-width:0.2;stroke-miterlimit:10;enable-background:new    ;}
	.st19{fill:url(#SVGID_19_);stroke:#3F3F3F;stroke-width:0.2;stroke-miterlimit:10;enable-background:new    ;}
	.st20{fill:url(#SVGID_20_);stroke:#3F3F3F;stroke-width:0.2;stroke-miterlimit:10;enable-background:new    ;}
	.st21{fill:url(#SVGID_21_);stroke:#3F3F3F;stroke-width:0.2;stroke-miterlimit:10;enable-background:new    ;}
	.st22{fill:url(#SVGID_22_);stroke:#3F3F3F;stroke-width:0.2;stroke-miterlimit:10;enable-background:new    ;}
	.st23{fill:url(#SVGID_23_);stroke:#3F3F3F;stroke-width:0.2;stroke-miterlimit:10;enable-background:new    ;}
	.st24{fill:url(#SVGID_24_);stroke:#3F3F3F;stroke-width:0.2;stroke-miterlimit:10;enable-background:new    ;}
	.st25{fill:none;}
</style>
<g>
	<g>
		<path class="st0" d="M26.8,9.1H24V12h2.9V9.1z"/>
		<path class="st0" d="M24,12h-2.9v2.9H24V12z"/>
		<path class="st0" d="M26.8,12H24v2.9h2.9V12z"/>
		<path class="st0" d="M24,9.1h-2.9V12H24V9.1z"/>
		<path class="st0" d="M24,14.9h-2.9v2.9H24V14.9z"/>
		<path class="st0" d="M21.1,17.7h-2.9v2.9h2.9V17.7z"/>
		<path class="st0" d="M24,17.7h-2.9v2.9H24V17.7z"/>
		<path class="st0" d="M24,20.6h-2.9v2.9H24V20.6z"/>
		<path class="st0" d="M21.1,20.6h-2.9v2.9h2.9V20.6z"/>
		<path class="st0" d="M21.1,23.4h-2.9v2.9h2.9V23.4z"/>
		<path class="st0" d="M24,23.4h-2.9v2.9H24V23.4z"/>
		<path class="st0" d="M26.8,26.3H24v2.9h2.9V26.3z"/>
		<path class="st0" d="M29.7,29.1h-2.9V32h2.9V29.1z"/>
		<linearGradient id="SVGID_1_" gradientUnits="userSpaceOnUse" x1="28.2138" y1="23.3112" x2="28.2851" y2="21.8138">
			<stop  offset="0" style="stop-color:#4D4D4D"/>
			<stop  offset="0.5339" style="stop-color:#787878"/>
			<stop  offset="1" style="stop-color:#999999"/>
		</linearGradient>
		<path class="st1" d="M29.7,20.6h-2.9v2.9h2.9V20.6z"/>
		<path class="st0" d="M21.1,14.9h-2.9v2.9h2.9V14.9z"/>
		<path class="st0" d="M18.3,14.9h-2.9v2.9h2.9V14.9z"/>
		<path class="st0" d="M15.4,14.9h-2.9v2.9h2.9V14.9z"/>
		<path class="st0" d="M12.6,17.7H9.7v2.9h2.9V17.7z"/>
		<linearGradient id="SVGID_2_" gradientUnits="userSpaceOnUse" x1="31.0716" y1="23.3112" x2="31.143" y2="21.8138">
			<stop  offset="0" style="stop-color:#4D4D4D"/>
			<stop  offset="0.5339" style="stop-color:#787878"/>
			<stop  offset="1" style="stop-color:#999999"/>
		</linearGradient>
		<path class="st2" d="M32.6,20.6h-2.9v2.9h2.9V20.6z"/>
		<linearGradient id="SVGID_3_" gradientUnits="userSpaceOnUse" x1="25.3559" y1="20.4533" x2="25.4272" y2="18.956">
			<stop  offset="0" style="stop-color:#4D4D4D"/>
			<stop  offset="0.5339" style="stop-color:#787878"/>
			<stop  offset="1" style="stop-color:#999999"/>
		</linearGradient>
		<path class="st3" d="M26.8,17.7H24v2.9h2.9V17.7z"/>
		<linearGradient id="SVGID_4_" gradientUnits="userSpaceOnUse" x1="13.9243" y1="29.027" x2="13.9956" y2="27.5296">
			<stop  offset="0" style="stop-color:#4D4D4D"/>
			<stop  offset="0.5339" style="stop-color:#787878"/>
			<stop  offset="1" style="stop-color:#999999"/>
		</linearGradient>
		<path class="st4" d="M15.4,26.3h-2.9v2.9h2.9V26.3z"/>
		<linearGradient id="SVGID_5_" gradientUnits="userSpaceOnUse" x1="16.7822" y1="29.027" x2="16.8535" y2="27.5296">
			<stop  offset="0" style="stop-color:#4D4D4D"/>
			<stop  offset="0.5339" style="stop-color:#787878"/>
			<stop  offset="1" style="stop-color:#999999"/>
		</linearGradient>
		<path class="st5" d="M18.3,26.3h-2.9v2.9h2.9V26.3z"/>
		<linearGradient id="SVGID_6_" gradientUnits="userSpaceOnUse" x1="11.0664" y1="29.027" x2="11.1377" y2="27.5296">
			<stop  offset="0" style="stop-color:#4D4D4D"/>
			<stop  offset="0.5339" style="stop-color:#787878"/>
			<stop  offset="1" style="stop-color:#999999"/>
		</linearGradient>
		<path class="st6" d="M12.6,26.3H9.7v2.9h2.9V26.3z"/>
	</g>
	<g>
		<path class="st0" d="M49.7,9.1h-2.9V12h2.9V9.1z"/>
		<path class="st0" d="M46.9,12H44v2.9h2.9V12z"/>
		<path class="st0" d="M49.7,12h-2.9v2.9h2.9V12z"/>
		<path class="st0" d="M46.9,9.1H44V12h2.9V9.1z"/>
		<path class="st0" d="M46.9,14.9H44v2.9h2.9V14.9z"/>
		<path class="st0" d="M44,17.7h-2.9v2.9H44V17.7z"/>
		<path class="st0" d="M46.9,17.7H44v2.9h2.9V17.7z"/>
		<path class="st0" d="M46.9,20.6H44v2.9h2.9V20.6z"/>
		<path class="st0" d="M44,20.6h-2.9v2.9H44V20.6z"/>
		<path class="st0" d="M44,23.4h-2.9v2.9H44V23.4z"/>
		<path class="st0" d="M46.9,23.4H44v2.9h2.9V23.4z"/>
		<path class="st0" d="M49.7,26.3h-2.9v2.9h2.9V26.3z"/>
		<path class="st0" d="M52.6,29.1h-2.9V32h2.9V29.1z"/>
		<linearGradient id="SVGID_7_" gradientUnits="userSpaceOnUse" x1="51.0769" y1="23.3112" x2="51.1482" y2="21.8138">
			<stop  offset="0" style="stop-color:#4D4D4D"/>
			<stop  offset="0.5339" style="stop-color:#787878"/>
			<stop  offset="1" style="stop-color:#999999"/>
		</linearGradient>
		<path class="st7" d="M52.6,20.6h-2.9v2.9h2.9V20.6z"/>
		<path class="st0" d="M44,14.9h-2.9v2.9H44V14.9z"/>
		<path class="st0" d="M41.1,14.9h-2.9v2.9h2.9V14.9z"/>
		<path class="st0" d="M38.3,14.9h-2.9v2.9h2.9V14.9z"/>
		<path class="st0" d="M35.4,17.7h-2.9v2.9h2.9V17.7z"/>
		<linearGradient id="SVGID_8_" gradientUnits="userSpaceOnUse" x1="53.9348" y1="23.3112" x2="54.0061" y2="21.8138">
			<stop  offset="0" style="stop-color:#4D4D4D"/>
			<stop  offset="0.5339" style="stop-color:#787878"/>
			<stop  offset="1" style="stop-color:#999999"/>
		</linearGradient>
		<path class="st8" d="M55.4,20.6h-2.9v2.9h2.9V20.6z"/>
		<linearGradient id="SVGID_9_" gradientUnits="userSpaceOnUse" x1="48.219" y1="20.4533" x2="48.2903" y2="18.956">
			<stop  offset="0" style="stop-color:#4D4D4D"/>
			<stop  offset="0.5339" style="stop-color:#787878"/>
			<stop  offset="1" style="stop-color:#999999"/>
		</linearGradient>
		<path class="st9" d="M49.7,17.7h-2.9v2.9h2.9V17.7z"/>
		<linearGradient id="SVGID_10_" gradientUnits="userSpaceOnUse" x1="36.7874" y1="29.027" x2="36.8587" y2="27.5296">
			<stop  offset="0" style="stop-color:#4D4D4D"/>
			<stop  offset="0.5339" style="stop-color:#787878"/>
			<stop  offset="1" style="stop-color:#999999"/>
		</linearGradient>
		<path class="st10" d="M38.3,26.3h-2.9v2.9h2.9V26.3z"/>
		<linearGradient id="SVGID_11_" gradientUnits="userSpaceOnUse" x1="39.6453" y1="29.027" x2="39.7166" y2="27.5296">
			<stop  offset="0" style="stop-color:#4D4D4D"/>
			<stop  offset="0.5339" style="stop-color:#787878"/>
			<stop  offset="1" style="stop-color:#999999"/>
		</linearGradient>
		<path class="st11" d="M41.1,26.3h-2.9v2.9h2.9V26.3z"/>
		<linearGradient id="SVGID_12_" gradientUnits="userSpaceOnUse" x1="33.9295" y1="29.027" x2="34.0008" y2="27.5296">
			<stop  offset="0" style="stop-color:#4D4D4D"/>
			<stop  offset="0.5339" style="stop-color:#787878"/>
			<stop  offset="1" style="stop-color:#999999"/>
		</linearGradient>
		<path class="st12" d="M35.4,26.3h-2.9v2.9h2.9V26.3z"/>
	</g>
	<g>
		<path class="st0" d="M26.8,32H24v2.9h2.9V32z"/>
		<path class="st0" d="M24,34.9h-2.9v2.9H24V34.9z"/>
		<path class="st0" d="M26.8,34.9H24v2.9h2.9V34.9z"/>
		<path class="st0" d="M24,32h-2.9v2.9H24V32z"/>
		<path class="st0" d="M24,37.7h-2.9v2.9H24V37.7z"/>
		<path class="st0" d="M21.1,40.6h-2.9v2.9h2.9V40.6z"/>
		<path class="st0" d="M24,40.6h-2.9v2.9H24V40.6z"/>
		<path class="st0" d="M24,43.4h-2.9v2.9H24V43.4z"/>
		<path class="st0" d="M21.1,43.4h-2.9v2.9h2.9V43.4z"/>
		<path class="st0" d="M21.1,46.3h-2.9v2.9h2.9V46.3z"/>
		<path class="st0" d="M24,46.3h-2.9v2.9H24V46.3z"/>
		<path class="st0" d="M26.8,49.1H24V52h2.9V49.1z"/>
		<path class="st0" d="M29.7,52h-2.9v2.9h2.9V52z"/>
		<linearGradient id="SVGID_13_" gradientUnits="userSpaceOnUse" x1="28.2138" y1="46.1744" x2="28.2851" y2="44.677">
			<stop  offset="0" style="stop-color:#4D4D4D"/>
			<stop  offset="0.5339" style="stop-color:#787878"/>
			<stop  offset="1" style="stop-color:#999999"/>
		</linearGradient>
		<path class="st13" d="M29.7,43.4h-2.9v2.9h2.9V43.4z"/>
		<path class="st0" d="M21.1,37.7h-2.9v2.9h2.9V37.7z"/>
		<path class="st0" d="M18.3,37.7h-2.9v2.9h2.9V37.7z"/>
		<path class="st0" d="M15.4,37.7h-2.9v2.9h2.9V37.7z"/>
		<path class="st0" d="M12.6,40.6H9.7v2.9h2.9V40.6z"/>
		<linearGradient id="SVGID_14_" gradientUnits="userSpaceOnUse" x1="31.0716" y1="46.1744" x2="31.143" y2="44.677">
			<stop  offset="0" style="stop-color:#4D4D4D"/>
			<stop  offset="0.5339" style="stop-color:#787878"/>
			<stop  offset="1" style="stop-color:#999999"/>
		</linearGradient>
		<path class="st14" d="M32.6,43.4h-2.9v2.9h2.9V43.4z"/>
		<linearGradient id="SVGID_15_" gradientUnits="userSpaceOnUse" x1="25.3559" y1="43.3165" x2="25.4272" y2="41.8191">
			<stop  offset="0" style="stop-color:#4D4D4D"/>
			<stop  offset="0.5339" style="stop-color:#787878"/>
			<stop  offset="1" style="stop-color:#999999"/>
		</linearGradient>
		<path class="st15" d="M26.8,40.6H24v2.9h2.9V40.6z"/>
		<linearGradient id="SVGID_16_" gradientUnits="userSpaceOnUse" x1="13.9243" y1="51.8902" x2="13.9956" y2="50.3928">
			<stop  offset="0" style="stop-color:#4D4D4D"/>
			<stop  offset="0.5339" style="stop-color:#787878"/>
			<stop  offset="1" style="stop-color:#999999"/>
		</linearGradient>
		<path class="st16" d="M15.4,49.1h-2.9V52h2.9V49.1z"/>
		<linearGradient id="SVGID_17_" gradientUnits="userSpaceOnUse" x1="16.7822" y1="51.8902" x2="16.8535" y2="50.3928">
			<stop  offset="0" style="stop-color:#4D4D4D"/>
			<stop  offset="0.5339" style="stop-color:#787878"/>
			<stop  offset="1" style="stop-color:#999999"/>
		</linearGradient>
		<path class="st17" d="M18.3,49.1h-2.9V52h2.9V49.1z"/>
		<linearGradient id="SVGID_18_" gradientUnits="userSpaceOnUse" x1="11.0664" y1="51.8902" x2="11.1377" y2="50.3928">
			<stop  offset="0" style="stop-color:#4D4D4D"/>
			<stop  offset="0.5339" style="stop-color:#787878"/>
			<stop  offset="1" style="stop-color:#999999"/>
		</linearGradient>
		<path class="st18" d="M12.6,49.1H9.7V52h2.9V49.1z"/>
	</g>
	<g>
		<path class="st0" d="M49.7,32h-2.9v2.9h2.9V32z"/>
		<path class="st0" d="M46.9,34.9H44v2.9h2.9V34.9z"/>
		<path class="st0" d="M49.7,34.9h-2.9v2.9h2.9V34.9z"/>
		<path class="st0" d="M46.9,32H44v2.9h2.9V32z"/>
		<path class="st0" d="M46.9,37.7H44v2.9h2.9V37.7z"/>
		<path class="st0" d="M44,40.6h-2.9v2.9H44V40.6z"/>
		<path class="st0" d="M46.9,40.6H44v2.9h2.9V40.6z"/>
		<path class="st0" d="M46.9,43.4H44v2.9h2.9V43.4z"/>
		<path class="st0" d="M44,43.4h-2.9v2.9H44V43.4z"/>
		<path class="st0" d="M44,46.3h-2.9v2.9H44V46.3z"/>
		<path class="st0" d="M46.9,46.3H44v2.9h2.9V46.3z"/>
		<path class="st0" d="M49.7,49.1h-2.9V52h2.9V49.1z"/>
		<path class="st0" d="M52.6,52h-2.9v2.9h2.9V52z"/>
		<linearGradient id="SVGID_19_" gradientUnits="userSpaceOnUse" x1="51.0769" y1="46.1744" x2="51.1482" y2="44.677">
			<stop  offset="0" style="stop-color:#4D4D4D"/>
			<stop  offset="0.5339" style="stop-color:#787878"/>
			<stop  offset="1" style="stop-color:#999999"/>
		</linearGradient>
		<path class="st19" d="M52.6,43.4h-2.9v2.9h2.9V43.4z"/>
		<path class="st0" d="M44,37.7h-2.9v2.9H44V37.7z"/>
		<path class="st0" d="M41.1,37.7h-2.9v2.9h2.9V37.7z"/>
		<path class="st0" d="M38.3,37.7h-2.9v2.9h2.9V37.7z"/>
		<path class="st0" d="M35.4,40.6h-2.9v2.9h2.9V40.6z"/>
		<linearGradient id="SVGID_20_" gradientUnits="userSpaceOnUse" x1="53.9348" y1="46.1744" x2="54.0061" y2="44.677">
			<stop  offset="0" style="stop-color:#4D4D4D"/>
			<stop  offset="0.5339" style="stop-color:#787878"/>
			<stop  offset="1" style="stop-color:#999999"/>
		</linearGradient>
		<path class="st20" d="M55.4,43.4h-2.9v2.9h2.9V43.4z"/>
		<linearGradient id="SVGID_21_" gradientUnits="userSpaceOnUse" x1="48.219" y1="43.3165" x2="48.2903" y2="41.8191">
			<stop  offset="0" style="stop-color:#4D4D4D"/>
			<stop  offset="0.5339" style="stop-color:#787878"/>
			<stop  offset="1" style="stop-color:#999999"/>
		</linearGradient>
		<path class="st21" d="M49.7,40.6h-2.9v2.9h2.9V40.6z"/>
		<linearGradient id="SVGID_22_" gradientUnits="userSpaceOnUse" x1="36.7874" y1="51.8902" x2="36.8587" y2="50.3928">
			<stop  offset="0" style="stop-color:#4D4D4D"/>
			<stop  offset="0.5339" style="stop-color:#787878"/>
			<stop  offset="1" style="stop-color:#999999"/>
		</linearGradient>
		<path class="st22" d="M38.3,49.1h-2.9V52h2.9V49.1z"/>
		<linearGradient id="SVGID_23_" gradientUnits="userSpaceOnUse" x1="39.6453" y1="51.8902" x2="39.7166" y2="50.3928">
			<stop  offset="0" style="stop-color:#4D4D4D"/>
			<stop  offset="0.5339" style="stop-color:#787878"/>
			<stop  offset="1" style="stop-color:#999999"/>
		</linearGradient>
		<path class="st23" d="M41.1,49.1h-2.9V52h2.9V49.1z"/>
		<linearGradient id="SVGID_24_" gradientUnits="userSpaceOnUse" x1="33.9295" y1="51.8902" x2="34.0008" y2="50.3928">
			<stop  offset="0" style="stop-color:#4D4D4D"/>
			<stop  offset="0.5339" style="stop-color:#787878"/>
			<stop  offset="1" style="stop-color:#999999"/>
		</linearGradient>
		<path class="st24" d="M35.4,49.1h-2.9V52h2.9V49.1z"/>
	</g>
	<rect x="0" class="st25" width="64" height="64"/>
</g>
</svg>
