<svg width="16" height="16" viewBox="0 0 16 16" fill="none" xmlns="http://www.w3.org/2000/svg">
<path d="M14 8H13V9H14V8Z" fill="white"/>
<path d="M13 9H12V10H13V9Z" fill="white"/>
<path d="M14 9H13V10H14V9Z" fill="white"/>
<path d="M13 8H12V9H13V8Z" fill="white"/>
<path d="M13 10H12V11H13V10Z" fill="white"/>
<path d="M12 11H11V12H12V11Z" fill="white"/>
<path d="M13 11H12V12H13V11Z" fill="white"/>
<path opacity="0.5" d="M14 11H13V12H14V11Z" fill="white"/>
<path d="M13 12H12V13H13V12Z" fill="white"/>
<path d="M12 12H11V13H12V12Z" fill="white"/>
<path d="M12 13H11V14H12V13Z" fill="white"/>
<path d="M13 13H12V14H13V13Z" fill="white"/>
<path d="M14 14H13V15H14V14Z" fill="white"/>
<path d="M15 15H14V16H15V15Z" fill="white"/>
<path opacity="0.5" d="M15 12H14V13H15V12Z" fill="white"/>
<path d="M12 10H11V11H12V10Z" fill="white"/>
<path d="M11 10H10V11H11V10Z" fill="white"/>
<path d="M10 10H9V11H10V10Z" fill="white"/>
<path d="M9 11H8V12H9V11Z" fill="white"/>
<path opacity="0.5" d="M10 14H9V15H10V14Z" fill="white"/>
<path opacity="0.5" d="M11 14H10V15H11V14Z" fill="white"/>
<path opacity="0.5" d="M9 14H8V15H9V14Z" fill="white"/>
<path opacity="0.5" d="M16 12H15V13H16V12Z" fill="white"/>
<path d="M6 8H5V9H6V8Z" fill="white"/>
<path d="M5 9H4V10H5V9Z" fill="white"/>
<path d="M6 9H5V10H6V9Z" fill="white"/>
<path d="M5 8H4V9H5V8Z" fill="white"/>
<path d="M5 10H4V11H5V10Z" fill="white"/>
<path d="M4 11H3V12H4V11Z" fill="white"/>
<path d="M5 11H4V12H5V11Z" fill="white"/>
<path opacity="0.5" d="M6 11H5V12H6V11Z" fill="white"/>
<path d="M5 12H4V13H5V12Z" fill="white"/>
<path d="M4 12H3V13H4V12Z" fill="white"/>
<path d="M4 13H3V14H4V13Z" fill="white"/>
<path d="M5 13H4V14H5V13Z" fill="white"/>
<path d="M6 14H5V15H6V14Z" fill="white"/>
<path d="M7 15H6V16H7V15Z" fill="white"/>
<path opacity="0.5" d="M7 12H6V13H7V12Z" fill="white"/>
<path d="M4 10H3V11H4V10Z" fill="white"/>
<path d="M3 10H2V11H3V10Z" fill="white"/>
<path d="M2 10H1V11H2V10Z" fill="white"/>
<path d="M1 11H0V12H1V11Z" fill="white"/>
<path opacity="0.5" d="M2 14H1V15H2V14Z" fill="white"/>
<path opacity="0.5" d="M3 14H2V15H3V14Z" fill="white"/>
<path opacity="0.5" d="M1 14H0V15H1V14Z" fill="white"/>
<path opacity="0.5" d="M8 12H7V13H8V12Z" fill="white"/>
<path d="M6 0H5V1H6V0Z" fill="white"/>
<path d="M5 1H4V2H5V1Z" fill="white"/>
<path d="M6 1H5V2H6V1Z" fill="white"/>
<path d="M5 0H4V1H5V0Z" fill="white"/>
<path d="M5 2H4V3H5V2Z" fill="white"/>
<path d="M4 3H3V4H4V3Z" fill="white"/>
<path d="M5 3H4V4H5V3Z" fill="white"/>
<path opacity="0.5" d="M6 3H5V4H6V3Z" fill="white"/>
<path d="M5 4H4V5H5V4Z" fill="white"/>
<path d="M4 4H3V5H4V4Z" fill="white"/>
<path d="M4 5H3V6H4V5Z" fill="white"/>
<path d="M5 5H4V6H5V5Z" fill="white"/>
<path d="M6 6H5V7H6V6Z" fill="white"/>
<path d="M7 7H6V8H7V7Z" fill="white"/>
<path opacity="0.5" d="M7 4H6V5H7V4Z" fill="white"/>
<path d="M4 2H3V3H4V2Z" fill="white"/>
<path d="M3 2H2V3H3V2Z" fill="white"/>
<path d="M2 2H1V3H2V2Z" fill="white"/>
<path d="M1 3H0V4H1V3Z" fill="white"/>
<path opacity="0.5" d="M2 6H1V7H2V6Z" fill="white"/>
<path opacity="0.5" d="M3 6H2V7H3V6Z" fill="white"/>
<path opacity="0.5" d="M1 6H0V7H1V6Z" fill="white"/>
<path opacity="0.5" d="M8 4H7V5H8V4Z" fill="white"/>
<path d="M14 0H13V1H14V0Z" fill="white"/>
<path d="M13 1H12V2H13V1Z" fill="white"/>
<path d="M14 1H13V2H14V1Z" fill="white"/>
<path d="M13 0H12V1H13V0Z" fill="white"/>
<path d="M13 2H12V3H13V2Z" fill="white"/>
<path d="M12 3H11V4H12V3Z" fill="white"/>
<path d="M13 3H12V4H13V3Z" fill="white"/>
<path opacity="0.5" d="M14 3H13V4H14V3Z" fill="white"/>
<path d="M13 4H12V5H13V4Z" fill="white"/>
<path d="M12 4H11V5H12V4Z" fill="white"/>
<path d="M12 5H11V6H12V5Z" fill="white"/>
<path d="M13 5H12V6H13V5Z" fill="white"/>
<path d="M14 6H13V7H14V6Z" fill="white"/>
<path d="M15 7H14V8H15V7Z" fill="white"/>
<path opacity="0.5" d="M15 4H14V5H15V4Z" fill="white"/>
<path d="M12 2H11V3H12V2Z" fill="white"/>
<path d="M11 2H10V3H11V2Z" fill="white"/>
<path d="M10 2H9V3H10V2Z" fill="white"/>
<path d="M9 3H8V4H9V3Z" fill="white"/>
<path opacity="0.5" d="M10 6H9V7H10V6Z" fill="white"/>
<path opacity="0.5" d="M11 6H10V7H11V6Z" fill="white"/>
<path opacity="0.5" d="M9 6H8V7H9V6Z" fill="white"/>
<path opacity="0.5" d="M16 4H15V5H16V4Z" fill="white"/>
</svg>
