<svg width="16" height="16" viewBox="0 0 16 16" fill="none" xmlns="http://www.w3.org/2000/svg">
<path d="M8 0H6V2H8V0Z" fill="white"/>
<path d="M10 0H8V2H10V0Z" fill="white"/>
<path d="M12 2H10V4H12V2Z" fill="white"/>
<path d="M12 4H10V6H12V4Z" fill="white"/>
<path d="M10 2H8V4H10V2Z" fill="white"/>
<path d="M8 2H6V4H8V2Z" fill="white"/>
<path d="M6 2H4V4H6V2Z" fill="white"/>
<path d="M6 4H4V6H6V4Z" fill="white"/>
<path d="M8 4H6V6H8V4Z" fill="white"/>
<path d="M10 4H8V6H10V4Z" fill="white"/>
<path d="M12 6H10V8H12V6Z" fill="white"/>
<path d="M10 6H8V8H10V6Z" fill="white"/>
<path d="M8 6H6V8H8V6Z" fill="white"/>
<path d="M6 6H4V8H6V6Z" fill="white"/>
<path d="M8 8H6V10H8V8Z" fill="white"/>
<path d="M10 8H8V10H10V8Z" fill="white"/>
<path d="M10 10H8V12H10V10Z" fill="white"/>
<path d="M8 10H6V12H8V10Z" fill="white"/>
<path opacity="0.5" d="M8 12H6V14H8V12Z" fill="white"/>
<path opacity="0.5" d="M6 12H4V14H6V12Z" fill="white"/>
<path opacity="0.5" d="M4 12H2V14H4V12Z" fill="white"/>
<path opacity="0.5" d="M2 14H0V16H2V14Z" fill="white"/>
<path opacity="0.5" d="M4 14H2V16H4V14Z" fill="white"/>
<path opacity="0.5" d="M6 14H4V16H6V14Z" fill="white"/>
<path opacity="0.5" d="M8 14H6V16H8V14Z" fill="white"/>
<path opacity="0.5" d="M10 14H8V16H10V14Z" fill="white"/>
<path opacity="0.5" d="M10 12H8V14H10V12Z" fill="white"/>
<path opacity="0.5" d="M12 12H10V14H12V12Z" fill="white"/>
<path opacity="0.5" d="M12 14H10V16H12V14Z" fill="white"/>
<path opacity="0.5" d="M14 14H12V16H14V14Z" fill="white"/>
<path opacity="0.5" d="M14 12H12V14H14V12Z" fill="white"/>
<path opacity="0.5" d="M16 14H14V16H16V14Z" fill="white"/>
<path d="M12 8H10V10H12V8Z" fill="white"/>
<path d="M6 8H4V10H6V8Z" fill="white"/>
</svg>
