<svg width="16" height="16" viewBox="0 0 16 16" fill="none" xmlns="http://www.w3.org/2000/svg">
<path opacity="0.5" d="M6 4H4V6H6V4Z" fill="white"/>
<path opacity="0.5" d="M8 2H6V4H8V2Z" fill="white"/>
<path opacity="0.5" d="M6 0H4V2H6V0Z" fill="white"/>
<path opacity="0.5" d="M8 0H6V2H8V0Z" fill="white"/>
<path d="M6 12H4V14H6V12Z" fill="white"/>
<path d="M8 12H6V14H8V12Z" fill="white"/>
<path d="M8 8H6V10H8V8Z" fill="white"/>
<path d="M10 4H8V6H10V4Z" fill="white"/>
<path d="M10 8H8V10H10V8Z" fill="white"/>
<path d="M10 12H8V14H10V12Z" fill="white"/>
<path d="M12 12H10V14H12V12Z" fill="white"/>
<path d="M12 8H10V10H12V8Z" fill="white"/>
<path d="M12 4H10V6H12V4Z" fill="white"/>
<path d="M10 6H8V8H10V6Z" fill="white"/>
<path d="M12 6H10V8H12V6Z" fill="white"/>
<path d="M14 8H12V10H14V8Z" fill="white"/>
<path d="M8 10H6V12H8V10Z" fill="white"/>
<path d="M10 10H8V12H10V10Z" fill="white"/>
<path d="M12 10H10V12H12V10Z" fill="white"/>
<path d="M14 10H12V12H14V10Z" fill="white"/>
<path d="M14 12H12V14H14V12Z" fill="white"/>
<path d="M16 12H14V14H16V12Z" fill="white"/>
<path d="M6 14H4V16H6V14Z" fill="white"/>
<path d="M8 14H6V16H8V14Z" fill="white"/>
<path d="M10 14H8V16H10V14Z" fill="white"/>
<path d="M12 14H10V16H12V14Z" fill="white"/>
<path d="M14 14H12V16H14V14Z" fill="white"/>
<path d="M16 14H14V16H16V14Z" fill="white"/>
<path opacity="0.5" d="M6 2H4V4H6V2Z" fill="white"/>
<path opacity="0.5" d="M4 4H2V6H4V4Z" fill="white"/>
<path opacity="0.5" d="M4 6H2V8H4V6Z" fill="white"/>
<path opacity="0.5" d="M6 6H4V8H6V6Z" fill="white"/>
<path opacity="0.5" d="M2 8H0V10H2V8Z" fill="white"/>
<path opacity="0.5" d="M4 8H2V10H4V8Z" fill="white"/>
<path opacity="0.5" d="M4 10H2V12H4V10Z" fill="white"/>
<path opacity="0.5" d="M2 10H0V12H2V10Z" fill="white"/>
</svg>
