<?xml version="1.0" encoding="utf-8"?>
<!-- Generator: Adobe Illustrator 24.3.0, SVG Export Plug-In . SVG Version: 6.00 Build 0)  -->
<svg version="1.1" id="PaperFlipBookActor_x5F_64" xmlns="http://www.w3.org/2000/svg" xmlns:xlink="http://www.w3.org/1999/xlink"
	 x="0px" y="0px" viewBox="0 0 64 64" style="enable-background:new 0 0 64 64;" xml:space="preserve">
<style type="text/css">
	.st0{fill:none;}
	.st1{fill:url(#SVGID_1_);}
	.st2{fill:url(#SVGID_2_);}
	.st3{fill:url(#SVGID_3_);}
</style>
<rect x="0" class="st0" width="64" height="64"/>
<linearGradient id="SVGID_1_" gradientUnits="userSpaceOnUse" x1="22.5923" y1="50.5234" x2="57.1788" y2="35.3981">
	<stop  offset="0" style="stop-color:#666666"/>
	<stop  offset="1" style="stop-color:#CCCCCC"/>
</linearGradient>
<path class="st1" d="M21.3,56.5V34.3c0,0,22.8,4.2,34-10.2c0,10.7,0,17.5,0,28.2C44.2,61.1,21.3,56.5,21.3,56.5z"/>
<linearGradient id="SVGID_2_" gradientUnits="userSpaceOnUse" x1="13.5346" y1="44.0098" x2="50.6419" y2="29.2878">
	<stop  offset="0" style="stop-color:#808080"/>
	<stop  offset="1" style="stop-color:#E6E6E6"/>
</linearGradient>
<path class="st2" d="M14.1,54.3V32.1c0,0,22.5,0.6,34-18.2c0,10.7,0,17.5,0,28.2C38.4,56.9,14.1,54.3,14.1,54.3z"/>
<linearGradient id="SVGID_3_" gradientUnits="userSpaceOnUse" x1="23.5118" y1="52.6308" x2="23.5118" y2="6.3088">
	<stop  offset="0" style="stop-color:#E6E6E6"/>
	<stop  offset="1" style="stop-color:#FFFFFF"/>
</linearGradient>
<path class="st3" d="M8.7,52.6V30.5c0,0,18.1-5.4,29.6-24.2c0,10.7,0,17.5,0,28.2C28.7,49.3,8.7,52.6,8.7,52.6z"/>
</svg>
