<?xml version="1.0" encoding="utf-8"?>
<!-- Generator: Adobe Illustrator 24.3.0, SVG Export Plug-In . SVG Version: 6.00 Build 0)  -->
<svg version="1.1" id="PaperCharacter_x5F_64" xmlns="http://www.w3.org/2000/svg" xmlns:xlink="http://www.w3.org/1999/xlink"
	 x="0px" y="0px" viewBox="0 0 64 64" style="enable-background:new 0 0 64 64;" xml:space="preserve">
<style type="text/css">
	.st0{fill:none;}
	.st1{fill:#FFFFFF;stroke:#4A4A4A;stroke-width:0.25;stroke-miterlimit:10;enable-background:new    ;}
	.st2{fill:url(#SVGID_1_);stroke:#4A4A4A;stroke-width:0.25;stroke-miterlimit:10;enable-background:new    ;}
	.st3{fill:url(#SVGID_2_);stroke:#4A4A4A;stroke-width:0.25;stroke-miterlimit:10;enable-background:new    ;}
	.st4{fill:#B2B2B2;stroke:#4A4A4A;stroke-width:0.25;stroke-miterlimit:10;enable-background:new    ;}
	.st5{fill:url(#SVGID_3_);stroke:#4A4A4A;stroke-width:0.25;stroke-miterlimit:10;enable-background:new    ;}
	.st6{fill:url(#SVGID_4_);stroke:#4A4A4A;stroke-width:0.25;stroke-miterlimit:10;enable-background:new    ;}
	.st7{fill:url(#SVGID_5_);stroke:#4A4A4A;stroke-width:0.25;stroke-miterlimit:10;enable-background:new    ;}
	.st8{fill:url(#SVGID_6_);stroke:#4A4A4A;stroke-width:0.25;stroke-miterlimit:10;enable-background:new    ;}
	.st9{fill:url(#SVGID_7_);stroke:#4A4A4A;stroke-width:0.25;stroke-miterlimit:10;enable-background:new    ;}
	.st10{fill:url(#SVGID_8_);stroke:#4A4A4A;stroke-width:0.25;stroke-miterlimit:10;enable-background:new    ;}
	.st11{fill:url(#SVGID_9_);stroke:#4A4A4A;stroke-width:0.25;stroke-miterlimit:10;enable-background:new    ;}
	.st12{fill:url(#SVGID_10_);stroke:#4A4A4A;stroke-width:0.25;stroke-miterlimit:10;enable-background:new    ;}
</style>
<rect x="0" class="st0" width="64" height="64"/>
<path class="st1" d="M32,5.3h-6.7V12H32V5.3z"/>
<path class="st1" d="M38.7,5.3H32V12h6.7V5.3z"/>
<path class="st1" d="M45.4,12h-6.7v6.7h6.7V12z"/>
<path class="st1" d="M45.4,18.6h-6.7v6.7h6.7V18.6z"/>
<path class="st1" d="M38.7,12H32v6.7h6.7V12z"/>
<path class="st1" d="M32,12h-6.7v6.7H32V12z"/>
<path class="st1" d="M25.3,12h-6.7v6.7h6.7V12z"/>
<path class="st1" d="M25.3,18.6h-6.7v6.7h6.7V18.6z"/>
<path class="st1" d="M32,18.6h-6.7v6.7H32V18.6z"/>
<path class="st1" d="M38.7,18.6H32v6.7h6.7V18.6z"/>
<path class="st1" d="M45.4,25.3h-6.7V32h6.7V25.3z"/>
<path class="st1" d="M38.7,25.3H32V32h6.7V25.3z"/>
<path class="st1" d="M32,25.3h-6.7V32H32V25.3z"/>
<path class="st1" d="M25.3,25.3h-6.7V32h6.7V25.3z"/>
<path class="st1" d="M32,32h-6.7v6.7H32V32z"/>
<path class="st1" d="M38.7,32H32v6.7h6.7V32z"/>
<linearGradient id="SVGID_1_" gradientUnits="userSpaceOnUse" x1="35.3398" y1="38.629" x2="35.3398" y2="45.5191">
	<stop  offset="0" style="stop-color:#999999"/>
	<stop  offset="0.3807" style="stop-color:#F2F2F2"/>
</linearGradient>
<path class="st2" d="M38.7,38.7H32v6.7h6.7V38.7z"/>
<linearGradient id="SVGID_2_" gradientUnits="userSpaceOnUse" x1="28.7415" y1="39.2552" x2="28.5553" y2="45.5866">
	<stop  offset="0" style="stop-color:#999999"/>
	<stop  offset="0.3807" style="stop-color:#F2F2F2"/>
</linearGradient>
<path class="st3" d="M32,38.7h-6.7v6.7H32V38.7z"/>
<path class="st4" d="M32,45.4h-6.7V52H32V45.4z"/>
<path class="st4" d="M25.3,45.4h-6.7V52h6.7V45.4z"/>
<path class="st4" d="M18.6,45.4H12V52h6.7V45.4z"/>
<linearGradient id="SVGID_3_" gradientUnits="userSpaceOnUse" x1="15.3012" y1="58.799" x2="15.3012" y2="52.5461">
	<stop  offset="0" style="stop-color:#666666"/>
	<stop  offset="1" style="stop-color:#B2B2B2"/>
</linearGradient>
<path class="st5" d="M18.6,52H12v6.7h6.7V52z"/>
<path class="st4" d="M38.7,45.4H32V52h6.7V45.4z"/>
<path class="st4" d="M45.4,45.4h-6.7V52h6.7V45.4z"/>
<path class="st4" d="M52,45.4h-6.7V52H52V45.4z"/>
<path class="st1" d="M45.4,32h-6.7v6.7h6.7V32z"/>
<path class="st1" d="M25.3,32h-6.7v6.7h6.7V32z"/>
<linearGradient id="SVGID_4_" gradientUnits="userSpaceOnUse" x1="21.9807" y1="58.799" x2="21.9807" y2="52.5461">
	<stop  offset="0" style="stop-color:#666666"/>
	<stop  offset="1" style="stop-color:#B2B2B2"/>
</linearGradient>
<path class="st6" d="M25.3,52h-6.7v6.7h6.7V52z"/>
<linearGradient id="SVGID_5_" gradientUnits="userSpaceOnUse" x1="28.6602" y1="58.799" x2="28.6602" y2="52.5461">
	<stop  offset="0" style="stop-color:#666666"/>
	<stop  offset="1" style="stop-color:#B2B2B2"/>
</linearGradient>
<path class="st7" d="M32,52h-6.7v6.7H32V52z"/>
<linearGradient id="SVGID_6_" gradientUnits="userSpaceOnUse" x1="35.3398" y1="58.799" x2="35.3398" y2="52.5461">
	<stop  offset="0" style="stop-color:#666666"/>
	<stop  offset="1" style="stop-color:#B2B2B2"/>
</linearGradient>
<path class="st8" d="M38.7,52H32v6.7h6.7V52z"/>
<linearGradient id="SVGID_7_" gradientUnits="userSpaceOnUse" x1="42.0193" y1="58.799" x2="42.0193" y2="52.5461">
	<stop  offset="0" style="stop-color:#666666"/>
	<stop  offset="1" style="stop-color:#B2B2B2"/>
</linearGradient>
<path class="st9" d="M45.4,52h-6.7v6.7h6.7V52z"/>
<linearGradient id="SVGID_8_" gradientUnits="userSpaceOnUse" x1="48.6988" y1="58.799" x2="48.6988" y2="52.5461">
	<stop  offset="0" style="stop-color:#666666"/>
	<stop  offset="1" style="stop-color:#B2B2B2"/>
</linearGradient>
<path class="st10" d="M52,52h-6.7v6.7H52V52z"/>
<linearGradient id="SVGID_9_" gradientUnits="userSpaceOnUse" x1="55.3784" y1="58.799" x2="55.3784" y2="52.5461">
	<stop  offset="0" style="stop-color:#666666"/>
	<stop  offset="1" style="stop-color:#B2B2B2"/>
</linearGradient>
<path class="st11" d="M58.7,52H52v6.7h6.7V52z"/>
<linearGradient id="SVGID_10_" gradientUnits="userSpaceOnUse" x1="8.6216" y1="58.799" x2="8.6216" y2="52.5461">
	<stop  offset="0" style="stop-color:#666666"/>
	<stop  offset="1" style="stop-color:#B2B2B2"/>
</linearGradient>
<path class="st12" d="M12,52H5.3v6.7H12V52z"/>
</svg>
