<svg width="16" height="16" viewBox="0 0 16 16" fill="none" xmlns="http://www.w3.org/2000/svg">
<path d="M4.00011 9.99997V9.07996C3.97283 8.54747 4.05753 8.01521 4.24889 7.51755C4.44026 7.01989 4.73393 6.56791 5.11095 6.19089C5.48797 5.81387 5.93995 5.52019 6.43761 5.32883C6.93527 5.13746 7.46763 5.05267 8.00011 5.07996V5.07996C8.5326 5.05267 9.06495 5.13746 9.56261 5.32883C10.0603 5.52019 10.5123 5.81387 10.8893 6.19089C11.2663 6.56791 11.56 7.01989 11.7513 7.51755C11.9427 8.01521 12.0274 8.54747 12.0001 9.07996V9.99997H4.00011ZM8.00011 0.459961C7.42898 0.462605 6.88204 0.691338 6.47912 1.09613C6.0762 1.50092 5.85021 2.04883 5.85021 2.61996C5.85021 3.19018 6.07665 3.73706 6.47985 4.14026C6.88305 4.54346 7.4299 4.76996 8.00011 4.76996C8.57033 4.76996 9.11717 4.54346 9.52038 4.14026C9.92358 3.73706 10.15 3.19018 10.15 2.61996C10.15 2.04883 9.92403 1.50092 9.52111 1.09613C9.11819 0.691338 8.57125 0.462605 8.00011 0.459961V0.459961Z" fill="white"/>
<path d="M0 11V15H16V11H0ZM2 14V12H9V14H2ZM13 13.42V12.58C13 12.4262 13.0612 12.2787 13.1699 12.1699C13.2787 12.0611 13.4263 12 13.5801 12H14.4199C14.5737 12 14.7213 12.0611 14.8301 12.1699C14.9388 12.2787 15 12.4262 15 12.58V13.42C15 13.5738 14.9388 13.7213 14.8301 13.8301C14.7213 13.9389 14.5737 14 14.4199 14H13.5801C13.4263 14 13.2787 13.9389 13.1699 13.8301C13.0612 13.7213 13 13.5738 13 13.42V13.42Z" fill="white"/>
</svg>
