<svg width="16" height="16" viewBox="0 0 16 16" fill="none" xmlns="http://www.w3.org/2000/svg">
<path fill-rule="evenodd" clip-rule="evenodd" d="M10.5901 3.86C10.6267 5.80266 9.90996 7.6841 8.59009 9.11C7.2886 10.5512 5.47758 11.4298 3.54004 11.56C7.33004 10.49 8.38007 7.47 8.38007 3.86H6.21008L9.46008 0L12.7001 3.86H10.5901Z" fill="white"/>
<path opacity="0.5" d="M14 5.86035H12.73L11.86 7.86035H14V13.8604H2V7.86035H5L6 5.86035H2C1.46957 5.86035 0.960888 6.07106 0.585815 6.44614C0.210743 6.82121 0 7.32992 0 7.86035V13.8604C0 14.3908 0.210743 14.8995 0.585815 15.2746C0.960888 15.6496 1.46957 15.8604 2 15.8604H14C14.5304 15.8604 15.0391 15.6496 15.4142 15.2746C15.7893 14.8995 16 14.3908 16 13.8604V7.86035C16 7.32992 15.7893 6.82121 15.4142 6.44614C15.0391 6.07106 14.5304 5.86035 14 5.86035Z" fill="white"/>
</svg>
