<svg width="16" height="16" viewBox="0 0 16 16" fill="none" xmlns="http://www.w3.org/2000/svg">
<path opacity="0.5" d="M6 0H5V3H6V0Z" fill="white"/>
<path opacity="0.5" d="M11 0H10V3H11V0Z" fill="white"/>
<path d="M10.5 12.5C11.0523 12.5 11.5 12.0523 11.5 11.5C11.5 10.9477 11.0523 10.5 10.5 10.5C9.94772 10.5 9.5 10.9477 9.5 11.5C9.5 12.0523 9.94772 12.5 10.5 12.5Z" fill="white"/>
<path d="M10.5 8.5C11.0523 8.5 11.5 8.05228 11.5 7.5C11.5 6.94772 11.0523 6.5 10.5 6.5C9.94772 6.5 9.5 6.94772 9.5 7.5C9.5 8.05228 9.94772 8.5 10.5 8.5Z" fill="white"/>
<path fill-rule="evenodd" clip-rule="evenodd" d="M12 1V4H9V1H7V4H4V1H2V16H14V1H12ZM13 13H3V10H13V13ZM13 9H3V6H13V9Z" fill="white"/>
</svg>
