<svg width="16" height="16" viewBox="0 0 16 16" fill="none" xmlns="http://www.w3.org/2000/svg">
<path opacity="0.5" d="M6 0H5V3H6V0Z" fill="white"/>
<path opacity="0.5" d="M11 0H10V3H11V0Z" fill="white"/>
<path fill-rule="evenodd" clip-rule="evenodd" d="M12 1V4H9V1H7V4H4V1H2V16H14V1H12ZM4.29004 12.71C3.8015 12.2236 3.41395 11.6455 3.14966 11.0088C2.88537 10.3721 2.74951 9.68937 2.75 9C2.74951 8.31063 2.88537 7.62794 3.14966 6.99124C3.41395 6.35454 3.8015 5.77639 4.29004 5.29001L4.83008 5.82999C4.41195 6.24528 4.08005 6.73917 3.85352 7.2832C3.62698 7.82724 3.51021 8.41069 3.51001 9C3.51021 9.58931 3.62698 10.1728 3.85352 10.7168C4.08005 11.2608 4.41195 11.7547 4.83008 12.17L4.29004 12.71ZM6.29004 10.71L5.75 11.25C5.43823 10.9549 5.18913 10.6001 5.01733 10.2066C4.84554 9.81322 4.75456 9.38926 4.75 8.95999C4.75456 8.53072 4.84554 8.10676 5.01733 7.71335C5.18913 7.31993 5.43823 6.96513 5.75 6.67001L6.29004 7.20999C6.05908 7.43922 5.87577 7.71182 5.75049 8.01215C5.62521 8.31247 5.56047 8.63459 5.56006 8.95999C5.54988 9.28929 5.60562 9.6173 5.72412 9.92471C5.84262 10.2321 6.02142 10.5127 6.25 10.75L6.29004 10.71ZM8.04004 10.3C7.68465 10.3 7.34383 10.1588 7.09253 9.90753C6.84123 9.65623 6.69995 9.31538 6.69995 8.95999C6.69995 8.6046 6.84123 8.26378 7.09253 8.01248C7.34383 7.76118 7.68465 7.62 8.04004 7.62C8.21601 7.62 8.39016 7.65467 8.55273 7.72202C8.71531 7.78936 8.86312 7.88805 8.98755 8.01248C9.11198 8.13691 9.21073 8.28463 9.27808 8.4472C9.34542 8.60978 9.37988 8.78402 9.37988 8.95999C9.38542 9.14272 9.35352 9.32466 9.28613 9.4946C9.21874 9.66453 9.1173 9.81888 8.98804 9.94815C8.85877 10.0774 8.7046 10.1789 8.53467 10.2462C8.36473 10.3136 8.18273 10.3455 8 10.34L8.04004 10.3ZM9.79004 10.71C10.021 10.4808 10.2043 10.2082 10.3296 9.90784C10.4549 9.60752 10.5196 9.28539 10.52 8.95999C10.5196 8.63459 10.4549 8.31247 10.3296 8.01215C10.2043 7.71182 10.021 7.43922 9.79004 7.20999L10.3301 6.67001C10.6418 6.96513 10.8909 7.31993 11.0627 7.71335C11.2345 8.10676 11.3255 8.53072 11.3301 8.95999C11.3255 9.38926 11.2345 9.81322 11.0627 10.2066C10.8909 10.6001 10.6418 10.9549 10.3301 11.25L9.79004 10.71ZM11.79 12.71L11.25 12.17C11.6681 11.7547 12 11.2608 12.2266 10.7168C12.4531 10.1728 12.5699 9.58931 12.5701 9C12.5699 8.41069 12.4531 7.82724 12.2266 7.2832C12 6.73917 11.6681 6.24528 11.25 5.82999L11.79 5.29001C12.2786 5.77639 12.6661 6.35454 12.9304 6.99124C13.1947 7.62794 13.3306 8.31063 13.3301 9C13.3201 9.69502 13.1717 10.3811 12.8936 11.0181C12.6154 11.6551 12.213 12.2303 11.71 12.71H11.79Z" fill="white"/>
</svg>
