<svg width="16" height="16" viewBox="0 0 16 16" fill="none" xmlns="http://www.w3.org/2000/svg">
<path d="M1.00011 15V14.08C0.972826 13.5475 1.05753 13.0152 1.24889 12.5175C1.44026 12.0199 1.73393 11.5679 2.11095 11.1909C2.48797 10.8139 2.93995 10.5202 3.43761 10.3288C3.93527 10.1375 4.46763 10.0527 5.00011 10.08V10.08C5.5326 10.0527 6.06495 10.1375 6.56261 10.3288C7.06027 10.5202 7.51225 10.8139 7.88927 11.1909C8.26629 11.5679 8.55997 12.0199 8.75133 12.5175C8.9427 13.0152 9.0274 13.5475 9.00011 14.08V15H1.00011ZM5.00011 5.45996C4.42898 5.46261 3.88204 5.69134 3.47912 6.09613C3.0762 6.50092 2.85021 7.04883 2.85021 7.61996C2.85021 8.19018 3.07665 8.73706 3.47985 9.14026C3.88305 9.54346 4.4299 9.76996 5.00011 9.76996C5.57033 9.76996 6.11717 9.54346 6.52038 9.14026C6.92358 8.73706 7.15002 8.19018 7.15002 7.61996C7.15002 7.04883 6.92403 6.50092 6.52111 6.09613C6.11819 5.69134 5.57125 5.46261 5.00011 5.45996V5.45996Z" fill="white"/>
<path opacity="0.5" d="M10.1504 5.61996C10.1504 5.04883 9.9244 4.50092 9.52148 4.09613C9.11857 3.69134 8.57162 3.46261 8.00049 3.45996C7.69816 3.46073 7.39948 3.52526 7.12378 3.64932C6.84808 3.77339 6.60147 3.9542 6.40039 4.17996C7.04163 4.37715 7.60259 4.77514 8.00049 5.31528C8.39839 5.85541 8.61237 6.5091 8.6106 7.17996C8.62622 7.3496 8.62622 7.52033 8.6106 7.68997C9.05753 7.55944 9.44962 7.28671 9.72754 6.91315C10.0055 6.53958 10.1538 6.08556 10.1504 5.61996V5.61996Z" fill="white"/>
<path opacity="0.5" d="M8.46045 8.12012C8.3511 8.45374 8.18907 8.76771 7.98047 9.05011C8.73233 9.41944 9.37541 9.97758 9.84692 10.67C10.3184 11.3623 10.6022 12.1652 10.6704 13.0001H12.0005V12.0801C12.0551 11.0858 11.713 10.1105 11.0493 9.3681C10.3857 8.62571 9.45462 8.17688 8.46045 8.12012V8.12012Z" fill="white"/>
<path opacity="0.5" d="M13.1504 3.61996C13.1504 3.04883 12.9244 2.50092 12.5215 2.09613C12.1186 1.69134 11.5716 1.46261 11.0005 1.45996C10.6982 1.46073 10.3995 1.52526 10.1238 1.64932C9.84808 1.77339 9.60147 1.9542 9.40039 2.17996C10.0416 2.37715 10.6026 2.77514 11.0005 3.31528C11.3984 3.85541 11.6124 4.5091 11.6106 5.17996C11.6262 5.3496 11.6262 5.52033 11.6106 5.68997C12.0575 5.55944 12.4496 5.28671 12.7275 4.91315C13.0055 4.53958 13.1538 4.08556 13.1504 3.61996Z" fill="white"/>
<path opacity="0.5" d="M11.4604 6.12012C11.3511 6.45374 11.1891 6.76771 10.9805 7.05011C11.7323 7.41944 12.3754 7.97758 12.8469 8.66995C13.3184 9.36232 13.6022 10.1652 13.6704 11.0001H15.0005V10.0801C15.0551 9.08582 14.713 8.1105 14.0493 7.3681C13.3857 6.62571 12.4546 6.17688 11.4604 6.12012V6.12012Z" fill="white"/>
</svg>
