<svg width="16" height="16" viewBox="0 0 16 16" fill="none" xmlns="http://www.w3.org/2000/svg">
<g clip-path="url(#clip0_10561_29528)">
<path opacity="0.5" d="M8.41003 1.12999L15 4.70999V9.56999L8.38 14.76L1 9.64998V4.99998L8.41003 1.16998V1.12999ZM8.41003 0.039978L-0.0100098 4.38998V10.21L8.41003 16.04L15.99 10.1V4.14998L8.41003 0.039978Z" fill="white"/>
<path d="M12.0001 5.88C12.0123 6.0005 11.9803 6.12131 11.9101 6.22C11.8843 6.25323 11.8508 6.2797 11.8125 6.29712C11.7741 6.31454 11.7321 6.32239 11.69 6.32001C11.6466 6.32237 11.6032 6.31455 11.5633 6.2972C11.5234 6.27984 11.488 6.2534 11.4601 6.22C11.3506 6.05693 11.1881 5.93679 11.0001 5.88V5H9.00009V11H10.44C10.4935 11.1788 10.6065 11.334 10.7601 11.44C10.7908 11.4716 10.8147 11.5093 10.8302 11.5506C10.8457 11.5919 10.8524 11.6359 10.8501 11.68C10.851 11.7224 10.8437 11.7645 10.8282 11.804C10.8128 11.8435 10.7896 11.8795 10.7601 11.91C10.668 11.978 10.5541 12.01 10.44 12H5.56015C5.44608 12.01 5.33222 11.978 5.24008 11.91C5.21059 11.8795 5.18742 11.8435 5.17197 11.804C5.15652 11.7645 5.14913 11.7224 5.15012 11.68C5.14777 11.6359 5.15452 11.5919 5.17001 11.5506C5.1855 11.5093 5.20935 11.4716 5.24008 11.44C5.39371 11.334 5.50666 11.1788 5.56015 11H7.00009V5H5.00009V5.88C4.81208 5.93679 4.64958 6.05693 4.54013 6.22C4.51221 6.2534 4.47678 6.27984 4.43686 6.2972C4.39693 6.31455 4.35362 6.32237 4.31015 6.32001C4.26823 6.32157 4.22651 6.31335 4.18832 6.29599C4.15014 6.27863 4.11644 6.25261 4.09006 6.22C4.01987 6.12131 3.98792 6.0005 4.00009 5.88V4H12.0001V5.88Z" fill="white"/>
</g>
<defs>
<clipPath id="clip0_10561_29528">
<rect width="16" height="16" fill="white"/>
</clipPath>
</defs>
</svg>
