<svg width="16" height="16" viewBox="0 0 16 16" fill="none" xmlns="http://www.w3.org/2000/svg">
<path d="M12.3701 2.14001L16 4.14001L13.1499 6.26999L9.51001 4.26999L12.3701 2.14001ZM8.37012 3.57001L11.4399 1.63L8.43994 0L5.07007 1.73999L8.37012 3.57001ZM7.16992 4.32999L4.01001 2.32999L0.0100098 4.39999L3.54004 6.67999L7.16992 4.32999ZM8.33008 5.07999L4.94995 7.53L8.43994 9.78L11.76 7.29999L8.33008 5.07999Z" fill="white"/>
<path opacity="0.5" d="M11.74 7.29999V13.4L8.41992 16V9.78L11.74 7.29999ZM13.1499 6.23999V12.29L16 10.06V4.10999L13.1499 6.23999ZM3.53003 6.63L0 4.35001V10.17L3.53003 12.62V6.63ZM4.92993 7.53V13.59L8.41992 16V9.78L4.92993 7.53Z" fill="white"/>
</svg>
