<svg width="16" height="16" viewBox="0 0 16 16" fill="none" xmlns="http://www.w3.org/2000/svg">
<g clip-path="url(#clip0_11938_10096)">
<path d="M12.3699 2.14001L15.9998 4.14001L13.1497 6.26999L9.50977 4.26999L12.3699 2.14001ZM8.36987 3.57001L11.4397 1.63L8.4397 0L5.06982 1.73999L8.36987 3.57001ZM7.16968 4.32999L4.00977 2.32999L0.00976562 4.39999L3.53979 6.67999L7.16968 4.32999ZM8.32983 5.07999L4.94971 7.53L8.4397 9.78L11.7598 7.29999L8.32983 5.07999Z" fill="white"/>
<path opacity="0.5" d="M11.74 7.29987V13.3999L8.41992 15.9999V9.77988L11.74 7.29987ZM13.1499 6.23987V12.2899L16 10.0599V4.10986L13.1499 6.23987ZM3.53003 6.62988L0 4.34988V10.1699L3.53003 12.6199V6.62988ZM4.92993 7.52988V13.5899L8.41992 15.9999V9.77988L4.92993 7.52988Z" fill="white"/>
</g>
<defs>
<clipPath id="clip0_11938_10096">
<rect width="16" height="16" fill="white"/>
</clipPath>
</defs>
</svg>
