<svg width="16" height="16" viewBox="0 0 16 16" fill="none" xmlns="http://www.w3.org/2000/svg">
<g clip-path="url(#clip0_10561_29529)">
<path opacity="0.5" d="M8.41003 1.12999L15 4.70999V9.56999L8.38 14.76L1 9.64998V4.99998L8.41003 1.16998V1.12999ZM8.41003 0.039978L-0.0100098 4.38998V10.21L8.41003 16.04L15.99 10.1V4.14998L8.41003 0.039978Z" fill="white"/>
<path d="M7.62 11.85L4.73999 8.98001C4.53354 8.76887 4.41797 8.48531 4.41797 8.19002C4.41797 7.89472 4.53354 7.61115 4.73999 7.40001V7.40001C4.95113 7.19356 5.23473 7.07797 5.53003 7.07797C5.82533 7.07797 6.10881 7.19356 6.31995 7.40001L7.60999 8.69002L11.09 5.21002C11.1932 5.10541 11.3163 5.02235 11.4519 4.96565C11.5875 4.90896 11.733 4.87976 11.88 4.87976C12.027 4.87976 12.1725 4.90896 12.3081 4.96565C12.4437 5.02235 12.5668 5.10541 12.67 5.21002V5.21002C12.8765 5.42116 12.9921 5.70472 12.9921 6.00002C12.9921 6.29531 12.8765 6.57887 12.67 6.79001L7.62 11.85Z" fill="white"/>
</g>
<defs>
<clipPath id="clip0_10561_29529">
<rect width="16" height="16" fill="white"/>
</clipPath>
</defs>
</svg>
