<svg width="16" height="16" viewBox="0 0 16 16" fill="none" xmlns="http://www.w3.org/2000/svg">
<path d="M0 1V5H16V1H0ZM2 4V2H9V4H2ZM13 3.42V2.58C13 2.42618 13.0612 2.27865 13.1699 2.16988C13.2787 2.0611 13.4263 2 13.5801 2H14.4199C14.5737 2 14.7213 2.0611 14.8301 2.16988C14.9388 2.27865 15 2.42618 15 2.58V3.42C15 3.57382 14.9388 3.72135 14.8301 3.83012C14.7213 3.9389 14.5737 4 14.4199 4H13.5801C13.4263 4 13.2787 3.9389 13.1699 3.83012C13.0612 3.72135 13 3.57382 13 3.42V3.42Z" fill="white"/>
<path d="M0 6V10H16V6H0ZM2 9V7H9V9H2ZM13 8.42V7.58C13 7.42618 13.0612 7.27865 13.1699 7.16988C13.2787 7.0611 13.4263 7 13.5801 7H14.4199C14.5737 7 14.7213 7.0611 14.8301 7.16988C14.9388 7.27865 15 7.42618 15 7.58V8.42C15 8.57382 14.9388 8.72135 14.8301 8.83012C14.7213 8.9389 14.5737 9 14.4199 9H13.5801C13.4263 9 13.2787 8.9389 13.1699 8.83012C13.0612 8.72135 13 8.57382 13 8.42V8.42Z" fill="white"/>
<path d="M0 11V15H16V11H0ZM2 14V12H9V14H2ZM13 13.42V12.58C13 12.4262 13.0612 12.2786 13.1699 12.1699C13.2787 12.0611 13.4263 12 13.5801 12H14.4199C14.5737 12 14.7213 12.0611 14.8301 12.1699C14.9388 12.2786 15 12.4262 15 12.58V13.42C15 13.4962 14.985 13.5716 14.9558 13.642C14.9267 13.7123 14.8839 13.7763 14.8301 13.8301C14.7762 13.884 14.7122 13.9267 14.6418 13.9559C14.5715 13.985 14.4961 14 14.4199 14H13.5801C13.5039 14 13.4285 13.985 13.3582 13.9559C13.2878 13.9267 13.2238 13.884 13.1699 13.8301C13.1161 13.7763 13.0733 13.7123 13.0442 13.642C13.015 13.5716 13 13.4962 13 13.42Z" fill="white"/>
</svg>
