<svg width="16" height="16" viewBox="0 0 16 16" fill="none" xmlns="http://www.w3.org/2000/svg">
<path opacity="0.5" fill-rule="evenodd" clip-rule="evenodd" d="M14 13L13 9L16 13V15H0V13L3 9L2 13H4H11H14Z" fill="white"/>
<path d="M13.74 4.8C13.99 4.59 14.23 4.39 14.46 4.17C14.89 3.48 15.27 2.77 15.5 2.01C14.86 2.48 14.23 2.91 13.58 3.28C13.06 3.78 12.5 4.23 11.91 4.62C10.72 5.4 9.37 5.87 7.99 5.89C6.62 5.87 5.26 5.41 4.07 4.63C3.49 4.22 2.93 3.77 2.42 3.26C1.77 2.89 1.15 2.47 0.5 2C0.72 2.77 1.1 3.48 1.54 4.17C1.76 4.38 1.99 4.57 2.22 4.76L0.65 6.86L2.93 5.31C3.09 5.43 3.24 5.55 3.41 5.66C3.79 5.91 4.19 6.13 4.61 6.32L3.92 9.17L5.5 6.68C6.15 6.9 6.83 7.03 7.52 7.08L8 10L8.49 7.08C9.16 7.03 9.82 6.91 10.45 6.7L12.02 9.16L11.34 6.33C11.78 6.13 12.21 5.91 12.61 5.64C12.76 5.54 12.91 5.42 13.05 5.32L15.29 6.84L13.74 4.8Z" fill="white"/>
</svg>
