<svg width="18" height="16" viewBox="0 0 18 16" fill="none" xmlns="http://www.w3.org/2000/svg">
<path opacity="0.5" fill-rule="evenodd" clip-rule="evenodd" d="M15 13L14 9L17 13V15H1V13L4 9L3 13H5H12H15Z" fill="white"/>
<path d="M9 1C4.5 1 1.5 5.5 1.5 5.5C1.5 5.5 4.5 10 9 10C13.5 10 16.5 5.5 16.5 5.5C16.5 5.5 13.5 1 9 1Z" stroke="white" stroke-width="0.9706" stroke-miterlimit="10"/>
<path d="M9.02002 8C7.64002 8 6.52002 6.88 6.52002 5.5C6.52002 4.12 7.64002 3 9.02002 3C10.4 3 11.52 4.12 11.52 5.5C11.52 6.88 10.4 8 9.02002 8Z" fill="white"/>
</svg>
