<svg width="20" height="20" viewBox="0 0 20 20" fill="none" xmlns="http://www.w3.org/2000/svg">
<g clip-path="url(#clip0_12167_10859)">
<path opacity="0.5" d="M14.9122 13.3498C13.2441 13.6664 11.5178 13.377 10.0442 12.5336C8.57057 11.6903 7.44658 10.3484 6.87467 8.74976L6.77467 8.49976C5.8272 8.93854 5.01742 9.62755 4.43261 10.4926C3.8478 11.3576 3.51012 12.3657 3.45597 13.4085C3.40181 14.4512 3.63323 15.489 4.12529 16.4099C4.61735 17.3308 5.35139 18.1 6.24831 18.6346C7.14523 19.1692 8.17103 19.4488 9.21515 19.4435C10.2593 19.4381 11.2822 19.148 12.1736 18.6042C13.0649 18.0605 13.7911 17.2838 14.2737 16.3579C14.7562 15.4319 14.977 14.3919 14.9122 13.3498V13.3498Z" fill="white"/>
<path opacity="0.5" d="M4.14994 0.887504C3.13253 1.23947 2.23561 1.87237 1.56298 2.71294C0.890346 3.55351 0.469514 4.56739 0.349192 5.63721C0.22887 6.70703 0.413978 7.78905 0.883089 8.75803C1.3522 9.72701 2.08613 10.5433 2.99994 11.1125C3.20353 10.7316 3.45563 10.3786 3.74994 10.0625C2.84892 9.54748 2.16173 8.72728 1.81244 7.75C1.42508 6.63104 1.497 5.40417 2.01245 4.33813C2.5279 3.27209 3.44484 2.4538 4.56244 2.0625C5.03325 1.9008 5.52714 1.81637 6.02494 1.8125C6.73853 1.81192 7.44174 1.98343 8.07494 2.3125C8.31355 1.96601 8.59494 1.65103 8.91244 1.375C8.20144 0.953254 7.40722 0.691203 6.58485 0.607023C5.76247 0.522843 4.93163 0.618549 4.14994 0.887504V0.887504Z" fill="white"/>
<path d="M13.75 11.875C16.8566 11.875 19.375 9.3566 19.375 6.25C19.375 3.1434 16.8566 0.625 13.75 0.625C10.6434 0.625 8.125 3.1434 8.125 6.25C8.125 9.3566 10.6434 11.875 13.75 11.875Z" fill="white"/>
</g>
<defs>
<clipPath id="clip0_12167_10859">
<rect width="20" height="20" fill="white"/>
</clipPath>
</defs>
</svg>
