<?xml version="1.0" encoding="UTF-8"?>
<svg width="16px" height="16px" viewBox="0 0 16 16" version="1.1" xmlns="http://www.w3.org/2000/svg" xmlns:xlink="http://www.w3.org/1999/xlink">
    <title>UnderFrustum16x16v1</title>
    <g id="Page-1" stroke="none" stroke-width="1" fill="none" fill-rule="evenodd">
        <g id="FixFigma" transform="translate(-600.000000, -472.000000)" fill="#FFFFFF" fill-rule="nonzero">
            <g id="UnderFrustum16x16v1" transform="translate(600.000000, 472.000000)">
                <g id="Clipped">
                    <polygon id="Rectangle" points="1.386391e-14 -1.98960001e-14 9 2.59792188e-14 9 2 4.5 2 4.26615979e-14 6.5 4.26615979e-14 9"></polygon>
                </g>
                <path d="M7,8 L7,11 L2,11 L2,8 L7,8 Z M8,7 L1,7 L1,12 L8,12 L8,7 Z" id="Shape"></path>
                <polygon id="Path" points="1 8 1 7 5 3 16 3 16 16 5 16 1 12 1 11 6 15 13 15 7 12 7 11 15 14.57 15 4.43 7 8 7 7 13 4 6 4"></polygon>
            </g>
        </g>
    </g>
</svg>