<?xml version="1.0" encoding="UTF-8"?>
<svg width="16px" height="16px" viewBox="0 0 16 16" version="1.1" xmlns="http://www.w3.org/2000/svg" xmlns:xlink="http://www.w3.org/1999/xlink">
    <title>OverFrustum16x16</title>
    <g id="Page-1" stroke="none" stroke-width="1" fill="none" fill-rule="evenodd">
        <g id="FixFigma" transform="translate(-570.000000, -464.000000)" fill="#FFFFFF" fill-rule="nonzero">
            <g id="OverFrustum16x16" transform="translate(570.000000, 464.000000)">
                <g id="Group">
                    <path d="M6,5 L6,8 L1,8 L1,5 L6,5 Z M7,4 L0,4 L0,9 L7,9 L7,4 Z" id="Shape"></path>
                    <path d="M0,8 L5,12 L7,12 L7,13 L4,13 L0,9 L0,8 Z M15,7 L14,7 L14,1.43 L6,5 L6,4 L12,1 L5,1 L0,5 L0,4 L4,0 L15,0 L15,7 Z M6,8 L7,8.446 L7,9.5 L6,9 L6,8 Z" id="Combined-Shape"></path>
                </g>
                <rect id="Rectangle" x="8" y="8" width="8" height="8"></rect>
            </g>
        </g>
    </g>
</svg>