<svg width="16" height="16" viewBox="0 0 16 16" fill="none" xmlns="http://www.w3.org/2000/svg">
<path opacity="0.5" d="M1 2H15" stroke="white" stroke-width="2" stroke-miterlimit="10" stroke-linecap="round"/>
<path d="M7 4C8.10457 4 9 3.10457 9 2C9 0.89543 8.10457 0 7 0C5.89543 0 5 0.89543 5 2C5 3.10457 5.89543 4 7 4Z" fill="white"/>
<path opacity="0.5" d="M1 8H15" stroke="white" stroke-width="2" stroke-miterlimit="10" stroke-linecap="round"/>
<path d="M11 10C12.1046 10 13 9.10457 13 8C13 6.89543 12.1046 6 11 6C9.89543 6 9 6.89543 9 8C9 9.10457 9.89543 10 11 10Z" fill="white"/>
<path opacity="0.5" d="M1 14H15" stroke="white" stroke-width="2" stroke-miterlimit="10" stroke-linecap="round"/>
<path d="M5 16C6.10457 16 7 15.1046 7 14C7 12.8954 6.10457 12 5 12C3.89543 12 3 12.8954 3 14C3 15.1046 3.89543 16 5 16Z" fill="white"/>
</svg>
