<svg width="16" height="16" viewBox="0 0 16 16" fill="none" xmlns="http://www.w3.org/2000/svg">
<path opacity="0.5" d="M14 1H2V15H14V1Z" fill="white"/>
<path d="M12 3V5H4V3H12ZM13 2H3V6H13V2Z" fill="white"/>
<path d="M4 9.69995L6.83008 13H4V9.69995ZM3 7V14H9L3 7Z" fill="white"/>
<path d="M10.5 8C10.8978 8 11.2792 8.15815 11.5605 8.43945C11.8419 8.72076 12 9.10218 12 9.5C12 9.89782 11.8419 10.2792 11.5605 10.5605C11.2792 10.8419 10.8978 11 10.5 11C10.1022 11 9.72076 10.8419 9.43945 10.5605C9.15815 10.2792 9 9.89782 9 9.5C9 9.10218 9.15815 8.72076 9.43945 8.43945C9.72076 8.15815 10.1022 8 10.5 8ZM10.5 7C9.83696 7 9.20102 7.26334 8.73218 7.73218C8.26334 8.20102 8 8.83696 8 9.5C8 10.163 8.26334 10.799 8.73218 11.2678C9.20102 11.7367 9.83696 12 10.5 12C11.163 12 11.799 11.7367 12.2678 11.2678C12.7367 10.799 13 10.163 13 9.5C13 8.83696 12.7367 8.20102 12.2678 7.73218C11.799 7.26334 11.163 7 10.5 7Z" fill="white"/>
</svg>
