<?xml version="1.0" encoding="utf-8"?>
<!-- Generator: Adobe Illustrator 25.2.3, SVG Export Plug-In . SVG Version: 6.00 Build 0)  -->
<svg version="1.1" id="Layer_1" xmlns="http://www.w3.org/2000/svg" xmlns:xlink="http://www.w3.org/1999/xlink" x="0px" y="0px"
	 viewBox="0 0 645 640" style="enable-background:new 0 0 645 640;" xml:space="preserve">
<style type="text/css">
	.st0{display:none;}
	.st1{display:none;fill:#FFFFFF;}
	.st2{fill:#FFFFFF;}
	.st3{display:inline;fill:none;stroke:#FFFFFF;stroke-width:26;stroke-miterlimit:10;stroke-dasharray:30.2088,22.1531;}
	.st4{display:inline;fill:#0000FF;}
	.st5{fill:none;stroke:#FFFFFF;stroke-width:23;stroke-miterlimit:10;}
</style>
<circle class="st0" cx="320" cy="323" r="232"/>
<circle class="st1" cx="320.5" cy="320.5" r="187.5"/>
<path class="st2" d="M496,320c0,97.2-78.8,176-176,176s-176-78.8-176-176c0-41.79,14.57-80.19,38.91-110.37
	c0.23,0.34,0.51,0.66,0.81,0.96l69.19,69.19c3.11,3.11,8.2,3.11,11.31,0l9.08-9.08c3.11-3.11,3.11-8.2,0-11.32l-69.18-69.18
	c-0.49-0.49-1.04-0.91-1.62-1.23C233.66,161.01,274.84,144,320,144C417.2,144,496,222.8,496,320z"/>
<g class="st0">
	<circle class="st3" cx="320" cy="324" r="200"/>
</g>
<g class="st0">
	<path class="st4" d="M202.5,188.97c-7.07,6.34-13.63,13.25-19.59,20.66c-2.27-3.12-2-7.54,0.81-10.35l9.08-9.08
		C195.42,187.58,199.44,187.17,202.5,188.97z"/>
</g>
<g>
	<g>
		<path class="st5" d="M47.92,306.44C72.07,174.4,175.85,70.54,302.78,45.81"/>
		<g>
			<polygon class="st2" points="91.74,298.65 42.61,366.5 8.41,290.03 			"/>
		</g>
		<g>
			<polygon class="st2" points="295.28,89.78 362.81,40.21 286.13,6.5 			"/>
		</g>
	</g>
</g>
</svg>
