<?xml version="1.0" encoding="utf-8"?>
<!-- Generator: Adobe Illustrator 25.2.3, SVG Export Plug-In . SVG Version: 6.00 Build 0)  -->
<svg version="1.1" xmlns="http://www.w3.org/2000/svg" xmlns:xlink="http://www.w3.org/1999/xlink" x="0px" y="0px"
	 viewBox="0 0 645 640" style="enable-background:new 0 0 645 640;" xml:space="preserve">
<style type="text/css">
	.st0{display:none;}
	.st1{fill:#FFFFFF;}
	.st2{display:inline;fill:#FFFFFF;}
	.st3{display:inline;}
	.st4{fill:none;stroke:#FFFFFF;stroke-width:26;stroke-miterlimit:10;stroke-dasharray:30.2088,22.1531;}
	.st5{display:inline;fill:#0000FF;}
	.st6{fill:none;stroke:#FFFFFF;stroke-width:23;stroke-miterlimit:10;}
	.st7{display:inline;stroke:#000000;stroke-width:15;stroke-miterlimit:10;}
	.st8{fill:#FFFFFF;stroke:#FFFFFF;stroke-width:15;stroke-miterlimit:10;}
	.st9{fill:#FFFFFF;stroke:#FFFFFF;stroke-width:10;stroke-miterlimit:10;}
</style>
<g id="Layer_1" class="st0">
	<circle cx="320" cy="323" r="232"/>
	<circle class="st1" cx="320.5" cy="320.5" r="187.5"/>
	<path class="st2" d="M496,320c0,97.2-78.8,176-176,176s-176-78.8-176-176c0-41.79,14.57-80.19,38.91-110.37
		c0.23,0.34,0.51,0.66,0.81,0.96l69.19,69.19c3.11,3.11,8.2,3.11,11.31,0l9.08-9.08c3.11-3.11,3.11-8.2,0-11.32l-69.18-69.18
		c-0.49-0.49-1.04-0.91-1.62-1.23C233.66,161.01,274.84,144,320,144C417.2,144,496,222.8,496,320z"/>
	<g class="st3">
		<circle class="st4" cx="320" cy="324" r="200"/>
	</g>
	<g>
		<path class="st5" d="M202.5,188.97c-7.07,6.34-13.63,13.25-19.59,20.66c-2.27-3.12-2-7.54,0.81-10.35l9.08-9.08
			C195.42,187.58,199.44,187.17,202.5,188.97z"/>
	</g>
	<g class="st3">
		<g>
			<path class="st6" d="M72.36,285.67C92.2,177.22,177.44,91.91,281.69,71.6"/>
			<g>
				<polygon class="st1" points="108.35,279.27 68,335 39.91,272.19 				"/>
			</g>
			<g>
				<polygon class="st1" points="275.53,107.71 331,67 268.02,39.31 				"/>
			</g>
		</g>
	</g>
</g>
<g id="Layer_2" class="st0">
	<path class="st3" d="M123,191.73c0,7.54,2.47,14.52,6.67,20.24H85c-7.73,0-14-6.03-14-13.46v-12.55c0-7.43,6.27-13.46,14-13.46
		h43.96C125.19,178.02,123,184.62,123,191.73z"/>
	<path class="st3" d="M571,185.96v12.55c0,7.43-6.27,13.46-14,13.46H189.33c4.2-5.72,6.67-12.7,6.67-20.24
		c0-7.11-2.19-13.71-5.96-19.23H557C564.73,172.5,571,178.53,571,185.96z"/>
	<path class="st3" d="M372.16,277.76c-4.2,5.72-6.66,12.69-6.66,20.22c0,7.12,2.2,13.73,5.98,19.26H85c-7.73,0-14-6.03-14-13.46
		v-12.56c0-7.43,6.27-13.46,14-13.46H372.16z"/>
	<path class="st3" d="M571,291.22v12.56c0,7.43-6.27,13.46-14,13.46H432.52c3.78-5.53,5.98-12.14,5.98-19.26
		c0-7.53-2.46-14.5-6.66-20.22H557C564.73,277.76,571,283.79,571,291.22z"/>
	<path class="st3" d="M201.83,383.03c-4,5.63-6.33,12.43-6.33,19.76c0,7.31,2.32,14.09,6.29,19.71H85c-7.73,0-14-6.03-14-13.46
		v-12.55c0-7.43,6.27-13.46,14-13.46H201.83z"/>
	<path class="st3" d="M571,396.49v12.55c0,7.43-6.27,13.46-14,13.46H262.21c3.97-5.63,6.29-12.4,6.29-19.71
		c0-7.33-2.33-14.13-6.33-19.76H557C564.73,383.03,571,389.06,571,396.49z"/>
	<circle class="st7" cx="402" cy="298" r="32.5"/>
	<circle class="st3" cx="232" cy="402.5" r="32.5"/>
	<circle class="st3" cx="159.5" cy="192.5" r="32.5"/>
</g>
<g id="Layer_3">
	<path class="st8" d="M598.5,182h-553c-0.55,0-1-0.45-1-1v-8c0-0.55,0.45-1,1-1h553c0.55,0,1,0.45,1,1v8
		C599.5,181.55,599.05,182,598.5,182z"/>
	<path class="st9" d="M151.5,224.5h-24c-2.21,0-4-1.79-4-4v-87c0-2.21,1.79-4,4-4h24c2.21,0,4,1.79,4,4v87
		C155.5,222.71,153.71,224.5,151.5,224.5z"/>
	<path class="st8" d="M598.9,303.84h-553c-0.55,0-1-0.45-1-1v-8c0-0.55,0.45-1,1-1h553c0.55,0,1,0.45,1,1v8
		C599.9,303.39,599.46,303.84,598.9,303.84z"/>
	<path class="st9" d="M449,346h-24c-2.21,0-4-1.79-4-4v-87c0-2.21,1.79-4,4-4h24c2.21,0,4,1.79,4,4v87
		C453,344.21,451.21,346,449,346z"/>
	<path class="st8" d="M598.5,425.84h-553c-0.55,0-1-0.45-1-1v-8c0-0.55,0.45-1,1-1h553c0.55,0,1,0.45,1,1v8
		C599.5,425.39,599.05,425.84,598.5,425.84z"/>
	<path class="st9" d="M272,468h-24c-2.21,0-4-1.79-4-4v-87c0-2.21,1.79-4,4-4h24c2.21,0,4,1.79,4,4v87
		C276,466.21,274.21,468,272,468z"/>
</g>
</svg>
