<svg width="20" height="20" viewBox="0 0 20 20" fill="none" xmlns="http://www.w3.org/2000/svg">
<path d="M2.5 4C1.1 4 0 5.1 0 6.5V17.5C0 16.1 1.1 15 2.5 15C3.9 15 5 16.1 5 17.5V6.5C5 5.1 3.9 4 2.5 4Z" fill="white"/>
<path opacity="0.5" d="M16 13.4V15H9V12H12L13 9H12V11H9V8H9.1L9.4 7H9H8H6V8H8V11H6V12H8V15H6V16H8V19H6V20H8H9H12H13H16H17V12.6L16 13.4ZM12 19H9V16H12V19ZM16 19H13V16H16V19Z" fill="white"/>
<path opacity="0.5" d="M2.5 19C1.5 19 0.5 18.3 0.5 17.1C0.5 16.6 0.7 15.8 1 15.5V14.8C0.4 15.3 0 16.3 0 17.1C0 19 1.1 20 2.5 20H6V19C6 19 3.5 19 2.5 19Z" fill="white"/>
<path d="M18 0L14.5 6H19.5L13 14L15.5 8H10.5L18 0Z" fill="white"/>
</svg>
