<svg width="20" height="20" viewBox="0 0 20 20" fill="none" xmlns="http://www.w3.org/2000/svg">
<path d="M6.5 1C5.1 1 4 2.1 4 3.5V13.5C4 12.1 5.1 11 6.5 11C7.9 11 9 12.1 9 13.5V3.5C9 2.1 7.9 1 6.5 1Z" fill="white"/>
<path d="M1 15.5V5.5C0.4 6 0 6.7 0 7.5V17.5C0 16.7 0.4 16 1 15.5Z" fill="white"/>
<path d="M3 13.5V3.5C2.4 4 2 4.7 2 5.5V15.5C2 14.7 2.4 14 3 13.5Z" fill="white"/>
<path opacity="0.5" d="M16 3H15H12H11H10V4H11V7H10V8H11V11H10V12H11V15H10V16H11H12H15H16H19H20V3H19H16ZM15 15H12V12H15V15ZM15 11H12V8H15V11ZM15 7H12V4H15V7ZM19 15H16V12H19V15ZM19 11H16V8H19V11ZM19 7H16V4H19V7Z" fill="white"/>
<path opacity="0.5" d="M6.5 15C5.5 15 4.5 14.3 4.5 13.1C4.5 12.6 4.7 11.8 5 11.5V10.8C4.4 11.3 4 12.3 4 13.1C4 15 5.1 16 6.5 16H10V15C10 15 7.5 15 6.5 15Z" fill="white"/>
<path opacity="0.5" d="M4.5 17C3.5 17 2.5 16.3 2.5 15.1C2.5 14.6 2.7 13.8 3 13.5V12.8C2.4 13.3 2 14.3 2 15.1C2 17 3.1 18 4.5 18H17V17C17 17 5.5 17 4.5 17Z" fill="white"/>
<path opacity="0.5" d="M2.5 19C1.5 19 0.5 18.3001 0.5 17.1C0.5 16.6 0.7 15.8 1 15.5V14.8C0.4 15.3 0 16.3001 0 17.1C0 19.0001 1.1 20 2.5 20H14V19C14 19 3.5 19 2.5 19Z" fill="white"/>
</svg>
