<svg width="21" height="20" viewBox="0 0 21 20" fill="none" xmlns="http://www.w3.org/2000/svg">
<path fill-rule="evenodd" clip-rule="evenodd" d="M9.3 20C9.3 20 10.4 19.9 11.1 18.7C11.9 17.5 13.6 13.9 13.7 12.7C13.8 11.5 13.4 11.2 13.7 10.5C14 9.70004 15 9.70004 15.3 8.50004C15.6 7.40004 14.7 6.20004 13.5 6.10004C12.3 6.00004 11.3 7.00004 11.3 8.20004C11.3 9.50004 12.5 9.70004 12.8 10.7C13.3 12.1 9.3 20 9.3 20ZM12.3 9.00004C11.8 8.50004 11.8 7.60004 12.3 7.00004C12.8 6.50004 13.7 6.50004 14.3 7.00004C14.8 7.50004 14.8 8.40004 14.3 9.00004C13.7 9.60004 12.8 9.60004 12.3 9.00004ZM7.4 14.8C8.3 14.2 10.5 13.2 12 12.6L11.3 14.2C8.7 15.2 6 16.6 6 16.6C6 16.6 6.2 15.6 7.4 14.8ZM14.1 13.3L14.3 12.2C14.9 12.3 15.2 12.4 15.7 12.2C16.4 12 16.4 11 17.6 10.7C18.7 10.4 19.9 11.3 20 12.5C20.1 13.7 19.1 14.7 17.9 14.7C16.6 14.7 16.4 13.5 15.4 13.2C15.1 13.1 14.6 13.2 14.1 13.3ZM17 13.7C17.5 14.2 18.4 14.2 19 13.7C19.5 13.2 19.5 12.3 19 11.7C18.5 11.2 17.6 11.2 17 11.7C16.4 12.3 16.4 13.2 17 13.7Z" fill="white"/>
<path fill-rule="evenodd" clip-rule="evenodd" d="M0 10H5V14.3L4 15H0V10ZM5 10H10V5H5V10ZM10 0V5C10 5 11.4 4.3 12.7 4.2C14 4.2 15 4.4 15 4.4V0H10ZM0 0V5H5V0H0Z" fill="white"/>
<path opacity="0.5" fill-rule="evenodd" clip-rule="evenodd" d="M0 0V15H4L5.5 14H1V1H14V4.1L15 4.4V0H0Z" fill="white"/>
</svg>
