<svg width="21" height="21" viewBox="0 0 21 21" fill="none" xmlns="http://www.w3.org/2000/svg">
<path d="M9.5 10.5L11.5 1.5" stroke="white" stroke-width="1.25" stroke-miterlimit="10"/>
<path d="M9.5 10.5H19.5" stroke="white" stroke-width="1.25" stroke-miterlimit="10"/>
<path d="M9.5 10.5L1.5 4.5" stroke="white" stroke-width="1.25" stroke-miterlimit="10"/>
<path d="M9.5 10.5L11.5 19.5" stroke="white" stroke-width="1.25" stroke-miterlimit="10"/>
<path d="M9.5 10.5L1.5 16.5" stroke="white" stroke-width="1.25" stroke-miterlimit="10"/>
<path fill-rule="evenodd" clip-rule="evenodd" d="M1.5 4.49998L11.5 1.59998L19.2 10.5L11.5 19.3L1.5 16.5V4.49998Z" stroke="white" stroke-width="1.25" stroke-miterlimit="10"/>
<path opacity="0.5" d="M8.49995 10.5L2.19995 15.2V5.70002L8.49995 10.5ZM2.89995 4.70002L10.7 2.40002L9.09995 9.40002L2.89995 4.70002ZM9.09995 11.6L10.7 18.6L2.89995 16.3L9.09995 11.6ZM10.3 11.1H18.1L11.8 18.1L10.3 11.1ZM10.3 9.80002L11.9 2.80002L18.2 9.80002H10.3Z" fill="white"/>
</svg>
