<svg width="20" height="20" viewBox="0 0 20 20" fill="none" xmlns="http://www.w3.org/2000/svg">
<path opacity="0.5" d="M6.1001 0L0.0100098 1.83V9.09L6.1001 10.92L10.96 5.46001L6.1001 0ZM4 5.5L0.949951 7.78999V3.21001L4 5.5ZM1.53003 2.42L5.23999 1.31L4.5 4.64999L1.53003 2.42ZM4.53003 6.35001L5.27002 9.69L1.56006 8.58L4.53003 6.35001ZM5.45996 5.99001H9.19995L6.19995 9.36L5.45996 5.99001ZM5.45996 4.99001L6.20996 1.62L9.20996 4.99001H5.45996Z" fill="white"/>
<path d="M14.5 7.67993L8 9.62994V17.3699L14.5 19.3199L19.6699 13.4999L14.5 7.67993ZM12.3301 13.4999L9 15.9999V10.9999L12.3301 13.4999ZM9.59009 10.1899L13.6599 8.96994L12.8501 12.6399L9.59009 10.1899ZM12.8501 14.3599L13.6599 18.0299L9.59009 16.8099L12.8501 14.3599ZM13.79 13.9999H17.8899L14.6101 17.6899L13.79 13.9999ZM13.79 12.9999L14.6101 9.30994L17.8899 12.9999H13.79Z" fill="white"/>
</svg>
