<svg width="20" height="20" viewBox="0 0 20 20" fill="none" xmlns="http://www.w3.org/2000/svg">
<path d="M8.28 9.00001L1.18 3.39001L0.380005 3.62001V5.29001L7.54 10.97V11H17.02L18.43 9.49001L18 9.00001H8.28Z" fill="white"/>
<path opacity="0.5" d="M10.55 0L0 3.19V15.81L10.55 18.97L18.97 9.5L10.55 0ZM8.08008 9.47L1 14.78V4.19L8.08008 9.47ZM1.36011 3.8L10.0901 1.17999L8.34009 9.03999L1.36011 3.8ZM8.36011 9.89999L10.1101 17.76L1.37988 15.14L8.36011 9.89999ZM8.83008 9.72H17.4299L10.55 17.46L8.83008 9.72ZM8.83008 9.22L10.55 1.48L17.4299 9.22H8.83008Z" fill="white"/>
</svg>
