<svg width="20" height="20" viewBox="0 0 20 20" fill="none" xmlns="http://www.w3.org/2000/svg">
<path opacity="0.5" d="M11.55 0L1 3.19V15.81L11.55 18.97L19.97 9.5L11.55 0ZM9.07996 9.47L2 14.78V4.19L9.07996 9.47ZM2.35999 3.8L11.09 1.18L9.33997 9.03999L2.35999 3.8ZM9.35999 9.89999L11.11 17.76L2.38 15.14L9.35999 9.89999ZM9.82996 9.72H18.4301L11.55 17.46L9.82996 9.72ZM9.82996 9.22L11.55 1.48L18.4301 9.22H9.82996Z" fill="white"/>
<path opacity="0.5" d="M10 10L11.9 18.55L19.5 10H10Z" fill="white"/>
<path d="M19.5 9.5H9.5L11.5 18.5M19.25 9.5L11.5 18.35" stroke="white" stroke-width="1.25" stroke-miterlimit="10"/>
</svg>
