<svg width="20" height="20" viewBox="0 0 20 20" fill="none" xmlns="http://www.w3.org/2000/svg">
<path d="M0.100098 20L5.30009 19.4L3.90009 17.8L7.00009 14.5L12.1001 16.5L11.4001 17.8L16.0001 17.4L13.4001 13.5L12.8001 14.9L8.00009 13.1V8H9.30008L7.00009 4L4.70009 8H6.00009V13.1V13.4L2.40009 16.6L0.800095 15L0.100098 20Z" fill="white"/>
<path opacity="0.5" d="M19 0H16H15H12H11H8H7V2L8 3V1H11V4H9L10 5H11V6L12 7V5H15V8H13L11 9V11.9L16 13H19H20V0H19ZM15 12H12V9H15V12ZM15 4H12V1H15V4ZM19 12H16V9H19V12ZM19 8H16V5H19V8ZM19 4H16V1H19V4Z" fill="white"/>
</svg>
