<svg width="20" height="20" viewBox="0 0 20 20" fill="none" xmlns="http://www.w3.org/2000/svg">
<path opacity="0.5" fill-rule="evenodd" clip-rule="evenodd" d="M16.48 6.75003C14.77 7.13003 14.75 8.54004 13.8 8.88004C13.1438 9.04639 12.4563 9.04639 11.8 8.88004L11.55 10.47C12.1413 10.2682 12.7728 10.2133 13.39 10.31C14.8 10.81 15.14 12.39 16.99 12.46C17.3911 12.4659 17.789 12.3875 18.158 12.2301C18.5269 12.0727 18.8588 11.8397 19.1322 11.5461C19.4056 11.2525 19.6144 10.9048 19.7451 10.5255C19.8758 10.1463 19.9257 9.74378 19.8912 9.34409C19.8568 8.9444 19.7389 8.55638 19.5453 8.20503C19.3516 7.85369 19.0865 7.54684 18.767 7.30429C18.4474 7.06175 18.0805 6.88888 17.6901 6.79686C17.2996 6.70484 16.8942 6.6957 16.5 6.77004L16.48 6.75003ZM18.48 11.01C18.2002 11.2895 17.8438 11.4798 17.4559 11.5568C17.068 11.6338 16.666 11.594 16.3007 11.4426C15.9353 11.2911 15.6231 11.0348 15.4034 10.7059C15.1838 10.3771 15.0665 9.9905 15.0665 9.59503C15.0665 9.19957 15.1838 8.81297 15.4034 8.48412C15.6231 8.15527 15.9353 7.89892 16.3007 7.74748C16.666 7.59604 17.068 7.55631 17.4559 7.6333C17.8438 7.71029 18.2002 7.90054 18.48 8.18002C18.8552 8.5521 19.0679 9.05753 19.0717 9.58591C19.0754 10.1143 18.8699 10.6227 18.5 11L18.48 11.01Z" fill="white"/>
<path opacity="0.5" fill-rule="evenodd" clip-rule="evenodd" d="M8.59998 9.44995C4.99998 10.77 0.0999756 15.19 0.0999756 15.19C0.0999756 15.19 4.03004 13.19 7.67004 11.78L8.59998 9.44995Z" fill="white"/>
<path fill-rule="evenodd" clip-rule="evenodd" d="M10.66 0.109965C10.259 0.0728806 9.85457 0.121525 9.47375 0.252665C9.09294 0.383805 8.74447 0.594445 8.45129 0.8706C8.15812 1.14675 7.92697 1.4821 7.77332 1.8544C7.61966 2.22669 7.547 2.62742 7.56006 3.02996C7.63006 4.87996 9.20996 5.21997 9.70996 6.62997C10.41 8.62997 4.81006 19.9 4.81006 19.9C4.81006 19.9 10.64 13.84 11.13 9.38996C11.31 7.66996 10.75 7.22996 11.13 6.19996C11.51 5.16996 12.88 5.19997 13.26 3.51997C13.339 3.12222 13.3326 2.7122 13.2411 2.31713C13.1496 1.92207 12.975 1.55099 12.7291 1.22851C12.4832 0.906028 12.1717 0.639526 11.8149 0.44668C11.4582 0.253835 11.0645 0.139055 10.66 0.109965ZM9.98999 10.68C9.84586 10.6773 9.70854 10.6182 9.60754 10.5154C9.50655 10.4125 9.44993 10.2741 9.44995 10.13C9.44995 9.98675 9.50688 9.8494 9.60815 9.74813C9.70942 9.64686 9.84677 9.58996 9.98999 9.58996C10.1341 9.58994 10.2725 9.64651 10.3754 9.74751C10.4782 9.8485 10.5374 9.98584 10.54 10.13C10.5401 10.2741 10.4834 10.4125 10.3824 10.5154C10.2815 10.6182 10.1441 10.6773 10 10.68H9.98999ZM11.8199 4.32997C11.5402 4.60945 11.1838 4.79971 10.7959 4.8767C10.408 4.95369 10.0061 4.91395 9.64075 4.76251C9.27542 4.61107 8.96319 4.35472 8.74353 4.02587C8.52387 3.69702 8.40662 3.31043 8.40662 2.91496C8.40662 2.51949 8.52387 2.13291 8.74353 1.80406C8.96319 1.47521 9.27542 1.21886 9.64075 1.06742C10.0061 0.915982 10.408 0.876236 10.7959 0.953226C11.1838 1.03022 11.5402 1.22048 11.8199 1.49996C12.0059 1.68571 12.1535 1.90629 12.2542 2.14909C12.3548 2.39188 12.4066 2.65213 12.4066 2.91496C12.4066 3.17779 12.3548 3.43805 12.2542 3.68084C12.1535 3.92364 12.0059 4.14422 11.8199 4.32997Z" fill="white"/>
</svg>
