<svg width="16" height="16" viewBox="0 0 16 16" fill="none" xmlns="http://www.w3.org/2000/svg">
<path opacity="0.5" d="M5 12V9H8V12L9 11V9H11L12 8H9V5H12V8L13 7V0H0V13H7L8 12H5ZM9 1H12V4H9V1ZM5 1H8V4H5V1ZM5 5H8V8H5V5ZM4 12H1V9H4V12ZM4 8H1V5H4V8ZM4 4H1V1H4V4Z" fill="white"/>
<path d="M11.4099 14.11L9.88989 12.59L14.1201 8.35001C14.2153 8.25776 14.3426 8.20618 14.4751 8.20618C14.6076 8.20618 14.7349 8.25776 14.8301 8.35001L15.6499 9.17001C15.7422 9.26516 15.7939 9.39247 15.7939 9.52499C15.7939 9.65752 15.7422 9.78485 15.6499 9.88L11.4099 14.11ZM10.5801 14.94L9.06006 13.42L8 16L10.5801 14.94Z" fill="white"/>
</svg>
