<svg width="20" height="20" viewBox="0 0 20 20" fill="none" xmlns="http://www.w3.org/2000/svg">
<path opacity="0.5" d="M19 7H16H15H14V8H15V11H14V12H15V15H12V14H11V15H8V14H7V20H8H11H12H15H16H19H20V7H19ZM11 19H8V16H11V19ZM15 19H12V16H15V19ZM19 19H16V16H19V19ZM19 15H16V12H19V15ZM19 11H16V8H19V11Z" fill="white"/>
<path d="M12 0H9H8H5H4H1H0V13H1H4H5H8H9H12H13V0H12ZM8 1V4H5V1H8ZM8 5V8H5V5H8ZM1 1H4V4H1V1ZM1 5H4V8H1V5ZM1 12V9H4V12H1ZM5 12V9H8V12H5ZM12 12H9V9H12V12ZM12 8H9V5H12V8ZM12 4H9V1H12V4Z" fill="white"/>
</svg>
