<svg width="20" height="20" viewBox="0 0 20 20" fill="none" xmlns="http://www.w3.org/2000/svg">
<g clip-path="url(#clip0_8595:15271)">
<path opacity="0.5" d="M16.72 5.47998C17.5125 6.6903 18.0439 8.05266 18.28 9.47998C18.3377 9.88733 18.3057 10.3023 18.1865 10.6961C18.0674 11.0899 17.8638 11.4529 17.59 11.76C17.06 12.33 16.53 12.69 16.1 13.16C15.6632 13.6212 15.3232 14.1653 15.1 14.76C14.8362 15.3278 14.7969 15.9744 14.99 16.57C15.2924 17.1569 15.7164 17.6728 16.2337 18.0831C16.7509 18.4935 17.3496 18.789 17.99 18.95C17.3226 18.8017 16.6819 18.5521 16.09 18.21C15.4655 17.8702 14.957 17.3513 14.63 16.72C14.341 16.0408 14.3126 15.2788 14.5501 14.58C14.7336 13.8811 15.0529 13.2253 15.49 12.65C15.92 12.08 16.49 11.6 16.82 11.14C16.977 10.9255 17.0839 10.6783 17.1323 10.4169C17.1808 10.1555 17.1697 9.88654 17.1 9.62997C16.798 8.41616 16.2462 7.27864 15.48 6.28998L16.72 5.47998Z" fill="white"/>
<path opacity="0.5" d="M9.5 1.5L8.64001 2L9.5 1.5ZM6.76001 3.17C6.1558 3.59739 5.58119 4.06513 5.04004 4.57001L5.15002 4.69C5.67126 4.17038 6.2293 3.68913 6.81995 3.25L6.76001 3.17ZM3.55005 6.22C3.10746 6.82051 2.70323 7.44844 2.33997 8.10001L2.69995 8.28C2.98197 7.61455 3.31635 6.97252 3.69995 6.35999L3.55005 6.22ZM1.38 10.12C1.10091 10.8172 0.857287 11.5281 0.650024 12.25L1.38 12.42C1.51988 11.7103 1.70022 11.0092 1.92004 10.32L1.38 10.12ZM0.140015 14.44L0 15.44H1L1.06006 14.49L0.140015 14.44Z" fill="white"/>
<path d="M18.49 1.68002C18.6424 1.83232 18.7632 2.01317 18.8457 2.2122C18.9282 2.41124 18.9707 2.62458 18.9707 2.84003C18.9707 3.05548 18.9282 3.26881 18.8457 3.46785C18.7632 3.66689 18.6424 3.84773 18.49 4.00003L17.3 5.19003L16.76 4.66003L17.04 4.38004C17.1868 4.21039 17.2641 3.99157 17.2565 3.76736C17.2488 3.54316 17.1568 3.33011 16.9988 3.17085C16.8408 3.01159 16.6286 2.91787 16.4044 2.90845C16.1803 2.89902 15.9608 2.97459 15.79 3.12003L12.91 6.00003C12.7475 6.16948 12.6566 6.39521 12.6566 6.63004C12.6566 6.86486 12.7475 7.09059 12.91 7.26004C13.0766 7.42432 13.3011 7.51642 13.535 7.51642C13.769 7.51642 13.9935 7.42432 14.16 7.26004L14.64 6.78003L15.1801 7.31003L10.36 12.13C7.35999 15.13 0.170044 20 0.170044 20C0.170044 20 5.06004 12.78 8.04004 9.81003L16.16 1.68002C16.4693 1.37164 16.8882 1.19849 17.325 1.19849C17.7617 1.19849 18.1807 1.37164 18.49 1.68002V1.68002Z" fill="white"/>
</g>
<defs>
<clipPath id="clip0_8595:15271">
<rect width="20" height="20" fill="white"/>
</clipPath>
</defs>
</svg>
