<svg width="20" height="20" viewBox="0 0 20 20" fill="none" xmlns="http://www.w3.org/2000/svg">
<path d="M4 2.30005C3.20435 2.30005 2.44127 2.61613 1.87866 3.17874C1.31605 3.74135 1 4.5044 1 5.30005V16.5001C1 15.7044 1.31605 14.9414 1.87866 14.3788C2.44127 13.8161 3.20435 13.5001 4 13.5001C6.5 13.5001 7 14.8401 7 16.5001V5.30005C7 4.5044 6.68395 3.74135 6.12134 3.17874C5.55873 2.61613 4.79565 2.30005 4 2.30005Z" fill="white"/>
<path opacity="0.5" d="M18 6H8V7H10V10H8V11H10V14H8V15H10V18H8V19H19V6H18ZM14 18H11V15H14V18ZM14 14H11V11H14V14ZM14 10H11V7H14V10ZM18 18H15V15H18V18ZM18 14H15V11H18V14ZM18 10H15V7H18V10Z" fill="white"/>
<path opacity="0.5" d="M3.5 18.0001C2.94656 17.9591 2.43011 17.7068 2.05774 17.2953C1.68537 16.8838 1.48564 16.3448 1.5 15.7901C1.46558 15.5063 1.49236 15.2184 1.57861 14.9458C1.66486 14.6733 1.80858 14.4224 2 14.2101V13.8101C1.68526 14.1007 1.43392 14.4533 1.26184 14.8456C1.08976 15.238 1.00065 15.6616 1 16.0901C1 17.9801 2.12 19.0001 3.5 19.0001H8V18.0001H3.5Z" fill="white"/>
</svg>
