<svg width="16" height="16" viewBox="0 0 16 16" fill="none" xmlns="http://www.w3.org/2000/svg">
<g clip-path="url(#clip0_12080_10304)">
<path d="M8 15C7.98109 14.4733 8.07225 13.9485 8.26765 13.459C8.46305 12.9695 8.7584 12.5261 9.13482 12.1572C9.51125 11.7883 9.96048 11.502 10.4538 11.3165C10.9472 11.1311 11.4738 11.0504 12 11.08C12.5262 11.0504 13.0528 11.1311 13.5462 11.3165C14.0395 11.502 14.4887 11.7883 14.8652 12.1572C15.2416 12.5261 15.5369 12.9695 15.7323 13.459C15.9277 13.9485 16.0189 14.4733 16 15H8ZM12 10.72C11.7011 10.72 11.4051 10.661 11.129 10.5463C10.8529 10.4316 10.6022 10.2635 10.3913 10.0516C10.1804 9.83979 10.0134 9.58833 9.89992 9.31177C9.78643 9.0352 9.72868 8.73888 9.72999 8.43994C9.72999 7.8379 9.96916 7.26055 10.3949 6.83484C10.8206 6.40913 11.398 6.17004 12 6.17004C12.2981 6.17004 12.5933 6.2287 12.8687 6.34277C13.1441 6.45685 13.3943 6.62405 13.6051 6.83484C13.8159 7.04563 13.9831 7.29588 14.0972 7.57129C14.2113 7.8467 14.27 8.14184 14.27 8.43994C14.2713 8.73888 14.2136 9.0352 14.1001 9.31177C13.9866 9.58833 13.8196 9.83979 13.6087 10.0516C13.3978 10.2635 13.1471 10.4316 12.871 10.5463C12.5949 10.661 12.2989 10.72 12 10.72Z" fill="white"/>
<path opacity="0.5" d="M7 8.07996C7.51697 8.07913 8.03053 8.16359 8.52 8.32996C8.55869 7.43325 8.94234 6.58623 9.59082 5.9657C10.2393 5.34517 11.1025 4.99917 12 5C12.3391 5.00687 12.6757 5.06075 13 5.16003V1H1V12L3 11.84C3.00327 11.3266 3.1108 10.8193 3.31607 10.3488C3.52134 9.87821 3.82005 9.45427 4.19411 9.10266C4.56816 8.75105 5.00975 8.47914 5.49208 8.30334C5.97441 8.12755 6.48742 8.0515 7 8.07996ZM7 3.17004C7.60204 3.17004 8.17943 3.40913 8.60513 3.83484C9.03084 4.26055 9.27 4.8379 9.27 5.43994C9.27132 5.73888 9.21357 6.0352 9.10008 6.31177C8.98659 6.58833 8.81959 6.83979 8.60867 7.05164C8.39775 7.26348 8.14707 7.43156 7.871 7.54626C7.59494 7.66097 7.29894 7.71997 7 7.71997C6.70106 7.71997 6.40506 7.66097 6.129 7.54626C5.85293 7.43156 5.60225 7.26348 5.39133 7.05164C5.18041 6.83979 5.01341 6.58833 4.89992 6.31177C4.78643 6.0352 4.72868 5.73888 4.73 5.43994C4.73 5.14184 4.78871 4.8467 4.90279 4.57129C5.01686 4.29588 5.18408 4.04563 5.39487 3.83484C5.60566 3.62405 5.85589 3.45685 6.1313 3.34277C6.40671 3.2287 6.7019 3.17004 7 3.17004Z" fill="white"/>
</g>
<defs>
<clipPath id="clip0_12080_10304">
<rect width="16" height="16" fill="white"/>
</clipPath>
</defs>
</svg>
