<svg width="16" height="16" viewBox="0 0 16 16" fill="none" xmlns="http://www.w3.org/2000/svg">
<path d="M5.5 16L6.5 13H4.5L5.5 16Z" fill="white"/>
<path d="M3 11.5L0 16L4.5 13H3V11.5Z" fill="white"/>
<path d="M0 10.5L3 11.5V9.5L0 10.5Z" fill="white"/>
<path d="M11.5 3H13V4.5L16 0L11.5 3Z" fill="white"/>
<path d="M13 6.5L16 5.5L13 4.5V6.5Z" fill="white"/>
<path d="M9.5 3H11.5L10.5 0L9.5 3Z" fill="white"/>
<path d="M4 3.5H3.5V4V12V12.5H4H12H12.5V12V4V3.5H12H4Z" stroke="white"/>
<g opacity="0.5">
<rect x="6" y="4" width="1" height="8" fill="white"/>
<rect x="9" y="4" width="1" height="8" fill="white"/>
<rect x="4" y="6" width="8" height="1" fill="white"/>
<rect x="4" y="9" width="8" height="1" fill="white"/>
</g>
</svg>
