<svg width="16" height="16" viewBox="0 0 16 16" fill="none" xmlns="http://www.w3.org/2000/svg">
<g clip-path="url(#clip0_8153_14766)">
<path d="M10.5 5.5L5.5 10.5" stroke="white" stroke-width="2" stroke-miterlimit="10" stroke-linecap="round"/>
<path d="M5.5 5.5L10.5 10.5" stroke="white" stroke-width="2" stroke-miterlimit="10" stroke-linecap="round"/>
<path d="M8.00001 2C9.1867 2 10.3468 2.35188 11.3334 3.01117C12.3201 3.67046 13.0892 4.60756 13.5433 5.70392C13.9974 6.80027 14.1162 8.00665 13.8847 9.17053C13.6532 10.3344 13.0818 11.4035 12.2427 12.2426C11.4035 13.0817 10.3344 13.6532 9.17054 13.8847C8.00666 14.1162 6.80026 13.9974 5.7039 13.5433C4.60754 13.0891 3.67047 12.3201 3.01118 11.3334C2.35189 10.3467 2.00001 9.18669 2.00001 8C2.00001 6.4087 2.63215 4.8826 3.75737 3.75739C4.88258 2.63217 6.40871 2 8.00001 2ZM8.00001 0.5C6.51665 0.5 5.0666 0.939866 3.83323 1.76398C2.59986 2.58809 1.63856 3.75944 1.0709 5.12988C0.503246 6.50033 0.354726 8.00834 0.644115 9.4632C0.933504 10.9181 1.6478 12.2544 2.6967 13.3033C3.74559 14.3522 5.08199 15.0665 6.53685 15.3559C7.9917 15.6453 9.49968 15.4967 10.8701 14.9291C12.2406 14.3614 13.4119 13.4001 14.236 12.1667C15.0601 10.9334 15.5 9.48336 15.5 8C15.5 6.01088 14.7098 4.10324 13.3033 2.69672C11.8968 1.29019 9.98913 0.5 8.00001 0.5Z" fill="white"/>
</g>
<defs>
<clipPath id="clip0_8153_14766">
<rect width="16" height="16" fill="white"/>
</clipPath>
</defs>
</svg>
