<svg width="16" height="16" viewBox="0 0 16 16" fill="none" xmlns="http://www.w3.org/2000/svg">
<path d="M8 12H6V16H8V12Z" fill="white"/>
<path opacity="0.5" d="M16 13H10V15H16V13Z" fill="white"/>
<path d="M6 13H0V15H6V13Z" fill="white"/>
<path d="M8 10.5C9.38071 10.5 10.5 9.38071 10.5 8C10.5 6.61929 9.38071 5.5 8 5.5C6.61929 5.5 5.5 6.61929 5.5 8C5.5 9.38071 6.61929 10.5 8 10.5Z" fill="white"/>
<path d="M2.68018 8C2.68018 8.18 2.68018 8.36003 2.68018 8.53003H0V7.46997H2.70996C2.71996 7.62997 2.68018 7.8 2.68018 8Z" fill="white"/>
<path d="M11.3501 3.88L13.27 1.95996L14.02 2.70996L12.1001 4.63C11.881 4.35093 11.6292 4.09914 11.3501 3.88Z" fill="white"/>
<path d="M13.27 8.51001C13.27 8.34001 13.27 8.15998 13.27 7.97998C13.27 7.79998 13.27 7.62995 13.27 7.44995H16V8.51001H13.27Z" fill="white"/>
<path d="M3.8999 4.63L1.97998 2.70996L2.72998 1.95996L4.6499 3.88C4.37083 4.09914 4.11904 4.35093 3.8999 4.63Z" fill="white"/>
<path d="M8 2.66003C7.82 2.66003 7.65021 2.66003 7.47021 2.66003V0H8.52979V2.70996C8.34978 2.69996 8.18 2.66003 8 2.66003Z" fill="white"/>
</svg>
