<svg width="64" height="64" viewBox="0 0 64 64" fill="none" xmlns="http://www.w3.org/2000/svg">
<path opacity="0.5" d="M40 6V20H14V6H9V46H16.0588V29H42L41.9412 46H49V13.0588L41.9412 6H40Z" fill="url(#paint0_linear_11833_10265)"/>
<path d="M42 29H16V46H42V29Z" fill="url(#paint1_linear_11833_10265)"/>
<path d="M14 6V20H40V6H14ZM38 17H34V10H38V17Z" fill="url(#paint2_linear_11833_10265)"/>
<path fill-rule="evenodd" clip-rule="evenodd" d="M37.935 17H34.065C34.0325 17 34 16.9162 34 16.8323V10.1677C34 10.0838 34.0325 10 34.065 10H37.935C37.9675 10 38 10.0838 38 10.1677V16.7904C38 16.9162 37.9675 17 37.935 17Z" fill="url(#paint3_linear_11833_10265)"/>
<path fill-rule="evenodd" clip-rule="evenodd" d="M39.6423 34H18.3577C18.1789 34 18 33.976 18 33.9521V32.0479C18 32.024 18.1789 32 18.3577 32H39.6423C39.8211 32 40 32.024 40 32.0479V33.9401C40 33.976 39.8211 34 39.6423 34Z" fill="url(#paint4_linear_11833_10265)" fill-opacity="0.4"/>
<path fill-rule="evenodd" clip-rule="evenodd" d="M39.6423 38H18.3577C18.1789 38 18 37.976 18 37.9521V36.0479C18 36.024 18.1789 36 18.3577 36H39.6423C39.8211 36 40 36.024 40 36.0479V37.9401C40 37.976 39.8211 38 39.6423 38Z" fill="url(#paint5_linear_11833_10265)" fill-opacity="0.4"/>
<path d="M50 43.875L57.5076 51.3826L50 58.8902" stroke="url(#paint6_linear_11833_10265)" stroke-width="4" stroke-miterlimit="10" stroke-linecap="round"/>
<path d="M38 43.875L45.5076 51.3826L38 58.8902" stroke="url(#paint7_linear_11833_10265)" stroke-width="4" stroke-miterlimit="10" stroke-linecap="round"/>
<path d="M26 43.875L33.5076 51.3826L26 58.8902" stroke="url(#paint8_linear_11833_10265)" stroke-width="4" stroke-miterlimit="10" stroke-linecap="round"/>
<defs>
<linearGradient id="paint0_linear_11833_10265" x1="29" y1="6" x2="29" y2="46" gradientUnits="userSpaceOnUse">
<stop stop-color="white"/>
<stop offset="0.963542" stop-color="#838383"/>
<stop offset="1" stop-color="#B3B3B3"/>
</linearGradient>
<linearGradient id="paint1_linear_11833_10265" x1="29" y1="29" x2="29" y2="46" gradientUnits="userSpaceOnUse">
<stop stop-color="#D7D7D7"/>
<stop offset="1" stop-color="#989898"/>
</linearGradient>
<linearGradient id="paint2_linear_11833_10265" x1="23" y1="6" x2="23" y2="20" gradientUnits="userSpaceOnUse">
<stop stop-color="white"/>
<stop offset="0.104167" stop-color="#949494"/>
<stop offset="0.130208" stop-color="#D2D2D2"/>
<stop offset="0.927083" stop-color="#A5A5A5"/>
<stop offset="1" stop-color="#C8C8C8"/>
</linearGradient>
<linearGradient id="paint3_linear_11833_10265" x1="38.2187" y1="16.6324" x2="33.2774" y2="15.5798" gradientUnits="userSpaceOnUse">
<stop stop-color="#4D4D4D"/>
<stop offset="1" stop-color="#333333"/>
</linearGradient>
<linearGradient id="paint4_linear_11833_10265" x1="41.203" y1="33.895" x2="39.6081" y2="27.3552" gradientUnits="userSpaceOnUse">
<stop stop-color="#4D4D4D"/>
<stop offset="1" stop-color="#333333"/>
</linearGradient>
<linearGradient id="paint5_linear_11833_10265" x1="41.203" y1="37.895" x2="39.6081" y2="31.3552" gradientUnits="userSpaceOnUse">
<stop stop-color="#4D4D4D"/>
<stop offset="1" stop-color="#333333"/>
</linearGradient>
<linearGradient id="paint6_linear_11833_10265" x1="53.7538" y1="43.875" x2="53.7538" y2="58.8902" gradientUnits="userSpaceOnUse">
<stop stop-color="white"/>
<stop offset="1" stop-color="#BFBFBF"/>
</linearGradient>
<linearGradient id="paint7_linear_11833_10265" x1="41.7538" y1="43.875" x2="41.7538" y2="58.8902" gradientUnits="userSpaceOnUse">
<stop stop-color="white"/>
<stop offset="1" stop-color="#BFBFBF"/>
</linearGradient>
<linearGradient id="paint8_linear_11833_10265" x1="29.7538" y1="43.875" x2="29.7538" y2="58.8902" gradientUnits="userSpaceOnUse">
<stop stop-color="white"/>
<stop offset="1" stop-color="#BFBFBF"/>
</linearGradient>
</defs>
</svg>
