<svg width="16" height="16" viewBox="0 0 16 16" fill="none" xmlns="http://www.w3.org/2000/svg">
<path d="M8.07 6.0699C8.23108 4.96527 8.64893 3.9138 9.29 2.99991C9.29 2.99991 9.29 3.05991 9.29 3.08991C9.29 3.36573 9.39957 3.63026 9.59461 3.8253C9.78965 4.02033 10.0542 4.12991 10.33 4.12991C10.6058 4.12991 10.8704 4.02033 11.0654 3.8253C11.2604 3.63026 11.37 3.36573 11.37 3.08991C11.3704 2.90249 11.3181 2.71873 11.2191 2.5596C11.12 2.40047 10.9783 2.27237 10.81 2.18991H10.72C10.2225 2.00961 9.6775 2.00961 9.18 2.18991C7.56 2.63991 6.93 4.99991 6.93 4.99991L6.75 5.1199H3.75L3.5 6.1199H6.62L5.62 11.4199C5.46346 12.0161 5.1406 12.5555 4.68909 12.9751C4.23758 13.3948 3.67604 13.6773 3.07 13.7899C3.1315 13.655 3.16224 13.5081 3.16 13.3599C3.16 13.0735 3.04621 12.7988 2.84368 12.5962C2.64114 12.3937 2.36643 12.2799 2.08 12.2799C1.79357 12.2799 1.51886 12.3937 1.31632 12.5962C1.11379 12.7988 1 13.0735 1 13.3599C1.01111 13.605 1.1069 13.8386 1.27102 14.021C1.43514 14.2033 1.65744 14.3231 1.9 14.3599C6.26 15.1999 6.9 11.4499 6.9 11.4499L7.9 7.05991H9.75L10 6.05991H7.99L8.07 6.0699Z" fill="white"/>
<path d="M12 12L15 9L12 6" stroke="white" stroke-width="1.5" stroke-linecap="round" stroke-linejoin="round"/>
<rect x="9" y="8" width="6" height="2" rx="1" fill="white"/>
</svg>
