<svg width="16" height="16" viewBox="0 0 16 16" fill="none" xmlns="http://www.w3.org/2000/svg">
<path d="M12.07 6.0699C12.2311 4.96527 12.6489 3.9138 13.29 2.99991C13.29 2.99991 13.29 3.05991 13.29 3.08991C13.29 3.36573 13.3996 3.63026 13.5946 3.8253C13.7896 4.02033 14.0542 4.12991 14.33 4.12991C14.6058 4.12991 14.8704 4.02033 15.0654 3.8253C15.2604 3.63026 15.37 3.36573 15.37 3.08991C15.3704 2.90249 15.3181 2.71873 15.2191 2.5596C15.12 2.40047 14.9783 2.27237 14.81 2.18991H14.72C14.2225 2.00961 13.6775 2.00961 13.18 2.18991C11.56 2.63991 10.93 4.99991 10.93 4.99991L10.75 5.1199H7.75L7.5 6.1199H10.62L9.62 11.4199C9.46346 12.0161 9.1406 12.5555 8.68909 12.9751C8.23758 13.3948 7.67604 13.6773 7.07 13.7899C7.1315 13.655 7.16224 13.5081 7.16 13.3599C7.16 13.0735 7.04621 12.7988 6.84368 12.5962C6.64114 12.3937 6.36643 12.2799 6.08 12.2799C5.79357 12.2799 5.51886 12.3937 5.31632 12.5962C5.11379 12.7988 5 13.0735 5 13.3599C5.01111 13.605 5.1069 13.8386 5.27102 14.021C5.43514 14.2033 5.65744 14.3231 5.9 14.3599C10.26 15.1999 10.9 11.4499 10.9 11.4499L11.9 7.05991H13.75L14 6.05991H11.99L12.07 6.0699Z" fill="white"/>
<path d="M4 6L1 9L4 12" stroke="white" stroke-width="1.5" stroke-linecap="round" stroke-linejoin="round"/>
<rect x="7" y="10" width="6" height="2" rx="1" transform="rotate(-180 7 10)" fill="white"/>
</svg>
