<svg width="16" height="16" viewBox="0 0 16 16" fill="none" xmlns="http://www.w3.org/2000/svg">
<path opacity="0.5" d="M0.499806 13.5C0.399806 11.6 0.699806 9.69995 1.89981 7.89995C2.19981 7.39995 2.59981 7.09995 2.99981 6.79995C3.49981 6.49995 3.99981 6.29995 4.49981 6.09995C5.49981 5.79995 6.59981 5.69995 7.59981 5.89995C8.69981 6.09995 9.69981 6.59995 10.3998 7.39995C11.0998 8.19995 11.5998 8.99995 12.0998 9.79995C12.5998 10.6 12.9998 11.4 13.4998 11.9C13.5998 12 13.7998 12.2 13.8998 12.3C13.9998 12.4 14.0998 12.6 14.2998 12.8C14.5998 13.1 14.9998 13.4 15.3998 13.6C14.8998 13.8 14.3998 13.9 13.7998 13.8C13.4998 13.8 13.1998 13.7 12.9998 13.6C12.7998 13.4 12.5998 13.2 12.3998 13C11.5998 12.2 11.1998 11.3 10.6998 10.5C10.1998 9.69995 9.79981 8.89995 9.19981 8.39995C8.59981 7.79995 7.99981 7.49995 7.19981 7.29995C6.49981 7.19995 5.69981 7.19995 4.99981 7.49995C4.59981 7.59995 4.19981 7.79995 3.89981 7.99995C3.59981 8.29995 3.29981 8.59995 2.99981 8.79995C1.79981 9.99995 0.999806 11.7 0.499806 13.5Z" fill="white"/>
<path d="M4.8787 4.50004L7 6.62134L9.1213 4.50004L7 2.37874L4.8787 4.50004Z" fill="white"/>
<path opacity="0.5" d="M0.300293 4.5H13.7003" stroke="white" stroke-width="0.5" stroke-miterlimit="10"/>
<path d="M1.5001 5.89985C2.2733 5.89985 2.9001 5.27305 2.9001 4.49985C2.9001 3.72665 2.2733 3.09985 1.5001 3.09985C0.726899 3.09985 0.100098 3.72665 0.100098 4.49985C0.100098 5.27305 0.726899 5.89985 1.5001 5.89985Z" fill="white"/>
<path d="M12.5001 5.89985C13.2733 5.89985 13.9001 5.27305 13.9001 4.49985C13.9001 3.72665 13.2733 3.09985 12.5001 3.09985C11.7269 3.09985 11.1001 3.72665 11.1001 4.49985C11.1001 5.27305 11.7269 5.89985 12.5001 5.89985Z" fill="white"/>
</svg>
