<svg width="16" height="16" viewBox="0 0 16 16" fill="none" xmlns="http://www.w3.org/2000/svg">
<path opacity="0.5" d="M5.09998 16C5.09998 16 6.29998 14.7 8.59998 13.7C10.3 12.9 11.9 12.6 12 12.6L12.2 13.5C12 13.5 10.5 13.8 8.99998 14.3C6.69998 15.1 5.09998 16 5.09998 16Z" fill="white"/>
<path fill-rule="evenodd" clip-rule="evenodd" d="M10.3 15.4L12.2 14.6L14 15.7L13.8 13.6L15.4 12.2L13.3 11.8L12.5 9.8L11.4 11.6L9.30005 11.8L10.8 13.4L10.3 15.4Z" fill="white"/>
<path fill-rule="evenodd" clip-rule="evenodd" d="M12.7 8.4L13.9 6.9H15.7L14.7 5.4L15.3 3.6L13.5 4.2L12 3V4.9L10.4 5.9L12.2 6.5L12.7 8.4Z" fill="white"/>
<path opacity="0.5" d="M3.40002 16C3.50002 15.8 5.60002 11.3 8.40002 8.6C10.4 6.6 13.1 5.2 13.2 5.2L13.8 6.2C13.8 6.2 10.7 7.6 8.60002 9.4C5.80002 11.9 3.40002 16 3.40002 16Z" fill="white"/>
<path opacity="0.5" d="M9.2 5.7L7 5.2C6.8 5.3 6.7 5.4 6.6 5.6L8 7L7.5 7.5L6 6C5.9 6.1 5.7 6.2 5.6 6.3L6.2 8.7L5.5 9L4.9 6.6C4.3 6.7 3.7 6.6 3.3 6.2C2.9 5.8 2.8 5.2 3 4.6L0.5 4L0.8 3.3L3.2 3.9C3.3 3.8 3.4 3.6 3.4 3.5L2 2L2.5 1.5L3.9 2.9C4 2.8 4.2 2.7 4.3 2.6L3.8 0.3L4.5 0L5 2.1C5.9 1.7 6.8 1.7 7.3 2.2C7.8 2.7 7.8 3.6 7.4 4.5L9.5 5L9.2 5.7Z" fill="white"/>
</svg>
