<svg width="17" height="16" viewBox="0 0 17 16" fill="none" xmlns="http://www.w3.org/2000/svg">
<path d="M17 14H13V16H17V14Z" fill="white"/>
<path d="M10 14H6V16H10V14Z" fill="white"/>
<path d="M14 7H9V9H14V7Z" fill="white"/>
<path opacity="0.5" d="M14 15H15V11H12V8H11V11H8V15H9V12H14V15Z" fill="white"/>
<path fill-rule="evenodd" clip-rule="evenodd" d="M1.00011 9.57961V9.99961H8V6.80612C7.96391 6.76686 7.92696 6.72832 7.88918 6.69054C7.51216 6.31352 7.06021 6.01983 6.56255 5.82847C6.06488 5.6371 5.5326 5.55232 5.00011 5.57961C4.46762 5.55232 3.93534 5.6371 3.43768 5.82847C2.94001 6.01983 2.48806 6.31352 2.11104 6.69054C1.73402 7.06756 1.44033 7.51951 1.24897 8.01718C1.0576 8.51484 0.972822 9.04712 1.00011 9.57961ZM3.80563 0.71195C4.1592 0.475705 4.57488 0.349609 5.00011 0.349609C5.28245 0.349609 5.56203 0.405221 5.82288 0.513268C6.08373 0.621316 6.32074 0.779684 6.52039 0.97933C6.72004 1.17898 6.8784 1.41599 6.98645 1.67684C7.0945 1.93769 7.15011 2.21727 7.15011 2.49961C7.15011 2.92484 7.02402 3.34052 6.78777 3.69409C6.55153 4.04765 6.21574 4.32322 5.82288 4.48595C5.43002 4.64868 4.99773 4.69126 4.58067 4.6083C4.16361 4.52534 3.78051 4.32057 3.47983 4.01989C3.17915 3.71921 2.97438 3.33611 2.89142 2.91905C2.80846 2.50199 2.85104 2.0697 3.01377 1.67684C3.1765 1.28398 3.45207 0.948195 3.80563 0.71195Z" fill="white"/>
</svg>
