<svg width="16" height="16" viewBox="0 0 16 16" fill="none" xmlns="http://www.w3.org/2000/svg">
<path opacity="0.5" d="M1 16.0001C1.1 15.8001 3.69999 10.4001 6.89999 7.2001C9.29999 4.8001 12.5 3.2001 12.6 3.1001L13.4 4.3001C13.4 4.3001 9.7 6.0001 7.2 8.2001C3.9 11.1001 1 16.0001 1 16.0001Z" fill="white"/>
<path opacity="0.5" d="M3 16C3 16 4.50001 14.5 7.10001 13.3C9.20001 12.4 11.1 12 11.1 12L11.3 13.1C11 13.2 9.19999 13.5 7.39999 14C4.99999 14.9 3 16 3 16Z" fill="white"/>
<path opacity="0.5" d="M1.10011 14.8002C1.10011 14.7002 1.00011 12.7002 1.10011 10.9002C1.20011 9.3002 1.70011 7.4002 2.30011 5.7002H2.60011L3.30011 6.0002L3.7001 6.3002C2.9001 7.8002 2.10011 9.0002 1.60011 10.7002C1.10011 12.5002 1.10011 14.8002 1.10011 14.8002Z" fill="white"/>
<path fill-rule="evenodd" clip-rule="evenodd" d="M0.100098 5.8002L2.6001 6.0002L3.90009 8.2002L4.80009 5.9002L7.30009 5.3002L5.40009 3.7002L5.70009 1.2002L3.50009 2.5002L1.20009 1.5002L1.80009 3.9002L0.100098 5.8002Z" fill="white"/>
<path fill-rule="evenodd" clip-rule="evenodd" d="M9.20009 15.3001L11.5001 14.3001L13.7001 15.6001L13.4001 13.1001L15.3001 11.4001L12.8001 10.9001L11.8001 8.6001L10.6001 10.8001L8.1001 11.0001L9.80009 12.9001L9.20009 15.3001Z" fill="white"/>
<path fill-rule="evenodd" clip-rule="evenodd" d="M12.0999 6.9L13.4999 5.1L15.6999 5.2L14.4999 3.3L15.1999 1.2L13.0999 1.9L11.2999 0.5V2.7L9.3999 4L11.4999 4.7L12.0999 6.9Z" fill="white"/>
</svg>
