<svg width="20" height="20" viewBox="0 0 20 20" fill="none" xmlns="http://www.w3.org/2000/svg">
<path opacity="0.5" d="M7.59998 14H12.4L18.4 20H1.59998L7.59998 14Z" fill="white"/>
<path d="M10 0.879883C4.37 0.879883 0.619995 6.49988 0.619995 6.49988C0.619995 6.49988 4.37 12.1199 10 12.1199C15.63 12.1199 19.38 6.49988 19.38 6.49988C19.38 6.49988 15.62 0.879883 10 0.879883ZM10 11.4999C9.01109 11.4999 8.04439 11.2066 7.22214 10.6572C6.3999 10.1078 5.75904 9.3269 5.3806 8.41327C5.00216 7.49964 4.90314 6.49432 5.09607 5.52441C5.28899 4.55451 5.7652 3.66362 6.46446 2.96436C7.16372 2.26509 8.05464 1.78887 9.02454 1.59595C9.99445 1.40302 10.9998 1.50205 11.9134 1.88049C12.827 2.25893 13.6079 2.8998 14.1573 3.72205C14.7068 4.54429 15 5.51097 15 6.49988C15 7.82596 14.4732 9.09772 13.5355 10.0354C12.5978 10.9731 11.3261 11.4999 10 11.4999Z" fill="white"/>
<path d="M8.25 5.5C8.94036 5.5 9.5 4.94036 9.5 4.25C9.5 3.55964 8.94036 3 8.25 3C7.55964 3 7 3.55964 7 4.25C7 4.94036 7.55964 5.5 8.25 5.5Z" fill="white"/>
<path d="M15 13L18 16L19.94 14.06L15 13Z" fill="white"/>
<path d="M5.00002 13L0.0200195 14.1L1.96002 16.04L5.00002 13Z" fill="white"/>
</svg>
