<svg width="20" height="20" viewBox="0 0 20 20" fill="none" xmlns="http://www.w3.org/2000/svg">
<path opacity="0.5" d="M9 20C9.00305 18.3625 9.09987 16.7264 9.29 15.1C9.66892 12.5651 10.5935 10.1427 12 8H14L15 9C13.2224 10.7832 11.6982 12.8021 10.47 15C9.72592 16.5812 9.2301 18.2677 9 20Z" fill="white"/>
<path fill-rule="evenodd" clip-rule="evenodd" d="M19.7901 6.5L16.0301 8.38L15.4401 12.55L12.4901 9.55L8.35006 10.28L10.2901 6.55L8.31006 2.83L12.4601 3.53L15.3801 0.5L16.0101 4.66L19.7901 6.5Z" fill="white"/>
<path d="M3.49998 19.27C4.47752 19.27 5.26998 18.4775 5.26998 17.5C5.26998 16.5224 4.47752 15.73 3.49998 15.73C2.52244 15.73 1.72998 16.5224 1.72998 17.5C1.72998 18.4775 2.52244 19.27 3.49998 19.27Z" fill="white"/>
<path d="M3.5 5.5V12.6" stroke="white" stroke-width="3.3" stroke-miterlimit="10" stroke-linecap="round"/>
</svg>
