<svg width="16" height="16" viewBox="0 0 16 16" fill="none" xmlns="http://www.w3.org/2000/svg">
<path d="M4.9877 0.5C4.43281 0.5 3.89042 0.664491 3.42904 0.972772C2.96767 1.28105 2.60817 1.71922 2.39583 2.23187C2.18348 2.74453 2.12775 3.30871 2.236 3.85294C2.34426 4.39717 2.6114 4.89715 3.00376 5.28952C3.39613 5.68189 3.89612 5.94903 4.44034 6.05728C4.98457 6.16554 5.54876 6.10981 6.06141 5.89746C6.57406 5.68511 7.01223 5.32561 7.32051 4.86424C7.62879 4.40286 7.79328 3.86047 7.79328 3.30558C7.79328 2.5615 7.49779 1.84779 6.97164 1.32164C6.44549 0.795495 5.73179 0.5 4.9877 0.5ZM0 11.5104V14H2H6L4.21106 12.2111C3.819 11.819 3.82077 11.1828 4.21502 10.7929L5.69889 9.32553C6.07959 8.94905 6.68928 8.93923 7.08192 9.30325L9.04688 11.125L9.82568 10.2975C9.82568 10.2975 9.28898 8.75789 8.51447 7.98338C7.57909 7.048 6.31052 6.52275 4.9877 6.52275C3.66488 6.52275 2.39631 7.048 1.46094 7.98338C0.525561 8.91875 0 10.1876 0 11.5104Z" fill="white"/>
</svg>
