<svg width="16" height="16" viewBox="0 0 16 16" fill="none" xmlns="http://www.w3.org/2000/svg">
<path fill-rule="evenodd" clip-rule="evenodd" d="M1.5 1C0.671573 1 0 1.67157 0 2.5C0 3.32843 0.671573 4 1.5 4H4.5C5.32843 4 6 3.32843 6 2.5C6 1.67157 5.32843 1 4.5 1H1.5ZM1.5 6C0.671573 6 0 6.67157 0 7.5C0 8.32843 0.671573 9 1.5 9H4.5C5.32843 9 6 8.32843 6 7.5C6 6.67157 5.32843 6 4.5 6H1.5Z" fill="white"/>
<path fill-rule="evenodd" clip-rule="evenodd" d="M10 2.5C10 1.67157 10.6716 1 11.5 1H14.5C15.3284 1 16 1.67157 16 2.5C16 3.32843 15.3284 4 14.5 4H11.5C10.6716 4 10 3.32843 10 2.5ZM10 12.5C10 11.6716 10.6716 11 11.5 11H14.5C15.3284 11 16 11.6716 16 12.5C16 13.3284 15.3284 14 14.5 14H11.5C10.6716 14 10 13.3284 10 12.5ZM11.5 6C10.6716 6 10 6.67157 10 7.5C10 8.32843 10.6716 9 11.5 9H14.5C15.3284 9 16 8.32843 16 7.5C16 6.67157 15.3284 6 14.5 6H11.5Z" fill="white"/>
<rect opacity="0.5" x="7" y="16" width="16" height="2" rx="1" transform="rotate(-90 7 16)" fill="white"/>
</svg>
