<svg width="16" height="16" viewBox="0 0 16 16" fill="none" xmlns="http://www.w3.org/2000/svg">
<path d="M8.5 12H7.5C6.39543 12 5.5 12.8954 5.5 14C5.5 15.1046 6.39543 16 7.5 16H8.5C9.60457 16 10.5 15.1046 10.5 14C10.5 12.8954 9.60457 12 8.5 12Z" fill="white"/>
<path d="M5.09303 1.0854C5.04299 0.501561 5.5034 0 6.08938 0H9.91062C10.4966 0 10.957 0.501562 10.907 1.0854L10.2213 9.0854C10.1769 9.60269 9.74409 10 9.2249 10H6.7751C6.25591 10 5.82309 9.60269 5.77875 9.0854L5.09303 1.0854Z" fill="white"/>
</svg>
