<svg width="16" height="16" viewBox="0 0 16 16" fill="none" xmlns="http://www.w3.org/2000/svg">
<path d="M1.70711 12.596C1.31658 12.2055 1.31658 11.5723 1.70711 11.1818L4.88889 8L1.70711 4.81822C1.31658 4.42769 1.31658 3.79453 1.70711 3.404L3.404 1.70711C3.79453 1.31658 4.42769 1.31658 4.81822 1.70711L8 4.88889L11.1818 1.70711C11.5723 1.31658 12.2055 1.31658 12.596 1.70711L14.2929 3.404C14.6834 3.79453 14.6834 4.42769 14.2929 4.81822L11.1111 8L14.2929 11.1818C14.6834 11.5723 14.6834 12.2055 14.2929 12.596L12.596 14.2929C12.2055 14.6834 11.5723 14.6834 11.1818 14.2929L8 11.1111L4.81822 14.2929C4.42769 14.6834 3.79453 14.6834 3.404 14.2929L1.70711 12.596Z" fill="white"/>
</svg>
