<svg width="16" height="16" viewBox="0 0 16 16" fill="none" xmlns="http://www.w3.org/2000/svg">
<path fill-rule="evenodd" clip-rule="evenodd" d="M4.42948 11.3209C4.0672 11.7054 4.06653 12.3054 4.42794 12.6907L5.39659 13.7235C5.79133 14.1444 6.45938 14.1447 6.85459 13.7243L10.7852 9.54282L10.4497 5.62839C10.4175 5.25297 10.5261 4.90023 10.7298 4.61971L9.89829 5.50509L6.85432 2.27422C6.45906 1.85469 5.7919 1.85529 5.3974 2.27553L0.642015 7.34112C0.280904 7.72579 0.280771 8.32483 0.64171 8.70966L1.61123 9.74335C2.00608 10.1643 2.67435 10.1646 3.0695 9.74388L6.12516 6.49069L7.558 8.00029L4.42948 11.3209ZM10.9894 4.34328C11.2479 4.12955 11.5799 4.00029 11.9442 4.00029H15.0549C15.2558 4.00029 15.447 4.03962 15.6213 4.11077C15.6542 3.8277 15.5663 3.53331 15.3574 3.31063L14.3884 2.27743C13.9935 1.85643 13.3252 1.85621 12.9301 2.27695L10.9894 4.34328Z" fill="white"/>
</svg>
