<svg width="16" height="16" viewBox="0 0 16 16" fill="none" xmlns="http://www.w3.org/2000/svg">
<path d="M4.42816 12.6904C4.06674 12.3051 4.06742 11.7051 4.4297 11.3206L7.55821 8L6.12537 6.4904L3.06972 9.74359C2.67456 10.1643 2.00629 10.164 1.61144 9.74306L0.641923 8.70936C0.280984 8.32454 0.281118 7.7255 0.642229 7.34083L5.39761 2.27524C5.79211 1.855 6.45927 1.8544 6.85453 2.27393L9.89851 5.5048L12.9303 2.27666C13.3254 1.85592 13.9937 1.85614 14.3886 2.27714L15.3577 3.31034C15.7188 3.69535 15.7184 4.29474 15.3569 4.67935L6.85481 13.724C6.4596 14.1444 5.79155 14.1441 5.3968 13.7232L4.42816 12.6904Z" fill="white"/>
</svg>
