<svg width="16" height="16" viewBox="0 0 16 16" fill="none" xmlns="http://www.w3.org/2000/svg">
<path d="M9.98671 9.03443C9.90365 9.56756 9.49962 10 8.96005 10H6.98303C6.43075 10 5.97161 9.55018 6.042 9.0024C6.06595 8.81601 6.09719 8.63952 6.13574 8.47291C6.24602 8.02627 6.43266 7.62562 6.69565 7.27094C6.95864 6.91626 7.31495 6.58785 7.76458 6.28571C8.16331 6.02956 8.50689 5.78325 8.79533 5.5468C9.08378 5.31035 9.30435 5.07061 9.45705 4.82759C9.60976 4.58456 9.68611 4.32512 9.68611 4.04926C9.68611 3.70772 9.62248 3.42857 9.49523 3.21182C9.17585 2.62898 8.40538 2.56158 7.76458 2.56158C7.25769 2.56158 6.78347 2.76598 6.5 3.18182C6.41795 3.29883 6.28549 3.52147 6.19533 3.83727C6.02635 4.42918 5.57786 5 4.9623 5H3C2.44772 5 1.99144 4.55059 2.05042 4.00146C2.15759 3.00371 2.43205 2.24935 2.83987 1.78325C3.38282 1.16585 4.10392 0.715928 5.00318 0.433498C5.91092 0.144499 6.92471 0 8.04454 0C9.28314 0 10.3478 0.147783 11.2386 0.44335C12.1294 0.738916 12.8123 1.17898 13.2874 1.76355C13.7625 2.34154 14 3.05419 14 3.90148C14 4.46634 13.86 4.95895 13.5801 5.37931C13.3086 5.7931 12.9396 6.18062 12.473 6.54187C12.0148 6.89655 11.5016 7.2775 10.9332 7.68473C10.2808 8.12889 10.0662 8.52403 9.98671 9.03443Z" fill="white"/>
<rect x="5.5" y="12" width="5" height="4" rx="2" fill="white"/>
</svg>
