<svg width="16" height="16" viewBox="0 0 16 16" fill="none" xmlns="http://www.w3.org/2000/svg">
<path d="M8 2C7.20888 2 6.43552 2.23461 5.77772 2.67413C5.11993 3.11366 4.60723 3.73833 4.30448 4.46924C4.00173 5.20014 3.92252 6.00441 4.07686 6.78033C4.2312 7.55626 4.61216 8.26902 5.17157 8.82843C5.73098 9.38784 6.44372 9.76882 7.21964 9.92316C7.99556 10.0775 8.79983 9.99825 9.53074 9.6955C10.2616 9.39275 10.8864 8.88009 11.3259 8.22229C11.7654 7.56449 12 6.79113 12 6C12 4.93913 11.5786 3.92172 10.8284 3.17157C10.0783 2.42142 9.06087 2 8 2ZM8 9.10999C7.3849 9.10999 6.78362 8.92761 6.27218 8.58588C5.76074 8.24415 5.36213 7.7584 5.12674 7.19012C4.89135 6.62185 4.82976 5.99653 4.94976 5.39325C5.06976 4.78997 5.36596 4.23584 5.8009 3.8009C6.23584 3.36596 6.78999 3.06977 7.39327 2.94977C7.99655 2.82977 8.62187 2.89132 9.19015 3.12671C9.75843 3.3621 10.2441 3.76072 10.5859 4.27216C10.9276 4.78359 11.11 5.3849 11.11 6C11.11 6.82482 10.7823 7.61586 10.1991 8.1991C9.61587 8.78233 8.82483 9.10999 8 9.10999V9.10999Z" fill="white"/>
<path d="M9.77998 6.88997H7.10999V4.21997H7.99999V5.99997H9.77998V6.88997Z" fill="white"/>
<path opacity="0.5" d="M12.0699 1.92993C12.6041 2.46437 13.0274 3.099 13.3157 3.79742C13.604 4.49585 13.7516 5.24435 13.7499 5.99994H15.4999C15.5007 5.01511 15.3067 4.03983 14.9292 3.13025C14.5516 2.22067 13.9979 1.39474 13.2999 0.699951L12.0699 1.92993Z" fill="white"/>
<path opacity="0.5" d="M2.25 5.99994C2.24836 5.24435 2.39593 4.49585 2.68422 3.79742C2.97252 3.099 3.39587 2.46437 3.93 1.92993L2.7 0.699951C2.00216 1.39493 1.44844 2.22086 1.07061 3.13037C0.692786 4.03989 0.498291 5.01507 0.498291 5.99994C0.498291 6.98481 0.692786 7.95999 1.07061 8.86951C1.44844 9.77902 2.00216 10.6049 2.7 11.2999L3.93 10.0699C3.39587 9.53551 2.97252 8.90088 2.68422 8.20245C2.39593 7.50402 2.24836 6.75553 2.25 5.99994Z" fill="white"/>
<path d="M14 16C14.5523 16 15 15.5523 15 15C15 14.4477 14.5523 14 14 14C13.4477 14 13 14.4477 13 15C13 15.5523 13.4477 16 14 16Z" fill="white"/>
<path d="M14 8V12" stroke="white" stroke-width="2" stroke-miterlimit="10" stroke-linecap="round"/>
</svg>
