<svg width="64" height="64" viewBox="0 0 64 64" fill="none" xmlns="http://www.w3.org/2000/svg">
<path d="M39 25L55 25V9L39 9V25Z" fill="white"/>
<path opacity="0.5" d="M39 41H55V25L39 25V41Z" fill="white"/>
<path opacity="0.5" d="M23 25L39 25V9L23 9V25Z" fill="white"/>
<path d="M21 30C17.6848 30 14.5053 31.3169 12.1611 33.6611C9.81693 36.0053 8.5 39.1848 8.5 42.5C8.5 45.8152 9.81693 48.9947 12.1611 51.3389C14.5053 53.6831 17.6848 55 21 55C24.3152 55 27.4947 53.6831 29.8389 51.3389C32.1831 48.9947 33.5 45.8152 33.5 42.5C33.5 39.1848 32.1831 36.0053 29.8389 33.6611C27.4947 31.3169 24.3152 30 21 30V30Z" fill="url(#paint0_radial_9586_23267)"/>
<path d="M21 32.25C23.7177 32.2526 26.3232 33.3335 28.2449 35.2551C30.1665 37.1768 31.2474 39.7823 31.25 42.5C31.2474 45.2177 30.1665 47.8232 28.2449 49.7449C26.3232 51.6665 23.7177 52.7474 21 52.75C18.2823 52.7474 15.6768 51.6665 13.7551 49.7449C11.8335 47.8232 10.7526 45.2177 10.75 42.5C10.7526 39.7823 11.8335 37.1768 13.7551 35.2551C15.6768 33.3335 18.2823 32.2526 21 32.25V32.25ZM21 31.1299C17.9836 31.1299 15.0904 32.3275 12.9565 34.4595C10.8227 36.5915 9.62277 39.4836 9.62012 42.5C9.62277 45.5164 10.8227 48.4085 12.9565 50.5405C15.0904 52.6725 17.9836 53.8701 21 53.8701C24.0164 53.8701 26.9096 52.6725 29.0435 50.5405C31.1773 48.4085 32.3772 45.5164 32.3799 42.5C32.3772 39.4836 31.1773 36.5915 29.0435 34.4595C26.9096 32.3275 24.0164 31.1299 21 31.1299Z" fill="url(#paint1_linear_9586_23267)"/>
<path d="M23.26 34.3701H23V38H19V34.3701H18.74C16.9551 34.8643 15.3813 35.9298 14.2598 37.4036C13.1382 38.8773 12.5307 40.678 12.53 42.53C12.53 44.7764 13.4223 46.9309 15.0107 48.5193C16.5992 50.1077 18.7536 51 21 51C23.2464 51 25.4008 50.1077 26.9893 48.5193C28.5777 46.9309 29.47 44.7764 29.47 42.53C29.4693 40.678 28.8618 38.8773 27.7402 37.4036C26.6187 35.9298 25.0449 34.8643 23.26 34.3701V34.3701ZM16.48 46.46C16.2572 46.46 16.0367 46.4159 15.8311 46.3303C15.6254 46.2448 15.4386 46.1194 15.2815 45.9614C15.1244 45.8034 15.0001 45.6161 14.9158 45.4099C14.8314 45.2037 14.7887 44.9828 14.79 44.76C14.7887 44.5377 14.8316 44.3175 14.916 44.1118C15.0005 43.9062 15.1248 43.7192 15.282 43.562C15.4392 43.4048 15.6261 43.2805 15.8318 43.196C16.0374 43.1116 16.2577 43.0687 16.48 43.0701C16.7028 43.0688 16.9237 43.1115 17.1299 43.1958C17.3361 43.2801 17.5234 43.4045 17.6814 43.5615C17.8394 43.7186 17.9647 43.9051 18.0503 44.1108C18.1358 44.3165 18.1799 44.5372 18.1799 44.76C18.1799 45.2109 18.0009 45.6433 17.6821 45.9622C17.3633 46.281 16.9308 46.46 16.48 46.46V46.46ZM16.48 41.9399C16.2572 41.9399 16.0367 41.8959 15.8311 41.8103C15.6254 41.7247 15.4386 41.5994 15.2815 41.4414C15.1244 41.2834 15.0001 41.0961 14.9158 40.8899C14.8314 40.6837 14.7887 40.4628 14.79 40.24C14.79 39.7918 14.968 39.3619 15.2849 39.0449C15.6018 38.728 16.0318 38.55 16.48 38.55C16.9291 38.55 17.3599 38.7278 17.6785 39.0444C17.997 39.3611 18.1773 39.7909 18.1799 40.24C18.1799 40.6909 18.0009 41.1233 17.6821 41.4421C17.3633 41.761 16.9308 41.9399 16.48 41.9399V41.9399ZM21 48.72C20.7772 48.72 20.5565 48.6759 20.3508 48.5903C20.1451 48.5048 19.9586 48.3794 19.8015 48.2214C19.6445 48.0634 19.5201 47.8761 19.4358 47.6699C19.3515 47.4637 19.3087 47.2428 19.3101 47.02C19.3087 46.7977 19.3516 46.5772 19.436 46.3716C19.5205 46.1659 19.6448 45.9792 19.802 45.822C19.9592 45.6648 20.1462 45.5405 20.3518 45.4561C20.5574 45.3716 20.7777 45.3288 21 45.3301C21.2223 45.3288 21.4426 45.3716 21.6482 45.4561C21.8538 45.5405 22.0408 45.6648 22.198 45.822C22.3552 45.9792 22.4795 46.1659 22.564 46.3716C22.6484 46.5772 22.6913 46.7977 22.6899 47.02C22.6913 47.2428 22.6485 47.4637 22.5642 47.6699C22.4799 47.8761 22.3555 48.0634 22.1985 48.2214C22.0414 48.3794 21.8549 48.5048 21.6492 48.5903C21.4435 48.6759 21.2228 48.72 21 48.72V48.72ZM25.52 38.55C25.9682 38.55 26.3982 38.728 26.7151 39.0449C27.032 39.3619 27.21 39.7918 27.21 40.24C27.2113 40.4628 27.1686 40.6837 27.0842 40.8899C26.9999 41.0961 26.8756 41.2834 26.7185 41.4414C26.5614 41.5994 26.3746 41.7247 26.1689 41.8103C25.9633 41.8959 25.7428 41.9399 25.52 41.9399C25.0692 41.9399 24.6367 41.761 24.3179 41.4421C23.9991 41.1233 23.8201 40.6909 23.8201 40.24C23.8227 39.7909 24.003 39.3611 24.3215 39.0444C24.6401 38.7278 25.0709 38.55 25.52 38.55ZM25.52 46.46C25.0692 46.46 24.6367 46.281 24.3179 45.9622C23.9991 45.6433 23.8201 45.2109 23.8201 44.76C23.8201 44.5372 23.8642 44.3165 23.9497 44.1108C24.0353 43.9051 24.1606 43.7186 24.3186 43.5615C24.4766 43.4045 24.6639 43.2801 24.8701 43.1958C25.0763 43.1115 25.2972 43.0688 25.52 43.0701C25.7423 43.0687 25.9626 43.1116 26.1682 43.196C26.3739 43.2805 26.5608 43.4048 26.718 43.562C26.8752 43.7192 26.9995 43.9062 27.084 44.1118C27.1684 44.3175 27.2113 44.5377 27.21 44.76C27.2113 44.9828 27.1686 45.2037 27.0842 45.4099C26.9999 45.6161 26.8756 45.8034 26.7185 45.9614C26.5614 46.1194 26.3746 46.2448 26.1689 46.3303C25.9633 46.4159 25.7428 46.46 25.52 46.46V46.46Z" fill="url(#paint2_linear_9586_23267)"/>
<defs>
<radialGradient id="paint0_radial_9586_23267" cx="0" cy="0" r="1" gradientUnits="userSpaceOnUse" gradientTransform="translate(21 42.5) scale(12.5)">
<stop stop-color="#666666"/>
<stop offset="0.19" stop-color="#5A5A5A"/>
<stop offset="0.7" stop-color="#3E3E3E"/>
<stop offset="1" stop-color="#333333"/>
</radialGradient>
<linearGradient id="paint1_linear_9586_23267" x1="21" y1="31.1299" x2="21" y2="53.8701" gradientUnits="userSpaceOnUse">
<stop stop-color="#ABABAB"/>
<stop offset="0.54" stop-color="#919191"/>
<stop offset="1" stop-color="#6E6E6E"/>
</linearGradient>
<linearGradient id="paint2_linear_9586_23267" x1="21" y1="34.3701" x2="21" y2="51" gradientUnits="userSpaceOnUse">
<stop stop-color="white"/>
<stop offset="0.06" stop-color="#F1F1F1"/>
<stop offset="0.27" stop-color="#C3C3C3"/>
<stop offset="0.44" stop-color="#A7A7A7"/>
<stop offset="0.54" stop-color="#9C9C9C"/>
<stop offset="1" stop-color="#525252"/>
</linearGradient>
</defs>
</svg>
