<svg width="64" height="64" viewBox="0 0 64 64" fill="none" xmlns="http://www.w3.org/2000/svg">
<path d="M35 3.5L61 18.5701V44.8301L35 26.76V3.5ZM30 3.5V26.76L4 44.8301V18.5701L30 3.5ZM33 0.0300293V27.8L33.86 28.3999L59.86 46.47L63 48.6599V17.4199L62 16.8401L36 1.77002L33 0.0300293V0.0300293ZM32 0.0300293L29 1.77002L3 16.8401L2 17.4199V48.6599L5.14001 46.47L31.14 28.3999L32 27.8V0V0.0300293Z" fill="#333333"/>
<path d="M61 44.83L35 26.76V3.5L61 18.57V44.83Z" fill="url(#paint0_linear_9353_25264)"/>
<path d="M4 44.83L30 26.76V3.5L4 18.57V44.83Z" fill="url(#paint1_linear_9353_25264)"/>
<path d="M37 7L59 19.76V41L37 25.7V7ZM35 3.53003V26.79L61 44.8601V18.6001L35 3.53003Z" fill="#CCCCCC"/>
<path d="M28 7V25.74L6 41.04V19.76L28 7V7ZM30 3.53003L4 18.6001V44.8601L30 26.79V3.53003Z" fill="#CCCCCC"/>
<path d="M61 52.51C61 52.51 52.4 63 32.5 63C12.6 63 4 52.51 4 52.51V49.4299C4 49.4299 12.6 59.4299 32.5 59.4299C52.4 59.4299 61 49.4299 61 49.4299V52.51Z" fill="#333333"/>
<path d="M61 49.4299C61 49.4299 52.4 59.4299 32.5 59.4299C12.6 59.4299 4 49.4299 4 49.4299L32.5 29.1699L61 49.4299Z" fill="url(#paint2_linear_9353_25264)"/>
<defs>
<linearGradient id="paint0_linear_9353_25264" x1="53.7" y1="14.3" x2="42.3" y2="34.04" gradientUnits="userSpaceOnUse">
<stop stop-color="#4D4D4D"/>
<stop offset="1" stop-color="#B3B3B3"/>
</linearGradient>
<linearGradient id="paint1_linear_9353_25264" x1="11.3" y1="14.3" x2="22.7" y2="34.04" gradientUnits="userSpaceOnUse">
<stop stop-color="#4D4D4D"/>
<stop offset="1" stop-color="#B3B3B3"/>
</linearGradient>
<linearGradient id="paint2_linear_9353_25264" x1="32.5" y1="59.4399" x2="32.5" y2="29.1699" gradientUnits="userSpaceOnUse">
<stop stop-color="#808080"/>
<stop offset="0.49" stop-color="#5D5D5D"/>
<stop offset="1" stop-color="#333333"/>
</linearGradient>
</defs>
</svg>
