<svg width="16" height="16" viewBox="0 0 16 16" fill="none" xmlns="http://www.w3.org/2000/svg">
<path d="M16 10L9 5V0L16 4V10Z" fill="white"/>
<path opacity="0.5" d="M7 0L0 4V10L7 5V0Z" fill="white"/>
<path d="M0.540039 11.1899C1.03654 11.7465 1.5932 12.2465 2.19995 12.6802C2.76777 13.1019 3.37775 13.4635 4.02002 13.7598C5.2777 14.3233 6.64188 14.6102 8.02002 14.6001C9.39722 14.6111 10.7609 14.3281 12.02 13.77C12.6677 13.4861 13.276 13.1199 13.83 12.6802C14.4367 12.2465 14.9935 11.7465 15.49 11.1899L15.5699 11.2402C14.8187 12.5714 13.724 13.6762 12.4 14.4399C11.0694 15.201 9.56292 15.6011 8.03003 15.6001C6.49713 15.6011 4.99064 15.201 3.66003 14.4399C2.33604 13.6762 1.24125 12.5714 0.48999 11.2402L0.540039 11.1899Z" fill="white"/>
</svg>
