<?xml version="1.0" encoding="utf-8"?>
<!-- Generator: Adobe Illustrator 24.3.0, SVG Export Plug-In . SVG Version: 6.00 Build 0)  -->
<svg version="1.1" id="TakeRecorderLiveLinkSource_x5F_64"
	 xmlns="http://www.w3.org/2000/svg" xmlns:xlink="http://www.w3.org/1999/xlink" x="0px" y="0px" viewBox="0 0 64 64"
	 style="enable-background:new 0 0 64 64;" xml:space="preserve">
<style type="text/css">
	.st0{fill:none;}
	.st1{fill-rule:evenodd;clip-rule:evenodd;fill:#5B5B5B;}
	.st2{fill-rule:evenodd;clip-rule:evenodd;fill:#7F7F7F;}
	.st3{fill:url(#SVGID_1_);}
	.st4{fill:url(#SVGID_2_);}
	.st5{fill-rule:evenodd;clip-rule:evenodd;fill:#BFBFBF;}
	.st6{fill-rule:evenodd;clip-rule:evenodd;fill:url(#SVGID_3_);}
	.st7{fill:url(#SVGID_4_);}
	.st8{fill:url(#SVGID_5_);}
	.st9{fill:url(#SVGID_6_);enable-background:new    ;}
	.st10{fill:url(#SVGID_7_);enable-background:new    ;}
	.st11{fill:url(#SVGID_8_);}
</style>
<g>
	<rect x="0" class="st0" width="64" height="64"/>
	<rect x="27" y="45.7" class="st1" width="9.8" height="7.6"/>
	<path class="st2" d="M24.2,42.1c0,2.7,3.4,4.8,7.7,4.8s7.7-2.2,7.7-4.8H24.2z"/>
	<linearGradient id="SVGID_1_" gradientUnits="userSpaceOnUse" x1="32.0195" y1="9.9244" x2="32.0195" y2="41.9175">
		<stop  offset="0" style="stop-color:#333333"/>
		<stop  offset="1" style="stop-color:#4D4D4D"/>
	</linearGradient>
	<rect x="9.5" y="9.5" class="st3" width="45" height="32.6"/>
	<linearGradient id="SVGID_2_" gradientUnits="userSpaceOnUse" x1="32" y1="44.5108" x2="32" y2="7.0822">
		<stop  offset="0" style="stop-color:#999999"/>
		<stop  offset="1" style="stop-color:#F2F2F2"/>
	</linearGradient>
	<path class="st4" d="M53.8,11.2v29.2c0,0.5-0.4,1-1,1H11.2c-0.5,0-1-0.4-1-1V11.2c0-0.5,0.4-1,1-1h41.7
		C53.4,10.2,53.8,10.6,53.8,11.2z M56,7.1H8c-0.5,0-1,0.4-1,1v35.4c0,0.5,0.4,1,1,1H56c0.5,0,1-0.4,1-1V8.1C57,7.5,56.5,7.1,56,7.1z
		"/>
	<path class="st5" d="M46.4,57.1c0-2.7-6.5-5.1-14.5-5.1s-14.5,2.4-14.5,5.1H46.4z"/>
	<linearGradient id="SVGID_3_" gradientUnits="userSpaceOnUse" x1="31.872" y1="57.6329" x2="31.872" y2="52.8012">
		<stop  offset="0" style="stop-color:#808080"/>
		<stop  offset="1" style="stop-color:#808080"/>
	</linearGradient>
	<path class="st6" d="M46.4,57.4c0.3-2.8-6.5-4.8-14.5-4.8c-8,0-14.8,2.1-14.5,4.8H46.4z"/>
	<g>
		<radialGradient id="SVGID_4_" cx="32.2448" cy="21.7046" r="8.3346" gradientUnits="userSpaceOnUse">
			<stop  offset="0" style="stop-color:#FFFFFF;stop-opacity:0.3"/>
			<stop  offset="1" style="stop-color:#B3B3B3;stop-opacity:0"/>
		</radialGradient>
		<path class="st7" d="M32.2,30c4.6,0,8.3-3.7,8.3-8.3s-3.7-8.3-8.3-8.3s-8.3,3.7-8.3,8.3S27.6,30,32.2,30z"/>
		<radialGradient id="SVGID_5_" cx="32.1602" cy="21.6196" r="5.3319" gradientUnits="userSpaceOnUse">
			<stop  offset="0" style="stop-color:#FFFFFF"/>
			<stop  offset="1" style="stop-color:#B3B3B3"/>
		</radialGradient>
		<path class="st8" d="M32.2,27c2.9,0,5.3-2.4,5.3-5.3s-2.4-5.3-5.3-5.3s-5.3,2.4-5.3,5.3S29.2,27,32.2,27z"/>
		<radialGradient id="SVGID_6_" cx="32.0422" cy="21.3851" r="13.3055" gradientUnits="userSpaceOnUse">
			<stop  offset="0" style="stop-color:#FFFFFF"/>
			<stop  offset="1" style="stop-color:#666666"/>
		</radialGradient>
		<path class="st9" d="M41.6,12.2l-2.7,2.7c1.8,1.8,2.8,4.1,2.8,6.8s-1.1,5-2.8,6.8l2.7,2.7c2.5-2.5,3.9-5.7,3.9-9.4
			S44.1,14.7,41.6,12.2z"/>
		<radialGradient id="SVGID_7_" cx="32.2746" cy="21.6199" r="13.477" gradientUnits="userSpaceOnUse">
			<stop  offset="0" style="stop-color:#FFFFFF"/>
			<stop  offset="1" style="stop-color:#666666"/>
		</radialGradient>
		<path class="st10" d="M22.6,21.6c0-2.7,1.1-5,2.8-6.8l-2.7-2.7c-2.5,2.5-3.9,5.7-3.9,9.4s1.4,6.9,3.9,9.4l2.7-2.7
			C23.6,26.6,22.6,24.3,22.6,21.6z"/>
		<linearGradient id="SVGID_8_" gradientUnits="userSpaceOnUse" x1="32.1281" y1="39.3215" x2="32.1907" y2="28.2343">
			<stop  offset="0" style="stop-color:#FFFFFF"/>
			<stop  offset="1" style="stop-color:#B3B3B3"/>
		</linearGradient>
		<path class="st11" d="M33.9,27.9h-3.6v11.5h3.6V27.9z"/>
	</g>
</g>
</svg>
