<?xml version="1.0" encoding="utf-8"?>
<!-- Generator: Adobe Illustrator 24.3.0, SVG Export Plug-In . SVG Version: 6.00 Build 0)  -->
<svg version="1.1" id="TakePreset_x5F_64" xmlns="http://www.w3.org/2000/svg" xmlns:xlink="http://www.w3.org/1999/xlink" x="0px"
	 y="0px" viewBox="0 0 64 64" style="enable-background:new 0 0 64 64;" xml:space="preserve">
<style type="text/css">
	.st0{fill:none;}
	.st1{fill-rule:evenodd;clip-rule:evenodd;fill:url(#SVGID_1_);}
	.st2{fill-rule:evenodd;clip-rule:evenodd;fill:#333333;}
	.st3{fill-rule:evenodd;clip-rule:evenodd;fill:url(#SVGID_2_);}
	.st4{fill-rule:evenodd;clip-rule:evenodd;fill:url(#SVGID_3_);}
</style>
<g>
	<rect x="0" class="st0" width="64" height="64"/>
	<linearGradient id="SVGID_1_" gradientUnits="userSpaceOnUse" x1="42.593" y1="48.1294" x2="15.3416" y2="3.4836">
		<stop  offset="0" style="stop-color:#E6E6E6"/>
		<stop  offset="1" style="stop-color:#999999"/>
	</linearGradient>
	<path class="st1" d="M57.4,11.4H8.1v41.3h49.3V11.4z"/>
	<path class="st2" d="M53.5,19.2h-4.7c-0.2,0-0.4-0.2-0.4-0.4v-4.7c0-0.2,0.2-0.4,0.4-0.4h4.7c0.2,0,0.4,0.2,0.4,0.4v4.7
		C53.9,19,53.8,19.2,53.5,19.2z"/>
	<linearGradient id="SVGID_2_" gradientUnits="userSpaceOnUse" x1="46.3098" y1="49.4531" x2="21.9012" y2="36.0506">
		<stop  offset="0" style="stop-color:#4D4D4D"/>
		<stop  offset="1" style="stop-color:#333333"/>
	</linearGradient>
	<path class="st3" d="M44.5,50.3H20.8c-0.2,0-0.4-0.2-0.4-0.4V34.1c0-0.2,0.2-0.4,0.4-0.4h23.8c0.2,0,0.4,0.2,0.4,0.4v15.8
		C45,50.1,44.8,50.3,44.5,50.3z"/>
	<path class="st2" d="M53.5,27h-4.7c-0.2,0-0.4-0.2-0.4-0.4v-4.7c0-0.2,0.2-0.4,0.4-0.4h4.7c0.2,0,0.4,0.2,0.4,0.4v4.7
		C53.9,26.8,53.8,27,53.5,27z"/>
	<path class="st2" d="M53.5,34.7h-4.7c-0.2,0-0.4-0.2-0.4-0.4v-4.7c0-0.2,0.2-0.4,0.4-0.4h4.7c0.2,0,0.4,0.2,0.4,0.4v4.7
		C53.9,34.6,53.8,34.7,53.5,34.7z"/>
	<path class="st2" d="M53.5,42.5h-4.7c-0.2,0-0.4-0.2-0.4-0.4v-4.7c0-0.2,0.2-0.4,0.4-0.4h4.7c0.2,0,0.4,0.2,0.4,0.4v4.7
		C53.9,42.3,53.8,42.5,53.5,42.5z"/>
	<path class="st2" d="M53.5,50.3h-4.7c-0.2,0-0.4-0.2-0.4-0.4v-4.7c0-0.2,0.2-0.4,0.4-0.4h4.7c0.2,0,0.4,0.2,0.4,0.4v4.7
		C53.9,50.1,53.8,50.3,53.5,50.3z"/>
	<path class="st2" d="M16.4,19.2h-4.7c-0.2,0-0.4-0.2-0.4-0.4v-4.7c0-0.2,0.2-0.4,0.4-0.4h4.7c0.2,0,0.4,0.2,0.4,0.4v4.7
		C16.8,19,16.6,19.2,16.4,19.2z"/>
	<path class="st2" d="M16.4,27h-4.7c-0.2,0-0.4-0.2-0.4-0.4v-4.7c0-0.2,0.2-0.4,0.4-0.4h4.7c0.2,0,0.4,0.2,0.4,0.4v4.7
		C16.8,26.8,16.6,27,16.4,27z"/>
	<path class="st2" d="M16.4,34.7h-4.7c-0.2,0-0.4-0.2-0.4-0.4v-4.7c0-0.2,0.2-0.4,0.4-0.4h4.7c0.2,0,0.4,0.2,0.4,0.4v4.7
		C16.8,34.6,16.6,34.7,16.4,34.7z"/>
	<path class="st2" d="M16.4,42.5h-4.7c-0.2,0-0.4-0.2-0.4-0.4v-4.7c0-0.2,0.2-0.4,0.4-0.4h4.7c0.2,0,0.4,0.2,0.4,0.4v4.7
		C16.8,42.3,16.6,42.5,16.4,42.5z"/>
	<path class="st2" d="M16.4,50.3h-4.7c-0.2,0-0.4-0.2-0.4-0.4v-4.7c0-0.2,0.2-0.4,0.4-0.4h4.7c0.2,0,0.4,0.2,0.4,0.4v4.7
		C16.8,50.1,16.6,50.3,16.4,50.3z"/>
	<linearGradient id="SVGID_3_" gradientUnits="userSpaceOnUse" x1="46.1452" y1="29.5229" x2="21.7366" y2="16.1204">
		<stop  offset="0" style="stop-color:#4D4D4D"/>
		<stop  offset="1" style="stop-color:#333333"/>
	</linearGradient>
	<path class="st4" d="M44.4,30.4H20.6c-0.2,0-0.4-0.2-0.4-0.4V14.1c0-0.2,0.2-0.4,0.4-0.4h23.8c0.2,0,0.4,0.2,0.4,0.4v15.8
		C44.8,30.2,44.6,30.4,44.4,30.4z"/>
</g>
</svg>
