<?xml version="1.0" encoding="utf-8"?>
<!-- Generator: Adobe Illustrator 24.3.0, SVG Export Plug-In . SVG Version: 6.00 Build 0)  -->
<svg version="1.1" id="TakeRecorderMicrophoneAudioSource_x5F_64"
	 xmlns="http://www.w3.org/2000/svg" xmlns:xlink="http://www.w3.org/1999/xlink" x="0px" y="0px" viewBox="0 0 64 64"
	 style="enable-background:new 0 0 64 64;" xml:space="preserve">
<style type="text/css">
	.st0{fill:none;}
	.st1{fill-rule:evenodd;clip-rule:evenodd;fill:url(#SVGID_1_);}
	.st2{fill:url(#SVGID_2_);enable-background:new    ;}
	.st3{fill:url(#SVGID_3_);}
</style>
<g>
	<rect x="0" class="st0" width="64" height="64"/>
	<linearGradient id="SVGID_1_" gradientUnits="userSpaceOnUse" x1="32" y1="25.5344" x2="32" y2="57.8623">
		<stop  offset="0.797" style="stop-color:#B3B3B3"/>
		<stop  offset="1" style="stop-color:#4D4D4D"/>
	</linearGradient>
	<path class="st1" d="M44.9,25.6l0,4.4c0,6.6-4.8,12.5-11.4,13.2c-7.8,0.9-14.5-5.2-14.5-12.8v-4.8c0,0,0-0.1-0.1-0.1h-3.1
		c0,0-0.1,0-0.1,0.1v4.8c0,7.7,5.8,14.5,13.2,15.8c0,0,0,0,0,0c0.3,2.6,0.9,8.9-6.5,11.5c-0.1,0-0.1,0.1,0,0.1h18.7
		c0.1,0,0.1-0.1,0-0.1c-7.4-2.6-6.8-8.9-6.5-11.5c0,0,0,0,0,0c7.4-1.3,13.2-8.1,13.2-15.8v-4.8c0,0,0-0.1-0.1-0.1L44.9,25.6
		C45,25.5,44.9,25.6,44.9,25.6z"/>
	<linearGradient id="SVGID_2_" gradientUnits="userSpaceOnUse" x1="32.0001" y1="7.1262" x2="32.0001" y2="38.6025">
		<stop  offset="0" style="stop-color:#666666"/>
		<stop  offset="1" style="stop-color:#999999"/>
	</linearGradient>
	<path class="st2" d="M40.7,13.9v16.8c0,4.2-3.6,7.8-7.8,7.8H31c-4.2,0-7.8-3.6-7.8-7.8V13.9c0-4.2,3.6-7.8,7.8-7.8H33
		C37.2,6.1,40.7,9.7,40.7,13.9z"/>
	<linearGradient id="SVGID_3_" gradientUnits="userSpaceOnUse" x1="32" y1="54.8156" x2="32" y2="57.5421">
		<stop  offset="0" style="stop-color:#B3B3B3"/>
		<stop  offset="1" style="stop-color:#999999"/>
	</linearGradient>
	<path class="st3" d="M38.7,54.6H25.3c-1.6,0-3,1.3-3,3v0.3h19.4v-0.3C41.7,56,40.4,54.6,38.7,54.6z"/>
</g>
</svg>
