<?xml version="1.0" encoding="utf-8"?>
<!-- Generator: Adobe Illustrator 24.3.0, SVG Export Plug-In . SVG Version: 6.00 Build 0)  -->
<svg version="1.1" id="TakeRecorderWorldSource_x5F_64"
	 xmlns="http://www.w3.org/2000/svg" xmlns:xlink="http://www.w3.org/1999/xlink" x="0px" y="0px" viewBox="0 0 64 64"
	 style="enable-background:new 0 0 64 64;" xml:space="preserve">
<style type="text/css">
	.st0{fill-rule:evenodd;clip-rule:evenodd;fill:url(#SVGID_1_);}
	.st1{opacity:0.8;}
	.st2{fill:none;}
	.st3{fill:#FFFFFF;}
</style>
<g>
	<radialGradient id="SVGID_1_" cx="32" cy="32" r="22.9353" gradientUnits="userSpaceOnUse">
		<stop  offset="0" style="stop-color:#B3B3B3"/>
		<stop  offset="1" style="stop-color:#666666"/>
	</radialGradient>
	<circle class="st0" cx="32" cy="32" r="22.9"/>
	<g class="st1">
		<path class="st2" d="M50.1,45.7c-0.1-0.2-0.1-0.2-0.3-0.3c-0.2-0.2-0.3-0.3-0.3-0.5c-0.1-0.5,0-0.9-0.1-1.4
			c-0.1-0.2-0.2-1-0.3-1.1c-0.1-0.1-0.4,0-0.5-0.1c0.1-0.5,0-1,0.2-1.4c0.2-0.3,0.6-0.3,0.7-0.7c0.1-0.3-0.1-0.5-0.2-0.7
			c-0.3-0.5-0.3-0.5-0.2-1c0.2-0.5-0.3-1-0.7-1.4c-0.3-0.4-0.7-0.4-0.6-0.9c0-0.5,0.1-0.9,0.1-1.4c0-0.5,0-0.5-0.5-0.5
			c-0.5,0-0.7,0.1-0.9-0.3c-0.2-0.3-0.1-0.5-0.4-0.6c-0.3-0.1-0.8,0-1.1,0c-0.5,0-0.5,0.1-0.7,0.3C43.9,34,43.7,34,43.3,34
			c-0.7,0-1.3,0-1.8-0.4c-0.2-0.2-0.2-0.6-0.4-0.7c-0.2-0.1-0.6,0-0.8-0.1c-0.6-0.2-0.6-0.9-0.7-1.5c-0.2,0-0.3,0-0.5,0
			c0.1-0.3,0-0.6,0.1-0.9c0-0.2,0.2-0.3,0.3-0.4c0.1-0.2,0-0.4-0.1-0.6c-0.1-1-0.1-2,0.6-2.8c0.4-0.5,0.8-0.9,1.2-1.3
			c0.4-0.5,0.6-1.3,1.2-1.7c0.4-0.3,0.7-0.1,1.2-0.1c0.5,0,1.3,0.1,1.7-0.1c0.3-0.1,0.5-0.4,0.9-0.4c0.6-0.1,1.2,0,1.7,0
			c0,0.4,0,0.7,0,1.1c0.3,0.1,0.6,0.2,0.9,0.3c0.4,0.1,0.7,0.1,1.1,0.2c0.4,0.1,1.1,0.5,1.3,0.1c0.1-0.2,0-0.5,0.1-0.6
			c0.2-0.1,1,0,1.2,0c0.3,0,0.5,0,0.7,0.3c0.2,0.2,0.3,0.3,0.4,0.4c-0.4-1.1-0.8-2.2-1.4-3.3c0,0.3-0.1,0.5-0.4,0.8
			c-0.5-0.3-0.7-0.5-0.8-0.9c-0.1-0.4,0-0.5-0.4-0.8c-0.3-0.2-0.5-0.4-0.8-0.7c-0.3-0.3-0.5-0.5-0.9-0.4c-0.4,0.1-0.3,0.2-0.1,0.5
			c0.2,0.3,0.4,0.6,0.7,0.8c0.5,0.3,0.7,0.1,0.6,0.7c0,0.4,0,0.5-0.3,0.8c-0.1,0.1-0.4,0.4-0.6,0.4c-0.3,0-0.6-0.4-0.6-0.8
			c0.3-0.1,0.4-0.2,0.7-0.3c-0.4-0.7-1.4-0.8-1.7-1.5c-0.2-0.4-0.1-0.6-0.5-0.6c-0.5,0-0.7,0.4-0.9,0.8c-0.4,0-0.7-0.1-1,0.3
			c-0.3,0.5-0.5,1.3-0.9,1.7c-0.4,0.4-1.8,0.1-2.4,0.1c0-0.2,0-0.3,0-0.5c-0.1-0.2-0.4-0.4-0.7-0.4c0-0.5,0.1-1.1,0.6-1.2
			c0.4-0.1,1,0,1.4,0c0.3,0,0.6,0,1,0c0-0.2,0-0.4-0.1-0.6c-0.1-0.1-0.3-0.1-0.3-0.2c-0.1-0.2,0-1,0.2-1.1c0.2-0.1,0.6,0,0.8,0
			c0.3-0.1,0.2,0,0.3-0.2c0.2-0.3,0.6-1.1,0.6-1.4c0.6,0,1,0.2,1.5,0.3c0.4,0,0.8,0,1.1,0c0-0.2,0-0.4,0-0.6
			c-0.2-0.3-0.5-0.5-0.7-0.7c-0.3,0.1-0.6,0.2-1,0.1c0-0.2-0.2-0.4-0.2-0.6c-0.1-0.2-0.1-0.3-0.2-0.6c-0.1-0.1-0.1-0.2-0.1-0.3
			c-3.9-3.2-9-5.1-14.4-5.1c-3,0-5.8,0.6-8.4,1.6c-0.2,0.2-0.3,0.5-0.5,0.7c-0.3,0.3-0.5,0.2-1,0.3c0.1,0.4,0.1,0.7,0.6,0.7
			c0.4,0,0.8-0.1,1.2-0.2c1-0.1,0.9-0.7,0.7-1.5c0.6,0,1.3-0.1,1.8,0.1c-0.1,0.4-0.5,0.8-0.4,1.2c0.3-0.1,0.5,0,0.8,0
			c0.1-0.5,0.5-1.3,1-1.4c0.6-0.1,1.4,0,2,0.1c0.9,0.1,1.5,0.2,1.9,1.1c0.2,0.5,0.2,0.2,0.5,0.5c0.2,0.2,0.3,0.4,0.2,0.7
			c-0.4,0-0.5,0.1-0.7,0.4c-0.2,0.4-0.1,0.3-0.6,0.3c-0.8,0-1.5,0-2.2,0c0.5-0.1,0.7-0.7,0.9-1.1c0.3-0.7,0.3-0.7-0.4-0.7
			c-0.3,0-0.8,0-1,0.1c-0.3,0.2-0.6,0.5-0.9,0.8c-0.2,0.2-0.4,0.5-0.6,0.7c-0.3,0.2-0.7,0.1-1,0c-0.6-0.1-1.3-0.3-1.8,0.1
			c-0.4,0.3-0.7,0.5-1.1,0.7c-0.3,0.2-0.6,0.4-0.9,0.5c-0.1,0.4,0,0.9,0,1.3c0.8,0.2,1.5,0.4,2.3,0.4c0.1,0.4,0.1,0.9,0.1,1.3
			c0.4,0.1,0.5-0.1,0.8-0.3c0.4-0.2,0.4-0.2,0.6-0.5c0.1-0.1,0.1-0.4,0.2-0.6c0.4-0.3,0.7,0,0.9-0.5C27,15.5,27,15.2,27,15
			c0-0.3-0.3-0.6-0.2-0.9c0.6,0,1.3,0,1.9,0c0.8,0.1,0.5,0.5,0.8,1.2c0.3-0.1,0.9-0.4,1.3-0.3c0,0.4,0,0.8,0,1.2
			c0.4-0.1,0.8,0.3,1.1,0.5c0.3,0.2,0.3,0.1,0.3,0.5c0,0.2,0,0.4,0,0.5c-1.2,0,0,0.6-0.1,1.2c-0.5-0.1-1.1,0-1.5-0.4
			c0.6-1.3-0.9-0.3-1.4-0.6c-0.3-0.2-0.3-1-0.9-0.6c-0.4,0.2-0.1,0.9,0.4,0.8c-0.1,1-0.4,0.5-0.9,0.7c-0.2,0.1-0.2,0.2-0.3,0.4
			c-0.3,0.3-0.7,0.5-1,0.7c-0.8,0.5-1.5,0.7-1.7,1.7c0-0.1-0.1-0.2-0.1-0.3c-0.1,0.4-0.4,0.6-0.6,0.9c-0.1,0.2-0.2,0.2-0.3,0.4
			c0,0.1,0.1,0.3,0,0.4c-0.1,0.2-0.8,0.5-1,0.7c-0.3,0.3-0.7,0.6-1.1,0.9c-0.4,0.4-0.7,0.9-0.6,1.5c0,0.3,0.1,0.6,0,0.9
			c-0.1,0.3-0.3,0.4-0.2,0.7c-0.2-0.2-0.6-0.5-0.7-0.8c-0.2-0.5,0.3-1.1-0.4-1.3c-0.4-0.1-0.6,0-1,0.1c-0.6,0.1-1.2-0.1-1.8,0
			c-0.5,0.1-0.9,0.6-1.3,0.8c-0.5,0.4-0.8,0.7-1,1.3c-0.1,0.5-0.3,0.8,0.2,1.1c0.4,0.3,1,0.4,1.5,0.3c0.6-0.1,1.4-1,2-0.8
			c0,0.6-0.5,1-0.5,1.6c0.5,0,1.2,0.1,1.7,0.2c0,0.6,0,1.3,0,1.9c0,0.2,1.3,0.4,1.8,0.6c0.5-0.2,0.8-0.6,1.4-0.8
			c0.7-0.2,1.6-0.2,2.3-0.1c0.4,0.1,0.8,0.2,1.1,0.3c0.4,0.2,0.7,0.6,1,0.9c0.9,0.9,2.3,1.5,3.5,1.9c0,0.6-0.1,1.3,0.4,1.6
			c0.9,0.5,2.1,0.2,3.1,0.2c0.4,0,0.5-0.1,0.7,0.2c0.1,0.2,0.1,0.4,0.2,0.6c0.3,0.5,0.7,0.4,1.2,0.4c0,0.3,0,0.8-0.2,1
			c-0.2,0.3-0.5,0.6-0.7,0.9c-0.1,0.2-0.2,0.5-0.4,0.7c-0.4,0.3-0.4,0-0.4,0.7c0,0.7,0,1.8-0.4,2.4c-0.4,0.6-1.7,0.6-2.4,0.7
			c-0.2,0.5-0.2,1.3-0.1,1.8c0.1,0.4,0.2,0.2,0,0.6c-0.2,0.3-0.3,0.6-0.6,0.8c-0.3,0.3-0.5,0.5-0.7,0.9c-0.1,0.2-0.1,0.5-0.3,0.6
			c-0.3,0.4-0.9,0.6-1.4,0.9c-0.6,0.4-1.2,0.5-1.9,0.7c0,0.3,0.6,0.1,0.8,0.3c0.2,0.2-0.1,0.5-0.2,0.8c-0.1,0.2-0.2,0.7,0,0.9
			c0.2,0.1,0.7,0,0.9,0.1c0,0.4,0,0.8,0,1.1c0,0.1-0.1,0.4,0,0.5c0.1,0.3,0.5,0.4,0.8,0.6c0.9,0.1,1.9,0.2,2.8,0.2
			c7.4,0,14-3.5,18.2-9C50.1,45.8,50.1,45.7,50.1,45.7z"/>
		<path class="st2" d="M25.1,52.8c-0.4-0.8-0.2-1.7-0.2-2.6c0-0.6-0.1-0.8-0.5-1.3c-0.4-0.4-0.4-0.6-0.4-1.1c0.3,0,0.4-0.4,0.4-0.7
			c-0.1-0.3-0.3-0.5-0.3-0.9c0-1.3,0.2-2.7,0-4c-0.7-0.1-0.6-0.5-1-0.9c-0.5-0.5-1.2-0.4-1.8-0.7c-0.6-0.3-0.4-1-0.6-1.5
			c-0.2-0.5-0.7-0.8-0.9-1.3c-0.2-0.6-0.1-1.7-0.1-2.3c0.7-0.2,1.4-1.1,1.3-1.8c-0.1-0.3-0.3-0.5-0.5-0.8c-0.5,0-1.5,0-1.7-0.1
			c-0.1-0.1-0.2-0.3-0.3-0.4c-0.2-0.2-0.4-0.3-0.7-0.5c-1-0.6-1.4-1.2-2.6-1.3c0-0.4,0-0.6-0.4-0.6c-0.4-0.1-0.8,0-1.2,0
			c-0.7,0-1.3,0-1.8-0.6c-0.4-0.5,0.2-1,0-1.7c-0.2-0.7-0.9-1.3-1.2-1.9c-0.2-0.4-0.3-0.8-0.5-1.2c0,0,0,0,0,0
			c-0.2,0.5-0.3,0.9-0.4,1.4c0,0.1,0,0.2,0.1,0.3c0.2,0.6,0.7,0.9,0.7,1.7c-0.4,0-0.8-0.3-1.1-0.6c-0.3,1.5-0.5,3.1-0.5,4.7
			c0,10.7,7.3,19.7,17.3,22.2c-0.1-0.1-0.2-0.1-0.2-0.2C25.7,53.7,25.3,53.3,25.1,52.8z"/>
		<path class="st3" d="M28.4,54.2c-0.1-0.1,0-0.4,0-0.5c0-0.4,0.1-0.7,0-1.1c-0.2,0-0.7,0.1-0.9-0.1c-0.2-0.2-0.1-0.6,0-0.9
			c0.1-0.3,0.4-0.6,0.2-0.8c-0.2-0.2-0.8,0-0.8-0.3c0.7-0.3,1.2-0.4,1.9-0.7c0.4-0.2,1.1-0.5,1.4-0.9c0.1-0.2,0.2-0.4,0.3-0.6
			c0.2-0.4,0.4-0.6,0.7-0.9c0.2-0.2,0.4-0.5,0.6-0.8c0.2-0.4,0.1-0.2,0-0.6c-0.1-0.5-0.1-1.3,0.1-1.8c0.7,0,2-0.1,2.4-0.7
			c0.4-0.5,0.4-1.7,0.4-2.4c0-0.7,0-0.4,0.4-0.7c0.2-0.2,0.3-0.5,0.4-0.7c0.2-0.3,0.5-0.6,0.7-0.9c0.1-0.2,0.1-0.7,0.2-1
			c-0.5,0-0.9,0.1-1.2-0.4c-0.1-0.2-0.1-0.4-0.2-0.6c-0.2-0.3-0.3-0.2-0.7-0.2c-1,0-2.2,0.3-3.1-0.2c-0.6-0.3-0.4-1-0.4-1.6
			c-1.2-0.4-2.6-1-3.5-1.9c-0.3-0.3-0.6-0.7-1-0.9c-0.3-0.1-0.8-0.3-1.1-0.3c-0.7-0.1-1.6-0.1-2.3,0.1c-0.6,0.2-0.9,0.6-1.4,0.8
			c-0.6-0.2-1.8-0.3-1.8-0.6c0-0.6,0-1.3,0-1.9c-0.5-0.1-1.1-0.2-1.7-0.2c0.1-0.6,0.5-1,0.5-1.6c-0.6-0.3-1.4,0.6-2,0.8
			c-0.5,0.1-1,0-1.5-0.3c-0.4-0.3-0.3-0.6-0.2-1.1c0.1-0.6,0.5-1,1-1.3c0.4-0.3,0.8-0.7,1.3-0.8c0.6-0.1,1.2,0.1,1.8,0
			c0.4,0,0.6-0.2,1-0.1c0.7,0.3,0.2,0.8,0.4,1.3c0.1,0.2,0.5,0.6,0.7,0.8c-0.1-0.3,0.2-0.4,0.2-0.7c0.1-0.3,0-0.6,0-0.9
			c-0.1-0.6,0.2-1.1,0.6-1.5c0.3-0.3,0.7-0.6,1.1-0.9c0.2-0.2,0.8-0.4,1-0.7c0.1-0.1,0-0.3,0-0.4c0.1-0.2,0.1-0.2,0.3-0.4
			c0.2-0.3,0.5-0.5,0.6-0.9c0,0.1,0.1,0.2,0.1,0.3c0.2-0.9,1-1.2,1.7-1.7c0.3-0.2,0.7-0.4,1-0.7c0.1-0.1,0.1-0.3,0.3-0.4
			c0.5-0.2,0.9,0.3,0.9-0.7c-0.5,0.1-0.8-0.5-0.4-0.8c0.6-0.4,0.6,0.4,0.9,0.6c0.6,0.4,2-0.7,1.4,0.6c0.5,0.3,1,0.2,1.5,0.4
			c0-0.6-1.1-1.1,0.1-1.2c0-0.2,0-0.4,0-0.5c0-0.4,0.1-0.3-0.3-0.5c-0.3-0.2-0.7-0.6-1.1-0.5c-0.1-0.4,0-0.8,0-1.2
			c-0.4-0.1-1,0.2-1.3,0.3c-0.3-0.6-0.1-1.1-0.8-1.2c-0.6-0.1-1.3-0.1-1.9,0c0,0.3,0.2,0.6,0.2,0.9c0,0.2-0.1,0.5-0.2,0.8
			c-0.2,0.5-0.5,0.2-0.9,0.5c-0.1,0.1-0.1,0.4-0.2,0.6c-0.2,0.3-0.2,0.3-0.6,0.5c-0.3,0.2-0.5,0.3-0.8,0.3c0-0.4,0-0.9-0.1-1.3
			c-0.8,0-1.5-0.3-2.3-0.4c0-0.4-0.2-0.9,0-1.3c0.3,0,0.6-0.3,0.9-0.5c0.4-0.2,0.8-0.4,1.1-0.7c0.5-0.4,1.2-0.3,1.8-0.1
			c0.3,0.1,0.7,0.2,1,0c0.2-0.2,0.4-0.5,0.6-0.7c0.3-0.2,0.6-0.6,0.9-0.8c0.3-0.2,0.7-0.1,1-0.1c0.7,0,0.8,0,0.4,0.7
			c-0.2,0.4-0.4,1-0.9,1.1c0.7,0,1.5,0,2.2,0c0.5,0,0.4,0,0.6-0.3c0.2-0.4,0.2-0.4,0.7-0.4c0.1-0.2,0-0.5-0.2-0.7
			c-0.3-0.2-0.3,0-0.5-0.5c-0.3-0.9-1-1-1.9-1.1c-0.6-0.1-1.4-0.3-2-0.1c-0.5,0.1-0.8,0.9-1,1.4c-0.3,0-0.5,0-0.8,0
			c-0.1-0.4,0.4-0.8,0.4-1.2c-0.5-0.2-1.3-0.1-1.8-0.1c0.1,0.9,0.3,1.4-0.7,1.5c-0.4,0-0.8,0.2-1.2,0.2c-0.5,0-0.5-0.3-0.6-0.7
			c0.4,0,0.7,0.1,1-0.3c0.2-0.2,0.3-0.5,0.5-0.7c-6.2,2.5-11.1,7.6-13.3,14c0,0,0,0,0,0c0.2,0.4,0.3,0.8,0.5,1.2
			c0.3,0.7,1,1.2,1.2,1.9c0.2,0.6-0.4,1.2,0,1.7c0.4,0.6,1,0.6,1.8,0.6c0.4,0,0.8-0.1,1.2,0c0.4,0.1,0.4,0.2,0.4,0.6
			c1.2,0.1,1.6,0.6,2.6,1.3c0.2,0.1,0.5,0.3,0.7,0.5c0.1,0.1,0.2,0.4,0.3,0.4C19,33,20,33,20.5,33c0.2,0.2,0.4,0.4,0.5,0.8
			c0.1,0.7-0.5,1.6-1.3,1.8c0,0.7-0.2,1.7,0.1,2.3c0.2,0.5,0.7,0.8,0.9,1.3c0.2,0.5,0,1.2,0.6,1.5c0.6,0.2,1.3,0.2,1.8,0.7
			c0.4,0.4,0.3,0.8,1,0.9c0.2,1.3,0,2.7,0,4c0,0.4,0.3,0.5,0.3,0.9c0.1,0.3,0,0.7-0.4,0.7c0,0.6,0,0.7,0.4,1.1
			c0.4,0.4,0.5,0.7,0.5,1.3c0,0.9-0.2,1.8,0.2,2.6c0.2,0.5,0.6,0.8,1,1.2c0.1,0.1,0.2,0.1,0.2,0.2c0.9,0.2,1.9,0.4,2.8,0.5
			C28.9,54.6,28.5,54.5,28.4,54.2z"/>
		<path class="st3" d="M10.6,28c0-0.7-0.5-1-0.7-1.7c0-0.1,0-0.2-0.1-0.3c-0.1,0.4-0.2,0.9-0.3,1.3C9.8,27.7,10.2,28,10.6,28z"/>
		<path class="st3" d="M53.3,24.3C53.1,24,53,24,52.6,24c-0.2,0-1-0.1-1.2,0c-0.2,0.1,0,0.4-0.1,0.6c-0.2,0.4-0.9,0-1.3-0.1
			c-0.4-0.1-0.8-0.1-1.1-0.2c-0.3-0.1-0.6-0.3-0.9-0.3c0-0.4,0-0.7,0-1.1c-0.6,0-1.2-0.1-1.7,0c-0.4,0-0.5,0.3-0.9,0.4
			c-0.5,0.2-1.2,0.2-1.7,0.1c-0.5,0-0.8-0.2-1.2,0.1c-0.5,0.4-0.8,1.2-1.2,1.7c-0.4,0.5-0.8,0.9-1.2,1.3c-0.6,0.8-0.7,1.8-0.6,2.8
			c0,0.2,0.1,0.4,0.1,0.6c0,0.1-0.2,0.3-0.3,0.4c-0.1,0.3,0,0.6-0.1,0.9c0.2,0,0.4,0,0.5,0c0,0.6,0,1.2,0.7,1.5
			c0.2,0.1,0.6,0,0.8,0.1c0.2,0.2,0.2,0.6,0.4,0.7c0.5,0.5,1.2,0.4,1.8,0.4c0.4,0,0.6,0,0.9-0.3c0.3-0.3,0.3-0.3,0.7-0.3
			c0.3,0,0.8-0.1,1.1,0c0.3,0.1,0.2,0.3,0.4,0.6c0.2,0.4,0.4,0.3,0.9,0.3c0.5,0,0.5,0,0.5,0.5c0,0.5-0.1,0.9-0.1,1.4
			c0,0.5,0.3,0.6,0.6,0.9c0.3,0.4,0.8,0.9,0.7,1.4c-0.2,0.5-0.1,0.5,0.2,1c0.1,0.2,0.3,0.5,0.2,0.7c-0.1,0.4-0.5,0.4-0.7,0.7
			c-0.3,0.4-0.2,0.9-0.2,1.4c0.1,0.1,0.4,0,0.5,0.1c0.1,0.1,0.2,0.9,0.3,1.1c0.1,0.5,0.1,1,0.1,1.4c0,0.2,0.2,0.4,0.3,0.5
			c0.1,0.1,0.1,0.2,0.3,0.3c0,0.1,0.1,0.2,0.1,0.3c3-3.9,4.7-8.7,4.7-14c0-2.5-0.4-5-1.2-7.3C53.6,24.6,53.5,24.5,53.3,24.3z"/>
		<path class="st3" d="M46.8,15.1c0.1,0.2,0.2,0.4,0.2,0.6c0.3,0,0.7-0.1,1-0.1c-0.5-0.5-1-1-1.6-1.4c0,0.1,0.1,0.2,0.1,0.3
			C46.7,14.8,46.7,14.9,46.8,15.1z"/>
		<path class="st3" d="M48.8,16.9c-0.4,0-0.8,0-1.1,0c-0.5-0.1-0.9-0.3-1.5-0.3c0,0.4-0.4,1.1-0.6,1.4c-0.2,0.2-0.1,0.2-0.3,0.2
			c-0.2,0-0.7-0.1-0.8,0c-0.2,0.2-0.4,0.9-0.2,1.1c0.1,0.1,0.2,0.1,0.3,0.2c0.1,0.2,0.1,0.4,0.1,0.6c-0.3,0-0.6,0-1,0
			c-0.4,0-1-0.1-1.4,0c-0.5,0.1-0.6,0.7-0.6,1.2c0.3,0,0.6,0.2,0.7,0.4c0,0.2,0,0.3,0,0.5c0.6,0,1.9,0.2,2.4-0.1
			c0.4-0.4,0.6-1.2,0.9-1.7c0.2-0.4,0.5-0.3,1-0.3c0.2-0.4,0.4-0.8,0.9-0.8c0.4,0,0.4,0.2,0.5,0.6c0.4,0.7,1.4,0.8,1.7,1.5
			c-0.3,0.1-0.4,0.2-0.7,0.3c0,0.3,0.3,0.8,0.6,0.8c0.2,0,0.5-0.3,0.6-0.4c0.2-0.3,0.3-0.4,0.3-0.8c0-0.6-0.2-0.4-0.6-0.7
			c-0.3-0.2-0.5-0.5-0.7-0.8c-0.2-0.3-0.4-0.4,0.1-0.5c0.5-0.1,0.7,0.1,0.9,0.4c0.3,0.3,0.4,0.5,0.8,0.7c0.4,0.2,0.3,0.4,0.4,0.8
			c0.1,0.5,0.3,0.7,0.8,0.9c0.3-0.3,0.3-0.5,0.4-0.8c-1-1.9-2.2-3.6-3.6-5.1C48.8,16.5,48.8,16.7,48.8,16.9z"/>
	</g>
	<rect x="0" class="st2" width="64" height="64"/>
</g>
</svg>
