<?xml version="1.0" encoding="utf-8"?>
<!-- Generator: Adobe Illustrator 25.0.0, SVG Export Plug-In . SVG Version: 6.00 Build 0)  -->
<svg version="1.1" id="TakeRecorderActorSource_x5F_64"
	 xmlns="http://www.w3.org/2000/svg" xmlns:xlink="http://www.w3.org/1999/xlink" x="0px" y="0px" viewBox="0 0 64 64"
	 style="enable-background:new 0 0 64 64;" xml:space="preserve">
<style type="text/css">
	.st0{fill:#666666;enable-background:new    ;}
	.st1{fill:url(#SVGID_1_);}
	.st2{fill:#7F7F7F;}
	.st3{fill:#FFFFFF;}
	.st4{fill:url(#SVGID_2_);}
	.st5{fill:none;}
</style>
<g>
	<path class="st0" d="M37.8,36.6c-3.4,3.4-7.8,5.4-13,5.4c-2.9,0-5.4-0.8-8-1.8c-0.5,0.5-1,1.3-1,2.1c0,3.4,7.3,6,16.3,6
		s16.3-2.6,16.3-6C49,39.5,44.3,37.4,37.8,36.6z"/>
	<radialGradient id="SVGID_1_" cx="28.3163" cy="17.5198" r="21.4023" gradientUnits="userSpaceOnUse">
		<stop  offset="0" style="stop-color:#FFFFFF"/>
		<stop  offset="0.3121" style="stop-color:#B3B3B3"/>
		<stop  offset="0.6357" style="stop-color:#6A6A6A"/>
		<stop  offset="0.7861" style="stop-color:#4D4D4D"/>
		<stop  offset="1" style="stop-color:#666666"/>
	</radialGradient>
	<path class="st1" d="M24.9,39c8.3,0,15-6.7,15-15s-6.7-15-15-15s-15,6.7-15,15S16.6,39,24.9,39z"/>
	<g>
		<path class="st2" d="M37.9,55.4h17.4c0.4,0,0.8-0.3,0.8-0.8v-8.1c0-0.4-0.3-0.8-0.8-0.8H37.9c-0.4,0-0.8,0.3-0.8,0.8v8.1
			C37.2,55.1,37.5,55.4,37.9,55.4z"/>
		<g>
			<g>
				<rect x="37.4" y="44.2" class="st2" width="18.5" height="2.4"/>
				<path class="st3" d="M55.6,44.5v1.9h-18v-1.9H55.6 M56.1,44h-19v2.9h19V44L56.1,44z"/>
			</g>
			<polygon class="st3" points="41.2,46.7 38.8,46.7 40.3,44.1 42.8,44.1 			"/>
			<polygon class="st3" points="45.5,46.7 43.1,46.7 44.7,44.1 47.1,44.1 			"/>
			<polygon class="st3" points="49.8,46.7 47.4,46.7 49,44.1 51.4,44.1 			"/>
			<polygon class="st3" points="54.3,46.7 51.8,46.7 53.4,44.1 55.8,44.1 			"/>
		</g>
		<linearGradient id="SVGID_2_" gradientUnits="userSpaceOnUse" x1="46.6721" y1="48.2751" x2="46.65" y2="54.0357">
			<stop  offset="0" style="stop-color:#FFFFFF"/>
			<stop  offset="1" style="stop-color:#C2C2C2"/>
		</linearGradient>
		<path class="st4" d="M41.3,54H52c0.6,0,1.1-0.5,1.1-1.1v-3.4c0-0.6-0.5-1.1-1.1-1.1H41.3c-0.6,0-1.1,0.5-1.1,1.1v3.4
			C40.1,53.5,40.6,54,41.3,54z"/>
		<g>
			<g>
				
					<rect x="36.7" y="38.7" transform="matrix(0.9639 -0.2662 0.2662 0.9639 -8.9824 13.6591)" class="st2" width="18.5" height="2.4"/>
				<path class="st3" d="M54.3,36.6l0.5,1.9l-17.3,4.8L37,41.4L54.3,36.6 M54.6,36l-18.3,5l0.8,2.8l18.3-5L54.6,36L54.6,36z"/>
			</g>
			<polygon class="st3" points="40.3,40.2 38,40.8 40.2,42.9 42.5,42.3 			"/>
			<polygon class="st3" points="44.5,39 42.1,39.7 44.3,41.8 46.7,41.1 			"/>
			<polygon class="st3" points="48.6,37.9 46.3,38.5 48.5,40.6 50.8,40 			"/>
			<polygon class="st3" points="52.9,36.7 50.5,37.3 52.7,39.4 55.1,38.8 			"/>
		</g>
	</g>
	<rect x="0" class="st5" width="64" height="64"/>
</g>
</svg>
