<?xml version="1.0" encoding="utf-8"?>
<!-- Generator: Adobe Illustrator 25.0.0, SVG Export Plug-In . SVG Version: 6.00 Build 0)  -->
<svg version="1.1" id="TakeRecorderNearbySpawnedActorSource_x5F_64"
	 xmlns="http://www.w3.org/2000/svg" xmlns:xlink="http://www.w3.org/1999/xlink" x="0px" y="0px" viewBox="0 0 64 64"
	 style="enable-background:new 0 0 64 64;" xml:space="preserve">
<style type="text/css">
	.st0{opacity:0.2;}
	.st1{fill:url(#SVGID_1_);}
	.st2{fill:url(#SVGID_2_);enable-background:new    ;}
	.st3{fill:url(#SVGID_3_);enable-background:new    ;}
	.st4{fill:url(#SVGID_4_);enable-background:new    ;}
	.st5{fill:url(#SVGID_5_);enable-background:new    ;}
	.st6{fill:url(#SVGID_6_);enable-background:new    ;}
	.st7{fill:none;}
</style>
<g>
	<path class="st0" d="M32.3,47.7c-6.4,0-11.4,1-11.4,2.4c0,1.3,6.1,2,11.4,4.6c5.3-2.6,11.4-3.3,11.4-4.6
		C43.6,48.7,38.7,47.7,32.3,47.7z M32.3,51.2c-2.8,0-5.3-0.5-5.3-1.1c0-0.6,2.2-1.1,5.3-1.1c2.8,0,5.3,0.5,5.3,1.1
		C37.5,50.7,35.1,51.2,32.3,51.2z"/>
	<g>
		<linearGradient id="SVGID_1_" gradientUnits="userSpaceOnUse" x1="32.1571" y1="52.1248" x2="32.3492" y2="21.5771">
			<stop  offset="0" style="stop-color:#B3B3B3"/>
			<stop  offset="1" style="stop-color:#F2F2F2"/>
		</linearGradient>
		<path class="st1" d="M32.3,21.1c-6.4,0-11.4,5-11.4,11.4s6.1,9.4,11.4,21.9c5.3-12.5,11.4-15.5,11.4-21.9S38.7,21.1,32.3,21.1z
			 M32.3,38c-2.8,0-5.3-2.2-5.3-5.3s2.2-5.3,5.3-5.3c2.8,0,5.3,2.2,5.3,5.3S35.1,38,32.3,38z"/>
		<linearGradient id="SVGID_2_" gradientUnits="userSpaceOnUse" x1="21.4106" y1="21.6604" x2="13.4185" y2="13.5328">
			<stop  offset="0" style="stop-color:#B3B3B3"/>
			<stop  offset="1" style="stop-color:#808080;stop-opacity:0"/>
		</linearGradient>
		<path class="st2" d="M16.1,18.2l3.6,3.6c0.5,0.5,1.4,0.5,1.9,0l0,0c0.5-0.5,0.5-1.4,0-1.9L18,16.3c-0.5-0.5-1.4-0.5-1.9,0l0,0
			C15.5,16.8,15.5,17.7,16.1,18.2z"/>
		<linearGradient id="SVGID_3_" gradientUnits="userSpaceOnUse" x1="43.0796" y1="21.7843" x2="50.5059" y2="14.0879">
			<stop  offset="0" style="stop-color:#B3B3B3"/>
			<stop  offset="1" style="stop-color:#808080;stop-opacity:0"/>
		</linearGradient>
		<path class="st3" d="M46.6,16.3l-3.6,3.6c-0.5,0.5-0.5,1.4,0,1.9l0,0c0.5,0.5,1.4,0.5,1.9,0l3.6-3.6c0.5-0.5,0.5-1.4,0-1.9l0,0
			C47.9,15.7,47.1,15.7,46.6,16.3z"/>
		
			<linearGradient id="SVGID_4_" gradientUnits="userSpaceOnUse" x1="31.41" y1="26.4429" x2="23.418" y2="18.3153" gradientTransform="matrix(0.7071 0.7071 -0.7071 0.7071 28.7376 -22.94)">
			<stop  offset="0" style="stop-color:#B3B3B3"/>
			<stop  offset="1" style="stop-color:#808080;stop-opacity:0"/>
		</linearGradient>
		<path class="st4" d="M30.9,11.8v5.1c0,0.7,0.6,1.4,1.4,1.4h0c0.7,0,1.4-0.6,1.4-1.4v-5.1c0-0.7-0.6-1.4-1.4-1.4h0
			C31.5,10.4,30.9,11,30.9,11.8z"/>
		
			<linearGradient id="SVGID_5_" gradientUnits="userSpaceOnUse" x1="45.6328" y1="13.3379" x2="37.6407" y2="5.2103" gradientTransform="matrix(-0.7071 0.7071 -0.7071 -0.7071 88.2192 9.897)">
			<stop  offset="0" style="stop-color:#B3B3B3"/>
			<stop  offset="1" style="stop-color:#808080;stop-opacity:0"/>
		</linearGradient>
		<path class="st5" d="M52.7,31.4h-5.1c-0.7,0-1.4,0.6-1.4,1.4v0c0,0.7,0.6,1.4,1.4,1.4h5.1c0.7,0,1.4-0.6,1.4-1.4v0
			C54.1,32,53.5,31.4,52.7,31.4z"/>
		
			<linearGradient id="SVGID_6_" gradientUnits="userSpaceOnUse" x1="18.6905" y1="13.3911" x2="10.6984" y2="5.2636" gradientTransform="matrix(0.7071 -0.7071 0.7071 0.7071 -4.0995 36.5416)">
			<stop  offset="0" style="stop-color:#B3B3B3"/>
			<stop  offset="1" style="stop-color:#808080;stop-opacity:0"/>
		</linearGradient>
		<path class="st6" d="M12.4,34.1h5.1c0.7,0,1.4-0.6,1.4-1.4v0c0-0.7-0.6-1.4-1.4-1.4h-5.1c-0.7,0-1.4,0.6-1.4,1.4l0,0
			C11,33.5,11.6,34.1,12.4,34.1z"/>
	</g>
	<rect x="0" class="st7" width="64" height="64"/>
</g>
</svg>
