<?xml version="1.0" encoding="utf-8"?>
<!-- Generator: Adobe Illustrator 24.3.0, SVG Export Plug-In . SVG Version: 6.00 Build 0)  -->
<svg version="1.1" id="TakeRecorderLevelSequenceSource_x5F_64"
	 xmlns="http://www.w3.org/2000/svg" xmlns:xlink="http://www.w3.org/1999/xlink" x="0px" y="0px" viewBox="0 0 64 64"
	 style="enable-background:new 0 0 64 64;" xml:space="preserve">
<style type="text/css">
	.st0{fill:none;}
	.st1{fill:#7F7F7F;}
	.st2{fill:#FFFFFF;}
	.st3{fill:url(#SVGID_1_);stroke:#FFFFFF;stroke-miterlimit:10;}
	.st4{opacity:0.5;}
	.st5{fill:url(#SVGID_2_);}
	.st6{fill:#5B5B5B;}
</style>
<rect x="0" class="st0" width="64" height="64"/>
<g>
	<g>
		<path class="st1" d="M9.9,56.5h46.3c0.9,0,1.6-0.7,1.6-1.6V32.9c0-0.9-0.7-1.6-1.6-1.6H9.9c-0.9,0-1.6,0.7-1.6,1.6v21.9
			C8.3,55.7,9,56.5,9.9,56.5z"/>
		<g>
			<g>
				<rect x="8.8" y="27" class="st1" width="48.6" height="6.7"/>
				<path class="st2" d="M56.9,27.5v5.7H9.3v-5.7H56.9 M57.9,26.5H8.3v7.7h49.6V26.5L57.9,26.5z"/>
			</g>
			<polygon class="st2" points="18.8,33.7 12.5,33.7 16.6,26.9 22.9,26.9 			"/>
			<polygon class="st2" points="30.1,33.7 23.8,33.7 27.9,26.9 34.2,26.9 			"/>
			<polygon class="st2" points="41.4,33.7 35,33.7 39.1,26.9 45.5,26.9 			"/>
			<polygon class="st2" points="53,33.7 46.6,33.7 50.7,26.9 57.1,26.9 			"/>
		</g>
		<linearGradient id="SVGID_1_" gradientUnits="userSpaceOnUse" x1="33.1416" y1="37.7861" x2="33.0838" y2="52.8653">
			<stop  offset="0" style="stop-color:#FFFFFF"/>
			<stop  offset="1" style="stop-color:#C2C2C2"/>
		</linearGradient>
		<path class="st3" d="M17.2,52.8H49c0.6,0,1.1-0.5,1.1-1.1V39c0-0.6-0.5-1.1-1.1-1.1H17.2c-0.6,0-1.1,0.5-1.1,1.1v12.7
			C16,52.3,16.6,52.8,17.2,52.8z"/>
		<g>
			<g>
				
					<rect x="6.8" y="12.7" transform="matrix(0.9639 -0.2662 0.2662 0.9639 -3.1508 8.8575)" class="st1" width="48.6" height="6.7"/>
				<path class="st2" d="M53.3,7l1.5,5.5L8.9,25.1l-1.5-5.5L53.3,7 M54,5.7L6.2,18.9l2.1,7.4L56,13.2L54,5.7L54,5.7z"/>
			</g>
			<polygon class="st2" points="16.5,16.6 10.3,18.3 16.1,23.8 22.2,22.1 			"/>
			<polygon class="st2" points="27.3,13.6 21.2,15.3 27,20.7 33.1,19.1 			"/>
			<polygon class="st2" points="38.2,10.6 32.1,12.3 37.8,17.7 44,16.1 			"/>
			<polygon class="st2" points="49.4,7.5 43.3,9.2 49,14.7 55.1,13 			"/>
		</g>
	</g>
	<g>
		<g class="st4">
			<path d="M33.2,54.7l-11-11c-0.6-0.6-0.6-1.5,0-2l11-11c0.6-0.6,1.5-0.6,2,0l11,11c0.6,0.6,0.6,1.5,0,2l-11,11
				C34.7,55.3,33.8,55.3,33.2,54.7z"/>
		</g>
		<g>
			
				<linearGradient id="SVGID_2_" gradientUnits="userSpaceOnUse" x1="31.4029" y1="-6.8523" x2="47.551" y2="9.2958" gradientTransform="matrix(0.7071 0.7071 -0.7071 0.7071 7.1624 12.2173)">
				<stop  offset="0" style="stop-color:#E6E6E6"/>
				<stop  offset="1" style="stop-color:#B3B3B3"/>
			</linearGradient>
			<path class="st5" d="M34.2,52.4c-0.1,0-0.2,0-0.3-0.1l-11-11c-0.2-0.2-0.2-0.4,0-0.6l11-11c0.1-0.1,0.2-0.1,0.3-0.1
				s0.2,0,0.3,0.1l11,11c0.2,0.2,0.2,0.4,0,0.6l-11,11C34.4,52.4,34.3,52.4,34.2,52.4z"/>
			<path class="st6" d="M34.2,30.8L44.4,41L34.2,51.2L24,41L34.2,30.8 M34.2,28.6c-0.4,0-0.7,0.1-1,0.4l-11,11c-0.6,0.6-0.6,1.5,0,2
				l11,11c0.3,0.3,0.6,0.4,1,0.4s0.7-0.1,1-0.4l11-11c0.6-0.6,0.6-1.5,0-2l-11-11C34.9,28.7,34.6,28.6,34.2,28.6L34.2,28.6z"/>
		</g>
	</g>
</g>
</svg>
