<svg width="21" height="20" viewBox="0 0 21 20" fill="none" xmlns="http://www.w3.org/2000/svg">
<path d="M6.09998 9.5L7.69998 13.6L9.79998 13.9L11 12.7L8.79998 8.9L6.09998 9.5Z" fill="white"/>
<path d="M4.4 5.4L5.1 2.6L2 3.1V6.8L4.4 5.4Z" fill="white"/>
<path d="M9.59998 8.4L11.9 12.5L15 11.6V8.7L11 6.4L9.59998 8.4Z" fill="white"/>
<path d="M15 7.4L11.5 5.4L11.8 4.2L11.6 1.6L15 1V7.4Z" fill="white"/>
<path d="M4.5 6.5L2 7.8V11.5L5 8.7L4.5 6.5Z" fill="white"/>
<path d="M5.29999 5.7L5.69999 8.5L8.89999 7.8L10.5 5.3L10.8 4.3L10.5 1.7L7.29999 2.2L5.99999 2.5L5.29999 5.7Z" fill="white"/>
<path d="M5.5 16.2L2.4 14L2 14.2V16.9L5.6 17.5L5.5 16.2Z" fill="white"/>
<path d="M15 19L10.8 18.3L10.5 14.6L11.7 13.6L15 12.8V19Z" fill="white"/>
<path d="M5.80002 15.3L6.90002 14L5.30002 9.7L2.40002 12.3L2.70002 13.1L5.80002 15.3Z" fill="white"/>
<path d="M9.50002 14.9L7.60002 14.6L6.40002 16.2V17.6L9.80002 18.2L9.50002 14.9Z" fill="white"/>
<path opacity="0.5" d="M18.6 9.6L18.2 13L17.7 13.1L17.3 12.5L17.6 9.5L18.6 9.6Z" fill="white"/>
<path opacity="0.5" d="M19.2 6.4L19.1 4.2L20 4.9V7.7L19.2 6.4Z" fill="white"/>
<path opacity="0.5" d="M16.9 9.2L16.4 12L15 11.6V8.7L16.4 7.4L16.9 9.2Z" fill="white"/>
<path opacity="0.5" d="M15 7.4L16.2 6.1V4.9L16.7 2.3L15 1V7.4Z" fill="white"/>
<path opacity="0.5" d="M19.1 7.6L20 8.4V11.1L19.1 9V7.6Z" fill="white"/>
<path opacity="0.5" d="M18.7 6.5L18.5 8.7L17.5 8.5L16.9 6.2L16.8 5.2L17.1 2.6L18.6 3.9L18.7 6.5Z" fill="white"/>
<path opacity="0.5" d="M19 14.6L19.7 13.5L20 13.1V15.1L18.9 15.9L19 14.6Z" fill="white"/>
<path opacity="0.5" d="M15 19L17 17.5L17.2 13.9L16.7 13.1L15 12.8V19Z" fill="white"/>
<path opacity="0.5" d="M18.9 13.9L18.7 13.3L19.1 10.6L19.9 11.7L19.8 12.3L18.9 13.9Z" fill="white"/>
<path opacity="0.5" d="M17.8 14.2L18.1 13.9L18.6 15V16.1L17.4 17.1L17.8 14.2Z" fill="white"/>
</svg>
