<svg width="16" height="16" viewBox="0 0 16 16" fill="none" xmlns="http://www.w3.org/2000/svg">
<path d="M11.3171 6.64144L15.5172 5.26927V5.21749C15.3221 4.68455 15.0693 4.17369 14.7631 3.69368L14.733 3.6493L10.9627 6.03487C11.1018 6.22451 11.2206 6.42779 11.3171 6.64144Z" fill="white"/>
<path d="M15.9583 7.14076V7.08898L11.5998 7.63267C11.6253 7.86872 11.6253 8.10675 11.5998 8.34279L15.9546 8.88648V8.8347C16.0151 8.27286 16.0151 7.70631 15.9546 7.14446L15.9583 7.14076Z" fill="white"/>
<path d="M10.9664 9.97012L14.6915 12.3927L14.7217 12.3483C15.0273 11.8706 15.2801 11.3622 15.4757 10.8319V10.7801L11.3171 9.35986C11.222 9.57463 11.1045 9.77915 10.9664 9.97012Z" fill="white"/>
<path d="M8.16131 9.83329C9.20245 9.83329 10.0465 9.00533 10.0465 7.984C10.0465 6.96267 9.20245 6.13472 8.16131 6.13472C7.12016 6.13472 6.27615 6.96267 6.27615 7.984C6.27615 9.00533 7.12016 9.83329 8.16131 9.83329Z" fill="white"/>
<path d="M11.4943 11.8195C10.7477 12.447 9.83302 12.8508 8.85913 12.9827C7.88523 13.1146 6.8932 12.9691 6.00124 12.5635C5.10928 12.1579 4.35498 11.5093 3.82823 10.695C3.30147 9.88068 3.02446 8.93498 3.0302 7.97057C3.03594 7.00616 3.32419 6.0637 3.86061 5.25548C4.39702 4.44725 5.15898 3.80734 6.05572 3.41198C6.95245 3.01662 7.94614 2.88248 8.9184 3.02555C9.89066 3.16862 10.8005 3.58285 11.5395 4.21891L13.7715 2.19949C12.6168 1.12354 11.1661 0.402821 9.59859 0.126302C8.03108 -0.150216 6.41533 0.0295648 4.95078 0.643456C3.48622 1.25735 2.23696 2.27848 1.35718 3.58082C0.477405 4.88316 0.00561676 6.4097 4.98399e-05 7.97204C-0.00551708 9.53437 0.455381 11.0641 1.32586 12.3725C2.19633 13.6808 3.43829 14.7105 4.89843 15.3344C6.35858 15.9583 7.973 16.1492 9.54244 15.8834C11.1119 15.6176 12.5677 14.9069 13.7301 13.8389L11.4943 11.8195Z" fill="white"/>
</svg>
