<?xml version="1.0" encoding="UTF-8" standalone="no"?><!DOCTYPE svg PUBLIC "-//W3C//DTD SVG 1.1//EN" "http://www.w3.org/Graphics/SVG/1.1/DTD/svg11.dtd"><svg width="100%" height="100%" viewBox="0 0 64 64" version="1.1" xmlns="http://www.w3.org/2000/svg" xmlns:xlink="http://www.w3.org/1999/xlink" xml:space="preserve" xmlns:serif="http://www.serif.com/" style="fill-rule:evenodd;clip-rule:evenodd;stroke-linecap:round;stroke-linejoin:round;stroke-miterlimit:1.5;"><path d="M32,60.68c-0,-0 18.607,-27.127 18.607,-38.753c-0,-10.269 -8.338,-18.607 -18.607,-18.607c-10.269,0 -18.607,8.338 -18.607,18.607c0,11.626 18.607,38.753 18.607,38.753Z" style="fill:#005fd3;"/><path d="M32,60.68c-0,-0 18.607,-27.127 18.607,-38.753c-0,-10.269 -8.338,-18.607 -18.607,-18.607c-10.269,0 -18.607,8.338 -18.607,18.607c0,11.626 18.607,38.753 18.607,38.753Z" style="fill:none;stroke:#005fd3;stroke-width:5px;"/><path d="M32,60.68c-0,-0 18.607,-27.127 18.607,-38.753c-0,-10.269 -8.338,-18.607 -18.607,-18.607c-10.269,0 -18.607,8.338 -18.607,18.607c0,11.626 18.607,38.753 18.607,38.753Z" style="fill:none;stroke:#000;stroke-width:3px;"/><g><path d="M20.886,27.025l0,-13.095l2.666,-0l0,10.871l6.629,-0l-0,2.224l-9.295,0Z" style="fill:#fff;fill-rule:nonzero;"/><path d="M40.529,22.171l2.585,0.819c-0.397,1.441 -1.055,2.512 -1.977,3.211c-0.922,0.699 -2.091,1.049 -3.508,1.049c-1.753,0 -3.194,-0.599 -4.323,-1.797c-1.129,-1.197 -1.693,-2.835 -1.693,-4.912c-0,-2.198 0.567,-3.905 1.702,-5.121c1.135,-1.215 2.627,-1.823 4.476,-1.823c1.615,-0 2.927,0.477 3.936,1.432c0.6,0.564 1.051,1.375 1.351,2.431l-2.639,0.631c-0.156,-0.685 -0.482,-1.225 -0.977,-1.621c-0.496,-0.397 -1.098,-0.595 -1.806,-0.595c-0.979,0 -1.773,0.352 -2.382,1.054c-0.61,0.703 -0.914,1.84 -0.914,3.413c-0,1.67 0.3,2.858 0.9,3.567c0.601,0.708 1.381,1.063 2.342,1.063c0.708,-0 1.318,-0.226 1.828,-0.676c0.511,-0.45 0.877,-1.159 1.099,-2.125Z" style="fill:#fff;fill-rule:nonzero;"/></g></svg>