<?xml version="1.0" encoding="UTF-8" standalone="no"?><!DOCTYPE svg PUBLIC "-//W3C//DTD SVG 1.1//EN" "http://www.w3.org/Graphics/SVG/1.1/DTD/svg11.dtd"><svg width="100%" height="100%" viewBox="0 0 64 64" version="1.1" xmlns="http://www.w3.org/2000/svg" xmlns:xlink="http://www.w3.org/1999/xlink" xml:space="preserve" xmlns:serif="http://www.serif.com/" style="fill-rule:evenodd;clip-rule:evenodd;stroke-linecap:round;stroke-linejoin:round;stroke-miterlimit:1.5;"><path d="M32,60.68c-0,-0 18.607,-27.127 18.607,-38.753c-0,-10.269 -8.338,-18.607 -18.607,-18.607c-10.269,0 -18.607,8.338 -18.607,18.607c0,11.626 18.607,38.753 18.607,38.753Z" style="fill:#d9712d;"/><path d="M32,60.68c-0,-0 18.607,-27.127 18.607,-38.753c-0,-10.269 -8.338,-18.607 -18.607,-18.607c-10.269,0 -18.607,8.338 -18.607,18.607c0,11.626 18.607,38.753 18.607,38.753Z" style="fill:none;stroke:#d9712d;stroke-width:5px;"/><path d="M32,60.68c-0,-0 18.607,-27.127 18.607,-38.753c-0,-10.269 -8.338,-18.607 -18.607,-18.607c-10.269,0 -18.607,8.338 -18.607,18.607c0,11.626 18.607,38.753 18.607,38.753Z" style="fill:none;stroke:#fff;stroke-width:3px;"/><g><path d="M23.061,22.703l1.825,0.579c-0.28,1.017 -0.745,1.772 -1.396,2.266c-0.65,0.494 -1.476,0.741 -2.476,0.741c-1.238,-0 -2.255,-0.423 -3.052,-1.269c-0.797,-0.845 -1.195,-2.001 -1.195,-3.468c-0,-1.551 0.4,-2.756 1.201,-3.614c0.802,-0.858 1.855,-1.287 3.16,-1.287c1.14,-0 2.067,0.336 2.779,1.01c0.423,0.399 0.741,0.971 0.953,1.717l-1.863,0.445c-0.11,-0.483 -0.34,-0.865 -0.689,-1.144c-0.35,-0.28 -0.775,-0.42 -1.275,-0.42c-0.691,0 -1.252,0.248 -1.682,0.744c-0.43,0.496 -0.645,1.299 -0.645,2.409c-0,1.179 0.212,2.018 0.636,2.518c0.424,0.5 0.975,0.75 1.653,0.75c0.5,0 0.93,-0.159 1.29,-0.476c0.361,-0.318 0.619,-0.819 0.776,-1.501Z" style="fill:#fff;fill-rule:nonzero;"/><path d="M32.464,22.703l1.825,0.579c-0.28,1.017 -0.745,1.772 -1.396,2.266c-0.65,0.494 -1.476,0.741 -2.476,0.741c-1.238,-0 -2.255,-0.423 -3.052,-1.269c-0.797,-0.845 -1.195,-2.001 -1.195,-3.468c-0,-1.551 0.4,-2.756 1.202,-3.614c0.801,-0.858 1.854,-1.287 3.159,-1.287c1.141,-0 2.067,0.336 2.779,1.01c0.424,0.399 0.741,0.971 0.953,1.717l-1.862,0.445c-0.111,-0.483 -0.341,-0.865 -0.69,-1.144c-0.35,-0.28 -0.775,-0.42 -1.275,-0.42c-0.691,0 -1.251,0.248 -1.682,0.744c-0.43,0.496 -0.645,1.299 -0.645,2.409c0,1.179 0.212,2.018 0.636,2.518c0.424,0.5 0.975,0.75 1.653,0.75c0.5,0 0.93,-0.159 1.29,-0.476c0.361,-0.318 0.619,-0.819 0.776,-1.501Z" style="fill:#fff;fill-rule:nonzero;"/><path d="M37.226,26.13l-2.225,-9.321l1.926,0l1.405,6.403l1.704,-6.403l2.238,0l1.634,6.511l1.431,-6.511l1.894,0l-2.263,9.321l-1.997,-0l-1.856,-6.968l-1.85,6.968l-2.041,-0Z" style="fill:#fff;fill-rule:nonzero;"/></g></svg>