<svg width="16" height="16" viewBox="0 0 16 16" fill="none" xmlns="http://www.w3.org/2000/svg">
<g clip-path="url(#clip0_12984_12664)">
<path opacity="0.5" d="M8.43993 10.44C8.43993 10.44 7.84993 7.00997 9.27993 4.75997L9.46993 4.46997L10.8799 4.85997L11.0199 5.51997C10.8599 5.65997 10.6999 5.81997 10.5199 5.99997C9.3601 7.21295 8.62952 8.77246 8.43993 10.44V10.44Z" fill="white"/>
<path opacity="0.5" d="M2 9.6001C2.35459 10.9557 3.01093 12.2137 3.92 13.2801C5.34039 14.5279 7.18011 15.1923 9.07 15.1401L9.27 13.9601L8.34 13.1101C7.35484 13.1514 6.3708 13.0054 5.44 12.6801C4.00129 12.0356 2.79898 10.9591 2 9.6001V9.6001Z" fill="white"/>
<path opacity="0.5" d="M8.00005 11.8799C6.07535 11.3038 4.41272 10.0727 3.30005 8.39988C3.12005 8.11988 2.95005 7.83988 2.80005 7.55988L3.96005 6.87988L4.58005 6.99988C4.69267 7.43505 4.83295 7.86259 5.00005 8.27988C5.68303 9.71203 6.71454 10.9498 8.00005 11.8799V11.8799Z" fill="white"/>
<path fill-rule="evenodd" clip-rule="evenodd" d="M0 3.0401L1.94 4.5401L1.8 7.0001L3.83 5.6201L6.12 6.5201L5.44 4.1501L7 2.2501L4.54 2.1701L3.22 0.100098L2.38 2.4101L0 3.0401Z" fill="white"/>
<path fill-rule="evenodd" clip-rule="evenodd" d="M10.01 15.74L11.93 14.69L13.89 15.68L13.48 13.53L15.03 11.97L12.85 11.69L11.85 9.73999L10.91 11.72L8.75 12.07L10.34 13.58L10.01 15.74Z" fill="white"/>
<path fill-rule="evenodd" clip-rule="evenodd" d="M12.43 6.35L13.77 4.56L16 4.65L14.71 2.83L15.49 0.73L13.36 1.39L11.6 0L11.57 2.23L9.70996 3.47L11.82 4.2L12.43 6.35Z" fill="white"/>
</g>
<defs>
<clipPath id="clip0_12984_12664">
<rect width="16" height="16" fill="white"/>
</clipPath>
</defs>
</svg>
