<svg width="64" height="64" viewBox="0 0 64 64" fill="none" xmlns="http://www.w3.org/2000/svg">
<g clip-path="url(#clip0_12984_12662)">
<path opacity="0.75" d="M5.92741 63.3162C5.92741 63.3162 6.62133 42.1084 17.6586 30.3725C23.2701 24.4422 30.4833 20.2602 38.428 18.3312L43.2573 30.5562C36.2307 32.1451 29.5727 35.0542 23.6388 39.1281C15.3753 45.0162 8.93137 53.6369 5.92741 63.3162Z" fill="url(#paint0_linear_12984_12662)"/>
<path fill-rule="evenodd" clip-rule="evenodd" d="M33.6606 41.2499L43.4009 32.1944L56.1884 35.1679L50.7625 23.0533L57.612 11.5614L44.5661 13.1072L35.9444 3.00567L33.2844 16.084L21.1522 21.3358L32.5326 27.9405L33.6606 41.2499Z" fill="url(#paint1_linear_12984_12662)"/>
</g>
<defs>
<linearGradient id="paint0_linear_12984_12662" x1="6.29785" y1="62.4696" x2="43.4317" y2="36.4717" gradientUnits="userSpaceOnUse">
<stop stop-color="#666666"/>
<stop offset="1" stop-color="#B3B3B3"/>
</linearGradient>
<linearGradient id="paint1_linear_12984_12662" x1="24.2825" y1="32.1777" x2="61.7801" y2="8.4716" gradientUnits="userSpaceOnUse">
<stop stop-color="#CCCCCC"/>
<stop offset="1" stop-color="white"/>
</linearGradient>
<clipPath id="clip0_12984_12662">
<rect width="64" height="64" fill="white"/>
</clipPath>
</defs>
</svg>
