<svg width="16" height="16" viewBox="0 0 16 16" fill="none" xmlns="http://www.w3.org/2000/svg">
<path d="M10.2999 4.42001H7.29995V8.73999C6.88776 8.9259 6.48706 9.13628 6.09997 9.37V7.42001H4.89996V10.18C4.45996 10.51 4.05996 10.84 3.71996 11.18C3.71996 11.18 3.71996 11.11 3.71996 11.07V4.45999H0.719962C0.641645 4.46132 0.563851 4.44705 0.491111 4.418C0.418371 4.38894 0.352137 4.34569 0.296287 4.29077C0.240437 4.23585 0.196098 4.17036 0.165824 4.09811C0.135551 4.02587 0.119945 3.94832 0.119956 3.87C0.118629 3.79036 0.133184 3.71128 0.162742 3.63733C0.1923 3.56338 0.236289 3.49605 0.292136 3.43927C0.347984 3.38249 0.414574 3.33739 0.488029 3.30661C0.561484 3.27583 0.640321 3.26 0.719962 3.26001H10.32C10.3996 3.26 10.4784 3.27583 10.5519 3.30661C10.6254 3.33739 10.6919 3.38249 10.7478 3.43927C10.8036 3.49605 10.8476 3.56338 10.8772 3.63733C10.9067 3.71128 10.9213 3.79036 10.92 3.87C10.9097 4.02477 10.8388 4.16925 10.7228 4.27219C10.6068 4.37512 10.4548 4.42824 10.2999 4.42001V4.42001ZM4.07995 1.42001C4.07995 1.70086 4.16324 1.97541 4.31927 2.20892C4.4753 2.44244 4.69709 2.62443 4.95657 2.7319C5.21604 2.83938 5.50155 2.8675 5.777 2.81271C6.05245 2.75792 6.30546 2.62269 6.50405 2.4241C6.70264 2.22551 6.83787 1.97247 6.89266 1.69702C6.94745 1.42157 6.91936 1.13606 6.81188 0.876587C6.70441 0.617116 6.52239 0.39535 6.28887 0.239319C6.05535 0.0832872 5.78081 0 5.49996 0C5.12335 0 4.76217 0.149592 4.49587 0.415894C4.22957 0.682195 4.07995 1.04341 4.07995 1.42001V1.42001Z" fill="white"/>
<path d="M10 9.39014C7.23 9.39014 4.5 12.5001 4.5 12.5001C4.5 12.5001 7.23 15.6101 10 15.6101C12.77 15.6101 15.5 12.5001 15.5 12.5001C15.5 12.5001 12.77 9.39014 10 9.39014ZM10 15.1301C9.47984 15.1301 8.97135 14.9759 8.53885 14.6869C8.10635 14.3979 7.76925 13.9872 7.57019 13.5066C7.37113 13.026 7.31905 12.4972 7.42053 11.987C7.52201 11.4769 7.77251 11.0083 8.14032 10.6404C8.50813 10.2726 8.97674 10.0221 9.48691 9.92065C9.99708 9.81918 10.5259 9.87125 11.0065 10.0703C11.487 10.2694 11.8978 10.6065 12.1868 11.039C12.4758 11.4715 12.63 11.98 12.63 12.5001C12.63 13.1976 12.3529 13.8666 11.8597 14.3598C11.3665 14.853 10.6975 15.1301 10 15.1301V15.1301ZM8.73999 10.7201C8.89426 10.7201 9.04507 10.7659 9.17334 10.8516C9.30161 10.9373 9.4016 11.0591 9.46063 11.2016C9.51967 11.3442 9.5351 11.501 9.505 11.6523C9.47491 11.8036 9.40062 11.9426 9.29153 12.0517C9.18245 12.1608 9.04349 12.235 8.89218 12.2651C8.74088 12.2952 8.58402 12.2798 8.4415 12.2207C8.29897 12.1617 8.17717 12.0617 8.09146 11.9335C8.00575 11.8052 7.95999 11.6544 7.95999 11.5001C7.95998 11.3968 7.9805 11.2946 8.02032 11.1993C8.06015 11.104 8.11849 11.0176 8.19199 10.945C8.26548 10.8724 8.35263 10.8152 8.44843 10.7766C8.54422 10.738 8.64673 10.7188 8.75 10.7201H8.73999Z" fill="white"/>
</svg>
