<svg width="20" height="20" viewBox="0 0 20 20" fill="none" xmlns="http://www.w3.org/2000/svg">
<path d="M9.1499 14.29C9.17089 12.8655 9.75099 11.5063 10.7649 10.5055C11.7788 9.50473 13.1454 8.94248 14.5701 8.94001C15.2547 8.92889 15.9347 9.05469 16.5701 9.31001V9.31001L15.52 10.13C15.2239 10.0694 14.9224 10.0392 14.6201 10.04C14.0478 10.0301 13.4795 10.1387 12.9512 10.359C12.4228 10.5793 11.9458 10.9065 11.55 11.32C11.1506 11.7108 10.8333 12.1775 10.6169 12.6927C10.4006 13.2079 10.2894 13.7612 10.29 14.32V14.69C10.3052 15.5483 10.5758 16.3826 11.0671 17.0865C11.5585 17.7904 12.2484 18.332 13.0488 18.6421C13.8493 18.9522 14.724 19.0167 15.5613 18.8276C16.3986 18.6384 17.1606 18.2041 17.75 17.58L16.1599 16H20V19.84L18.47 18.3C17.9712 18.8343 17.3673 19.2594 16.696 19.5485C16.0248 19.8377 15.3009 19.9846 14.5701 19.98C13.1456 19.9828 11.7774 19.4236 10.7627 18.4238C9.74795 17.424 9.16833 16.0644 9.1499 14.64V14.29Z" fill="white"/>
<path opacity="0.5" d="M14.8899 16.75L11.3301 14.38L12.27 13L14.49 14.77L18.49 9.25L19.6699 10.04L14.8899 16.75Z" fill="white"/>
<path opacity="0.5" d="M9.11011 9.5C9.73976 8.76176 10.5129 8.15941 11.3828 7.72961C12.2527 7.29981 13.201 7.05157 14.1699 7C15.1243 6.97054 16.078 7.08173 17 7.33V5H5V16H7.5C7.30032 14.8642 7.34041 13.6992 7.61768 12.5798C7.89494 11.4603 8.40337 10.4113 9.11011 9.5V9.5Z" fill="white"/>
<path d="M0 0.469951V11.9999C0 11.9999 4.18 10.4099 5 15.9999V4.99995C5 -1.24005 0 0.469951 0 0.469951Z" fill="white"/>
</svg>
