<?xml version="1.0" encoding="utf-8"?>
<!-- Generator: Adobe Illustrator 26.0.2, SVG Export Plug-In . SVG Version: 6.00 Build 0)  -->
<svg version="1.1" id="Layer_1" xmlns="http://www.w3.org/2000/svg" xmlns:xlink="http://www.w3.org/1999/xlink" x="0px" y="0px"
	 viewBox="0 0 256 256" style="enable-background:new 0 0 256 256;" xml:space="preserve">
<style type="text/css">
	.st0{fill:#FFFFFF;}
</style>
<path class="st0" d="M128.62,66.05c-9.32,0-24.82-9.83-24.65-28c0.17-18.17,24.65-21,24.65-21s23.83,2.83,24,21
	S138.29,66.05,128.62,66.05z"/>
<path class="st0" d="M176.62,119.05c-6.17,17.17-17.5,23.83-19,38s-3,30-3,30s1.83,22.17-15,23l-11,1l-11.3-1
	c-17.29-0.83-15.41-23-15.41-23s-1.54-15.83-3.08-30c-1.54-14.17-13.18-20.83-19.51-38s-1.88-37.17,3.08-45
	c4.96-7.83,21.05,0.5,28.76,4s12.29,2.17,17.46,2c5-0.17,9.5,1.5,17-2s23.17-11.83,28-4S182.79,101.88,176.62,119.05z"/>
<path class="st0" d="M154.62,238.05c-9.83,1.33-26,1-26,1s-16,0.33-26.7-1c-13.77-1.72-48.78-9.17-49.3-25s22.59-17,22.59-17
	c-2.23,1.5-15.92,11.5,1.03,22c16.95,10.5,24.54,9.2,52.38,9c23.17-0.17,34.5,1.5,51-9s3.17-20.5,1-22c0,0,22.5,1.17,22,17
	S168.01,236.24,154.62,238.05z"/>
</svg>
