<svg width="16" height="16" viewBox="0 0 16 16" fill="none" xmlns="http://www.w3.org/2000/svg">
<path fill-rule="evenodd" clip-rule="evenodd" d="M6 16L11 12L6 8V16Z" fill="white"/>
<path fill-rule="evenodd" clip-rule="evenodd" d="M10 16L15 12L10 8V16Z" fill="white"/>
<path fill-rule="evenodd" clip-rule="evenodd" d="M4 13H5V11H4.54999C4.21675 11.0272 3.88152 10.9833 3.56653 10.8712C3.25154 10.7591 2.964 10.5813 2.7229 10.3496C2.4818 10.118 2.29266 9.83775 2.16803 9.5275C2.0434 9.21724 1.98614 8.88405 2 8.54999V6.54999C1.98216 6.21888 2.03257 5.88767 2.14807 5.57684C2.26357 5.26602 2.44172 4.98224 2.67145 4.74313C2.90118 4.50402 3.17757 4.31466 3.48352 4.18683C3.78948 4.05899 4.11846 3.99541 4.45001 4H11.45C12.95 4 13.95 5.05 13.95 7V8C13.9653 8.17634 13.9653 8.35366 13.95 8.53L15.82 10.13C15.9364 9.76451 15.9971 9.38357 16 9V6C16 4.93913 15.5786 3.92172 14.8284 3.17157C14.0783 2.42142 13.0609 2 12 2H4C2.93913 2 1.92172 2.42142 1.17157 3.17157C0.421424 3.92172 0 4.93913 0 6V9C0.0372772 10.049 0.470672 11.0449 1.21289 11.7871C1.95511 12.5293 2.95101 12.9627 4 13V13Z" fill="white"/>
</svg>
