<svg width="16" height="16" viewBox="0 0 16 16" fill="none" xmlns="http://www.w3.org/2000/svg">
<path fill-rule="evenodd" clip-rule="evenodd" d="M8 16L13 12L8 8V16Z" fill="white"/>
<path fill-rule="evenodd" clip-rule="evenodd" d="M0 9V6C0.00287235 5.11544 0.298857 4.25678 0.841675 3.55835C1.38449 2.85992 2.14352 2.36115 3 2.14001V4.45999C2.67891 4.70353 2.42064 5.02025 2.2467 5.38379C2.07276 5.74733 1.98818 6.14716 2 6.54999V8.54999C1.98614 8.88405 2.0434 9.21724 2.16803 9.5275C2.29266 9.83775 2.4818 10.118 2.7229 10.3496C2.964 10.5813 3.25154 10.7591 3.56653 10.8712C3.88152 10.9833 4.21675 11.0272 4.54999 11H10V13H4C2.95101 12.9627 1.95511 12.5293 1.21289 11.7871C0.470672 11.0449 0.0372772 10.049 0 9V9ZM13 2.14001V4.48001C13.3528 4.79206 13.6272 5.18281 13.8009 5.62061C13.9746 6.0584 14.0428 6.53094 14 7V8C13.999 8.72655 13.7523 9.4314 13.3 10L15.2 11.4C15.7149 10.7053 15.995 9.86467 16 9V6C15.9971 5.11544 15.7011 4.25678 15.1583 3.55835C14.6155 2.85992 13.8565 2.36115 13 2.14001V2.14001Z" fill="white"/>
<path fill-rule="evenodd" clip-rule="evenodd" d="M10.77 5.65997C10.8435 5.73253 10.9018 5.81894 10.9416 5.91422C10.9814 6.00949 11.002 6.11171 11.002 6.21497C11.002 6.31822 10.9814 6.42044 10.9416 6.51572C10.9018 6.61099 10.8435 6.69741 10.77 6.76996C10.6975 6.84343 10.611 6.90178 10.5157 6.94159C10.4205 6.9814 10.3183 7.00189 10.215 7.00189C10.1118 7.00189 10.0095 6.9814 9.91425 6.94159C9.81897 6.90178 9.73253 6.84343 9.65997 6.76996L8 5.10995L6.34003 6.76996C6.26747 6.84343 6.18103 6.90178 6.08575 6.94159C5.99048 6.9814 5.88823 7.00189 5.78497 7.00189C5.68172 7.00189 5.57952 6.9814 5.48425 6.94159C5.38898 6.90178 5.30253 6.84343 5.22998 6.76996C5.15651 6.69741 5.09822 6.61099 5.05841 6.51572C5.0186 6.42044 4.99805 6.31822 4.99805 6.21497C4.99805 6.11171 5.0186 6.00949 5.05841 5.91422C5.09822 5.81894 5.15651 5.73253 5.22998 5.65997L6.89001 3.99997L5.22998 2.33997C5.15651 2.26741 5.09822 2.181 5.05841 2.08572C5.0186 1.99045 4.99805 1.88823 4.99805 1.78497C4.99805 1.68172 5.0186 1.57949 5.05841 1.48422C5.09822 1.38895 5.15651 1.30253 5.22998 1.22998C5.30253 1.15651 5.38898 1.09816 5.48425 1.05835C5.57952 1.01854 5.68172 0.998047 5.78497 0.998047C5.88823 0.998047 5.99048 1.01854 6.08575 1.05835C6.18103 1.09816 6.26747 1.15651 6.34003 1.22998L8 2.88998L9.65997 1.22998C9.73253 1.15651 9.81897 1.09816 9.91425 1.05835C10.0095 1.01854 10.1118 0.998047 10.215 0.998047C10.3183 0.998047 10.4205 1.01854 10.5157 1.05835C10.611 1.09816 10.6975 1.15651 10.77 1.22998C10.8435 1.30253 10.9018 1.38895 10.9416 1.48422C10.9814 1.57949 11.002 1.68172 11.002 1.78497C11.002 1.88823 10.9814 1.99045 10.9416 2.08572C10.9018 2.181 10.8435 2.26741 10.77 2.33997L9.10999 3.99997L10.77 5.65997Z" fill="white"/>
</svg>
