<svg width="16" height="16" viewBox="0 0 16 16" fill="none" xmlns="http://www.w3.org/2000/svg">
<path opacity="0.5" fill-rule="evenodd" clip-rule="evenodd" d="M11.15 2H4.84991C4.44043 2.00059 4.03602 2.09037 3.66473 2.26306C3.29345 2.43575 2.96423 2.68721 2.69995 3H10.9999C11.5304 3 12.0391 3.21074 12.4141 3.58582C12.7892 3.96089 12.9999 4.46957 12.9999 5V13.3C13.3127 13.0357 13.5642 12.7065 13.7369 12.3352C13.9096 11.9639 13.9993 11.5595 13.9999 11.15V4.84998C13.9973 4.09492 13.6962 3.37155 13.1623 2.83765C12.6284 2.30374 11.905 2.00264 11.15 2Z" fill="white"/>
<path opacity="0.5" fill-rule="evenodd" clip-rule="evenodd" d="M13.15 0H6.84991C6.44043 0.00059076 6.03602 0.0903698 5.66473 0.263062C5.29345 0.435753 4.96423 0.687214 4.69995 1H12.9999C13.5304 1 14.0391 1.21074 14.4141 1.58582C14.7892 1.96089 14.9999 2.46957 14.9999 3V11.3C15.3127 11.0357 15.5642 10.7065 15.7369 10.3352C15.9096 9.96392 15.9993 9.55951 15.9999 9.15002V2.84998C15.9973 2.09492 15.6962 1.37155 15.1623 0.837646C14.6284 0.303738 13.905 0.00263547 13.15 0Z" fill="white"/>
<path fill-rule="evenodd" clip-rule="evenodd" d="M0 7.10999V12.89C0 13.7148 0.327651 14.5059 0.910889 15.0891C1.49413 15.6723 2.28516 16 3.10999 16H8.89001C9.71484 16 10.5059 15.6723 11.0891 15.0891C11.6723 14.5059 12 13.7148 12 12.89V7.10999C12 6.28516 11.6723 5.49413 11.0891 4.91089C10.5059 4.32765 9.71484 4 8.89001 4H3.10999C2.28516 4 1.49413 4.32765 0.910889 4.91089C0.327651 5.49413 0 6.28516 0 7.10999ZM8.78003 15H3.21997C2.92807 15.0013 2.63884 14.9448 2.3689 14.8337C2.09896 14.7226 1.85369 14.5591 1.64728 14.3527C1.44087 14.1463 1.27742 13.901 1.16632 13.6311C1.05522 13.3612 0.998676 13.0719 1 12.78V7.21997C0.998676 6.92807 1.05522 6.63884 1.16632 6.3689C1.27742 6.09896 1.44087 5.85369 1.64728 5.64728C1.85369 5.44087 2.09896 5.27742 2.3689 5.16632C2.63884 5.05522 2.92807 4.99868 3.21997 5H8.78003C9.07193 4.99868 9.36116 5.05522 9.6311 5.16632C9.90104 5.27742 10.1463 5.44087 10.3527 5.64728C10.5591 5.85369 10.7226 6.09896 10.8337 6.3689C10.9448 6.63884 11.0013 6.92807 11 7.21997V12.78C11.0013 13.0719 10.9448 13.3612 10.8337 13.6311C10.7226 13.901 10.5591 14.1463 10.3527 14.3527C10.1463 14.5591 9.90104 14.7226 9.6311 14.8337C9.36116 14.9448 9.07193 15.0013 8.78003 15Z" fill="white"/>
<path d="M9 10L3 7V9.25V10.75V13L9 10Z" fill="white"/>
</svg>
