<svg width="16" height="16" viewBox="0 0 16 16" fill="none" xmlns="http://www.w3.org/2000/svg">
<g clip-path="url(#clip0_9634_25712)">
<path opacity="0.5" fill-rule="evenodd" clip-rule="evenodd" d="M13.15 0H6.84991C6.44043 0.00059076 6.03602 0.0903393 5.66473 0.263031C5.29345 0.435723 4.96423 0.687214 4.69995 1H12.9999C13.5304 1 14.0391 1.21071 14.4141 1.58578C14.7892 1.96086 14.9999 2.46957 14.9999 3V9H15.9999V2.85001C15.9973 2.09495 15.6962 1.37155 15.1623 0.837646C14.6284 0.303738 13.905 0.00263547 13.15 0Z" fill="white"/>
<path opacity="0.5" fill-rule="evenodd" clip-rule="evenodd" d="M11.15 2H4.84991C4.44043 2.00059 4.03602 2.09034 3.66473 2.26303C3.29345 2.43572 2.96423 2.68721 2.69995 3H10.9999C11.5304 3 12.0391 3.21071 12.4141 3.58578C12.7892 3.96086 12.9999 4.46957 12.9999 5V7H13.9999V4.85001C13.9973 4.09495 13.6962 3.37155 13.1623 2.83765C12.6284 2.30374 11.905 2.00264 11.15 2Z" fill="white"/>
<path fill-rule="evenodd" clip-rule="evenodd" d="M3.21997 15C2.92807 15.0013 2.63884 14.9448 2.3689 14.8337C2.09896 14.7226 1.85369 14.5591 1.64728 14.3527C1.44087 14.1463 1.27742 13.9011 1.16632 13.6311C1.05522 13.3612 0.998676 13.0719 1 12.78V7.22C0.998676 6.9281 1.05522 6.63881 1.16632 6.36887C1.27742 6.09893 1.44087 5.85369 1.64728 5.64728C1.85369 5.44087 2.09896 5.27739 2.3689 5.16629C2.63884 5.05519 2.92807 4.99868 3.21997 5H8.78003C9.32916 5.00225 9.85796 5.20792 10.2643 5.5773C10.6706 5.94669 10.9256 6.45357 10.98 7H11.98C11.954 6.19528 11.616 5.43225 11.0374 4.87235C10.4588 4.31244 9.68514 3.99958 8.88 4H3.09998C2.27515 4 1.48412 4.32765 0.900879 4.91089C0.317641 5.49413 -0.0100098 6.28516 -0.0100098 7.10999V12.89C-0.0100098 13.7148 0.317641 14.5059 0.900879 15.0891C1.48412 15.6723 2.27515 16 3.09998 16H9V15C7.45152 15.0176 3.21997 15 3.21997 15Z" fill="white"/>
<path d="M9 10L3 7V9.25V10.75V13L9 10Z" fill="white"/>
<path fill-rule="evenodd" clip-rule="evenodd" d="M16 11H13V8H11V11H8V13H11V16H13V13H16V11Z" fill="white"/>
</g>
<defs>
<clipPath id="clip0_9634_25712">
<rect width="16" height="16" fill="white"/>
</clipPath>
</defs>
</svg>
