<svg xmlns="http://www.w3.org/2000/svg" viewBox="0 0 20 20"><defs><style>.cls-1,.cls-2{fill:#fff;}.cls-2{fill-rule:evenodd;}.cls-3{fill:none;}</style></defs><g id="Layer_2" data-name="Layer 2"><g id="Layer_2-2" data-name="Layer 2"><rect class="cls-1" x="3.25" y="4" width="0.5" height="6"/><polygon class="cls-1" points="17.16 3.4 10.71 1.95 17 0 9.5 1.5 2 0 8.29 1.95 1.84 3.4 2.16 4.6 9.5 2.5 16.84 4.6 17.16 3.4"/><rect class="cls-1" x="15.25" y="4" width="0.5" height="6"/><path class="cls-2" d="M16.54,10a1,1,0,0,1-1,1H12v8a1,1,0,0,1-2,0V15H9v4a1,1,0,0,1-2,0V11H3.28a1,1,0,1,1,0-2H15.54A1,1,0,0,1,16.54,10Zm-7-1.5a2,2,0,1,0-2-2A2,2,0,0,0,9.5,8.5Z"/><rect class="cls-3" width="20" height="20"/></g></g></svg>