<svg xmlns="http://www.w3.org/2000/svg" viewBox="0 0 20 20"><defs><style>.cls-1,.cls-2,.cls-3{fill:#fff;}.cls-2{fill-rule:evenodd;}.cls-3{opacity:0.5;}.cls-4{fill:none;}</style></defs><g id="Layer_2" data-name="Layer 2"><g id="Layer_2-2" data-name="Layer 2"><path class="cls-1" d="M16.39,3.5A2.39,2.39,0,1,1,14,1.11,2.39,2.39,0,0,1,16.39,3.5Zm-.39,6,3.69-3.69a1,1,0,1,0-1.48-1.48L15.42,7.1A1,1,0,0,0,15,7H7A1,1,0,0,0,7,9h4V19a1,1,0,0,0,2,0V15h.56l4.21,4.21a1,1,0,0,0,1.41,0,1,1,0,0,0,0-1.42l-3.32-3.31A1,1,0,0,0,16,14Z"/><path class="cls-2" d="M5,8V19a1,1,0,0,1-2,0V9H2v4.26a1,1,0,0,1-2,0V9A2,2,0,0,1,2,7H5.28A2,2,0,0,0,5,8Zm.5-4.5a3,3,0,0,1,1-2.19,2.57,2.57,0,0,0-1-.2,2.39,2.39,0,0,0,0,4.78,2.57,2.57,0,0,0,1-.2A3,3,0,0,1,5.5,3.5Z"/><path class="cls-3" d="M10.46,5.69a2.57,2.57,0,0,1-1,.2,2.39,2.39,0,0,1,0-4.78,2.57,2.57,0,0,1,1,.2,3,3,0,0,0,0,4.38ZM7,10v9a1,1,0,0,0,2,0V10Z"/><rect class="cls-4" width="20" height="20"/></g></g></svg>