<svg xmlns="http://www.w3.org/2000/svg" viewBox="0 0 20 20"><defs><style>.cls-1,.cls-2{fill:#fff;}.cls-2{opacity:0.5;}.cls-3{fill:none;}</style></defs><g id="Layer_2" data-name="Layer 2"><g id="Layer_2-2" data-name="Layer 2"><polygon class="cls-1" points="19.98 13.83 12 7 12.1 17.51 14.43 14.29 16.7 19 18.37 18.19 16.13 13.52 19.98 13.83"/><path class="cls-2" d="M8.5,4.5a2,2,0,1,1-2,2A2,2,0,0,1,8.5,4.5ZM2.28,9a1,1,0,1,0,0,2H6v8a1,1,0,0,0,2,0V15H9v4a1,1,0,0,0,2,0V9Z"/><polygon class="cls-2" points="0.84 3.4 1.16 4.6 2.25 4.27 2.25 9 2.75 9 2.75 4.11 8.5 2.5 14.25 4.11 14.25 6.94 14.75 7.31 14.75 4.27 15.84 4.6 16.16 3.4 9.71 1.95 16 0 8.5 1.5 1 0 7.29 1.95 0.84 3.4"/><rect class="cls-3" width="20" height="20"/></g></g></svg>