<svg width="20" height="20" viewBox="0 0 20 20" fill="none" xmlns="http://www.w3.org/2000/svg">
<path fill-rule="evenodd" clip-rule="evenodd" d="M12.8 2.8C12.1 4 12.5 5.5 13.7 6.2C14.9 6.9 16.4 6.5 17.1 5.3C17.8 4.1 17.4 2.6 16.2 1.9C15.1 1.1 13.5 1.6 12.8 2.8Z" fill="white"/>
<path opacity="0.5" d="M19 10.1H15.6L14 7.39999C14 7.29999 14.3 8.39999 14 9.09999L13.4 10.1L14.2 11.5C14.4 11.8 14.7 12 15.2 12H19C19.5 12 19.9 11.6 19.9 11.1C20 10.5 19.6 10.1 19 10.1Z" fill="white"/>
<path opacity="0.5" d="M7.39995 13.9C6.89995 13.6 6.59995 13.2 6.39995 12.7L4.89995 15H1.59995C1.09995 15 0.699951 15.4 0.699951 15.9C0.699951 16.4 1.09995 16.8 1.59995 16.8H5.39995C5.79995 16.8 6.09995 16.7 6.29995 16.3L7.69995 13.9H7.39995Z" fill="white"/>
<path fill-rule="evenodd" clip-rule="evenodd" d="M5.50007 8.2L7.70007 5.8L9.80007 6.9L7.10007 11.5C7.00007 12.2 7.30007 13 8.00007 13.4L8.20007 13.5L12.1001 15.7V19C12.1001 19.5 12.5001 19.9 13.0001 19.9C13.5001 19.9 13.9001 19.5 13.9001 19V15.2C13.9001 14.9 13.8001 14.7 13.6001 14.5C13.6001 14.5 13.5001 14.5 13.5001 14.4C13.5001 14.4 13.4001 14.4 13.4001 14.3L11.0001 12.9L13.0001 9.4L13.5001 8.4C13.8001 7.8 13.7001 7 13.3001 6.7L11.8001 5.8L11.5001 5.6C11.4001 5.6 11.3001 5.5 11.3001 5.5L7.90007 3.8C7.40007 3.6 6.90007 3.8 6.60007 4.1L4.10007 6.9C3.80007 7.3 3.80007 7.9 4.20007 8.2C4.60007 8.6 5.20007 8.6 5.50007 8.2Z" fill="white"/>
</svg>
