<svg xmlns="http://www.w3.org/2000/svg" viewBox="0 0 20 18.89"><defs><style>.cls-1,.cls-2{fill:#fff;}.cls-2{opacity:0.5;}</style></defs><g id="Layer_2" data-name="Layer 2"><g id="Layer_2-2" data-name="Layer 2"><path class="cls-1" d="M16.89,2.39A2.39,2.39,0,1,1,14.5,0,2.39,2.39,0,0,1,16.89,2.39Zm2.84,1.77a1,1,0,0,0-1.33,0L16.68,5.89H12.32L10.6,4.16a1,1,0,0,0-1.33,0,.94.94,0,0,0,0,1.32L12,8.21v9.68c0,1,.45,1,1,1s1,0,1-1v-5h1v5c0,1,.45,1,1,1s1,0,1-1V8.21l2.73-2.73A.94.94,0,0,0,19.73,4.16Z"/><path class="cls-2" d="M7.89,2.39A2.39,2.39,0,1,1,5.5,0,2.39,2.39,0,0,1,7.89,2.39Zm2.84,6.49L8,6.18a.83.83,0,0,0-.53-.29h-4A.76.76,0,0,0,3,6.18L.27,8.88A.94.94,0,0,0,1.6,10.2L3,8.8v9.09c0,1,.45,1,1,1s1,0,1-1v-5H6v5c0,1,.45,1,1,1s1,0,1-1V8.8l1.4,1.4a.94.94,0,0,0,1.33-1.32Z"/></g></g></svg>