<svg xmlns="http://www.w3.org/2000/svg" viewBox="0 0 20 20"><defs><style>.cls-1,.cls-2,.cls-3{fill:#fff;}.cls-1,.cls-3{fill-rule:evenodd;}.cls-2,.cls-3{opacity:0.5;}.cls-4{fill:none;}</style></defs><g id="Layer_2" data-name="Layer 2"><g id="Layer_2-2" data-name="Layer 2"><polygon class="cls-1" points="20 8 16 8 16 4 13 4 13 8 9 8 9 11 13 11 13 15 16 15 16 11 20 11 20 8"/><circle class="cls-2" cx="9" cy="3" r="2.38"/><path class="cls-3" d="M12,19V14h-.06V12H8V7h4V6H1A1,1,0,0,0,1,8H6V19a1,1,0,0,0,2,0V14h2v5a1,1,0,0,0,2,0Z"/><rect class="cls-4" width="20" height="20"/></g></g></svg>