<svg xmlns="http://www.w3.org/2000/svg" viewBox="0 0 20 20"><defs><style>.cls-1,.cls-2{fill:#fff;}.cls-1{fill-rule:evenodd;opacity:0.5;}.cls-3{fill:none;}</style></defs><g id="Layer_2" data-name="Layer 2"><g id="Layer_2-2" data-name="Layer 2"><path class="cls-1" d="M15.63,7a1,1,0,0,1-1,1H10V19a1,1,0,0,1-2,0V14H6v5a1,1,0,0,1-2,0V9.13l-2.29,2.3A1,1,0,0,1,.29,10L4,6.29A1.15,1.15,0,0,1,4.86,6h9.77A1,1,0,0,1,15.63,7ZM7,5.38A2.38,2.38,0,1,0,4.63,3,2.39,2.39,0,0,0,7,5.38Z"/><path class="cls-2" d="M11,14.13l1.29-1.28,1,1L12,15.16Zm5.4-2.31.64.64c1.28,1.29,1.5,2.36.64,3.21s-1.93.65-3.21-.64l-.64-.64-1.29,1.28.64.65c1.93,1.92,4.15,2.27,5.79.64s1.28-3.86-.65-5.79l-.64-.64Zm.77-1.8-1-1-1.28,1.29,1,1Z"/><rect class="cls-3" width="20" height="20"/></g></g></svg>