<svg width="64" height="64" viewBox="0 0 64 64" fill="none" xmlns="http://www.w3.org/2000/svg">
<path d="M15.25 13H13.75V28H15.25V13Z" fill="url(#paint0_linear_9074_19628)"/>
<path d="M51.25 13H49.75V28H51.25V13Z" fill="url(#paint1_linear_9074_19628)"/>
<path fill-rule="evenodd" clip-rule="evenodd" d="M50.5 33H40V60.5C40 61.163 39.7366 61.799 39.2678 62.2678C38.7989 62.7367 38.163 63 37.5 63C36.837 63 36.2011 62.7367 35.7322 62.2678C35.2634 61.799 35 61.163 35 60.5V46H30V60.5C30 61.163 29.7366 61.799 29.2678 62.2678C28.7989 62.7367 28.163 63 27.5 63C26.837 63 26.2011 62.7367 25.7322 62.2678C25.2634 61.799 25 61.163 25 60.5V33H14.5C13.837 33 13.2011 32.7367 12.7322 32.2678C12.2634 31.799 12 31.163 12 30.5C12 29.837 12.2634 29.201 12.7322 28.7322C13.2011 28.2633 13.837 28 14.5 28H50.5C51.163 28 51.7989 28.2633 52.2678 28.7322C52.7366 29.201 53 29.837 53 30.5V30.5C53 31.163 52.7366 31.799 52.2678 32.2678C51.7989 32.7367 51.163 33 50.5 33V33Z" fill="url(#paint2_linear_9074_19628)"/>
<path d="M32.5 26.5C35.8137 26.5 38.5 23.8137 38.5 20.5C38.5 17.1863 35.8137 14.5 32.5 14.5C29.1863 14.5 26.5 17.1863 26.5 20.5C26.5 23.8137 29.1863 26.5 32.5 26.5Z" fill="url(#paint3_linear_9074_19628)"/>
<path d="M59.05 12.37L36.4001 7.21002L55.44 2.04002L54.3801 1.40002L32.53 5.77002L11.8 1.62002L10.68 2.04002L28.66 7.21002L5.05005 12.58L9.50005 15.47L32.53 8.97002L55.4501 15.49L59.05 12.37Z" fill="url(#paint4_linear_9074_19628)"/>
<path opacity="0.5" d="M55.2998 18.72C57.8058 20.2933 59.7002 22.6744 60.6698 25.47C61.7121 28.3624 61.8309 31.5071 61.0098 34.47C60.5995 35.938 59.9726 37.3368 59.1498 38.62C58.3242 39.8872 57.3129 41.0232 56.1498 41.99C53.8851 43.8954 51.0293 44.9558 48.0698 44.99C50.5247 43.878 52.7213 42.2671 54.5198 40.26C56.2027 38.3524 57.4333 36.0895 58.1198 33.64C58.7867 31.188 58.8859 28.6161 58.4098 26.12C57.8931 23.4657 56.8344 20.9465 55.2998 18.72V18.72Z" fill="white"/>
<path opacity="0.5" d="M8.42009 18.72C6.88806 20.9405 5.82942 23.4527 5.31008 26.1C4.83404 28.5961 4.93323 31.1679 5.60009 33.62C6.28656 36.0695 7.51715 38.3324 9.20009 40.24C10.9986 42.2471 13.1952 43.8579 15.6501 44.97C12.6906 44.9357 9.83479 43.8754 7.57009 41.97C6.40696 41.0032 5.39567 39.8672 4.57009 38.6C3.74821 37.315 3.11825 35.9169 2.70009 34.45C1.88885 31.4859 2.00753 28.3443 3.04009 25.45C4.02188 22.6634 5.91815 20.2913 8.42009 18.72V18.72Z" fill="white"/>
<defs>
<linearGradient id="paint0_linear_9074_19628" x1="13.75" y1="20.5" x2="15.25" y2="20.5" gradientUnits="userSpaceOnUse">
<stop stop-color="#4D4D4D"/>
<stop offset="0.16" stop-color="#808080"/>
<stop offset="1" stop-color="#B3B3B3"/>
</linearGradient>
<linearGradient id="paint1_linear_9074_19628" x1="124.375" y1="13" x2="126.625" y2="13" gradientUnits="userSpaceOnUse">
<stop stop-color="#4D4D4D"/>
<stop offset="0.16" stop-color="#808080"/>
<stop offset="1" stop-color="#B3B3B3"/>
</linearGradient>
<linearGradient id="paint2_linear_9074_19628" x1="32.5" y1="63" x2="32.5" y2="28" gradientUnits="userSpaceOnUse">
<stop stop-color="#CCCCCC"/>
<stop offset="1" stop-color="#F2F2F2"/>
</linearGradient>
<linearGradient id="paint3_linear_9074_19628" x1="416.5" y1="332.5" x2="416.5" y2="188.5" gradientUnits="userSpaceOnUse">
<stop stop-color="#CCCCCC"/>
<stop offset="1" stop-color="#F2F2F2"/>
</linearGradient>
<linearGradient id="paint4_linear_9074_19628" x1="32.05" y1="1.40002" x2="32.05" y2="15.49" gradientUnits="userSpaceOnUse">
<stop stop-color="#919191"/>
<stop offset="1" stop-color="#F2F2F2"/>
</linearGradient>
</defs>
</svg>
