<svg width="16" height="16" viewBox="0 0 16 16" fill="none" xmlns="http://www.w3.org/2000/svg">
<path opacity="0.5" fill-rule="evenodd" clip-rule="evenodd" d="M0 0V16H16V0H0ZM15 15H1V3H15V15Z" fill="white"/>
<path d="M2 6.44003C2.22248 5.76709 2.60712 5.15923 3.12 4.67004C3.44171 4.44723 3.80468 4.29088 4.18761 4.21017C4.57054 4.12947 4.96573 4.12602 5.35001 4.20004C6.07098 4.41003 6.7143 4.82731 7.2 5.40002C7.67 5.90002 8.06001 6.40003 8.46001 6.94003C9.24001 7.94003 10.1 8.94001 11.1 8.86001C11.6421 8.81411 12.1513 8.58076 12.54 8.20004C13.1014 7.90075 13.5977 7.49283 14 7.00003C13.8971 7.70097 13.626 8.36658 13.21 8.94003C12.6678 9.46429 11.9615 9.78567 11.21 9.85003C10.8226 9.86677 10.4357 9.80644 10.0718 9.67254C9.70789 9.53865 9.37417 9.33386 9.09 9.07004C8.58337 8.6144 8.12435 8.10846 7.72 7.56003C6.92 6.56003 6.14 5.42004 5.16 5.17004C4.90562 5.12673 4.6451 5.1354 4.39417 5.19555C4.14323 5.25571 3.90709 5.36608 3.7 5.52002C3.08898 5.73652 2.51544 6.04692 2 6.44003V6.44003Z" fill="url(#paint0_linear_9067_18804)"/>
<path d="M2 10.44C2.22248 9.76709 2.60712 9.15923 3.12 8.67004C3.44171 8.44723 3.80468 8.29088 4.18761 8.21017C4.57054 8.12947 4.96573 8.12602 5.35001 8.20004C6.07098 8.41003 6.7143 8.82731 7.2 9.40002C7.67 9.90002 8.06001 10.4 8.46001 10.94C9.24001 11.94 10.1 12.94 11.1 12.86C11.6421 12.8141 12.1513 12.5808 12.54 12.2C13.1014 11.9007 13.5977 11.4928 14 11C13.8971 11.701 13.626 12.3666 13.21 12.94C12.6678 13.4643 11.9615 13.7857 11.21 13.85C10.8226 13.8668 10.4357 13.8064 10.0718 13.6725C9.70789 13.5387 9.37417 13.3339 9.09 13.07C8.58337 12.6144 8.12435 12.1085 7.72 11.56C6.92 10.56 6.14 9.42004 5.16 9.17004C4.90562 9.12673 4.6451 9.1354 4.39417 9.19555C4.14323 9.25571 3.90709 9.36608 3.7 9.52002C3.08898 9.73652 2.51544 10.0469 2 10.44Z" fill="url(#paint1_linear_9067_18804)"/>
<defs>
<linearGradient id="paint0_linear_9067_18804" x1="1.5" y1="7.00004" x2="14.5" y2="7.00004" gradientUnits="userSpaceOnUse">
<stop stop-color="white" stop-opacity="0"/>
<stop offset="0.04" stop-color="white"/>
<stop offset="0.87" stop-color="white"/>
<stop offset="1" stop-color="white" stop-opacity="0"/>
</linearGradient>
<linearGradient id="paint1_linear_9067_18804" x1="2" y1="1674.24" x2="14" y2="1674.24" gradientUnits="userSpaceOnUse">
<stop stop-color="white" stop-opacity="0"/>
<stop offset="0.04" stop-color="white"/>
<stop offset="0.87" stop-color="white"/>
<stop offset="1" stop-color="white" stop-opacity="0"/>
</linearGradient>
</defs>
</svg>
