<svg width="20" height="20" viewBox="0 0 20 20" fill="none" xmlns="http://www.w3.org/2000/svg">
<path d="M13.32 15.26L6 9L6.09 18.63L8.23 15.69L10.3 20L11.84 19.26L9.78 14.98L13.32 15.26Z" fill="white"/>
<path opacity="0.5" d="M7.99997 7.54004C7.99997 7.54004 7.38997 7.54005 6.99997 7.64005C6.55258 7.70892 6.1113 7.81257 5.68002 7.95004C4.80675 8.21495 3.99448 8.64996 3.29001 9.23004C1.79516 10.5496 0.817105 12.3568 0.529996 14.33C0.422221 13.2729 0.489748 12.2052 0.729947 11.17C0.973224 10.0928 1.42513 9.07365 2.06003 8.17004C2.73254 7.21575 3.57694 6.39507 4.55002 5.75003C5.03243 5.41958 5.54065 5.12864 6.06991 4.88004C6.71052 4.54163 7.37979 4.26054 8.06991 4.04004L7.99997 7.54004Z" fill="white"/>
<path d="M16 0L10 1.74V9.26L16 11V0Z" fill="white"/>
<path opacity="0.5" d="M20 8.68L16 11V0L20 2.32V8.68Z" fill="white"/>
</svg>
