<svg width="16" height="16" viewBox="0 0 16 16" fill="none" xmlns="http://www.w3.org/2000/svg">
<g clip-path="url(#clip0_9067_18805)">
<path opacity="0.5" fill-rule="evenodd" clip-rule="evenodd" d="M16 8.89001V3.10999C16 2.28516 15.6723 1.49413 15.0891 0.910889C14.5059 0.327651 13.7148 0 12.89 0H7.11C6.28518 0 5.49414 0.327651 4.9109 0.910889C4.32767 1.49413 4 2.28516 4 3.10999V8.89001C4 9.71484 4.32767 10.5059 4.9109 11.0891C5.49414 11.6723 6.28518 12 7.11 12H12.89C13.7148 12 14.5059 11.6723 15.0891 11.0891C15.6723 10.5059 16 9.71484 16 8.89001ZM7.5 1H12.5C13.163 1 13.7989 1.2634 14.2678 1.73224C14.7366 2.20108 15 2.83696 15 3.5V8.5C15 9.16304 14.7366 9.79892 14.2678 10.2678C13.7989 10.7366 13.163 11 12.5 11H7.5C6.83696 11 6.20108 10.7366 5.73224 10.2678C5.2634 9.79892 5 9.16304 5 8.5V3.5C5 2.83696 5.2634 2.20108 5.73224 1.73224C6.20108 1.2634 6.83696 1 7.5 1Z" fill="white"/>
<path opacity="0.5" fill-rule="evenodd" clip-rule="evenodd" d="M5.15059e-05 6.60999V13.09C5.15059e-05 13.8618 0.306646 14.6019 0.852377 15.1477C1.39811 15.6934 2.13828 16 2.91006 16H9.39005C9.45713 16.001 9.5237 15.9882 9.58562 15.9624C9.64755 15.9366 9.70351 15.8983 9.75005 15.85L10.5001 15H3.20005C2.90619 15.0191 2.61163 14.9753 2.33605 14.8715C2.06047 14.7677 1.81021 14.6063 1.60198 14.3981C1.39375 14.1898 1.23235 13.9396 1.12855 13.664C1.02475 13.3884 0.980936 13.0938 1.00005 12.8V5.5L0.150045 6.25C0.101731 6.29654 0.0634969 6.3525 0.0376949 6.41443C0.0118929 6.47635 -0.000921201 6.54291 5.15059e-05 6.60999V6.60999Z" fill="white"/>
<path opacity="0.5" fill-rule="evenodd" clip-rule="evenodd" d="M2.00005 4.60999V11.09C2.00005 11.8618 2.30665 12.6019 2.85238 13.1477C3.39811 13.6934 4.13828 14 4.91006 14H11.3901C11.4571 14.001 11.5237 13.9882 11.5856 13.9624C11.6475 13.9366 11.7035 13.8983 11.7501 13.85L12.5001 13H5.20005C4.90619 13.0191 4.61163 12.9753 4.33605 12.8715C4.06047 12.7677 3.81021 12.6063 3.60198 12.3981C3.39375 12.1898 3.23235 11.9396 3.12855 11.664C3.02475 11.3884 2.98094 11.0938 3.00005 10.8V3.5L2.15005 4.25C2.10173 4.29654 2.0635 4.3525 2.03769 4.41443C2.01189 4.47635 1.99908 4.54291 2.00005 4.60999V4.60999Z" fill="white"/>
<path d="M9.5 8.5L12.5 5.5L9.5 2.5" stroke="white" stroke-miterlimit="10" stroke-linecap="round"/>
<path d="M12.5 5.5H6.5" stroke="white" stroke-miterlimit="10" stroke-linecap="round"/>
</g>
<defs>
<clipPath id="clip0_9067_18805">
<rect width="16" height="16" fill="white"/>
</clipPath>
</defs>
</svg>
