<svg xmlns="http://www.w3.org/2000/svg" viewBox="0 0 16 16"><defs><style>.cls-1,.cls-2,.cls-3{fill:#fff;}.cls-1{fill-opacity:0.5;}.cls-3{opacity:0.5;}.cls-4{fill:none;}</style></defs><g id="Layer_2" data-name="Layer 2"><g id="Layer_3" data-name="Layer 3"><g id="Statistics"><rect class="cls-1" x="1.5" y="6.5" width="2" height="5" transform="translate(11.5 6.5) rotate(90)"/><rect class="cls-1" x="2.5" y="1.5" width="2" height="7" transform="translate(8.5 1.5) rotate(90)"/><rect class="cls-2" x="4.5" y="-4.5" width="2" height="11" transform="translate(6.5 -4.5) rotate(90)"/><g id="chart"><rect class="cls-2" x="12" y="14" width="4" height="2"/><rect class="cls-2" x="5" y="14" width="4" height="2"/><rect class="cls-2" x="8" y="7" width="5" height="2"/><polygon class="cls-3" points="13 15 14 15 14 11 11 11 11 8 10 8 10 11 7 11 7 15 8 15 8 12 13 12 13 15"/></g><rect class="cls-4" width="16" height="16"/></g></g></g></svg>