<svg width="16" height="16" viewBox="0 0 16 16" fill="none" xmlns="http://www.w3.org/2000/svg">
<path d="M5.60976 5.59C5.11417 6.10848 4.64999 6.65613 4.21975 7.23C3.75953 7.83034 3.35776 8.47326 3.0198 9.15C2.71962 9.80768 2.53034 10.5105 2.45974 11.23C2.40939 11.5339 2.42998 11.8453 2.5198 12.14C2.61008 12.4353 2.76749 12.7057 2.97976 12.93C3.22706 13.0758 3.50384 13.1647 3.78982 13.19C4.07518 13.2105 4.36159 13.1696 4.62978 13.07C5.27052 12.8888 5.88297 12.6195 6.44973 12.27C7.63957 11.5495 8.73186 10.679 9.69973 9.68C10.6927 8.7092 11.5596 7.61728 12.2798 6.43C12.6317 5.86448 12.901 5.25164 13.0797 4.61C13.1779 4.34492 13.2188 4.06204 13.1997 3.78C13.1889 3.50878 13.1208 3.24294 12.9998 3C12.7755 2.78773 12.5051 2.63029 12.2097 2.54C11.9168 2.44187 11.6043 2.41782 11.2998 2.47C10.5821 2.5501 9.88067 2.73893 9.21975 3.03C8.543 3.36796 7.90016 3.76979 7.29983 4.23C6.70766 4.6463 6.14308 5.10058 5.60976 5.59V5.59ZM5.37978 5.36C6.44069 4.26154 7.64084 3.30675 8.94973 2.52C9.62154 2.11304 10.3493 1.80647 11.1098 1.61C11.5185 1.51031 11.9395 1.46989 12.3598 1.49C12.8328 1.54197 13.2808 1.72949 13.6498 2.03C14.0114 2.37097 14.2681 2.80811 14.3898 3.29C14.4863 3.72975 14.5132 4.1819 14.4697 4.63C14.3776 5.47057 14.1515 6.29096 13.7998 7.06C13.1089 8.52977 12.1606 9.86411 10.9998 11C10.4193 11.5576 9.80483 12.0786 9.15981 12.56C8.48989 13.039 7.78071 13.4605 7.03982 13.82C6.2738 14.1685 5.45663 14.3913 4.61977 14.48C4.17179 14.529 3.71878 14.502 3.27981 14.4C2.79885 14.2817 2.36169 14.0284 2.0198 13.67C1.72239 13.3001 1.53829 12.8521 1.48977 12.38C1.46127 11.9602 1.49837 11.5384 1.59975 11.13C1.79622 10.3695 2.10283 9.64181 2.50979 8.97C3.30253 7.64499 4.26761 6.43106 5.37978 5.36V5.36Z" fill="white"/>
<path opacity="0.5" d="M8.66023 8.65001C10.1702 7.14001 10.9102 5.44001 10.3302 4.86001C9.75015 4.28001 8.04024 5.02001 6.54024 6.53001C5.04024 8.04001 4.28019 9.73001 4.87019 10.32C5.46019 10.91 7.15023 10.16 8.66023 8.65001Z" fill="white"/>
<path d="M1 8C1.38 5.92 1.74 4.59 3 3.19C4.26 1.79 5.94 1.33 8 1C6.51446 1.78855 5.13087 2.75573 3.88 3.88C2.75573 5.13087 1.78855 6.51446 1 8V8Z" fill="white"/>
<path d="M15 9C14.9503 10.5564 14.3435 12.0433 13.29 13.19C12.1134 14.2729 10.5967 14.9128 9 15C10.2507 14.2426 11.4173 13.3543 12.48 12.35C13.4586 11.3447 14.3054 10.219 15 9V9Z" fill="white"/>
</svg>
