<svg width="16" height="16" viewBox="0 0 16 16" fill="none" xmlns="http://www.w3.org/2000/svg">
<path d="M3 4.5C4.10457 4.5 5 3.60457 5 2.5C5 1.39543 4.10457 0.5 3 0.5C1.89543 0.5 1 1.39543 1 2.5C1 3.60457 1.89543 4.5 3 4.5Z" fill="white"/>
<path opacity="0.5" d="M10.3301 4.85999C10.0401 4.56999 9.47016 4.60999 8.79016 4.85999C8.19688 4.91158 7.59955 4.82766 7.04346 4.61458C6.48737 4.4015 5.98697 4.06483 5.58008 3.63L3.07007 1.12L1.66016 2.52999L4.15015 5.02999C4.5768 5.49172 4.88016 6.05355 5.03223 6.66354C5.18429 7.27354 5.18013 7.91203 5.02014 8.52C4.64014 9.29 4.55012 9.96 4.87012 10.28C5.45012 10.86 7.15016 10.12 8.66016 8.61C10.1702 7.1 10.9101 5.43999 10.3301 4.85999Z" fill="white"/>
<path d="M13.6505 1.99997C13.2815 1.69946 12.8335 1.51194 12.3605 1.45997C11.9402 1.43986 11.5193 1.48028 11.1105 1.57997C10.35 1.77644 9.62227 2.08301 8.95046 2.48997C8.34221 2.86097 7.75465 3.2649 7.19045 3.69997C7.29677 3.80151 7.4105 3.8951 7.53054 3.97997C8.05062 3.60487 8.59893 3.27054 9.17055 2.97997C9.83147 2.6889 10.5328 2.50007 11.2505 2.41997C11.555 2.36779 11.8676 2.39184 12.1605 2.48997C12.4559 2.58026 12.7262 2.73771 12.9505 2.94997C13.0931 3.19797 13.1785 3.47472 13.2005 3.75997C13.2196 4.04201 13.1787 4.3249 13.0805 4.58997C12.9017 5.23161 12.6324 5.84446 12.2805 6.40997C11.5603 7.59726 10.6934 8.68917 9.70046 9.65997C8.73259 10.659 7.64031 11.5295 6.45046 12.25C5.88371 12.5995 5.27126 12.8687 4.63051 13.05C4.36232 13.1496 4.07591 13.1905 3.79055 13.17C3.50457 13.1446 3.22779 13.0558 2.98049 12.91C2.76822 12.6857 2.61082 12.4153 2.52053 12.12C2.43071 11.8253 2.41012 11.5139 2.46047 11.21C2.53107 10.4905 2.72035 9.78765 3.02053 9.12997C3.3092 8.56999 3.64367 8.03484 4.02053 7.52997L3.77053 7.17997C3.33205 7.74864 2.92804 8.34303 2.56057 8.95997C2.15361 9.63178 1.847 10.3595 1.65053 11.12C1.54915 11.5284 1.51205 11.9501 1.54055 12.37C1.58908 12.8421 1.77305 13.2901 2.07046 13.66C2.41235 14.0184 2.84951 14.2716 3.33047 14.39C3.76944 14.4919 4.22257 14.519 4.67055 14.47C5.50741 14.3813 6.32446 14.1584 7.09048 13.81C7.83137 13.4504 8.54055 13.0289 9.21047 12.55C9.83806 12.0701 10.4359 11.5525 11.0005 11C12.1564 9.8437 13.0948 8.48876 13.7705 6.99997C14.1222 6.23093 14.3483 5.41055 14.4405 4.56997C14.4839 4.12187 14.457 3.66972 14.3605 3.22997C14.2421 2.76223 13.9963 2.33646 13.6505 1.99997V1.99997Z" fill="white"/>
</svg>
