<svg width="16" height="16" viewBox="0 0 16 16" fill="none" xmlns="http://www.w3.org/2000/svg">
<path d="M6.10001 6.10004C5.60199 6.61635 5.1377 7.16416 4.71001 7.74006C4.24851 8.33951 3.84661 8.98254 3.51001 9.66004C3.20896 10.3174 3.01969 11.0204 2.95001 11.7401C2.89975 12.0443 2.92054 12.3561 3.01074 12.651C3.10095 12.9459 3.25813 13.2159 3.47001 13.44C3.71742 13.5843 3.99384 13.6718 4.27923 13.696C4.56462 13.7202 4.85182 13.6806 5.12001 13.58C5.7611 13.3998 6.37374 13.1305 6.94001 12.78C8.12671 12.055 9.21846 11.185 10.19 10.19C11.1795 9.21609 12.0459 8.12463 12.77 6.94001C13.1205 6.37374 13.3898 5.76116 13.57 5.12006C13.6698 4.85388 13.7099 4.56899 13.6875 4.28559C13.665 4.00219 13.5805 3.72719 13.44 3.48005C13.2168 3.2664 12.9472 3.10734 12.6522 3.01539C12.3573 2.92343 12.0451 2.90106 11.74 2.95002C11.0212 3.02448 10.319 3.21354 9.66001 3.51002C8.98456 3.85028 8.34185 4.25199 7.74001 4.71003C7.16411 5.13772 6.61631 5.60203 6.10001 6.10004V6.10004ZM5.87001 5.87006C6.92935 4.76988 8.1298 3.81487 9.44001 3.03004C10.1114 2.6223 10.8392 2.31571 11.6 2.12006C12.0084 2.01839 12.4297 1.97789 12.85 2.00001C13.3229 2.05253 13.7707 2.24003 14.14 2.54005C14.5007 2.88171 14.7573 3.31859 14.88 3.80006C14.9757 4.23992 15.0027 4.6919 14.96 5.14002C14.8697 5.98096 14.6434 6.80164 14.29 7.57001C13.6106 9.04189 12.6724 10.3798 11.52 11.52C10.9392 12.0772 10.3247 12.5981 9.68001 13.08C9.01122 13.5607 8.30188 13.9823 7.56001 14.34C6.79459 14.6902 5.97719 14.9131 5.14001 15C4.69199 15.0477 4.23917 15.0207 3.80001 14.9201C3.31926 14.8012 2.88225 14.548 2.54001 14.19C2.2426 13.8201 2.05853 13.3722 2.01001 12.9C1.97966 12.4802 2.0168 12.0581 2.12001 11.65C2.31565 10.8893 2.62227 10.1615 3.03001 9.49006C3.81117 8.16226 4.7663 6.94482 5.87001 5.87006V5.87006Z" fill="white"/>
<path opacity="0.5" d="M9.14738 9.15666C10.6548 7.64923 11.4019 5.95235 10.8162 5.36657C10.2304 4.78078 8.53349 5.52791 7.02606 7.03534C5.51864 8.54276 4.7715 10.2396 5.35729 10.8254C5.94308 11.4112 7.63996 10.6641 9.14738 9.15666Z" fill="white"/>
</svg>
