<svg width="16" height="16" viewBox="0 0 16 16" fill="none" xmlns="http://www.w3.org/2000/svg">
<g clip-path="url(#clip0_9067_18801)">
<path fill-rule="evenodd" clip-rule="evenodd" d="M4.40003 9.16997L4.22003 9.34001C4.54003 10.24 4.64003 12.06 3.63003 12C1.84003 11.89 2.68003 10.17 2.27003 9.75999C1.86003 9.34999 0.140026 10.18 0.0200261 8.39C-0.0399739 7.39 1.75003 7.48996 2.64003 7.78996L2.91003 7.50999C3.2442 7.96381 3.60834 8.39475 4.00003 8.79997L4.40003 9.16997ZM9.73003 2.23997C9.32003 1.82997 10.16 0.109983 8.37003 -1.70675e-05C7.37003 -0.0600171 7.46003 1.75996 7.78003 2.65996L5.45003 4.99998C5.68003 5.26998 5.92003 5.53999 6.20003 5.81999C6.48003 6.09999 6.75003 6.33999 7.02003 6.56999L9.36003 4.22996C10.25 4.52996 12.04 4.62999 11.98 3.62999C11.86 1.81999 10.14 2.65997 9.73003 2.23997Z" fill="white"/>
<path opacity="0.5" d="M8.77009 3.23004C9.63228 4.08444 10.3817 5.04561 11.0001 6.09009C11.3303 6.62614 11.5765 7.20954 11.7301 7.82007C11.8362 8.15591 11.8616 8.512 11.8043 8.8595C11.7469 9.207 11.6085 9.53612 11.4001 9.82007C11.1292 10.1072 10.7825 10.3118 10.4001 10.41C10.0492 10.4891 9.68763 10.5094 9.3301 10.47C8.65797 10.4051 8.00187 10.2259 7.3901 9.94007C5.01528 8.85316 3.10467 6.95675 2.0001 4.59009C1.71558 3.97717 1.53317 3.32186 1.4601 2.65009C1.42421 2.292 1.44786 1.93044 1.5301 1.58008C1.62837 1.19771 1.83293 0.850998 2.1201 0.58008C2.40426 0.372182 2.73289 0.233205 3.08 0.174196C3.42711 0.115187 3.7832 0.137736 4.1201 0.240053C4.72961 0.401505 5.31237 0.650774 5.8501 0.980043C6.9168 1.60036 7.89836 2.3567 8.77009 3.23004V3.23004ZM8.77009 3.23004C7.90236 2.36825 6.88603 1.67037 5.77009 1.17005C5.23217 0.925395 4.65799 0.770066 4.0701 0.710085C3.8333 0.631258 3.57832 0.625102 3.338 0.692446C3.09769 0.759789 2.88303 0.897554 2.72168 1.08795C2.56032 1.27835 2.45965 1.5127 2.43264 1.7608C2.40562 2.00891 2.4535 2.25938 2.5701 2.48004C2.71654 3.00614 2.93888 3.50807 3.2301 3.97003C3.8205 4.9407 4.52926 5.83425 5.34009 6.63007C6.13835 7.44105 7.03147 8.15285 8.0001 8.75006C8.46237 9.0383 8.96436 9.25732 9.4901 9.40009C9.70752 9.48283 9.9407 9.51586 10.1726 9.49683C10.4044 9.4778 10.6291 9.40713 10.8301 9.29004C11.0087 9.10823 11.1411 8.88617 11.2159 8.64252C11.2907 8.39887 11.3059 8.14081 11.2601 7.89008C11.2023 7.30179 11.0468 6.72724 10.8001 6.19007C10.303 5.09158 9.61575 4.0895 8.77009 3.23004V3.23004Z" fill="white"/>
<path d="M16 14H12V16H16V14Z" fill="white"/>
<path d="M16 10H12V12H16V10Z" fill="white"/>
<path d="M16 6H12V8H16V6Z" fill="white"/>
<path opacity="0.5" d="M11 12V11H9H8V12V16H11V15H9V12H11Z" fill="white"/>
</g>
<defs>
<clipPath id="clip0_9067_18801">
<rect width="16" height="16" fill="white"/>
</clipPath>
</defs>
</svg>
