<svg width="16" height="16" viewBox="0 0 16 16" fill="none" xmlns="http://www.w3.org/2000/svg">
<g clip-path="url(#clip0_9067_18807)">
<path d="M1.70005 3.20001H1.30005V8.00001H1.70005V3.20001Z" fill="white"/>
<path d="M10.7 3.20001H10.3V8.00001H10.7V3.20001Z" fill="white"/>
<path d="M12 2.69998L6.95 1.56998L11.87 0.039978L6 1.20998L0.13 0.039978L5.05 1.56998L0 2.69998L0.25 3.63998L6 1.99998L11.75 3.63998L12 2.69998Z" fill="white"/>
<path fill-rule="evenodd" clip-rule="evenodd" d="M11.4001 8.20003C11.4001 8.35916 11.3369 8.51178 11.2243 8.6243C11.1118 8.73682 10.9592 8.80004 10.8001 8.80004H7.80009V15.4C7.80009 15.5592 7.73688 15.7118 7.62436 15.8243C7.51184 15.9368 7.35922 16 7.20009 16C7.04096 16 6.88835 15.9368 6.77583 15.8243C6.66331 15.7118 6.6001 15.5592 6.6001 15.4V11.8H5.40009V15.4C5.40009 15.5592 5.33687 15.7118 5.22435 15.8243C5.11183 15.9368 4.95922 16 4.80009 16C4.64096 16 4.48835 15.9368 4.37582 15.8243C4.2633 15.7118 4.20009 15.5592 4.20009 15.4V8.80004H1.20009C1.04096 8.80004 0.888355 8.73682 0.775833 8.6243C0.663311 8.51178 0.600098 8.35916 0.600098 8.20003C0.600098 8.0409 0.663311 7.8883 0.775833 7.77578C0.888355 7.66326 1.04096 7.60004 1.20009 7.60004H10.8001C10.9592 7.60004 11.1118 7.66326 11.2243 7.77578C11.3369 7.8883 11.4001 8.0409 11.4001 8.20003V8.20003ZM6.00009 4.38004C5.81277 4.37872 5.62705 4.41448 5.45361 4.48525C5.28018 4.55602 5.12245 4.6604 4.98953 4.79239C4.85661 4.92438 4.75112 5.08137 4.67914 5.25431C4.60715 5.42725 4.57009 5.61272 4.5701 5.80004C4.5701 5.98783 4.60708 6.17378 4.67894 6.34728C4.7508 6.52078 4.85613 6.6784 4.98892 6.81119C5.12171 6.94398 5.27935 7.04933 5.45285 7.12119C5.62635 7.19305 5.8123 7.23003 6.00009 7.23003C6.37935 7.23003 6.74308 7.07937 7.01126 6.81119C7.27944 6.54302 7.43008 6.1793 7.43008 5.80004C7.43009 5.61272 7.39303 5.42725 7.32104 5.25431C7.24906 5.08137 7.14357 4.92438 7.01065 4.79239C6.87773 4.6604 6.72001 4.55602 6.54657 4.48525C6.37313 4.41448 6.18741 4.37872 6.00009 4.38004V4.38004Z" fill="white"/>
<path d="M9.25 12.2237L11.54 14.5L15.25 9.5" stroke="white" stroke-width="1.5" stroke-miterlimit="10" stroke-linecap="round"/>
</g>
<defs>
<clipPath id="clip0_9067_18807">
<rect width="16" height="16" fill="white"/>
</clipPath>
</defs>
</svg>
