<svg width="20" height="20" viewBox="0 0 20 20" fill="none" xmlns="http://www.w3.org/2000/svg">
<path opacity="0.5" d="M9.45996 19.0001C10.723 18.9168 11.9507 18.5475 13.05 17.92C14.1163 17.3068 15.032 16.4629 15.73 15.4501C16.412 14.4707 16.8508 13.3428 17.01 12.16C17.0813 11.5863 17.108 11.0079 17.09 10.4301C17.0365 9.85958 16.9226 9.29642 16.75 8.75006L18.6899 8.29004C18.8198 8.98878 18.8701 9.69997 18.84 10.41C18.7785 11.1097 18.6547 11.8024 18.47 12.48C18.1025 13.8204 17.4163 15.0521 16.47 16.0701C15.5669 17.064 14.4577 17.849 13.22 18.3701C12.0306 18.8624 10.7448 19.0778 9.45996 19.0001V19.0001Z" fill="white"/>
<path opacity="0.5" d="M11.21 3.24986C10.6637 3.07728 10.1006 2.96328 9.53008 2.90984C8.95222 2.89177 8.37384 2.91853 7.8001 2.98985C6.61731 3.14904 5.48945 3.58786 4.51006 4.26988C3.47706 4.97761 2.6187 5.91117 2.00005 6.99986C1.3726 8.0992 1.00334 9.32683 0.920098 10.5899C0.834641 9.28836 1.05022 7.98464 1.5501 6.77989C2.0712 5.54213 2.85605 4.433 3.85003 3.52989C4.86796 2.58355 6.09959 1.89739 7.44 1.52989C8.11761 1.3452 8.81043 1.22132 9.51006 1.15984C10.2201 1.1297 10.9313 1.18005 11.6301 1.30986L11.21 3.24986Z" fill="white"/>
<path d="M16.5 6C17.8807 6 19 4.88071 19 3.5C19 2.11929 17.8807 1 16.5 1C15.1193 1 14 2.11929 14 3.5C14 4.88071 15.1193 6 16.5 6Z" fill="white"/>
<path opacity="0.5" fill-rule="evenodd" clip-rule="evenodd" d="M13 5.16992L9.13 9.03992C9.0148 9.1526 8.92321 9.28719 8.86072 9.43573C8.79823 9.58427 8.76611 9.74382 8.76611 9.90497C8.76611 10.0661 8.79823 10.2256 8.86072 10.3741C8.92321 10.5227 9.0148 10.6573 9.13 10.77V10.77C9.24269 10.8852 9.37722 10.9767 9.52576 11.0392C9.6743 11.1017 9.83385 11.1339 9.995 11.1339C10.1561 11.1339 10.3157 11.1017 10.4642 11.0392C10.6128 10.9767 10.7473 10.8852 10.86 10.77L14.73 6.89996C14.3218 6.77569 13.9505 6.55287 13.6488 6.25116C13.3471 5.94945 13.1243 5.5781 13 5.16992V5.16992Z" fill="white"/>
<path d="M11.33 11.9999C11.118 12.2055 10.8672 12.3668 10.5922 12.4742C10.3172 12.5817 10.0234 12.6332 9.72818 12.6258C9.43298 12.6183 9.14223 12.5521 8.87296 12.4308C8.60369 12.3096 8.36138 12.1359 8.16007 11.9199V11.9199C7.94402 11.7186 7.77029 11.4762 7.64908 11.2069C7.52787 10.9376 7.46159 10.6469 7.45414 10.3517C7.44669 10.0565 7.49815 9.76278 7.60563 9.48773C7.7131 9.21269 7.87437 8.96183 8.07999 8.74988L9.07999 7.74988C8.72992 7.66211 8.37092 7.61512 8.01005 7.60986C7.12003 7.60986 6.24994 7.87382 5.50992 8.36829C4.7699 8.86275 4.19317 9.56555 3.85257 10.3878C3.51198 11.2101 3.42284 12.1149 3.59647 12.9878C3.7701 13.8607 4.1987 14.6625 4.82804 15.2919C5.45737 15.9212 6.2592 16.3498 7.13212 16.5234C8.00503 16.6971 8.90982 16.6079 9.73209 16.2673C10.5544 15.9267 11.2572 15.3499 11.7516 14.6099C12.2461 13.8699 12.51 12.9999 12.51 12.1099C12.5048 11.749 12.4578 11.3899 12.37 11.0399L11.33 11.9999Z" fill="white"/>
</svg>
