<svg width="16" height="16" viewBox="0 0 16 16" fill="none" xmlns="http://www.w3.org/2000/svg">
<path d="M11.5 16H6.5C6.2 16 6 15.8 6 15.5V10.5C6 10.2 6.2 10 6.5 10H11.5C11.8 10 12 10.2 12 10.5V15.5C12 15.8 11.8 16 11.5 16ZM12.9 12.6V13.5L16 15.7V10.4L12.9 12.6Z" fill="white"/>
<path d="M0 12H5V11H1V4H11V9H12V3H0V12Z" fill="white"/>
<path opacity="0.5" d="M3 0L0 3H12L9 0H3Z" fill="white"/>
<path d="M6.00039 7.5C4.60039 7.5 3.40039 8.5 3.40039 10H5.00039V9H8.40039C8.00039 8.1 7.10039 7.5 6.00039 7.5Z" fill="white"/>
<path d="M7.5 5.7998C7.5 4.9998 6.8 4.2998 6 4.2998C5.2 4.2998 4.5 4.9998 4.5 5.7998C4.5 6.5998 5.2 7.2998 6 7.2998C6.8 7.2998 7.5 6.5998 7.5 5.7998Z" fill="white"/>
</svg>
