<?xml version="1.0" encoding="utf-8"?>
<svg width="16" height="16" viewBox="0 0 16 16" fill="none" xmlns="http://www.w3.org/2000/svg">
  <path opacity="0.3" d="M 8.907 5.999 L 6.707 5.499 C 6.607 5.599 6.507 5.799 6.407 5.899 L 7.807 7.299 L 7.207 7.799 L 5.707 6.299 C 5.607 6.399 5.407 6.499 5.307 6.499 L 5.907 8.899 L 5.207 9.199 L 4.607 6.799 C 4.007 6.999 3.307 6.899 3.007 6.499 C 2.707 6.099 2.507 5.499 2.707 4.899 L 0.307 4.299 L 0.607 3.599 L 3.007 4.199 C 3.107 4.099 3.207 3.899 3.207 3.799 L 1.707 2.299 L 2.207 1.799 L 3.607 3.199 C 3.707 3.099 3.907 2.999 4.007 2.899 L 3.407 0.599 L 4.107 0.299 L 4.607 2.399 C 5.507 1.999 6.407 1.999 6.907 2.499 C 7.407 2.999 7.407 3.899 7.007 4.799 L 9.107 5.299 L 8.907 5.999 Z" fill="white"/>
  <path opacity="0.45" d="M 14.94 6.491 L 12.617 5.975 C 12.511 6.078 12.406 6.285 12.3 6.388 L 13.779 7.831 L 13.145 8.346 L 11.561 6.8 C 11.455 6.903 11.244 7.006 11.139 7.006 L 11.772 9.48 L 11.033 9.789 L 10.399 7.315 C 9.766 7.521 9.026 7.418 8.709 7.006 C 8.393 6.594 8.181 5.975 8.393 5.357 L 5.858 4.738 L 6.175 4.017 L 8.709 4.635 C 8.815 4.532 8.921 4.326 8.921 4.223 L 7.337 2.677 L 7.865 2.161 L 9.343 3.604 C 9.449 3.501 9.66 3.398 9.766 3.295 L 9.132 0.924 L 9.871 0.615 L 10.399 2.78 C 11.35 2.367 12.3 2.367 12.828 2.883 C 13.356 3.398 13.356 4.326 12.934 5.254 L 15.152 5.769 L 14.94 6.491 Z" fill="white" style=""/>
  <path opacity="0.6" d="M 9.492 12.047 L 7.173 11.525 C 7.067 11.63 6.962 11.838 6.857 11.943 L 8.332 13.403 L 7.7 13.925 L 6.119 12.36 C 6.013 12.464 5.803 12.569 5.697 12.569 L 6.33 15.072 L 5.592 15.385 L 4.959 12.881 C 4.327 13.09 3.589 12.986 3.273 12.569 C 2.957 12.151 2.746 11.525 2.957 10.899 L 0.427 10.274 L 0.743 9.543 L 3.273 10.169 C 3.378 10.065 3.484 9.856 3.484 9.752 L 1.903 8.187 L 2.43 7.666 L 3.905 9.126 C 4.011 9.022 4.221 8.917 4.327 8.813 L 3.694 6.414 L 4.432 6.101 L 4.959 8.292 C 5.908 7.874 6.857 7.874 7.384 8.396 C 7.911 8.917 7.911 9.856 7.489 10.795 L 9.702 11.317 L 9.492 12.047 Z" fill="white" style=""/>
  <path opacity="0.75" d="M 15.037 11.688 L 12.572 11.116 C 12.46 11.23 12.348 11.459 12.236 11.573 L 13.805 13.175 L 13.133 13.747 L 11.452 12.031 C 11.34 12.145 11.116 12.26 11.004 12.26 L 11.676 15.005 L 10.892 15.348 L 10.219 12.603 C 9.547 12.832 8.763 12.717 8.426 12.26 C 8.09 11.802 7.866 11.116 8.09 10.43 L 5.401 9.743 L 5.737 8.943 L 8.426 9.629 C 8.538 9.515 8.651 9.286 8.651 9.171 L 6.97 7.456 L 7.53 6.884 L 9.099 8.485 C 9.211 8.371 9.435 8.256 9.547 8.142 L 8.875 5.511 L 9.659 5.168 L 10.219 7.57 C 11.228 7.112 12.236 7.112 12.796 7.684 C 13.357 8.256 13.357 9.286 12.908 10.315 L 15.262 10.887 L 15.037 11.688 Z" fill="white" style=""/>
</svg>