<svg width="64" height="64" viewBox="0 0 64 64" fill="none" xmlns="http://www.w3.org/2000/svg">
<path d="M26.0505 51H59.6905V49.69C59.6265 48.6201 59.1539 47.6157 58.3704 46.8843C57.5869 46.1529 56.5523 45.7504 55.4805 45.76H46.8105C46.0388 45.76 45.2986 45.4534 44.7529 44.9077C44.2071 44.362 43.9006 43.6218 43.9006 42.85L44 38C42.5 36.5 42 36 40.5 34L28.5705 34.09C27.6523 34.091 26.7474 34.31 25.9303 34.7289C25.1132 35.1479 24.4073 35.7549 23.8705 36.5C22.0405 39.05 19.9905 44.8 19.9905 44.8L7.06055 56.71C7.06055 56.71 7.06055 56.89 8.50055 58.32C9.18457 59.0009 10.1104 59.3831 11.0755 59.3831C12.0407 59.3831 12.9665 59.0009 13.6505 58.32L18.6505 53.81C20.6891 51.9974 23.3227 50.9973 26.0505 51Z" fill="url(#paint0_linear_11788_9997)"/>
<path d="M26.0505 51H59.6905V49.69C59.6265 48.6201 59.1539 47.6157 58.3704 46.8843C57.5869 46.1529 56.5523 45.7504 55.4805 45.76H46.8105C46.0388 45.76 45.2986 45.4534 44.7529 44.9077C44.2071 44.362 43.9006 43.6218 43.9006 42.85L44 38C42.5 36.5 42 36 40.5 34L28.5705 34.09C27.6523 34.091 26.7474 34.31 25.9303 34.7289C25.1132 35.1479 24.4073 35.7549 23.8705 36.5C22.0405 39.05 19.9905 44.8 19.9905 44.8L7.06055 56.71C7.06055 56.71 7.06055 56.89 8.50055 58.32C9.18457 59.0009 10.1104 59.3831 11.0755 59.3831C12.0407 59.3831 12.9665 59.0009 13.6505 58.32L18.6505 53.81C20.6891 51.9974 23.3227 50.9973 26.0505 51Z" fill="url(#paint1_radial_11788_9997)" fill-opacity="0.4"/>
<path fill-rule="evenodd" clip-rule="evenodd" d="M54.5904 19.48C54.003 19.1795 53.4692 18.7842 53.0104 18.31L39.1004 4.4C38.4804 3.78 37.1004 4.23001 36.3704 5.19001C35.9326 5.67363 35.6902 6.30266 35.6902 6.955C35.6902 7.60733 35.9326 8.23639 36.3704 8.72001L44.1704 16.52C44.4309 16.7771 44.6325 17.0878 44.7613 17.4304C44.8901 17.773 44.9431 18.1395 44.9164 18.5046C44.8898 18.8697 44.7843 19.2246 44.6072 19.545C44.43 19.8653 44.1855 20.1434 43.8904 20.36V20.36C43.397 20.7165 42.7939 20.8879 42.1867 20.844C41.5796 20.8001 41.0074 20.5438 40.5704 20.12L28.3604 8.00001C27.7404 7.38001 26.3604 7.83002 25.6304 8.79002C25.1926 9.27363 24.9502 9.90267 24.9502 10.555C24.9502 11.2073 25.1926 11.8364 25.6304 12.32L37.9204 24.61C38.4125 25.1111 38.7898 25.7131 39.0263 26.3744C39.2629 27.0357 39.353 27.7405 39.2904 28.44C39.1946 29.8331 39.3817 31.2311 39.8404 32.55C40.5361 34.603 41.8293 36.4014 43.554 37.7145C45.2787 39.0276 47.3563 39.7956 49.5204 39.92C51.997 40.032 54.4359 39.283 56.4227 37.8003C58.4095 36.3175 59.8216 34.1926 60.419 31.7866C61.0164 29.3805 60.7622 26.8419 59.6996 24.602C58.6371 22.3622 56.8317 20.5594 54.5904 19.5V19.48Z" fill="url(#paint2_linear_11788_9997)"/>
<path d="M49.989 39.75C52.0666 39.7522 54.0982 39.1379 55.8266 37.985C57.555 36.8321 58.9025 35.1923 59.6986 33.2733C60.4947 31.3542 60.7036 29.2421 60.2988 27.2043C59.894 25.1664 58.8937 23.2945 57.4246 21.8254C55.9555 20.3563 54.0836 19.356 52.0458 18.9512C50.0079 18.5464 47.8958 18.7553 45.9767 19.5514C44.0577 20.3474 42.4179 21.695 41.265 23.4234C40.1121 25.1518 39.4978 27.1834 39.5 29.261C39.5029 32.042 40.6089 34.7082 42.5754 36.6746C44.5418 38.6411 47.208 39.7471 49.989 39.75V39.75Z" fill="url(#paint3_radial_11788_9997)" fill-opacity="0.8"/>
<path opacity="0.35" d="M20 34.5L16.5 42.5L5 53.5" stroke="white" stroke-width="2" stroke-miterlimit="10" stroke-linecap="round"/>
<path opacity="0.2" d="M15.5 34L12.5 40.5L2.5 50" stroke="white" stroke-width="2" stroke-miterlimit="10" stroke-linecap="round"/>
<defs>
<linearGradient id="paint0_linear_11788_9997" x1="33.3705" y1="34.12" x2="33.3705" y2="59.38" gradientUnits="userSpaceOnUse">
<stop stop-color="#737373"/>
<stop offset="0.1" stop-color="#C9C9C9"/>
<stop offset="0.48" stop-color="#808080"/>
<stop offset="1" stop-color="#BABABA"/>
</linearGradient>
<radialGradient id="paint1_radial_11788_9997" cx="0" cy="0" r="1" gradientUnits="userSpaceOnUse" gradientTransform="translate(41.5 37) rotate(135) scale(4.94975 10.2629)">
<stop/>
<stop offset="1" stop-opacity="0"/>
</radialGradient>
<linearGradient id="paint2_linear_11788_9997" x1="34.975" y1="28.6748" x2="50.0973" y2="13.5622" gradientUnits="userSpaceOnUse">
<stop stop-color="white"/>
<stop offset="0.11" stop-color="#E1E1E1"/>
<stop offset="0.31" stop-color="#B3B3B3"/>
<stop offset="0.46" stop-color="#979797"/>
<stop offset="0.55" stop-color="#8C8C8C"/>
<stop offset="1" stop-color="#6B6B6B"/>
</linearGradient>
<radialGradient id="paint3_radial_11788_9997" cx="0" cy="0" r="1" gradientUnits="userSpaceOnUse" gradientTransform="translate(44.8989 24.8908) scale(14.93)">
<stop stop-color="white"/>
<stop offset="0.24" stop-color="#CCCCCC"/>
<stop offset="0.61" stop-color="#838383" stop-opacity="0.5"/>
<stop offset="0.84" stop-color="#666666" stop-opacity="0.2"/>
<stop offset="1" stop-color="#737373" stop-opacity="0"/>
</radialGradient>
</defs>
</svg>
