<svg width="16" height="16" viewBox="0 0 16 16" fill="none" xmlns="http://www.w3.org/2000/svg">
<rect opacity="0.5" x="7.5" y="8" width="4" height="5" fill="white"/>
<path d="M5.27655 13.299H16C15.9901 12.9584 15.872 12.6339 15.668 12.3871C15.4641 12.1403 15.1885 11.9886 14.8938 11.9606H12.5266C12.259 11.8842 12.0146 11.7251 11.8197 11.5005C11.6248 11.2758 11.4867 10.9942 11.4204 10.6859C10.8179 10.6383 10.2507 10.341 9.82372 9.84889C9.3967 9.35683 9.13868 8.7033 9.09734 8.00905H6.32743C6.08032 7.97984 5.83078 8.02159 5.60108 8.13058C5.37138 8.23957 5.16868 8.41239 5.01106 8.63364C4.49115 9.46219 3.99337 10.8899 3.62832 11.3105L0 15.1346C0 15.1346 3.06964e-06 15.1983 0.409295 15.6572C0.600102 15.8767 0.8587 16 1.12832 16C1.39794 16 1.65654 15.8767 1.84735 15.6572L3.24115 14.204C3.80191 13.6279 4.52528 13.3063 5.27655 13.299Z" fill="white"/>
<path d="M14.2953 4.28225C14.1326 4.19849 13.9836 4.09059 13.8533 3.96225L9.96321 0.0672413C9.78639 -0.0982691 9.3996 0.0672211 9.20068 0.287902C9.07558 0.420886 9.00594 0.59648 9.00594 0.778924C9.00594 0.961368 9.07558 1.13696 9.20068 1.26995L11.4109 3.47675C11.4895 3.54853 11.5508 3.63711 11.5904 3.73587C11.6299 3.83463 11.6465 3.94102 11.6391 4.04711C11.6316 4.15319 11.6003 4.25622 11.5474 4.34852C11.4945 4.44082 11.4214 4.52 11.3336 4.58015V4.58015C11.197 4.68312 11.0277 4.73315 10.857 4.72097C10.6863 4.7088 10.5258 4.63525 10.4053 4.51395L6.95727 1.0934C6.78045 0.916853 6.39366 1.09341 6.19474 1.31409C6.06964 1.44708 6 1.62264 6 1.80508C6 1.98752 6.06964 2.16312 6.19474 2.2961L9.63168 5.73871C9.77378 5.88269 9.88217 6.05632 9.94904 6.24711C10.0159 6.4379 10.0396 6.64109 10.0185 6.84212C9.99232 7.2158 10.0412 7.59093 10.1621 7.94552C10.3605 8.51813 10.7249 9.01895 11.2089 9.38437C11.693 9.7498 12.2749 9.96334 12.8807 9.99786C13.5712 10.0239 14.2496 9.81157 14.8017 9.3967C15.3538 8.98182 15.7458 8.38969 15.9119 7.72001C16.078 7.05033 16.0079 6.34399 15.7134 5.71986C15.419 5.09572 14.9182 4.59191 14.2953 4.29326V4.28225Z" fill="white"/>
</svg>
