<svg width="16" height="16" viewBox="0 0 16 16" fill="none" xmlns="http://www.w3.org/2000/svg">
<path opacity="0.5" d="M11 5H8V8H11V5Z" fill="white"/>
<path opacity="0.5" d="M15 1H12V4H15V1Z" fill="white"/>
<path opacity="0.5" d="M11 1H8V4H11V1Z" fill="white"/>
<path opacity="0.5" d="M7 1H4V4H7V1Z" fill="white"/>
<path opacity="0.5" d="M7 5H4V8H7V5Z" fill="white"/>
<path opacity="0.5" d="M15 5H12V8H15V5Z" fill="white"/>
<path d="M5.50001 10.5C5.89557 10.5 6.28225 10.6173 6.61115 10.8371C6.94005 11.0568 7.19639 11.3692 7.34777 11.7346C7.49915 12.1001 7.53874 12.5022 7.46157 12.8902C7.3844 13.2781 7.19393 13.6345 6.91422 13.9142C6.63452 14.1939 6.27815 14.3844 5.89019 14.4616C5.50223 14.5387 5.10009 14.4991 4.73464 14.3477C4.36919 14.1964 4.05684 13.94 3.83707 13.6111C3.61731 13.2822 3.50001 12.8956 3.50001 12.5C3.50001 11.9696 3.71072 11.4609 4.08579 11.0858C4.46086 10.7107 4.96957 10.5 5.50001 10.5ZM5.50001 9C4.80777 9 4.13109 9.20526 3.55552 9.58984C2.97995 9.97443 2.53133 10.5211 2.26643 11.1606C2.00152 11.8002 1.9322 12.5039 2.06725 13.1828C2.2023 13.8618 2.53565 14.4854 3.02514 14.9749C3.51462 15.4644 4.13826 15.7977 4.81719 15.9327C5.49612 16.0678 6.19985 15.9985 6.83939 15.7336C7.47893 15.4687 8.02556 15.0201 8.41015 14.4445C8.79473 13.8689 9.00001 13.1922 9.00001 12.5C9.00001 11.5717 8.63125 10.6815 7.97488 10.0251C7.3185 9.36874 6.42826 9 5.50001 9V9Z" fill="white"/>
</svg>
