<svg width="16" height="16" viewBox="0 0 16 16" fill="none" xmlns="http://www.w3.org/2000/svg">
<path opacity="0.5" d="M11 5H8V8H11V5Z" fill="white"/>
<path opacity="0.5" d="M15 1H12V4H15V1Z" fill="white"/>
<path opacity="0.5" d="M11 1H8V4H11V1Z" fill="white"/>
<path opacity="0.5" d="M7 1H4V4H7V1Z" fill="white"/>
<path opacity="0.5" d="M7 5H4V8H7V5Z" fill="white"/>
<path opacity="0.5" d="M15 5H12V8H15V5Z" fill="white"/>
<path d="M7 10H5V15H7V10Z" fill="white"/>
<path d="M3 10H1V15H3V10Z" fill="white"/>
<path d="M15 10H13V15H15V10Z" fill="white"/>
<path d="M11 10H9V15H11V10Z" fill="white"/>
</svg>
