<?xml version="1.0" encoding="UTF-8" standalone="no"?>
<svg
   xmlns:dc="http://purl.org/dc/elements/1.1/"
   xmlns:cc="http://creativecommons.org/ns#"
   xmlns:rdf="http://www.w3.org/1999/02/22-rdf-syntax-ns#"
   xmlns:svg="http://www.w3.org/2000/svg"
   xmlns="http://www.w3.org/2000/svg"
   xmlns:sodipodi="http://sodipodi.sourceforge.net/DTD/sodipodi-0.dtd"
   xmlns:inkscape="http://www.inkscape.org/namespaces/inkscape"
   version="1.1"
   id="Layer_1"
   x="0px"
   y="0px"
   viewBox="0 0 16 12"
   xml:space="preserve"
   sodipodi:docname="Resource_Pin_Disconnected.svg"
   width="16"
   height="12"
   inkscape:version="1.0 (4035a4fb49, 2020-05-01)"><metadata
   id="metadata11"><rdf:RDF><cc:Work
       rdf:about=""><dc:format>image/svg+xml</dc:format><dc:type
         rdf:resource="http://purl.org/dc/dcmitype/StillImage" /><dc:title></dc:title></cc:Work></rdf:RDF></metadata><defs
   id="defs9">
	
</defs><sodipodi:namedview
   inkscape:document-rotation="0"
   pagecolor="#ffffff"
   bordercolor="#666666"
   borderopacity="1"
   objecttolerance="10"
   gridtolerance="10"
   guidetolerance="10"
   inkscape:pageopacity="0"
   inkscape:pageshadow="2"
   inkscape:window-width="2653"
   inkscape:window-height="1608"
   id="namedview7"
   showgrid="true"
   fit-margin-top="0"
   fit-margin-left="0"
   fit-margin-right="0"
   fit-margin-bottom="0"
   inkscape:pagecheckerboard="true"
   inkscape:zoom="57.833333"
   inkscape:cx="2.0990275"
   inkscape:cy="4.0994797"
   inkscape:window-x="1014"
   inkscape:window-y="167"
   inkscape:window-maximized="0"
   inkscape:current-layer="Layer_1"><inkscape:grid
     type="xygrid"
     id="grid13" /></sodipodi:namedview>
<style
   type="text/css"
   id="style2">
	.st0{fill:#333333;}
</style>

<path
   d="M 5.2890625 0 L 4.7519531 1.6640625 L 3.7910156 2.0527344 L 2.21875 1.2949219 L 1.2578125 2.2558594 L 2.0332031 3.8085938 L 1.6464844 4.7519531 L 0 5.34375 L 0 6.7109375 L 1.6640625 7.265625 L 2.0527344 8.2089844 L 1.2949219 9.78125 L 2.2558594 10.742188 L 3.8085938 9.9667969 L 4.7519531 10.353516 L 5.34375 12 L 6.7109375 12 L 7.2480469 10.335938 L 8.2089844 9.9472656 L 9.78125 10.705078 L 10.742188 9.7441406 L 9.9472656 8.1914062 L 10.353516 7.2480469 L 12 6.65625 L 12 5.2890625 L 10.335938 4.734375 L 9.9472656 3.7910156 L 10.705078 2.21875 L 9.7441406 1.2578125 L 8.1914062 2.0332031 L 7.2480469 1.6464844 L 6.65625 0 L 5.2890625 0 z M 5.9902344 3 C 7.6461483 3 8.9804688 4.3323674 8.9804688 5.9882812 C 8.9804688 7.6441953 7.6461483 9 5.9902344 9 C 4.3343205 9 3.0019531 7.6676329 3.0019531 6.0117188 C 3.0019531 4.3558049 4.3343205 3 5.9902344 3 z "
   style="fill:#ffffff;stroke:none;stroke-width:0.1849"
   id="XMLID_5_" /><path
   style="opacity:0.4;fill:#000000;stroke:none;stroke-width:0.215054"
   d="M 6,9 C 4.3440861,9 3.010753,7.6666668 3.010753,6.0107527 3.010753,4.3548388 4.3440861,3.0000002 6,3.0000002 c 1.6559139,0 2.9892472,1.3333333 2.9892472,2.9892472 C 8.9892472,7.6451614 7.6559139,9 6,9 Z"
   class="st0"
   id="XMLID_5_-0-3"
   sodipodi:nodetypes="sssss" /><path
   style="fill:#ffffff;stroke:none;stroke-width:1.5px;stroke-linecap:butt;stroke-linejoin:miter;stroke-opacity:1"
   d="m 12.5,3 3,3 -3,3 z"
   id="path10" /></svg>
