<?xml version="1.0" encoding="UTF-8" standalone="no"?>
<svg
   xmlns:dc="http://purl.org/dc/elements/1.1/"
   xmlns:cc="http://creativecommons.org/ns#"
   xmlns:rdf="http://www.w3.org/1999/02/22-rdf-syntax-ns#"
   xmlns:svg="http://www.w3.org/2000/svg"
   xmlns="http://www.w3.org/2000/svg"
   xmlns:sodipodi="http://sodipodi.sourceforge.net/DTD/sodipodi-0.dtd"
   xmlns:inkscape="http://www.inkscape.org/namespaces/inkscape"
   inkscape:version="1.0 (4035a4fb49, 2020-05-01)"
   height="12"
   width="16"
   sodipodi:docname="Value_Pin_Disconnected.svg"
   xml:space="preserve"
   viewBox="0 0 16 12"
   y="0px"
   x="0px"
   id="Layer_1"
   version="1.1"><metadata
   id="metadata11"><rdf:RDF><cc:Work
       rdf:about=""><dc:format>image/svg+xml</dc:format><dc:type
         rdf:resource="http://purl.org/dc/dcmitype/StillImage" /><dc:title /></cc:Work></rdf:RDF></metadata><defs
   id="defs9">
	
</defs><sodipodi:namedview
   inkscape:current-layer="Layer_1"
   inkscape:window-maximized="0"
   inkscape:window-y="135"
   inkscape:window-x="744"
   inkscape:cy="4.0994797"
   inkscape:cx="2.0990275"
   inkscape:zoom="57.833333"
   inkscape:pagecheckerboard="true"
   fit-margin-bottom="0"
   fit-margin-right="0"
   fit-margin-left="0"
   fit-margin-top="0"
   showgrid="true"
   id="namedview7"
   inkscape:window-height="1608"
   inkscape:window-width="2653"
   inkscape:pageshadow="2"
   inkscape:pageopacity="0"
   guidetolerance="10"
   gridtolerance="10"
   objecttolerance="10"
   borderopacity="1"
   bordercolor="#666666"
   pagecolor="#ffffff"
   inkscape:document-rotation="0"><inkscape:grid
     id="grid13"
     type="xygrid" /></sodipodi:namedview>
<style
   id="style2"
   type="text/css">
	.st0{fill:#333333;}
</style>

<path
   id="path10"
   d="m 12.5,3 3,3 -3,3 z"
   style="fill:#ffffff;stroke:none;stroke-width:1.5px;stroke-linecap:butt;stroke-linejoin:miter;stroke-opacity:1" /><path
   d="M 6.0292969 0.99023438 A 5.009768 5.009768 0 0 0 1.0195312 6 A 5.009768 5.009768 0 0 0 6.0292969 11.009766 A 5.009768 5.009768 0 0 0 11.039062 6 A 5.009768 5.009768 0 0 0 6.0292969 0.99023438 z M 6 3 C 7.6559139 3 8.9882813 4.3323674 8.9882812 5.9882812 C 8.9882812 7.6441953 7.6559139 9 6 9 C 4.3440861 9 3.0117187 7.6676329 3.0117188 6.0117188 C 3.0117188 4.3558048 4.3440861 3 6 3 z "
   style="fill:#ffffff;stroke:none;stroke-width:1.12505"
   id="path19" /><path
   sodipodi:nodetypes="sssss"
   id="XMLID_5_-0-3"
   class="st0"
   d="M 6,9 C 4.3440861,9 3.010753,7.6666668 3.010753,6.0107527 3.010753,4.3548388 4.3440861,3.0000002 6,3.0000002 c 1.6559139,0 2.9892472,1.3333333 2.9892472,2.9892472 C 8.9892472,7.6451614 7.6559139,9 6,9 Z"
   style="opacity:0.4;fill:#000000;stroke:none;stroke-width:0.215054" /></svg>
