<svg width="17" height="16" viewBox="0 0 17 16" fill="none" xmlns="http://www.w3.org/2000/svg">
<path opacity="0.5" fill-rule="evenodd" clip-rule="evenodd" d="M11.5703 4.68018C11.5859 4.51053 11.5859 4.33984 11.5703 4.1702C11.5721 3.49933 11.3581 2.84564 10.9602 2.30551C10.5623 1.76538 10.0016 1.36738 9.36035 1.1702C9.56143 0.944436 9.8078 0.763621 10.0835 0.639557C10.3592 0.515493 10.6579 0.450968 10.9602 0.450195C11.5313 0.452839 12.0783 0.681572 12.4812 1.08636C12.8841 1.49116 13.1104 2.03903 13.1104 2.61017C13.1138 3.07576 12.9652 3.52979 12.6873 3.90335C12.4093 4.27692 12.0172 4.54964 11.5703 4.68018V4.68018ZM14.4802 7.00018C14.1737 6.464 13.7394 6.01184 13.2161 5.68387C12.6927 5.3559 12.0964 5.16226 11.4802 5.12018C11.3709 5.4538 11.2088 5.76777 11.0002 6.05017C11.4882 6.28924 11.9314 6.61062 12.3103 7.00018H14.4802Z" fill="white"/>
<path opacity="0.5" d="M11.0005 9.99997H10.0005C9.52948 9.15453 8.81042 8.47391 7.94043 8.04996C8.14903 7.76755 8.31106 7.45359 8.42041 7.11996C9.38724 7.18866 10.2934 7.61676 10.9604 8.31998L11.0005 9.99997ZM10.1504 4.61996C10.1504 4.04883 9.9244 3.50092 9.52148 3.09613C9.11857 2.69134 8.57162 2.46261 8.00049 2.45996C7.69816 2.46073 7.39948 2.52526 7.12378 2.64932C6.84808 2.77339 6.60147 2.9542 6.40039 3.17996C7.04163 3.37715 7.60259 3.77514 8.00049 4.31528C8.39839 4.85541 8.61237 5.5091 8.6106 6.17996C8.62622 6.3496 8.62622 6.52033 8.6106 6.68997C9.05753 6.55944 9.44962 6.28671 9.72754 5.91315C10.0055 5.53958 10.1538 5.08556 10.1504 4.61996Z" fill="white"/>
<path fill-rule="evenodd" clip-rule="evenodd" d="M5.00011 4.45996C5.57125 4.46261 6.11819 4.69134 6.52111 5.09613C6.92403 5.50092 7.15002 6.04883 7.15002 6.61996C7.15002 7.19018 6.92358 7.73706 6.52038 8.14026C6.11717 8.54346 5.57033 8.76996 5.00011 8.76996C4.4299 8.76996 3.88305 8.54346 3.47985 8.14026C3.07665 7.73706 2.85021 7.19018 2.85021 6.61996C2.85021 6.04883 3.0762 5.50092 3.47912 5.09613C3.88204 4.69134 4.42898 4.46261 5.00011 4.45996V4.45996ZM5.00011 9.07996C4.46763 9.05267 3.93527 9.13746 3.43761 9.32883C2.93995 9.52019 2.48797 9.81387 2.11095 10.1909C1.73393 10.5679 1.44026 11.0199 1.24889 11.5175C1.05753 12.0152 0.972826 12.5475 1.00011 13.08V14H8.00011V10.33C7.61538 9.92326 7.14946 9.60189 6.63268 9.38657C6.11591 9.17124 5.5598 9.06677 5.00011 9.07996V9.07996Z" fill="white"/>
<path d="M17 13H14V16H12V13H9V11H12V8H14V11H17V13Z" fill="#8BC24A"/>
</svg>
