<?xml version="1.0" encoding="UTF-8"?>
<svg width="24px" height="24px" viewBox="0 0 24 24" version="1.1" xmlns="http://www.w3.org/2000/svg" xmlns:xlink="http://www.w3.org/1999/xlink">
    <title>CreateMulitUser_24</title>
    <g id="Page-1" stroke="none" stroke-width="1" fill="none" fill-rule="evenodd">
        <g id="FixFigma" transform="translate(-356.000000, -504.000000)">
            <g id="CreateMulitUser_24" transform="translate(356.000000, 504.000000)">
                <path d="M15.8579359,6.3449775 C15.8813288,6.0905025 15.8813288,5.8344675 15.8579359,5.5800075 C15.8606351,4.5737025 15.5397331,3.5931675 14.9430653,2.7829725 C14.3463975,1.9727775 13.5056042,1.3757775 12.5440228,1.0800075 C12.8455507,0.7413615 13.2149929,0.470139 13.6284167,0.284043 C14.0418404,0.097947 14.4897537,0.0011595 14.9430653,0 C15.7994538,0.003966 16.6197034,0.3470655 17.2238689,0.9542475 C17.8280344,1.5614475 18.1673808,2.3832525 18.1673808,3.2399625 C18.1724793,3.9383475 17.9496473,4.6193925 17.5329245,5.1797325 C17.1160518,5.7400875 16.5280813,6.1491675 15.8579359,6.3449775 L15.8579359,6.3449775 Z M20.2214537,9.8249775 C19.761844,9.0207075 19.1105928,8.3424675 18.3258824,7.8505125 C17.5410221,7.3585575 16.6468451,7.0680975 15.7228272,7.0049775 C15.5589272,7.5054075 15.3158515,7.9763625 15.003047,8.3999625 C15.7348235,8.7585675 16.3994206,9.2406375 16.9675971,9.8249775 L20.2214537,9.8249775 Z" id="Shape" fill="#FFFFFF" opacity="0.5"></path>
                <path d="M15.0034968,14.3246625 L13.5039547,14.3246625 C12.7976403,13.0565025 11.7193795,12.0355725 10.4147929,11.3996475 C10.7275974,10.9760325 10.9705682,10.5050925 11.1345431,10.0046475 C12.5843454,10.1076975 13.9431706,10.7498475 14.9433652,11.8046775 L15.0034968,14.3246625 Z M13.728736,6.2546475 C13.728736,5.3979525 13.3898395,4.5760875 12.785644,3.9689025 C12.1814635,3.3617175 11.3612889,3.0186225 10.5048554,3.0146475 C10.0514988,3.0158025 9.60361553,3.1125975 9.19019176,3.2986875 C8.77676798,3.4847925 8.40696589,3.7560075 8.10543796,4.0946475 C9.06700437,4.3904325 9.90818754,4.9874175 10.5048554,5.7976275 C11.1015232,6.6078225 11.4223952,7.5883575 11.419741,8.5946475 C11.4431639,8.8491075 11.4431639,9.1052025 11.419741,9.3596625 C12.0899314,9.1638675 12.6778869,8.7547725 13.0946396,8.1944325 C13.5114524,7.6340775 13.7338345,6.9530475 13.728736,6.2546475 Z" id="Shape" fill="#FFFFFF" fill-rule="nonzero" opacity="0.5"></path>
                <path d="M6.00565906,6.0146475 C6.86210757,6.0186225 7.68226716,6.3617175 8.28646268,6.9689025 C8.89065821,7.5760875 9.22953974,8.3979525 9.22953974,9.2546475 C9.22953974,10.1099775 8.88998342,10.9302975 8.28536802,11.5350975 C7.68073763,12.1398975 6.86072799,12.4796475 6.00565906,12.4796475 C5.15060513,12.4796475 4.3305805,12.1398975 3.7259651,11.5350975 C3.12134971,10.9302975 2.78179338,10.1099775 2.78179338,9.2546475 C2.78179338,8.3979525 3.12067491,7.5760875 3.72487044,6.9689025 C4.32906596,6.3617175 5.14922555,6.0186225 6.00565906,6.0146475 L6.00565906,6.0146475 Z M6.00565906,12.9446475 C5.20718286,12.9037125 4.40888659,13.0308975 3.66262444,13.3179525 C2.91636229,13.6049925 2.23859923,14.0455125 1.67324184,14.6110575 C1.10788446,15.1765575 0.667513915,15.8545575 0.380546533,16.6009575 C0.0935941454,17.3475075 -0.0334230735,18.1459575 0.00749043471,18.9447075 L0.00749043471,20.3247075 L10.5042855,20.3247075 L10.5042855,14.8197075 C9.92736668,14.2095975 9.2287,13.7275425 8.4537666,13.4045625 C7.6788482,13.0815675 6.84493781,12.9248625 6.00565906,12.9446475 L6.00565906,12.9446475 Z" id="Shape" fill="#FFFFFF"></path>
                <polygon id="Path" fill="#8BC24A" fill-rule="nonzero" points="24 19.5 19.5013735 19.5 19.5013735 24 16.5022892 24 16.5022892 19.5 12.0036627 19.5 12.0036627 16.5 16.5022892 16.5 16.5022892 12 19.5013735 12 19.5013735 16.5 24 16.5"></polygon>
            </g>
        </g>
    </g>
</svg>