<svg width="16" height="16" viewBox="0 0 16 16" fill="none" xmlns="http://www.w3.org/2000/svg">
<path d="M15.5003 8.00018C15.5021 8.98518 15.3085 9.96078 14.9309 10.8705C14.5533 11.7802 13.9992 12.606 13.3003 13.3002L12.5303 12.5302C13.1266 11.9361 13.5995 11.2301 13.9221 10.4527C14.2448 9.67533 14.4106 8.84187 14.4102 8.00018C14.4106 7.1585 14.2448 6.32503 13.9221 5.54764C13.5995 4.77024 13.1266 4.06424 12.5303 3.47018L13.3003 2.7002C13.9992 3.39432 14.5533 4.22012 14.9309 5.12985C15.3085 6.03959 15.5021 7.01519 15.5003 8.00018V8.00018ZM3.50026 3.47018L2.73024 2.7002C2.03137 3.39432 1.477 4.22012 1.09938 5.12985C0.721753 6.03959 0.528415 7.01519 0.530287 8.00018C0.528415 8.98518 0.721753 9.96078 1.09938 10.8705C1.477 11.7802 2.03137 12.606 2.73024 13.3002L3.50026 12.5302C2.90399 11.9361 2.43104 11.2301 2.10841 10.4527C1.78578 9.67533 1.61995 8.84187 1.62037 8.00018C1.61601 7.16059 1.77706 6.32837 2.0945 5.55109C2.41193 4.7738 2.87938 4.0667 3.47023 3.47018H3.50026ZM4.75026 11.2802L5.52028 10.5102C4.87006 9.83744 4.51083 8.93575 4.52028 8.00018C4.51083 7.06462 4.87006 6.16293 5.52028 5.49017L4.75026 4.72018C4.31889 5.15052 3.9768 5.66179 3.74342 6.22464C3.51004 6.78749 3.38986 7.39086 3.39015 8.00018C3.3816 9.22651 3.86 10.4061 4.72023 11.2802H4.75026ZM11.3103 4.72018L10.5403 5.49017C11.1905 6.16293 11.5497 7.06462 11.5403 8.00018C11.5497 8.93575 11.1905 9.83744 10.5403 10.5102L11.3103 11.2802C11.7417 10.8498 12.0838 10.3386 12.3172 9.77573C12.5505 9.21287 12.6705 8.6095 12.6702 8.00018C12.6665 7.38876 12.5418 6.78413 12.3032 6.22116C12.0647 5.65819 11.7171 5.14804 11.2803 4.72018H11.3103Z" fill="white"/>
<path d="M8 9.75C8.9665 9.75 9.75 8.9665 9.75 8C9.75 7.0335 8.9665 6.25 8 6.25C7.0335 6.25 6.25 7.0335 6.25 8C6.25 8.9665 7.0335 9.75 8 9.75Z" fill="white"/>
</svg>
