<?xml version="1.0" encoding="UTF-8"?>
<svg width="24px" height="24px" viewBox="0 0 24 24" version="1.1" xmlns="http://www.w3.org/2000/svg" xmlns:xlink="http://www.w3.org/1999/xlink">
    <title>CloseServer_24</title>
    <g id="Page-1" stroke="none" stroke-width="1" fill="none" fill-rule="evenodd">
        <g id="FixFigma" transform="translate(-327.000000, -461.000000)">
            <g id="CloseServer_24" transform="translate(327.000000, 461.000000)">
                <path d="M11.25,14 L11.25,15.312 L2.625,15.3125 L2.625,17.9375 L11.25,17.937 L11.25,19.25 L0,19.25 L0,14 L11.25,14 Z M21,7 L21,12.25 L0,12.25 L0,7 L21,7 Z M11.8125,8.3125 L2.625,8.3125 L2.625,10.9375 L11.8125,10.9375 L11.8125,8.3125 Z M18.9261188,8.3125 L17.8238812,8.3125 C17.6220187,8.3125 17.4282938,8.39269375 17.2854938,8.5354675 C17.142825,8.67822813 17.0625,8.87186125 17.0625,9.07375 L17.0625,9.07375 L17.0625,10.17625 C17.0625,10.3781387 17.142825,10.5717719 17.2854938,10.7145325 C17.4282938,10.8573063 17.6220187,10.9375 17.8238812,10.9375 L17.8238812,10.9375 L18.9261188,10.9375 C19.1279813,10.9375 19.3217062,10.8573063 19.4645062,10.7145325 C19.607175,10.5717719 19.6875,10.3781387 19.6875,10.17625 L19.6875,10.17625 L19.6875,9.07375 C19.6875,8.87186125 19.607175,8.67822813 19.4645062,8.5354675 C19.3217062,8.39269375 19.1279813,8.3125 18.9261188,8.3125 L18.9261188,8.3125 Z M21,0 L21,5.25 L0,5.25 L0,0 L21,0 Z M11.8125,1.3125 L2.625,1.3125 L2.625,3.9375 L11.8125,3.9375 L11.8125,1.3125 Z M18.9261188,1.3125 L17.8238812,1.3125 C17.6220187,1.3125 17.4282938,1.39269375 17.2854938,1.5354675 C17.142825,1.67822812 17.0625,1.87186125 17.0625,2.07375 L17.0625,2.07375 L17.0625,3.17625 C17.0625,3.37813875 17.142825,3.57177188 17.2854938,3.7145325 C17.4282938,3.85730625 17.6220187,3.9375 17.8238812,3.9375 L17.8238812,3.9375 L18.9261188,3.9375 C19.1279813,3.9375 19.3217062,3.85730625 19.4645062,3.7145325 C19.607175,3.57177188 19.6875,3.37813875 19.6875,3.17625 L19.6875,3.17625 L19.6875,2.07375 C19.6875,1.87186125 19.607175,1.67822812 19.4645062,1.5354675 C19.3217062,1.39269375 19.1279813,1.3125 18.9261188,1.3125 L18.9261188,1.3125 Z" id="Combined-Shape" fill="#FFFFFF" fill-rule="nonzero"></path>
                <polygon id="Path" fill="#FF4040" points="22.245 13.5 18.75 16.995 15.255 13.5 13.5 15.255 16.995 18.75 13.5 22.245 15.255 24 18.75 20.505 22.245 24 24 22.245 20.505 18.75 24 15.255"></polygon>
            </g>
        </g>
    </g>
</svg>