<svg width="17" height="16" viewBox="0 0 17 16" fill="none" xmlns="http://www.w3.org/2000/svg">
<path d="M3.47002 10H5.00002V9.05C4.98128 8.76369 5.02628 8.47679 5.13178 8.20997C5.23728 7.94315 5.40064 7.70305 5.61011 7.50697C5.81958 7.31089 6.06993 7.16372 6.34313 7.07605C6.61633 6.98839 6.90558 6.96241 7.19002 7H9.61002C10.2253 7.00065 10.8171 6.764 11.2623 6.33931C11.7075 5.91462 11.9717 5.33461 12 4.72V2.47C12 1.25 10.63 0 8.65002 0C5.62002 0 5.00002 1.56 5.00002 2.47V4H9.00002V5H3.75002C2.61002 5 1.00002 5.51 1.00002 7.35C0.964048 7.69151 1.00178 8.03676 1.11066 8.36243C1.21954 8.68811 1.39705 8.98663 1.63118 9.23783C1.86532 9.48903 2.15064 9.68705 2.46786 9.81854C2.78509 9.95003 3.12684 10.0119 3.47002 10ZM7.47002 3.5C7.27224 3.5 7.0789 3.44135 6.91445 3.33147C6.75001 3.22159 6.62183 3.06541 6.54615 2.88268C6.47046 2.69996 6.45065 2.49889 6.48924 2.30491C6.52782 2.11093 6.62307 1.93275 6.76292 1.79289C6.90277 1.65304 7.08095 1.5578 7.27493 1.51921C7.46892 1.48063 7.66998 1.50043 7.85271 1.57612C8.03543 1.65181 8.19161 1.77998 8.30149 1.94443C8.41138 2.10888 8.47002 2.30222 8.47002 2.5C8.47014 2.7601 8.36891 3.01001 8.18782 3.19671C8.00672 3.38341 7.76001 3.4922 7.50002 3.5H7.47002Z" fill="white"/>
<path d="M13 8C12.2089 8 11.4355 8.2346 10.7777 8.67412C10.1199 9.11365 9.60723 9.73836 9.30448 10.4693C9.00173 11.2002 8.92252 12.0044 9.07686 12.7804C9.2312 13.5563 9.61216 14.269 10.1716 14.8284C10.731 15.3878 11.4437 15.7688 12.2196 15.9231C12.9956 16.0775 13.7998 15.9983 14.5307 15.6955C15.2616 15.3928 15.8864 14.8801 16.3259 14.2223C16.7654 13.5645 17 12.7911 17 12C17 10.9391 16.5786 9.92172 15.8284 9.17157C15.0783 8.42143 14.0609 8 13 8ZM13 15.11C12.3849 15.11 11.7836 14.9276 11.2722 14.5859C10.7607 14.2441 10.3621 13.7584 10.1267 13.1901C9.89135 12.6219 9.82976 11.9966 9.94976 11.3933C10.0698 10.79 10.366 10.2358 10.8009 9.8009C11.2358 9.36596 11.79 9.06976 12.3933 8.94976C12.9966 8.82976 13.6219 8.89135 14.1901 9.12673C14.7584 9.36212 15.2441 9.76074 15.5859 10.2722C15.9276 10.7836 16.11 11.3849 16.11 12C16.11 12.8248 15.7823 13.6159 15.1991 14.1991C14.6159 14.7823 13.8248 15.11 13 15.11Z" fill="white"/>
<path d="M14.7801 12.89H12.1101V10.22H13.0001V12H14.7801V12.89Z" fill="white"/>
</svg>
