<svg width="16" height="16" viewBox="0 0 16 16" fill="none" xmlns="http://www.w3.org/2000/svg">
<path d="M1 4.77C1 4.77 7.65 8.45 8.49 8.9L16 4.76L8.49 2C8.49 2 1 4.76 1 4.77Z" fill="white"/>
<path d="M11.3487 14.9635L15.8811 12.2467C16.0396 12.1409 16.0396 11.8939 15.8811 11.7881L11.3487 9.036C11.1902 8.93015 11 9.07128 11 9.28298V14.7518C11 14.9283 11.1902 15.0694 11.3487 14.9635Z" fill="white"/>
<path opacity="0.5" fill-rule="evenodd" clip-rule="evenodd" d="M10 10.2775L8.49 11.11L2.67 7.90002C2.67 7.90002 1 8.81002 1 8.82002C1 8.82002 7.65 12.5 8.49 13L10 12.1576V10.2775Z" fill="white"/>
</svg>
