<?xml version="1.0" encoding="utf-8"?>
<!-- Generator: Adobe Illustrator 26.0.1, SVG Export Plug-In . SVG Version: 6.00 Build 0)  -->
<svg version="1.1" id="Layer_1" xmlns="http://www.w3.org/2000/svg" xmlns:xlink="http://www.w3.org/1999/xlink" x="0px" y="0px"
	 viewBox="0 0 16 16" style="enable-background:new 0 0 16 16;" xml:space="preserve">
<style type="text/css">
	.st0{fill:none;stroke:#FFFFFF;stroke-width:0.5;stroke-linejoin:round;}
	.st1{fill:none;stroke:#FFFFFF;stroke-width:0.5;stroke-linejoin:round;stroke-dasharray:2.4497,2.4497;}
	.st2{opacity:0.75;fill:#FFFFFF;}
	.st3{opacity:0.25;fill-rule:evenodd;clip-rule:evenodd;fill:#FFFFFF;enable-background:new    ;}
	.st4{fill:#FFFFFF;}
</style>
<g>
	<g>
		<polyline class="st0" points="15.7,14.5 15.7,15.7 14.5,15.7 		"/>
		<line class="st1" x1="12" y1="15.7" x2="3.5" y2="15.7"/>
		<polyline class="st0" points="2.3,15.7 1,15.7 1,14.5 		"/>
		<line class="st1" x1="1" y1="12" x2="1" y2="3.5"/>
		<polyline class="st0" points="1,2.3 1,1 2.3,1 		"/>
		<line class="st1" x1="4.7" y1="1" x2="13.3" y2="1"/>
		<polyline class="st0" points="14.5,1 15.7,1 15.7,2.3 		"/>
		<line class="st1" x1="15.7" y1="4.7" x2="15.7" y2="13.3"/>
	</g>
</g>
<path class="st2" d="M1.9,4.2c0,0,5.4,3,6.1,3.4l6.1-3.4L8,2C8,2,1.9,4.2,1.9,4.2z"/>
<path class="st3" d="M7.6,9.2L3.2,6.8c0,0-1.4,0.7-1.4,0.8c0,0,4.3,2.4,5.7,3.2V9.2z"/>
<polygon class="st4" points="14.1,9.6 13,8.5 11.3,10.2 9.7,8.5 8.6,9.6 10.2,11.3 8.6,13 9.7,14.1 11.3,12.4 13,14.1 14.1,13 
	12.4,11.3 "/>
</svg>
