<svg width="64" height="64" viewBox="0 0 64 64" fill="none" xmlns="http://www.w3.org/2000/svg">
<g clip-path="url(#clip0_12250_11538)">
<path d="M57.3001 6.89999H7.1001V57.1H57.3001V6.89999V6.89999Z" fill="url(#paint0_linear_12250_11538)" stroke="#CCCCCC" stroke-miterlimit="10"/>
<g filter="url(#filter0_i_12250_11538)">
<path d="M23.5 36C30.4036 36 36 30.4036 36 23.5C36 16.5964 30.4036 11 23.5 11C16.5964 11 11 16.5964 11 23.5C11 30.4036 16.5964 36 23.5 36Z" fill="url(#paint1_linear_12250_11538)"/>
</g>
<path d="M23.5 36C30.4036 36 36 30.4036 36 23.5C36 16.5964 30.4036 11 23.5 11C16.5964 11 11 16.5964 11 23.5C11 30.4036 16.5964 36 23.5 36Z" stroke="#2E2E2E" stroke-width="2.75"/>
<g filter="url(#filter1_i_12250_11538)">
<path d="M30.5 53C37.4036 53 43 47.4036 43 40.5C43 33.5964 37.4036 28 30.5 28C23.5964 28 18 33.5964 18 40.5C18 47.4036 23.5964 53 30.5 53Z" fill="url(#paint2_linear_12250_11538)"/>
</g>
<path d="M30.5 53C37.4036 53 43 47.4036 43 40.5C43 33.5964 37.4036 28 30.5 28C23.5964 28 18 33.5964 18 40.5C18 47.4036 23.5964 53 30.5 53Z" stroke="#2E2E2E" stroke-width="2.75"/>
<g filter="url(#filter2_i_12250_11538)">
<path d="M41 36C47.6274 36 53 30.4036 53 23.5C53 16.5964 47.6274 11 41 11C34.3726 11 29 16.5964 29 23.5C29 30.4036 34.3726 36 41 36Z" fill="url(#paint3_linear_12250_11538)"/>
</g>
<path d="M41 36C47.6274 36 53 30.4036 53 23.5C53 16.5964 47.6274 11 41 11C34.3726 11 29 16.5964 29 23.5C29 30.4036 34.3726 36 41 36Z" stroke="#2E2E2E" stroke-width="2.75"/>
</g>
<defs>
<filter id="filter0_i_12250_11538" x="9.625" y="8.625" width="28.75" height="28.75" filterUnits="userSpaceOnUse" color-interpolation-filters="sRGB">
<feFlood flood-opacity="0" result="BackgroundImageFix"/>
<feBlend mode="normal" in="SourceGraphic" in2="BackgroundImageFix" result="shape"/>
<feColorMatrix in="SourceAlpha" type="matrix" values="0 0 0 0 0 0 0 0 0 0 0 0 0 0 0 0 0 0 127 0" result="hardAlpha"/>
<feOffset dx="3" dy="-3"/>
<feGaussianBlur stdDeviation="0.5"/>
<feComposite in2="hardAlpha" operator="arithmetic" k2="-1" k3="1"/>
<feColorMatrix type="matrix" values="0 0 0 0 1 0 0 0 0 1 0 0 0 0 1 0 0 0 0.2 0"/>
<feBlend mode="normal" in2="shape" result="effect1_innerShadow_12250_11538"/>
</filter>
<filter id="filter1_i_12250_11538" x="16.625" y="25.625" width="28.75" height="28.75" filterUnits="userSpaceOnUse" color-interpolation-filters="sRGB">
<feFlood flood-opacity="0" result="BackgroundImageFix"/>
<feBlend mode="normal" in="SourceGraphic" in2="BackgroundImageFix" result="shape"/>
<feColorMatrix in="SourceAlpha" type="matrix" values="0 0 0 0 0 0 0 0 0 0 0 0 0 0 0 0 0 0 127 0" result="hardAlpha"/>
<feOffset dx="3" dy="-3"/>
<feGaussianBlur stdDeviation="0.5"/>
<feComposite in2="hardAlpha" operator="arithmetic" k2="-1" k3="1"/>
<feColorMatrix type="matrix" values="0 0 0 0 1 0 0 0 0 1 0 0 0 0 1 0 0 0 0.2 0"/>
<feBlend mode="normal" in2="shape" result="effect1_innerShadow_12250_11538"/>
</filter>
<filter id="filter2_i_12250_11538" x="27.625" y="8.625" width="27.75" height="28.75" filterUnits="userSpaceOnUse" color-interpolation-filters="sRGB">
<feFlood flood-opacity="0" result="BackgroundImageFix"/>
<feBlend mode="normal" in="SourceGraphic" in2="BackgroundImageFix" result="shape"/>
<feColorMatrix in="SourceAlpha" type="matrix" values="0 0 0 0 0 0 0 0 0 0 0 0 0 0 0 0 0 0 127 0" result="hardAlpha"/>
<feOffset dx="3" dy="-3"/>
<feGaussianBlur stdDeviation="0.5"/>
<feComposite in2="hardAlpha" operator="arithmetic" k2="-1" k3="1"/>
<feColorMatrix type="matrix" values="0 0 0 0 1 0 0 0 0 1 0 0 0 0 1 0 0 0 0.3 0"/>
<feBlend mode="normal" in2="shape" result="effect1_innerShadow_12250_11538"/>
</filter>
<linearGradient id="paint0_linear_12250_11538" x1="32.1121" y1="7.22069" x2="32.318" y2="56.4317" gradientUnits="userSpaceOnUse">
<stop stop-color="#3D3D3D"/>
<stop offset="1" stop-color="#292929"/>
</linearGradient>
<linearGradient id="paint1_linear_12250_11538" x1="23.5" y1="11" x2="23.5" y2="36" gradientUnits="userSpaceOnUse">
<stop stop-color="#686868"/>
<stop offset="1" stop-color="#3A3A3A"/>
</linearGradient>
<linearGradient id="paint2_linear_12250_11538" x1="30.5" y1="28" x2="30.5" y2="53" gradientUnits="userSpaceOnUse">
<stop stop-color="#A0A0A0"/>
<stop offset="1" stop-color="#636363"/>
</linearGradient>
<linearGradient id="paint3_linear_12250_11538" x1="41" y1="11" x2="41" y2="36" gradientUnits="userSpaceOnUse">
<stop stop-color="white"/>
<stop offset="1" stop-color="#A6A6A6"/>
</linearGradient>
<clipPath id="clip0_12250_11538">
<rect width="64" height="64" fill="white"/>
</clipPath>
</defs>
</svg>
