<svg width="64" height="64" viewBox="0 0 64 64" fill="none" xmlns="http://www.w3.org/2000/svg">
<g clip-path="url(#clip0_12250_11525)">
<path d="M9.1001 21.2L20.7001 8.5L55.7001 9.1V42.4L43.6001 54.7H9.9001L9.1001 21.2Z" fill="#404040"/>
<path d="M55.6999 42.4H21.3999V8.5" stroke="#3D3D3D" stroke-width="2" stroke-miterlimit="10"/>
<path d="M22.1998 41.5L8.7998 54.9" stroke="#3D3D3D" stroke-width="2" stroke-miterlimit="10"/>
<path opacity="0.71" d="M53.9998 8.5H21.0998C20.8998 8.5 20.6998 8.6 20.4998 8.8L10.4998 19.2C9.99977 19.7 10.3998 20.6 11.0998 20.6H42.7998C43.2998 20.6 43.5998 21 43.5998 21.4V52.6C43.5998 53.4 44.4998 53.7 44.9998 53.2L54.9998 42.9C55.1998 42.7 55.1998 42.5 55.1998 42.3L54.7998 9.3C54.7998 8.9 54.3998 8.5 53.9998 8.5Z" fill="url(#paint0_linear_12250_11525)"/>
<path d="M53.6 10.7V42.4C53.6 42.5 53.6 42.6 53.5 42.7L43.4 52.7C43.3 52.8 43.2 52.8 43.1 52.8H11.4C11.2 52.8 11 52.6 11 52.4V20.8C11 20.7 11 20.6 11.1 20.5L21.2 10.4C21.3 10.3 21.4 10.3 21.5 10.3H53.2C53.4 10.3 53.6 10.5 53.6 10.7ZM56.2 7.3H20.3C20.2 7.3 20.1 7.3 20 7.4L8.1 19.3C8.1 19.4 8 19.5 8 19.6V55.5C8 55.7 8.2 55.9 8.4 55.9H44.3C44.4 55.9 44.5 55.9 44.6 55.8L56.5 43.9C56.6 43.8 56.6 43.7 56.6 43.6V7.6C56.6 7.4 56.5 7.3 56.2 7.3Z" fill="url(#paint1_linear_12250_11525)"/>
<path d="M54.7001 9.10001L44.1001 19.9" stroke="url(#paint2_linear_12250_11525)" stroke-width="2" stroke-miterlimit="10" stroke-linecap="round"/>
<g filter="url(#filter0_i_12250_11525)">
<path d="M21.2611 39.6321C25.9163 39.6321 29.6902 35.9305 29.6902 31.3645C29.6902 26.7984 25.9163 23.0969 21.2611 23.0969C16.6059 23.0969 12.832 26.7984 12.832 31.3645C12.832 35.9305 16.6059 39.6321 21.2611 39.6321Z" fill="url(#paint3_linear_12250_11525)"/>
</g>
<path d="M21.2611 39.6321C25.9163 39.6321 29.6902 35.9305 29.6902 31.3645C29.6902 26.7984 25.9163 23.0969 21.2611 23.0969C16.6059 23.0969 12.832 26.7984 12.832 31.3645C12.832 35.9305 16.6059 39.6321 21.2611 39.6321Z" stroke="#2E2E2E" stroke-width="2"/>
<g filter="url(#filter1_i_12250_11525)">
<path d="M25.9115 51C30.5667 51 34.3406 47.2985 34.3406 42.7324C34.3406 38.1663 30.5667 34.4648 25.9115 34.4648C21.2562 34.4648 17.4824 38.1663 17.4824 42.7324C17.4824 47.2985 21.2562 51 25.9115 51Z" fill="url(#paint4_linear_12250_11525)"/>
</g>
<path d="M25.9115 51C30.5667 51 34.3406 47.2985 34.3406 42.7324C34.3406 38.1663 30.5667 34.4648 25.9115 34.4648C21.2562 34.4648 17.4824 38.1663 17.4824 42.7324C17.4824 47.2985 21.2562 51 25.9115 51Z" stroke="#2E2E2E" stroke-width="2"/>
<g filter="url(#filter2_i_12250_11525)">
<path d="M32.7583 39.5352C37.3244 39.5352 41.0259 35.8337 41.0259 31.2676C41.0259 26.7015 37.3244 23 32.7583 23C28.1922 23 24.4907 26.7015 24.4907 31.2676C24.4907 35.8337 28.1922 39.5352 32.7583 39.5352Z" fill="url(#paint5_linear_12250_11525)"/>
</g>
<path d="M32.7583 39.5352C37.3244 39.5352 41.0259 35.8337 41.0259 31.2676C41.0259 26.7015 37.3244 23 32.7583 23C28.1922 23 24.4907 26.7015 24.4907 31.2676C24.4907 35.8337 28.1922 39.5352 32.7583 39.5352Z" stroke="#2E2E2E" stroke-width="2"/>
</g>
<defs>
<filter id="filter0_i_12250_11525" x="11.832" y="21.0969" width="19.8579" height="19.5352" filterUnits="userSpaceOnUse" color-interpolation-filters="sRGB">
<feFlood flood-opacity="0" result="BackgroundImageFix"/>
<feBlend mode="normal" in="SourceGraphic" in2="BackgroundImageFix" result="shape"/>
<feColorMatrix in="SourceAlpha" type="matrix" values="0 0 0 0 0 0 0 0 0 0 0 0 0 0 0 0 0 0 127 0" result="hardAlpha"/>
<feOffset dx="3" dy="-3"/>
<feGaussianBlur stdDeviation="0.5"/>
<feComposite in2="hardAlpha" operator="arithmetic" k2="-1" k3="1"/>
<feColorMatrix type="matrix" values="0 0 0 0 1 0 0 0 0 1 0 0 0 0 1 0 0 0 0.2 0"/>
<feBlend mode="normal" in2="shape" result="effect1_innerShadow_12250_11525"/>
</filter>
<filter id="filter1_i_12250_11525" x="16.4824" y="32.4648" width="19.8579" height="19.5352" filterUnits="userSpaceOnUse" color-interpolation-filters="sRGB">
<feFlood flood-opacity="0" result="BackgroundImageFix"/>
<feBlend mode="normal" in="SourceGraphic" in2="BackgroundImageFix" result="shape"/>
<feColorMatrix in="SourceAlpha" type="matrix" values="0 0 0 0 0 0 0 0 0 0 0 0 0 0 0 0 0 0 127 0" result="hardAlpha"/>
<feOffset dx="3" dy="-3"/>
<feGaussianBlur stdDeviation="0.5"/>
<feComposite in2="hardAlpha" operator="arithmetic" k2="-1" k3="1"/>
<feColorMatrix type="matrix" values="0 0 0 0 1 0 0 0 0 1 0 0 0 0 1 0 0 0 0.2 0"/>
<feBlend mode="normal" in2="shape" result="effect1_innerShadow_12250_11525"/>
</filter>
<filter id="filter2_i_12250_11525" x="23.4907" y="21" width="19.5352" height="19.5352" filterUnits="userSpaceOnUse" color-interpolation-filters="sRGB">
<feFlood flood-opacity="0" result="BackgroundImageFix"/>
<feBlend mode="normal" in="SourceGraphic" in2="BackgroundImageFix" result="shape"/>
<feColorMatrix in="SourceAlpha" type="matrix" values="0 0 0 0 0 0 0 0 0 0 0 0 0 0 0 0 0 0 127 0" result="hardAlpha"/>
<feOffset dx="3" dy="-3"/>
<feGaussianBlur stdDeviation="0.5"/>
<feComposite in2="hardAlpha" operator="arithmetic" k2="-1" k3="1"/>
<feColorMatrix type="matrix" values="0 0 0 0 1 0 0 0 0 1 0 0 0 0 1 0 0 0 0.3 0"/>
<feBlend mode="normal" in2="shape" result="effect1_innerShadow_12250_11525"/>
</filter>
<linearGradient id="paint0_linear_12250_11525" x1="32.5853" y1="8.4686" x2="32.8602" y2="53.5575" gradientUnits="userSpaceOnUse">
<stop stop-color="#BFBFBF"/>
<stop offset="1" stop-color="#808080"/>
</linearGradient>
<linearGradient id="paint1_linear_12250_11525" x1="32.1757" y1="7.1843" x2="32.473" y2="55.9474" gradientUnits="userSpaceOnUse">
<stop stop-color="#BFBFBF"/>
<stop offset="1" stop-color="#808080"/>
</linearGradient>
<linearGradient id="paint2_linear_12250_11525" x1="43.3625" y1="20.51" x2="55.4605" y2="8.4121" gradientUnits="userSpaceOnUse">
<stop stop-color="#9B9B9D" stop-opacity="0.9"/>
<stop offset="0.4467" stop-color="#BFBFBF"/>
</linearGradient>
<linearGradient id="paint3_linear_12250_11525" x1="21.2611" y1="23.0969" x2="21.2611" y2="39.6321" gradientUnits="userSpaceOnUse">
<stop stop-color="#686868"/>
<stop offset="1" stop-color="#3A3A3A"/>
</linearGradient>
<linearGradient id="paint4_linear_12250_11525" x1="25.9115" y1="34.4648" x2="25.9115" y2="51" gradientUnits="userSpaceOnUse">
<stop stop-color="#A0A0A0"/>
<stop offset="1" stop-color="#636363"/>
</linearGradient>
<linearGradient id="paint5_linear_12250_11525" x1="32.7583" y1="23" x2="32.7583" y2="39.5352" gradientUnits="userSpaceOnUse">
<stop stop-color="white"/>
<stop offset="1" stop-color="#A6A6A6"/>
</linearGradient>
<clipPath id="clip0_12250_11525">
<rect width="64" height="64" fill="white"/>
</clipPath>
</defs>
</svg>
