<svg width="22" height="20" viewBox="0 0 22 20" fill="none" xmlns="http://www.w3.org/2000/svg">
<path fill-rule="evenodd" clip-rule="evenodd" d="M8.30986 5.06006C8.44097 4.76609 8.49921 4.44482 8.4796 4.12354C8.45999 3.80225 8.36312 3.49044 8.19722 3.2146C8.03132 2.93876 7.8013 2.70699 7.52669 2.53906C7.25208 2.37114 6.94099 2.27198 6.61986 2.25C5.49986 2.25 4.20987 2.72006 4.93987 5.06006C3.80987 2.81006 0.439859 4.50006 2.33986 7.06006C2.18401 7.00337 2.01651 6.98635 1.85243 7.0105C1.68836 7.03465 1.53286 7.09906 1.39995 7.19824C1.26704 7.29743 1.16089 7.4282 1.09105 7.57861C1.02121 7.72903 0.989874 7.89452 0.999863 8.06006C0.999863 8.80006 1.43985 8.97998 1.85985 8.97998H8.39986C9.39986 8.97998 9.99986 8.32993 9.99986 6.92993C10.012 6.69611 9.97785 6.46231 9.89943 6.2417C9.82101 6.02109 9.69985 5.818 9.54286 5.64429C9.38587 5.47058 9.19615 5.32952 8.98457 5.22925C8.773 5.12897 8.54371 5.07158 8.30986 5.06006V5.06006Z" fill="#C0C0C0"/>
<path fill-rule="evenodd" clip-rule="evenodd" d="M19.3099 5.06006C19.441 4.76609 19.4992 4.44482 19.4796 4.12354C19.46 3.80225 19.3631 3.49044 19.1972 3.2146C19.0313 2.93876 18.8013 2.70699 18.5267 2.53906C18.2521 2.37114 17.941 2.27198 17.6199 2.25C16.4999 2.25 15.2099 2.72006 15.9399 5.06006C14.8099 2.81006 11.4399 4.50006 13.3399 7.06006C13.184 7.00337 13.0165 6.98635 12.8524 7.0105C12.6884 7.03465 12.5329 7.09906 12.3999 7.19824C12.267 7.29743 12.1609 7.4282 12.091 7.57861C12.0212 7.72903 11.9899 7.89452 11.9999 8.06006C11.9999 8.80006 12.4398 8.97998 12.8598 8.97998H19.3999C20.3999 8.97998 20.9999 8.32993 20.9999 6.92993C21.012 6.69611 20.9779 6.46231 20.8994 6.2417C20.821 6.02109 20.6998 5.818 20.5429 5.64429C20.3859 5.47058 20.1962 5.32952 19.9846 5.22925C19.773 5.12897 19.5437 5.07158 19.3099 5.06006V5.06006Z" fill="#C0C0C0"/>
<path fill-rule="evenodd" clip-rule="evenodd" d="M19.3099 14.0601C19.441 13.7661 19.4992 13.4448 19.4796 13.1235C19.46 12.8023 19.3631 12.4904 19.1972 12.2146C19.0313 11.9388 18.8013 11.707 18.5267 11.5391C18.2521 11.3711 17.941 11.272 17.6199 11.25C16.4999 11.25 15.2099 11.7201 15.9399 14.0601C14.8099 11.8101 11.4399 13.5001 13.3399 16.0601C13.184 16.0034 13.0165 15.9863 12.8524 16.0105C12.6884 16.0346 12.5329 16.0991 12.3999 16.1982C12.267 16.2974 12.1609 16.4282 12.091 16.5786C12.0212 16.729 11.9899 16.8945 11.9999 17.0601C11.9999 17.8001 12.4398 17.98 12.8598 17.98H19.3999C20.3999 17.98 20.9999 17.3299 20.9999 15.9299C21.012 15.6961 20.9779 15.4623 20.8994 15.2417C20.821 15.0211 20.6998 14.818 20.5429 14.6443C20.3859 14.4706 20.1962 14.3295 19.9846 14.2292C19.773 14.129 19.5437 14.0716 19.3099 14.0601V14.0601Z" fill="#C0C0C0"/>
<path fill-rule="evenodd" clip-rule="evenodd" d="M8.30986 14.0601C8.44097 13.7661 8.49921 13.4448 8.4796 13.1235C8.45999 12.8023 8.36312 12.4904 8.19722 12.2146C8.03132 11.9388 7.8013 11.707 7.52669 11.5391C7.25208 11.3711 6.94099 11.272 6.61986 11.25C5.49986 11.25 4.20987 11.7201 4.93987 14.0601C3.80987 11.8101 0.439859 13.5001 2.33986 16.0601C2.18401 16.0034 2.01651 15.9863 1.85243 16.0105C1.68836 16.0346 1.53286 16.0991 1.39995 16.1982C1.26704 16.2974 1.16089 16.4282 1.09105 16.5786C1.02121 16.729 0.989874 16.8945 0.999863 17.0601C0.999863 17.8001 1.43985 17.98 1.85985 17.98H8.39986C9.39986 17.98 9.99986 17.3299 9.99986 15.9299C10.012 15.6961 9.97785 15.4623 9.89943 15.2417C9.82101 15.0211 9.69985 14.818 9.54286 14.6443C9.38587 14.4706 9.19615 14.3295 8.98457 14.2292C8.773 14.129 8.54371 14.0716 8.30986 14.0601V14.0601Z" fill="#C0C0C0"/>
</svg>
