<svg width="20" height="20" viewBox="0 0 20 20" fill="none" xmlns="http://www.w3.org/2000/svg">
<path d="M5.5 11C7.98528 11 10 8.76142 10 6C10 3.23858 7.98528 1 5.5 1C3.01472 1 1 3.23858 1 6C1 8.76142 3.01472 11 5.5 11Z" fill="#C0C0C0"/>
<path opacity="0.5" fill-rule="evenodd" clip-rule="evenodd" d="M20 8.00235L15.0712 6.99883L18.4241 1L12.3441 5.37089C12.3873 5.64779 12.4134 5.92707 12.4224 6.20716C12.4224 6.99494 12.2668 7.775 11.9646 8.50281C11.6625 9.23062 11.2196 9.89193 10.6612 10.449C9.53356 11.574 8.00414 12.206 6.40941 12.206C5.85696 12.2077 5.30722 12.1288 4.77765 11.9718L1 17.6027L7.70588 15.027L10.6229 20L12.4559 13.3768L19.3071 14.5698L14.5012 10.2101L20 8.00235Z" fill="#C0C0C0"/>
</svg>
