<svg width="20" height="20" viewBox="0 0 20 20" fill="none" xmlns="http://www.w3.org/2000/svg">
<path d="M18.65 13.7L10 6.29004L10.11 17.68L12.63 14.19L15.09 19.29L16.91 18.42L14.47 13.36L18.65 13.7Z" fill="white"/>
<path d="M5.67333 15.5919L5.45996 16.5688L7.4139 16.9956L7.62727 16.0186L5.67333 15.5919Z" fill="white"/>
<path d="M3.35 16.1099L1 15.5899V13.1899H2V14.7899L3.56 15.1299L3.35 16.1099Z" fill="white"/>
<path d="M2 7.64014H1V11.3401H2V7.64014Z" fill="white"/>
<path d="M2 5.79023H1V3.42023L3.27 2.74023L3.56 3.70023L2 4.17023V5.79023Z" fill="white"/>
<path d="M7.59855 1.52412L4.73438 2.38232L5.0214 3.34025L7.88558 2.48204L7.59855 1.52412Z" fill="white"/>
<path d="M12.1002 2.70986L10.9002 1.49986L9.28023 1.97986L8.99023 1.01986L11.2002 0.359863L12.8102 1.99986L12.1002 2.70986Z" fill="white"/>
<path d="M13.8806 3.12415L13.168 3.82568L15.49 6.18452L16.2027 5.48298L13.8806 3.12415Z" fill="white"/>
<path d="M17.5643 6.79908L16.8516 7.50049L18.2544 8.92601L18.9671 8.2246L17.5643 6.79908Z" fill="white"/>
</svg>
