<svg width="16" height="16" viewBox="0 0 16 16" fill="none" xmlns="http://www.w3.org/2000/svg">
<path opacity="0.5" fill-rule="evenodd" clip-rule="evenodd" d="M1.6 15C0.716344 15 0 14.2837 0 13.4V3.6C0 2.71634 0.716344 2 1.6 2H14.4C15.2837 2 16 2.71634 16 3.6L16 13.4C16 14.2837 15.2837 15 14.4 15L1.6 15ZM12.4 8.7C12.4 11.5719 10.0719 13.9 7.2 13.9C4.32812 13.9 2 11.5719 2 8.7C2 5.82812 4.32812 3.5 7.2 3.5C10.0719 3.5 12.4 5.82812 12.4 8.7ZM14 5.25C14.6904 5.25 15.25 4.69036 15.25 4C15.25 3.30964 14.6904 2.75 14 2.75C13.3096 2.75 12.75 3.30964 12.75 4C12.75 4.69036 13.3096 5.25 14 5.25Z" fill="white"/>
<path d="M5.28633 7.57227H3.57227V11.0004H5.28633V7.57227Z" fill="white"/>
<path d="M7.85859 5H6.14453V10.9992H7.85859V5Z" fill="white"/>
<path d="M10.4289 6.71387H8.71484V10.999H10.4289V6.71387Z" fill="white"/>
<path opacity="0.5" d="M2 0.8C2 0.358172 2.35817 0 2.8 0H5.2C5.64183 0 6 0.358172 6 0.8V1.5H2V0.8Z" fill="white"/>
</svg>
