<svg width="16" height="16" viewBox="0 0 16 16" fill="none" xmlns="http://www.w3.org/2000/svg">
<g clip-path="url(#clip0_145_8403)">
<path fill-rule="evenodd" clip-rule="evenodd" d="M5.42371 11.8586L1.44117 15.8749C1.13062 15.7924 0.84742 15.6293 0.620216 15.4021C0.393013 15.1749 0.229921 14.8917 0.147461 14.5811L4.1412 10.5986L5.42371 11.8586Z" fill="white"/>
<path d="M9 1.16667C10.1537 1.16667 11.2816 1.50879 12.2409 2.14976C13.2002 2.79074 13.9478 3.70174 14.3894 4.76764C14.8309 5.83354 14.9463 7.00642 14.7213 8.13797C14.4962 9.26953 13.9407 10.309 13.1248 11.1248C12.309 11.9406 11.2696 12.4962 10.138 12.7213C9.00648 12.9463 7.83361 12.8308 6.76771 12.3893C5.70181 11.9478 4.79073 11.2001 4.14976 10.2408C3.50878 9.28152 3.16666 8.15373 3.16666 7C3.16666 5.45291 3.78126 3.96912 4.87522 2.87515C5.96918 1.78119 7.4529 1.16667 9 1.16667ZM9 0C7.61553 0 6.2622 0.410528 5.11106 1.1797C3.95992 1.94887 3.06266 3.04209 2.53284 4.32117C2.00303 5.60025 1.86441 7.00776 2.13451 8.36562C2.4046 9.72349 3.07131 10.9708 4.05028 11.9497C5.02925 12.9287 6.27651 13.5954 7.63438 13.8655C8.99224 14.1356 10.3997 13.997 11.6788 13.4672C12.9579 12.9373 14.0511 12.0401 14.8203 10.8889C15.5895 9.73779 16 8.38447 16 7C16 5.14349 15.2625 3.36297 13.9498 2.05021C12.637 0.737457 10.8565 0 9 0Z" fill="white"/>
<path fill-rule="evenodd" clip-rule="evenodd" d="M13.1767 7.99161C13.0278 8.61287 12.7407 9.19253 12.3367 9.68742C11.9327 10.1823 11.4223 10.5797 10.8434 10.85L10.1317 10.0683L8.96506 11.235C8.31647 11.2251 7.67915 11.0638 7.1039 10.764C6.52866 10.4642 6.03137 10.0342 5.65169 9.50826C5.77764 9.54108 5.9067 9.56061 6.03671 9.56658C6.08952 9.57401 6.14331 9.56931 6.19401 9.55277C6.24471 9.53623 6.29097 9.50831 6.32924 9.47116C6.3675 9.43402 6.39678 9.38862 6.41483 9.33843C6.43287 9.28825 6.43927 9.23464 6.43341 9.18163V6.10161C6.43406 6.02139 6.41628 5.94206 6.3815 5.86976C6.34672 5.79746 6.29584 5.73412 6.23275 5.68455C6.16966 5.63498 6.09604 5.60055 6.01756 5.58386C5.93908 5.56718 5.85781 5.56866 5.78001 5.58828C5.25501 5.71661 4.84669 7.02326 4.84669 7.02326C4.84531 6.41685 4.97489 5.81735 5.22658 5.26564C5.47828 4.71393 5.84614 4.22303 6.30502 3.8266C6.90616 3.29706 7.64763 2.9527 8.44004 2.83496C8.18927 2.95984 7.97427 3.14622 7.81513 3.37678C7.65598 3.60734 7.55785 3.87454 7.53001 4.1533C7.53001 4.87663 7.9734 4.78331 8.10174 4.67831V8.84325C8.12202 8.89725 8.1495 8.94827 8.18341 8.99493C8.2438 9.07396 8.32139 9.13822 8.41035 9.1827C8.49931 9.22718 8.59722 9.25074 8.69668 9.25163C9.071 9.18019 9.41832 9.00657 9.70007 8.74997V5.37829C9.68804 5.19814 9.63437 5.02325 9.54327 4.86737C9.45217 4.71149 9.3261 4.57883 9.17505 4.47993C9.47771 4.42997 9.78786 4.50127 10.0384 4.67831L10.26 4.43329C10.8961 3.80922 11.7125 3.40107 12.5934 3.26662V3.26662C12.2388 3.55047 11.9462 3.90395 11.7335 4.30526C11.5208 4.70656 11.3926 5.14719 11.3567 5.59996C11.3567 6.55662 11.3567 8.91325 11.3567 8.91325C11.87 9.26325 12.5584 8.62161 13.1767 7.99161Z" fill="white"/>
</g>
<defs>
<clipPath id="clip0_145_8403">
<rect width="16" height="16" fill="white"/>
</clipPath>
</defs>
</svg>
