<svg width="39" height="39" viewBox="0 0 39 39" fill="none" xmlns="http://www.w3.org/2000/svg">
<g clip-path="url(#clip0)">
<path fill-rule="evenodd" clip-rule="evenodd" d="M14.8193 25.2233L14.3018 26.5119H15.3304L14.8193 25.2233Z" fill="white"/>
<path fill-rule="evenodd" clip-rule="evenodd" d="M17.9015 11.8261V8.06618C17.9015 7.46791 17.621 7.19025 17.0382 7.19025H16.0883V12.702H17.0382C17.6217 12.702 17.9015 12.4244 17.9015 11.8261Z" fill="white"/>
<path fill-rule="evenodd" clip-rule="evenodd" d="M33.4641 0H5.53664C3.27275 0 2.4375 0.822613 2.4375 3.05294V29.9665C2.4375 30.2192 2.44805 30.4533 2.47054 30.6707C2.52187 31.1575 2.53171 31.629 2.99152 32.1664C3.03652 32.219 3.50547 32.5631 3.50547 32.5631C3.75787 32.685 3.93012 32.775 4.21487 32.8879L17.967 38.5624C18.6806 38.8844 18.9794 39.0104 19.4982 39C19.4989 39 19.4996 39 19.5004 39C19.5011 39 19.5018 39 19.5025 39C20.0206 39.0104 20.3194 38.8844 21.0338 38.5624L34.7851 32.8879C35.0699 32.775 35.2421 32.685 35.4945 32.5631C35.4945 32.5631 35.9642 32.219 36.0085 32.1664C36.4683 31.629 36.4781 31.1575 36.5295 30.6707C36.552 30.4533 36.5625 30.2192 36.5625 29.9665V3.05294C36.5625 0.822613 35.7272 0 33.4641 0ZM21.2531 5.18287H23.5627V20.136H21.2531V5.18287ZM21.3726 23.7671H22.7155V28.2991H21.4514V25.6963L20.2787 27.4703H20.2526L19.0862 25.7094V28.2991H17.8418V23.7671H19.1847L20.2787 25.5218L21.3726 23.7671ZM13.7795 5.18287H17.4059C19.2838 5.18287 20.2119 6.10104 20.2119 7.96023V11.9334C20.2119 13.7919 19.2838 14.7101 17.4059 14.7101H16.089V20.136H13.7795V5.18287ZM7.48345 5.18287H12.6208V7.25464H9.79304V11.4847H12.5125V13.5565H9.79304V18.0642H12.6637V20.136H7.48345V5.18287ZM11.8601 27.6946C11.6154 27.8933 11.3271 28.0595 10.9953 28.1932C10.6634 28.3268 10.288 28.394 9.86827 28.394C9.5104 28.394 9.17926 28.3358 8.87553 28.2195C8.5718 28.1032 8.30885 27.9411 8.08598 27.7341C7.86311 27.5271 7.68874 27.2799 7.56219 26.9925C7.43564 26.7058 7.37236 26.3915 7.37236 26.0508V26.0376C7.37236 25.7053 7.43423 25.3964 7.55938 25.1118C7.68453 24.8272 7.85537 24.578 8.07332 24.364C8.29198 24.15 8.55282 23.9832 8.85584 23.862C9.15957 23.7415 9.4879 23.6806 9.84155 23.6806C10.2479 23.6806 10.5981 23.7387 10.8933 23.8551C11.1879 23.9714 11.4579 24.1334 11.7026 24.3405L10.9559 25.2275C10.79 25.0897 10.6206 24.9837 10.4483 24.9103C10.276 24.8369 10.0757 24.8002 9.84858 24.8002C9.68266 24.8002 9.52868 24.8328 9.38666 24.8972C9.24464 24.9616 9.1216 25.0502 9.01685 25.1624C8.91209 25.2746 8.82913 25.4061 8.76796 25.5571C8.70679 25.708 8.67656 25.8701 8.67656 26.0425V26.0556C8.67656 26.237 8.70679 26.4053 8.76796 26.5604C8.82913 26.7155 8.9156 26.8485 9.02669 26.9586C9.13778 27.0687 9.26925 27.1552 9.41971 27.2175C9.57016 27.2799 9.7375 27.3117 9.921 27.3117C10.2177 27.3117 10.4624 27.2494 10.655 27.1241V26.5736H9.75085V25.654H11.8601V27.6946V27.6946ZM14.2168 23.7346H15.4415L17.3939 28.2991H16.0314L15.6967 27.4897H13.9278L13.6002 28.2991H12.2636L14.2168 23.7346ZM19.4054 35.8487L12.9323 33.6572H26.1535L19.4054 35.8487ZM27.2862 28.2991H23.5648V23.7671H27.2531V24.8356H24.8226V25.5218H27.0239V26.5126H24.8226V27.2314H27.2862V28.2991ZM24.7839 17.4867V7.83144C24.7839 5.97294 25.7127 5.05408 27.5899 5.05408H28.7127C30.5906 5.05408 31.4969 5.95148 31.4969 7.80997V10.865H29.2309V7.93807C29.2309 7.33981 28.9503 7.06214 28.3675 7.06214H27.9787C27.3741 7.06214 27.0935 7.33981 27.0935 7.93807V17.3801C27.0935 17.9784 27.3741 18.256 27.9787 18.256H28.4104C28.9925 18.256 29.2738 17.9784 29.2738 17.3801V14.0052H31.5405V17.4867C31.5405 19.3452 30.6124 20.2641 28.7345 20.2641H27.5906C25.712 20.2641 24.7839 19.3459 24.7839 17.4867ZM31.6276 26.9046C31.6276 27.1379 31.5826 27.3449 31.4934 27.5264C31.4041 27.7078 31.2782 27.8622 31.1165 27.9896C30.9548 28.117 30.7608 28.2139 30.5337 28.2811C30.3066 28.3483 30.0535 28.3815 29.7736 28.3815C29.363 28.3815 28.9735 28.3192 28.6044 28.1939C28.2353 28.0685 27.9091 27.8809 27.6251 27.6302L28.3323 26.7951C28.7907 27.158 29.2864 27.3387 29.8193 27.3387C29.9895 27.3387 30.1195 27.3117 30.2088 27.2577C30.2981 27.2037 30.3431 27.1275 30.3431 27.0278V27.0147C30.3431 26.9669 30.3319 26.9253 30.3101 26.8886C30.2883 26.8519 30.2482 26.8166 30.1892 26.782C30.1301 26.7474 30.0514 26.7141 29.9536 26.6816C29.8552 26.649 29.7279 26.6158 29.5705 26.5812C29.3258 26.5251 29.0987 26.4635 28.8892 26.397C28.6797 26.3298 28.4969 26.244 28.3422 26.138C28.1868 26.0321 28.0645 25.9005 27.9752 25.7433C27.8859 25.5862 27.8409 25.3902 27.8409 25.1575V25.1444C27.8409 24.9332 27.881 24.7386 27.9618 24.5614C28.0427 24.3841 28.1608 24.2311 28.3155 24.1016C28.4701 23.9721 28.6572 23.8717 28.8758 23.8004C29.0945 23.729 29.3412 23.6937 29.6162 23.6937C30.0092 23.6937 30.36 23.7443 30.6679 23.8461C30.9759 23.9479 31.2543 24.0974 31.5032 24.2962L30.8676 25.1832C30.6581 25.0364 30.443 24.9256 30.2222 24.8494C30.0014 24.7739 29.7884 24.7358 29.5838 24.7358C29.4312 24.7358 29.3159 24.7642 29.24 24.8203C29.1634 24.8764 29.1254 24.9457 29.1254 25.0274V25.0405C29.1254 25.0925 29.1374 25.1375 29.1613 25.1762C29.1852 25.215 29.2266 25.251 29.2857 25.2829C29.3448 25.3154 29.4256 25.348 29.5283 25.3798C29.6309 25.4124 29.761 25.4456 29.9178 25.4802C30.18 25.5363 30.4169 25.6021 30.6286 25.6776C30.8402 25.753 31.0202 25.8451 31.1692 25.9525C31.3176 26.0605 31.4315 26.1907 31.5095 26.3444C31.5883 26.4974 31.6276 26.6802 31.6276 26.8914V26.9046V26.9046Z" fill="white"/>
</g>
<defs>
<clipPath id="clip0">
<rect width="39" height="39" fill="white"/>
</clipPath>
</defs>
</svg>
