<svg width="39" height="39" viewBox="0 0 39 39" fill="none" xmlns="http://www.w3.org/2000/svg">
<g clip-path="url(#clip0)">
<path fill-rule="evenodd" clip-rule="evenodd" d="M31.0884 22.2227C30.7496 23.7689 29.3052 28.0056 24.5705 30.2717L22.5739 28.0535L19.2209 31.3946C17.281 31.4041 12.9297 30.6555 9.88172 26.5061C9.88172 26.5061 10.5183 26.6651 10.9692 26.6735C11.4973 26.6831 12.0712 26.4906 12.0712 25.6092V16.9157C12.1279 16.1935 11.4274 15.2177 10.2555 15.4832C8.75924 15.8228 7.60179 19.525 7.60179 19.525C7.60661 15.0646 9.93598 12.0189 11.7095 10.505C13.9244 8.61325 16.0801 7.98785 17.7331 7.72955C16.1006 8.65272 15.1819 10.1594 15.1819 11.421C15.1819 13.4491 16.4165 13.2087 16.7818 12.9098V24.6418C16.7818 24.6418 16.8541 24.8308 17.0254 25.0556C17.2713 25.3796 17.7222 25.7755 18.4529 25.7755C19.6899 25.7755 21.2934 24.3764 21.2934 24.3764V14.8769C21.2934 13.9107 20.558 12.7436 19.8237 12.343C19.8237 12.343 21.1849 12.1002 22.2375 12.9014C22.4654 12.6276 22.6788 12.398 22.8656 12.215C25.3132 9.82939 27.622 9.15376 29.5451 8.81056H29.5475C29.5475 8.81056 26.0474 11.5358 26.0474 15.1914C26.0474 17.9106 26.1186 24.5426 26.1186 24.5426C27.4159 25.7874 29.345 23.9925 31.0884 22.2227Z" fill="white"/>
<path fill-rule="evenodd" clip-rule="evenodd" d="M19.5006 0C8.7303 0 0 8.73058 0 19.5C0 30.2694 8.7303 39 19.5006 39C30.2709 39 39.0012 30.2694 39.0012 19.5C39.0012 8.73058 30.2697 0 19.5006 0ZM19.5006 0.858588C24.48 0.858588 29.1617 2.79818 32.6822 6.31864C36.2028 9.83909 38.1427 14.5207 38.1427 19.5C38.1427 24.4793 36.204 29.1609 32.6822 32.6814C29.1617 36.2018 24.48 38.1414 19.5006 38.1414C14.5212 38.1414 9.83952 36.2018 6.31895 32.6814C2.79717 29.1609 0.858441 24.4793 0.858441 19.5C0.858441 14.5207 2.79717 9.83909 6.31895 6.31864C9.83952 2.79699 14.5212 0.858588 19.5006 0.858588Z" fill="white"/>
</g>
<defs>
<clipPath id="clip0">
<rect width="39" height="39" fill="white"/>
</clipPath>
</defs>
</svg>
