<svg width="16" height="16" viewBox="0 0 16 16" fill="none" xmlns="http://www.w3.org/2000/svg">
<path d="M14.27 9.15012C14.5386 8.3504 14.625 7.50072 14.5229 6.66331C14.4208 5.82589 14.1328 5.02188 13.68 4.3101C13.2423 3.63171 12.6673 3.05254 11.9922 2.6099C11.317 2.16726 10.5567 1.87095 9.76001 1.74009C9.00098 1.62405 8.22548 1.68262 7.49249 1.91135C6.75951 2.14009 6.08835 2.53297 5.53003 3.0601C4.98151 3.56192 4.55759 4.18481 4.29199 4.87919C4.02639 5.57357 3.9264 6.3203 4 7.0601H2C2.02309 6.06407 2.26192 5.08491 2.70001 4.1901C3.13801 3.31227 3.77076 2.54612 4.54999 1.95011C5.30899 1.3472 6.2 0.932535 7.15002 0.740088C8.07316 0.544971 9.02688 0.544971 9.95001 0.740088C10.8551 0.957031 11.6972 1.38154 12.41 1.98008C13.1008 2.558 13.6774 3.26009 14.11 4.05009C14.5139 4.83488 14.7378 5.69987 14.7655 6.58207C14.7932 7.46427 14.6239 8.34155 14.27 9.15012Z" fill="white"/>
<path opacity="0.5" fill-rule="evenodd" clip-rule="evenodd" d="M13.38 11L16 15V16H2V15L4.62 11L3 15H15L13.38 11Z" fill="white"/>
<path d="M9.87988 13L7.68988 7L4.62988 14H13.3799L11.4999 9.5L9.87988 13Z" fill="white"/>
<path d="M0 6L3.03 10.15L6 6.01L0 6Z" fill="white"/>
</svg>
