<svg width="16" height="16" viewBox="0 0 16 16" fill="none" xmlns="http://www.w3.org/2000/svg">
<path d="M15.5 0H11.5C11.2239 0 11 0.223858 11 0.5V3.5C11 3.77614 11.2239 4 11.5 4H15.5C15.7761 4 16 3.77614 16 3.5V0.5C16 0.223858 15.7761 0 15.5 0Z" fill="white"/>
<path d="M0 4.5L0 7.5C0 7.77614 0.223858 8 0.5 8H4.5C4.77614 8 5 7.77614 5 7.5V4.5C5 4.22386 4.77614 4 4.5 4H0.5C0.223858 4 0 4.22386 0 4.5Z" fill="white"/>
<path opacity="0.5" d="M12 3V2H8C7.73478 2 7.48043 2.10531 7.29289 2.29285C7.10536 2.48038 7 2.73478 7 3V6H4V7H7V9H8V3.59998C8 3.44085 8.06321 3.2883 8.17574 3.17578C8.28826 3.06326 8.44087 3 8.6 3H12Z" fill="white"/>
<path d="M5.00004 12C5.00004 11.66 5.00004 11.39 5.00004 11.25C4.98759 11.1236 4.9284 11.0064 4.83408 10.9213C4.73975 10.8362 4.61707 10.7895 4.49004 10.7901C4.3752 10.7857 4.26259 10.8225 4.17268 10.8941C4.08276 10.9656 4.0215 11.0672 4.00004 11.1801C3.97142 11.4727 3.97142 11.7675 4.00004 12.0601V13.9101C3.97695 14.2218 4.00054 14.5352 4.07004 14.84C4.10088 14.9392 4.16374 15.0254 4.24878 15.0851C4.33381 15.1448 4.43624 15.1748 4.54004 15.1701C4.67093 15.1701 4.79662 15.1188 4.8901 15.0271C4.98359 14.9355 5.03742 14.811 5.04004 14.6801C5.04004 14.5201 5.04004 14.09 5.04004 13.83H6.04004V14.1601C6.08611 14.5537 6.00926 14.9519 5.82004 15.3001C5.68822 15.5187 5.49953 15.6973 5.2741 15.8171C5.04867 15.9368 4.79497 15.9932 4.54004 15.98C4.33164 15.9854 4.1244 15.9473 3.93156 15.8681C3.73872 15.7889 3.56451 15.6704 3.42004 15.5201C3.11004 15.1701 3.04004 14.88 3.04004 13.97V11.97C3.04004 11.05 3.11004 10.7601 3.42004 10.4101C3.56451 10.2598 3.73872 10.1413 3.93156 10.0621C4.1244 9.98285 4.33164 9.94463 4.54004 9.94999C4.79053 9.93684 5.04014 9.98894 5.2645 10.1011C5.48885 10.2133 5.68026 10.3817 5.82004 10.59C6.00292 10.9114 6.0799 11.2824 6.04004 11.6501V11.97L5.00004 12Z" fill="white"/>
<path d="M12 13H10V15H9V13H7V12H9V10H10V12H12V13Z" fill="white"/>
<path d="M16 13H14V15H13V13H11V12H13V10H14V12H16V13Z" fill="white"/>
</svg>
