<svg width="16" height="16" viewBox="0 0 16 16" fill="none" xmlns="http://www.w3.org/2000/svg">
<path opacity="0.5" d="M3.19995 5.59998L2.19995 5C2.19995 5 2.19995 5.00002 2.19995 4.90002C2.19995 3.00002 2.99995 1.3 4.19995 0L4.89995 0.700012C3.79995 1.80001 3.19995 3.20002 3.19995 4.90002C3.09995 5.20002 3.09995 5.39998 3.19995 5.59998ZM13.9 0.0999756L13.2 0.799988C14.3 1.89999 14.9 3.3 14.9 5C14.9 6.7 14.2 8.10001 13.2 9.20001L13.9 9.90002C15.1 8.70002 15.9 6.9 15.9 5C15.9 3.1 15.1 1.39998 13.9 0.0999756ZM5.09995 6.70001L6.49995 7.5L6.69995 7.29999C6.09995 6.69999 5.69995 5.9 5.69995 5C5.69995 4.1 6.09995 3.30001 6.69995 2.70001L5.99995 2C5.19995 2.8 4.79995 3.8 4.79995 5C4.79995 5.6 4.89995 6.20001 5.09995 6.70001ZM12 2L11.3 2.70001C11.9 3.30001 12.3 4.1 12.3 5C12.3 5.9 11.9 6.69999 11.3 7.29999L12 8C12.8 7.2 13.2 6.2 13.2 5C13.2 3.8 12.8 2.8 12 2Z" fill="white"/>
<path d="M8.99995 6.79993C9.99406 6.79993 10.8 5.99405 10.8 4.99994C10.8 4.00583 9.99406 3.19995 8.99995 3.19995C8.00584 3.19995 7.19995 4.00583 7.19995 4.99994C7.19995 5.99405 8.00584 6.79993 8.99995 6.79993Z" fill="white"/>
<path d="M0 16L9.2 11L0 6V16Z" fill="white"/>
</svg>
