<svg width="800" height="800" viewBox="0 0 800 800" fill="none" xmlns="http://www.w3.org/2000/svg">
<path fill-rule="evenodd" clip-rule="evenodd" d="M400.279 753.727C204.725 753.727 46.1361 595.138 46.1361 399.356C46.1361 203.574 204.725 45.2134 400.279 45.2134C595.833 45.2134 754.65 203.802 754.65 399.356C754.65 594.91 596.061 753.727 400.279 753.727Z" fill="#0078D4"/>
<path fill-rule="evenodd" clip-rule="evenodd" d="M619.815 452.722C613.423 483.308 585.12 562.056 494.959 604.74L458.666 563.882L397.494 625.283C358.234 625.283 276.747 611.359 218.998 533.752C218.998 533.752 230.411 537.405 239.085 537.633C249.128 537.861 259.856 534.209 259.856 517.318V351.376C260.997 337.681 247.758 318.964 225.389 323.986C197.086 330.377 174.488 401.136 174.488 401.136C174.488 315.769 218.313 257.792 252.323 229.032C294.551 193.196 335.865 181.098 367.136 176.076C336.321 193.652 318.746 222.412 318.746 246.607C318.746 285.411 342.028 280.617 349.104 274.911V498.829C349.104 498.829 350.473 502.481 353.669 506.818C358.234 512.981 366.908 520.514 380.603 520.514C404.113 520.514 434.471 493.808 434.471 493.808V312.573C434.471 294.084 420.548 271.944 406.624 264.183C406.624 264.183 432.417 259.618 452.275 274.911C456.612 269.661 460.721 265.324 464.144 261.9C510.48 216.478 554.305 203.467 590.598 196.848C590.598 196.848 524.404 248.89 524.404 318.736C524.404 370.55 525.773 497.232 525.773 497.232C550.425 520.97 586.946 486.504 619.815 452.722Z" fill="white"/>
<path fill-rule="evenodd" clip-rule="evenodd" d="M400.461 30.4498C196.629 30.4498 31.3726 195.707 31.3726 399.539C31.3726 603.371 196.629 768.627 400.461 768.627C604.293 768.627 769.55 603.371 769.55 399.539C769.55 195.707 604.522 30.4498 400.461 30.4498ZM400.461 754.019C204.847 754.019 46.2092 595.382 46.2092 399.539C46.2092 203.696 204.847 45.2864 400.461 45.2864C596.076 45.2864 754.942 203.924 754.942 399.539C754.942 595.153 596.304 754.019 400.461 754.019Z" fill="#0078D4"/>
</svg>
