<svg width="16" height="16" viewBox="0 0 16 16" fill="none" xmlns="http://www.w3.org/2000/svg">
<path d="M14 7V5C14 4.73478 13.8946 4.48044 13.7071 4.29291C13.5196 4.10537 13.2652 4 13 4H8L6.28 2.28003C6.09712 2.10371 5.85401 2.00358 5.60001 2H1C0.734784 2 0.480444 2.10537 0.292908 2.29291C0.105371 2.48044 0 2.73478 0 3V13L4 7H14Z" fill="white"/>
<path d="M15 8H4.79996L0.47998 14H12.28C12.4378 13.9966 12.5926 13.9558 12.7316 13.881C12.8706 13.8063 12.99 13.6997 13.08 13.57L15.8 9.5C15.8854 9.35277 15.9319 9.18615 15.935 9.01593C15.9381 8.84571 15.8976 8.6775 15.8175 8.52728C15.7374 8.37706 15.6202 8.24981 15.4772 8.15753C15.3341 8.06525 15.1699 8.01103 15 8V8ZM7.41998 11.8C7.11898 12.2467 6.72709 12.625 6.26996 12.91C5.92583 13.1274 5.55645 13.3021 5.16998 13.43C4.83134 13.5414 4.47643 13.5956 4.11996 13.59C3.8847 13.604 3.64922 13.5664 3.42996 13.48C3.26487 13.4135 3.12973 13.2891 3.04996 13.13C2.90996 12.79 3.04996 12.5 3.73996 11.61L4.73996 10.35C5.15473 9.71156 5.73086 9.19409 6.40997 8.84998C6.70193 8.70024 7.01079 8.58612 7.32996 8.51001C7.60306 8.43242 7.88611 8.39537 8.16998 8.40002C8.44078 8.3818 8.71192 8.42981 8.95996 8.53998C9.05066 8.58466 9.12906 8.65087 9.18832 8.73279C9.24759 8.81471 9.2859 8.90988 9.29996 9.01001C9.24695 9.39328 9.06328 9.7465 8.77997 10.01L8.49997 10.31H7.28998L7.84998 9.59998C7.8831 9.54947 7.90073 9.4904 7.90073 9.42999C7.90073 9.36959 7.8831 9.31052 7.84998 9.26001C7.8072 9.21446 7.75358 9.18049 7.69412 9.16125C7.63467 9.14202 7.57133 9.13816 7.50998 9.15002C7.34855 9.1445 7.18794 9.17522 7.03998 9.23999C6.87562 9.30799 6.72358 9.40262 6.58997 9.52002C6.33264 9.78821 6.09218 10.0721 5.86996 10.37L4.97998 11.51C4.73251 11.7856 4.52084 12.0913 4.34998 12.42C4.33356 12.4604 4.32954 12.5049 4.33844 12.5476C4.34734 12.5903 4.36876 12.6294 4.39996 12.66C4.48596 12.7249 4.59243 12.7569 4.69998 12.75C4.89051 12.7466 5.07807 12.7022 5.24997 12.62C5.42897 12.5368 5.58895 12.4177 5.71997 12.27C5.83997 12.11 6.20997 11.69 6.40997 11.44H7.63998L7.41998 11.8ZM12.99 11.31H12.18L11.67 11.98H10.87L11.38 11.31H9.75998L9.24997 11.98H8.43997L8.95996 11.31H8.14996L8.65997 10.64H9.46997L9.99997 10H10.81L10.3 10.66H11.91L12.42 10H13.22L12.71 10.66H13.52L12.99 11.31Z" fill="white"/>
<path opacity="0.5" d="M5.50004 8L0.833374 14H11.8334L15 8H5.50004Z" fill="white"/>
</svg>
