<svg width="16" height="16" viewBox="0 0 16 16" fill="none" xmlns="http://www.w3.org/2000/svg">
<path d="M8 4L6.33 2.33C6.12 2.12 5.83 2 5.54 2H1.12C0.5 2 0 2.5 0 3.12V4H8Z" fill="white"/>
<path d="M14.93 5.00001H0V12.92C0.00260268 13.0645 0.0336102 13.207 0.0913086 13.3395C0.149007 13.4719 0.232236 13.5917 0.336243 13.692C0.440249 13.7923 0.563036 13.8711 0.69751 13.924C0.831984 13.9768 0.975535 14.0027 1.12 14H14.88C15.0245 14.0027 15.168 13.9768 15.3025 13.924C15.437 13.8711 15.5598 13.7923 15.6638 13.692C15.7678 13.5917 15.851 13.4719 15.9087 13.3395C15.9664 13.207 15.9974 13.0645 16 12.92V6.00001C16.0003 5.86259 15.9724 5.72657 15.9178 5.60044C15.8632 5.47432 15.7832 5.36078 15.6828 5.26695C15.5824 5.17311 15.4638 5.10099 15.3342 5.05507C15.2047 5.00914 15.0671 4.99039 14.93 5.00001ZM6.5 8.56001H5C5 8.06001 5 7.68002 5 7.48002C4.97499 7.28384 4.87642 7.10447 4.72418 6.97822C4.57195 6.85198 4.37741 6.78827 4.17999 6.8C4.00501 6.78738 3.83117 6.83651 3.68866 6.93882C3.54615 7.04114 3.44401 7.19016 3.40002 7.36C3.33846 7.78707 3.31502 8.21878 3.33002 8.65001V10.36C3.29691 10.8158 3.33058 11.274 3.42999 11.72C3.4911 11.867 3.59573 11.9918 3.7298 12.0776C3.86386 12.1634 4.02094 12.2061 4.17999 12.2C4.37999 12.211 4.57627 12.1425 4.72607 12.0096C4.87588 11.8766 4.9671 11.6899 4.97998 11.49C4.97998 11.26 5.03003 10.63 5.03003 10.25H6.56V10.73C6.63459 11.307 6.51122 11.8923 6.21002 12.39C5.99131 12.7152 5.69215 12.9781 5.34167 13.1534C4.9912 13.3286 4.60135 13.4101 4.21002 13.39C3.88428 13.4028 3.55932 13.3491 3.255 13.2322C2.95069 13.1153 2.67338 12.9376 2.44 12.71C1.94 12.2 1.83002 11.78 1.83002 10.45V8.56001C1.83002 7.22001 1.94 6.80002 2.44 6.29002C2.67338 6.06241 2.95069 5.88471 3.255 5.7678C3.55932 5.65089 3.88428 5.59719 4.21002 5.61C4.59415 5.58866 4.97763 5.66238 5.32648 5.8246C5.67533 5.98681 5.97879 6.23254 6.21002 6.54002C6.50005 7.00535 6.62343 7.55538 6.56 8.10002L6.5 8.56001ZM13 10H12V11H11V10H9V11H8V10H7V9.00001H8V8.00001H9V9.00001H11V8.00001H12V9.00001H13V10Z" fill="white"/>
<path opacity="0.5" d="M13 5H1V14H13V5Z" fill="white"/>
</svg>
