<svg width="16" height="16" viewBox="0 0 16 16" fill="none" xmlns="http://www.w3.org/2000/svg">
<path d="M14 7V5C14 4.73478 13.8946 4.48044 13.7071 4.29291C13.5196 4.10537 13.2652 4 13 4H8L6.28 2.28003C6.09712 2.10371 5.85401 2.00358 5.60001 2H1C0.734784 2 0.480444 2.10537 0.292908 2.29291C0.105371 2.48044 0 2.73478 0 3V13L4 7H14Z" fill="white"/>
<path opacity="0.5" d="M6 8L2 14H12L14 8H6Z" fill="white"/>
<path d="M15 8H4.79996L0.47998 14H2.99997C3.64997 12.76 5.58997 11.87 7.99997 11.87C10.41 11.87 11.36 12.79 10.72 14H12.34C12.4978 13.9966 12.6525 13.9558 12.7916 13.881C12.9306 13.8063 13.05 13.6997 13.14 13.57L15.86 9.5C15.9475 9.34842 15.9937 9.17655 15.994 9.00153C15.9942 8.8265 15.9485 8.65447 15.8615 8.50262C15.7744 8.35078 15.649 8.22443 15.4979 8.13623C15.3467 8.04803 15.175 8.00105 15 8ZM11 9.75C10.7032 10.1738 10.3078 10.519 9.84787 10.7559C9.38795 10.9928 8.8773 11.1144 8.35995 11.11C7.28995 11.11 6.75996 10.5 7.14996 9.75C7.44901 9.32543 7.84603 8.97921 8.30734 8.74072C8.76865 8.50223 9.28065 8.37851 9.79996 8.38C10.88 8.38 11.42 9 11 9.75Z" fill="white"/>
</svg>
