<svg width="64" height="64" viewBox="0 0 64 64" fill="none" xmlns="http://www.w3.org/2000/svg">
<path d="M1.23049 12.3078C1.2305 9.58889 3.43463 7.38477 6.15355 7.38477H22.7532C24.1746 7.38477 25.5267 7.9991 26.4615 9.06981L28.7565 11.6982C29.002 11.9794 29.1067 12.3566 29.0411 12.7241L27.5588 21.0247H1.23047L1.23049 12.3078Z" fill="url(#paint0_linear_12030_10333)"/>
<path d="M1.2305 9.92243C1.23051 8.52089 2.36665 7.38477 3.76817 7.38477H23.8371C24.5698 7.38477 25.2667 7.70144 25.7486 8.25338L28.9447 11.9137C29.0712 12.0586 29.1252 12.2531 29.0913 12.4425L27.5588 21.0247H1.23047L1.2305 9.92243Z" fill="url(#paint1_linear_12030_10333)"/>
<path fill-rule="evenodd" clip-rule="evenodd" d="M23.8371 7.702H3.76817C2.54185 7.702 1.54771 8.69609 1.54771 9.92243L1.54768 20.7075H27.2932L28.7791 12.3867C28.7959 12.292 28.769 12.1947 28.7057 12.1223L25.5097 8.462C25.088 7.97904 24.4782 7.702 23.8371 7.702ZM27.5588 21.0247L29.0913 12.4425C29.1252 12.2531 29.0712 12.0586 28.9447 11.9137L25.7486 8.25338C25.2667 7.70144 24.5698 7.38477 23.8371 7.38477H3.76817C2.36665 7.38477 1.23051 8.52089 1.2305 9.92243L1.23047 21.0247H27.5588Z" fill="url(#paint2_linear_12030_10333)"/>
<path d="M1.23047 18.17C1.23047 17.4692 1.79854 16.9012 2.49931 16.9012H24.1187C24.8895 16.9012 25.6187 16.5508 26.1003 15.9488L28.9543 12.3812C29.0747 12.2306 29.257 12.1431 29.4497 12.1431H60.2313C61.6329 12.1431 62.7689 13.2792 62.7689 14.6807V52.4285C62.7689 52.7789 62.4846 53.0629 62.1345 53.0629H1.86489C1.51451 53.0629 1.23047 52.7789 1.23047 52.4285V18.17Z" fill="url(#paint3_linear_12030_10333)"/>
<path fill-rule="evenodd" clip-rule="evenodd" d="M62.452 52.4285V14.6807C62.452 13.4544 61.4576 12.4602 60.2313 12.4602H29.4497C29.3534 12.4602 29.2622 12.5041 29.202 12.5793L26.3479 16.1469C25.8062 16.8242 24.9859 17.2184 24.1187 17.2184H2.49931C1.97374 17.2184 1.54767 17.6444 1.54767 18.17V52.4285C1.54767 52.6037 1.68969 52.7457 1.86489 52.7457H62.1345C62.3099 52.7457 62.452 52.6037 62.452 52.4285ZM2.49931 16.9012C1.79854 16.9012 1.23047 17.4692 1.23047 18.17V52.4285C1.23047 52.7789 1.51451 53.0629 1.86489 53.0629H62.1345C62.4846 53.0629 62.7689 52.7789 62.7689 52.4285V14.6807C62.7689 13.2792 61.6329 12.1431 60.2313 12.1431H29.4497C29.257 12.1431 29.0747 12.2306 28.9543 12.3812L26.1003 15.9488C25.6187 16.5508 24.8895 16.9012 24.1187 16.9012H2.49931Z" fill="url(#paint4_linear_12030_10333)"/>
<path d="M1.23047 52.3079H62.7689C62.7689 52.8334 62.3431 53.2595 61.8175 53.2595H2.18209C1.65653 53.2595 1.23047 52.8334 1.23047 52.3079Z" fill="#878787"/>
<path opacity="0.4" d="M22.5889 38.8154H28.3994C28.3219 40.4977 27.8682 41.9808 27.0381 43.2646C26.208 44.5485 25.057 45.5501 23.585 46.2695C22.124 46.9779 20.3975 47.332 18.4053 47.332C16.7894 47.332 15.3451 47.0609 14.0723 46.5186C12.8105 45.9762 11.737 45.196 10.8516 44.1777C9.97721 43.1595 9.30762 41.9255 8.84277 40.4756C8.389 39.0257 8.16211 37.3932 8.16211 35.5781V34.2666C8.16211 32.4515 8.40007 30.819 8.87598 29.3691C9.36296 27.9082 10.0492 26.6686 10.9346 25.6504C11.8311 24.6211 12.9046 23.8353 14.1553 23.293C15.4059 22.7507 16.7949 22.4795 18.3223 22.4795C20.4251 22.4795 22.2015 22.8558 23.6514 23.6084C25.1012 24.361 26.2246 25.3958 27.0215 26.7129C27.8184 28.0189 28.2887 29.5075 28.4326 31.1787H22.6221C22.5999 30.2712 22.445 29.513 22.1572 28.9043C21.8695 28.2845 21.4157 27.8197 20.7959 27.5098C20.1761 27.1999 19.3516 27.0449 18.3223 27.0449C17.6029 27.0449 16.9775 27.1777 16.4463 27.4434C15.915 27.709 15.4723 28.1296 15.1182 28.7051C14.764 29.2806 14.4984 30.0277 14.3213 30.9463C14.1553 31.8538 14.0723 32.9495 14.0723 34.2334V35.5781C14.0723 36.862 14.1497 37.9577 14.3047 38.8652C14.4596 39.7728 14.7087 40.5143 15.0518 41.0898C15.3949 41.6654 15.8376 42.0915 16.3799 42.3682C16.9333 42.6338 17.6084 42.7666 18.4053 42.7666C19.2907 42.7666 20.0378 42.6283 20.6465 42.3516C21.2552 42.0638 21.7256 41.6322 22.0576 41.0566C22.3896 40.4701 22.5667 39.723 22.5889 38.8154Z" fill="black"/>
<path opacity="0.4" d="M42.2227 33.3203V36.707H30.5273V33.3203H42.2227ZM38.2383 28.8672V41.2891H34.5469V28.8672H38.2383ZM55.043 33.3203V36.707H43.3477V33.3203H55.043ZM51.0586 28.8672V41.2891H47.3672V28.8672H51.0586Z" fill="black"/>
<defs>
<linearGradient id="paint0_linear_12030_10333" x1="15.1876" y1="7.38477" x2="15.1876" y2="21.0247" gradientUnits="userSpaceOnUse">
<stop offset="0.349258" stop-color="#878787"/>
<stop offset="1" stop-color="#464646"/>
</linearGradient>
<linearGradient id="paint1_linear_12030_10333" x1="15.1876" y1="7.38477" x2="15.1876" y2="21.0247" gradientUnits="userSpaceOnUse">
<stop offset="0.349258" stop-color="#BEBEBE"/>
<stop offset="1" stop-color="#464646"/>
</linearGradient>
<linearGradient id="paint2_linear_12030_10333" x1="15.1659" y1="7.38477" x2="15.1659" y2="17.2182" gradientUnits="userSpaceOnUse">
<stop stop-color="#DAB277" stop-opacity="0.21"/>
<stop offset="1" stop-opacity="0"/>
</linearGradient>
<linearGradient id="paint3_linear_12030_10333" x1="44.3708" y1="10.7156" x2="1.23043" y2="53.0629" gradientUnits="userSpaceOnUse">
<stop stop-color="#C5C5C5"/>
<stop offset="1" stop-color="white"/>
</linearGradient>
<linearGradient id="paint4_linear_12030_10333" x1="31.9997" y1="12.1431" x2="31.9997" y2="53.0629" gradientUnits="userSpaceOnUse">
<stop stop-color="white"/>
<stop offset="0.84496" stop-color="white" stop-opacity="0"/>
</linearGradient>
</defs>
</svg>
