<svg width="16" height="16" viewBox="0 0 16 16" fill="none" xmlns="http://www.w3.org/2000/svg">
<path opacity="0.5" fill-rule="evenodd" clip-rule="evenodd" d="M7 12.5L6.88 12.25H3.5H1.75L2.63 8.75L0 12.25V14H7V12.5Z" fill="white"/>
<g opacity="0.5">
<path d="M1.75 5.25C1.74902 6.45993 2.1668 7.63291 2.93237 8.56982C3.69795 9.50674 4.7641 10.1499 5.94995 10.39L5.5 9.5L11.9099 7.06006C12.13 6.48176 12.2453 5.86876 12.25 5.25C12.25 3.85761 11.697 2.52229 10.7124 1.53772C9.72784 0.553154 8.39239 0 7 0C5.60762 0 4.27217 0.553154 3.2876 1.53772C2.30303 2.52229 1.75 3.85761 1.75 5.25Z" fill="white"/>
</g>
<path d="M5.52026 9.53003C4.62707 9.22436 3.85127 8.64785 3.30103 7.88074C2.75078 7.11362 2.45341 6.19404 2.4502 5.25C2.4502 4.04326 2.92967 2.88601 3.78296 2.03271C4.63625 1.17942 5.79351 0.699951 7.00024 0.699951H7.19019C6.11485 0.741341 5.09744 1.19792 4.35156 1.97363C3.60569 2.74934 3.18939 3.78385 3.19019 4.85999C3.19379 5.86984 3.56385 6.84409 4.23145 7.60181C4.89904 8.35952 5.81895 8.84921 6.82031 8.97998L5.48022 9.48999L5.52026 9.53003ZM11.5203 5.06006C11.4846 5.99262 11.1318 6.88502 10.5203 7.58997L10.9902 7.41003C11.3592 6.74955 11.5553 6.00652 11.5603 5.25C11.5503 5.19 11.5403 5.12006 11.5403 5.06006H11.5203Z" fill="white"/>
<path d="M8.79023 4.50997C9.37013 4.50997 9.84023 4.03987 9.84023 3.45997C9.84023 2.88007 9.37013 2.40997 8.79023 2.40997C8.21034 2.40997 7.74023 2.88007 7.74023 3.45997C7.74023 4.03987 8.21034 4.50997 8.79023 4.50997Z" fill="white"/>
<path d="M16.0005 12H8.00049V16H16.0005V12ZM15.3904 9.31006L8.00049 12L7.40039 10.36L14.7905 7.67004L15.3904 9.31006Z" fill="white"/>
</svg>
