<svg width="16" height="16" viewBox="0 0 16 16" fill="none" xmlns="http://www.w3.org/2000/svg">
<path d="M7.29004 1.71002L1.70996 7.28998C1.61623 7.38294 1.54198 7.49356 1.49121 7.61542C1.44044 7.73728 1.41431 7.86799 1.41431 8C1.41431 8.13201 1.44044 8.26272 1.49121 8.38458C1.54198 8.50644 1.61623 8.61706 1.70996 8.71002L7.29004 14.29C7.383 14.3837 7.49362 14.4581 7.61548 14.5089C7.73734 14.5596 7.86799 14.5858 8 14.5858C8.13201 14.5858 8.26266 14.5596 8.38452 14.5089C8.50638 14.4581 8.617 14.3837 8.70996 14.29L14.29 8.71002C14.3838 8.61706 14.458 8.50644 14.5088 8.38458C14.5596 8.26272 14.5857 8.13201 14.5857 8C14.5857 7.86799 14.5596 7.73728 14.5088 7.61542C14.458 7.49356 14.3838 7.38294 14.29 7.28998L8.70996 1.71002C8.617 1.61629 8.50638 1.54186 8.38452 1.49109C8.26266 1.44032 8.13201 1.41418 8 1.41418C7.86799 1.41418 7.73734 1.44032 7.61548 1.49109C7.49362 1.54186 7.383 1.61629 7.29004 1.71002ZM6.5 13.5L8 9H4.5L9.5 2.5L8 7H11.5L6.5 13.5Z" fill="white"/>
</svg>
