<svg width="16" height="16" viewBox="0 0 16 16" fill="none" xmlns="http://www.w3.org/2000/svg">
<path opacity="0.5" d="M9.5 2.5H0.5V10.5H9.5V2.5Z" fill="white"/>
<path d="M9 3V10H1V3H9ZM10 2H0V11H10V2Z" fill="white"/>
<path opacity="0.5" fill-rule="evenodd" clip-rule="evenodd" d="M1.5 14C5 13 4 10 4 10H6C6 10 5 13 8.5 14C5.5 14 4.5 14 1.5 14Z" fill="white"/>
<path d="M9 13H1V14H9V13Z" fill="white"/>
<path d="M12 14H16V2H12V14ZM15 5H13V4H15V5ZM15 7H13V6H15V7ZM14 13.25C13.6685 13.25 13.3505 13.1183 13.1161 12.8839C12.8817 12.6495 12.75 12.3315 12.75 12C12.75 11.6685 12.8817 11.3505 13.1161 11.1161C13.3505 10.8817 13.6685 10.75 14 10.75C14.3315 10.75 14.6495 10.8817 14.8839 11.1161C15.1183 11.3505 15.25 11.6685 15.25 12C15.25 12.3315 15.1183 12.6495 14.8839 12.8839C14.6495 13.1183 14.3315 13.25 14 13.25Z" fill="white"/>
</svg>
