<?xml version="1.0" encoding="utf-8"?>
<!-- Generator: Adobe Illustrator 25.2.3, SVG Export Plug-In . SVG Version: 6.00 Build 0)  -->
<svg version="1.1" xmlns="http://www.w3.org/2000/svg" xmlns:xlink="http://www.w3.org/1999/xlink" x="0px" y="0px"
	 viewBox="0 0 220 545" style="enable-background:new 0 0 220 545;" xml:space="preserve">
<style type="text/css">
	.st0{display:none;}
	.st1{display:inline;}
	.st2{opacity:0.6;fill:#DBD9DA;}
	.st3{fill:#DBD9DA;fill-opacity:0.6;}
</style>
<g id="Layer_1">
</g>
<g id="Layer_2" class="st0">
	<g class="st1">
		<circle class="st2" cx="55" cy="54" r="35"/>
	</g>
	<g class="st1">
		<circle class="st2" cx="55" cy="163" r="35"/>
	</g>
	<g class="st1">
		<circle class="st2" cx="55" cy="272" r="35"/>
	</g>
	<g class="st1">
		<circle class="st2" cx="55" cy="381" r="35"/>
	</g>
	<g class="st1">
		<circle class="st2" cx="55" cy="490" r="35"/>
	</g>
	<g class="st1">
		<circle class="st2" cx="161" cy="54" r="35"/>
	</g>
	<g class="st1">
		<circle class="st2" cx="161" cy="163" r="35"/>
	</g>
	<g class="st1">
		<circle class="st2" cx="161" cy="272" r="35"/>
	</g>
	<g class="st1">
		<circle class="st2" cx="161" cy="381" r="35"/>
	</g>
	<g class="st1">
		<circle class="st2" cx="161" cy="490" r="35"/>
	</g>
</g>
<g id="Layer_3">
	<path class="st3" d="M70.5,87h-31c-7.73,0-14-6.27-14-14V35c0-7.73,6.27-14,14-14h31c7.73,0,14,6.27,14,14v38
		C84.5,80.73,78.23,87,70.5,87z"/>
	<path class="st3" d="M166.5,86h-31c-7.73,0-14-6.27-14-14V34c0-7.73,6.27-14,14-14h31c7.73,0,14,6.27,14,14v38
		C180.5,79.73,174.23,86,166.5,86z"/>
	<path class="st3" d="M70.5,196h-31c-7.73,0-14-6.27-14-14v-38c0-7.73,6.27-14,14-14h31c7.73,0,14,6.27,14,14v38
		C84.5,189.73,78.23,196,70.5,196z"/>
	<path class="st3" d="M166.5,195h-31c-7.73,0-14-6.27-14-14v-38c0-7.73,6.27-14,14-14h31c7.73,0,14,6.27,14,14v38
		C180.5,188.73,174.23,195,166.5,195z"/>
	<path class="st3" d="M70.5,307h-31c-7.73,0-14-6.27-14-14v-38c0-7.73,6.27-14,14-14h31c7.73,0,14,6.27,14,14v38
		C84.5,300.73,78.23,307,70.5,307z"/>
	<path class="st3" d="M166.5,306h-31c-7.73,0-14-6.27-14-14v-38c0-7.73,6.27-14,14-14h31c7.73,0,14,6.27,14,14v38
		C180.5,299.73,174.23,306,166.5,306z"/>
	<path class="st3" d="M70.5,414h-31c-7.73,0-14-6.27-14-14v-38c0-7.73,6.27-14,14-14h31c7.73,0,14,6.27,14,14v38
		C84.5,407.73,78.23,414,70.5,414z"/>
	<path class="st3" d="M166.5,413h-31c-7.73,0-14-6.27-14-14v-38c0-7.73,6.27-14,14-14h31c7.73,0,14,6.27,14,14v38
		C180.5,406.73,174.23,413,166.5,413z"/>
	<path class="st3" d="M70.5,525h-31c-7.73,0-14-6.27-14-14v-38c0-7.73,6.27-14,14-14h31c7.73,0,14,6.27,14,14v38
		C84.5,518.73,78.23,525,70.5,525z"/>
	<path class="st3" d="M166.5,524h-31c-7.73,0-14-6.27-14-14v-38c0-7.73,6.27-14,14-14h31c7.73,0,14,6.27,14,14v38
		C180.5,517.73,174.23,524,166.5,524z"/>
</g>
</svg>
