<svg width="20" height="20" viewBox="0 0 20 20" fill="none" xmlns="http://www.w3.org/2000/svg">
<g clip-path="url(#clip0_8729:15250)">
<path opacity="0.5" d="M16.8 8C12.62 11.13 11.71 13.93 11.71 16.09C11.71 17.127 12.122 18.1215 12.8552 18.8548C13.5885 19.5881 14.583 20 15.62 20C16.1343 20.0013 16.6438 19.9012 17.1194 19.7052C17.5949 19.5093 18.0271 19.2215 18.3912 18.8583C18.7554 18.4951 19.0443 18.0636 19.2415 17.5886C19.4386 17.1136 19.54 16.6043 19.54 16.09C19.54 13.93 15.48 11.28 16.8 8ZM15.62 19.48C14.895 19.4774 14.2007 19.1875 13.689 18.6739C13.1773 18.1604 12.89 17.465 12.89 16.74C12.9595 15.7486 13.2241 14.7807 13.6686 13.8918C14.113 13.0029 14.7286 12.2105 15.48 11.56C15.58 14.33 18.36 15.3 18.36 17.13C18.3063 17.8042 17.9881 18.4298 17.4747 18.8701C16.9613 19.3104 16.2945 19.5297 15.62 19.48Z" fill="white"/>
<path d="M14.23 18.31C14.2259 18.4674 14.2538 18.624 14.3122 18.7702C14.3705 18.9165 14.458 19.0493 14.5694 19.1606C14.6807 19.272 14.8135 19.3595 14.9597 19.4178C15.106 19.4762 15.2627 19.5041 15.4201 19.5C15.7765 19.4948 16.1169 19.3509 16.3689 19.0989C16.621 18.8468 16.7649 18.5064 16.7701 18.15C16.5525 17.0835 15.9422 16.1376 15.0601 15.5C15.1001 16.77 14.23 17.43 14.23 18.31Z" fill="white"/>
<path d="M12 10.5V9H8V13H9.86L12 10.5Z" fill="white"/>
<path opacity="0.5" d="M10.71 12H1V2H11V11.67L12 10.5V1H0V13H9.86L10.71 12Z" fill="white"/>
<path d="M4 1H0V5H4V1Z" fill="white"/>
<path d="M4 9H0V13H4V9Z" fill="white"/>
<path d="M8 5H4V9H8V5Z" fill="white"/>
<path d="M12 1H8V5H12V1Z" fill="white"/>
</g>
<defs>
<clipPath id="clip0_8729:15250">
<rect width="20" height="20" fill="white"/>
</clipPath>
</defs>
</svg>
