<svg width="20" height="20" viewBox="0 0 20 20" fill="none" xmlns="http://www.w3.org/2000/svg">
<g clip-path="url(#clip0_8729:15259)">
<path opacity="0.5" fill-rule="evenodd" clip-rule="evenodd" d="M2.91007 15H9.34C9.41547 14.6619 9.50896 14.3281 9.62003 14H3.19999C2.90717 14.0223 2.61313 13.9779 2.34 13.87C2.06161 13.77 1.80888 13.6095 1.60001 13.4C1.39055 13.1911 1.23005 12.9384 1.13004 12.66C1.02217 12.3869 0.977719 12.0928 1.00003 11.8V4.5L0.150059 5.25C0.101398 5.29401 0.0637394 5.34881 0.0400732 5.41C0.0260303 5.47593 0.0260303 5.54407 0.0400732 5.61V12.09C0.0484004 12.8603 0.352728 13.5979 0.890049 14.15C1.43209 14.6779 2.15364 14.9815 2.91007 15V15Z" fill="white"/>
<path opacity="0.5" fill-rule="evenodd" clip-rule="evenodd" d="M10.46 12H5.19999C4.90717 12.0223 4.61313 11.9779 4.34 11.87C4.06161 11.77 3.80888 11.6095 3.60001 11.4C3.39055 11.1911 3.23005 10.9384 3.13004 10.66C3.02217 10.3869 2.97772 10.0928 3.00003 9.8V2.5L2.15006 3.25C2.1014 3.29401 2.06374 3.34881 2.04007 3.41C2.02603 3.47593 2.02603 3.54407 2.04007 3.61V10.09C2.0484 10.8603 2.35273 11.5979 2.89005 12.15C3.44211 12.6873 4.17965 12.9917 4.94999 13H10C10.13 12.65 10.29 12.31 10.46 12Z" fill="white"/>
<path d="M4 2.85003V8.15004C4.00264 8.90509 4.30374 9.62847 4.83765 10.1624C5.37155 10.6963 6.09492 10.9974 6.84998 11H11.05C11.8362 9.80685 12.8569 8.78614 14.05 8.00004L15.05 7.33004V2.85003C15.0474 2.09498 14.7463 1.3716 14.2124 0.837694C13.6785 0.303785 12.955 0.00267131 12.2 3.58392e-05H6.90002C6.52193 -0.00525488 6.1465 0.064485 5.79553 0.205217C5.44457 0.345949 5.12504 0.554878 4.85535 0.819921C4.58565 1.08496 4.37118 1.40086 4.22437 1.74932C4.07755 2.09779 4.00129 2.47191 4 2.85003V2.85003Z" fill="white"/>
<path opacity="0.5" d="M16.8 8C12.62 11.13 11.71 13.93 11.71 16.09C11.71 16.6035 11.8112 17.1119 12.0077 17.5863C12.2042 18.0607 12.4921 18.4917 12.8552 18.8548C13.2183 19.2179 13.6493 19.5059 14.1237 19.7024C14.598 19.8989 15.1065 20 15.62 20C16.1343 20.0013 16.6438 19.9011 17.1194 19.7052C17.5949 19.5093 18.0271 19.2215 18.3912 18.8583C18.7554 18.4951 19.0443 18.0636 19.2415 17.5886C19.4386 17.1136 19.54 16.6043 19.54 16.09C19.54 13.93 15.48 11.28 16.8 8ZM15.62 19.48C14.895 19.4774 14.2007 19.1875 13.689 18.6739C13.1773 18.1604 12.89 17.465 12.89 16.74C12.9595 15.7486 13.2241 14.7807 13.6686 13.8918C14.113 13.0029 14.7286 12.2105 15.48 11.56C15.58 14.33 18.36 15.3 18.36 17.13C18.3063 17.8042 17.9881 18.4298 17.4747 18.8701C16.9613 19.3104 16.2945 19.5297 15.62 19.48V19.48Z" fill="white"/>
<path d="M14.23 18.31C14.2259 18.4674 14.2538 18.624 14.3122 18.7702C14.3705 18.9165 14.458 19.0493 14.5694 19.1606C14.6807 19.272 14.8135 19.3595 14.9597 19.4178C15.106 19.4762 15.2627 19.5041 15.4201 19.5C15.7765 19.4948 16.1169 19.3509 16.3689 19.0989C16.621 18.8468 16.7649 18.5064 16.7701 18.15C16.5525 17.0835 15.9422 16.1376 15.0601 15.5C15.1001 16.77 14.23 17.43 14.23 18.31Z" fill="white"/>
</g>
<defs>
<clipPath id="clip0_8729:15259">
<rect width="20" height="20" fill="white"/>
</clipPath>
</defs>
</svg>
