<svg width="20" height="20" viewBox="0 0 20 20" fill="none" xmlns="http://www.w3.org/2000/svg">
<path opacity="0.5" d="M16.8 8C12.62 11.13 11.71 13.93 11.71 16.09C11.7607 17.0941 12.1954 18.0403 12.9241 18.733C13.6527 19.4258 14.6196 19.8121 15.625 19.8121C16.6304 19.8121 17.5973 19.4258 18.3259 18.733C19.0546 18.0403 19.4893 17.0941 19.54 16.09C19.54 13.93 15.48 11.28 16.8 8ZM15.62 19.48C14.895 19.4774 14.2007 19.1875 13.689 18.6739C13.1773 18.1604 12.89 17.465 12.89 16.74C12.9595 15.7486 13.2241 14.7807 13.6686 13.8918C14.113 13.0029 14.7286 12.2105 15.48 11.56C15.58 14.33 18.36 15.3 18.36 17.13C18.3063 17.8042 17.9881 18.4298 17.4747 18.8701C16.9613 19.3104 16.2945 19.5297 15.62 19.48V19.48Z" fill="white"/>
<path d="M14.23 18.31C14.2259 18.4674 14.2538 18.624 14.3122 18.7702C14.3705 18.9165 14.458 19.0493 14.5694 19.1606C14.6807 19.272 14.8135 19.3595 14.9597 19.4178C15.106 19.4762 15.2627 19.5041 15.4201 19.5C15.7765 19.4948 16.1169 19.3509 16.3689 19.0989C16.621 18.8468 16.7649 18.5064 16.7701 18.15C16.5525 17.0835 15.9422 16.1376 15.0601 15.5C15.1001 16.77 14.23 17.43 14.23 18.31Z" fill="white"/>
<path opacity="0.5" d="M1.5 15.5V3.5L10.5 1.5" stroke="white" stroke-width="0.5" stroke-miterlimit="10"/>
<path opacity="0.5" d="M9.80998 9.24995L11.74 0.559951L11.26 0.449951L9.33998 9.06995L1.64998 3.29995L1.34998 3.69995L9.07998 9.49995L1.34998 15.3L1.64998 15.7L9.33998 9.92995L9.80998 9.74995V9.24995Z" fill="white"/>
<path d="M13 3H10V0H13V3ZM11 8H8V11H11V8ZM3 2H0V5H3V2ZM3 14H0V17H3V14Z" fill="white"/>
</svg>
