<svg width="20" height="20" viewBox="0 0 20 20" fill="none" xmlns="http://www.w3.org/2000/svg">
<g opacity="0.5">
<path d="M16.8 8C12.63 11.13 11.71 13.93 11.71 16.09C11.7607 17.0941 12.1954 18.0403 12.9241 18.7331C13.6527 19.4258 14.6196 19.8121 15.625 19.8121C16.6304 19.8121 17.5973 19.4258 18.3259 18.7331C19.0546 18.0403 19.4893 17.0941 19.54 16.09C19.54 13.93 15.48 11.28 16.8 8ZM15.63 19.48C14.9033 19.48 14.2064 19.1913 13.6925 18.6775C13.1787 18.1636 12.89 17.4667 12.89 16.74C12.9595 15.7486 13.2241 14.7807 13.6686 13.8918C14.113 13.0029 14.7286 12.2105 15.48 11.56C15.58 14.33 18.36 15.3 18.36 17.13C18.3063 17.8024 17.9895 18.4264 17.4783 18.8664C16.9671 19.3064 16.3029 19.5269 15.63 19.48V19.48Z" fill="white"/>
</g>
<path d="M14.23 18.31C14.2259 18.4674 14.2538 18.624 14.3122 18.7702C14.3705 18.9165 14.458 19.0493 14.5694 19.1606C14.6807 19.272 14.8135 19.3595 14.9597 19.4178C15.106 19.4762 15.2627 19.5041 15.4201 19.5C15.7765 19.4948 16.1169 19.3509 16.3689 19.0989C16.621 18.8468 16.7649 18.5064 16.7701 18.15C16.5525 17.0835 15.9422 16.1376 15.0601 15.5C15.1001 16.77 14.23 17.43 14.23 18.31Z" fill="white"/>
<path d="M1 13V1H15V7L16 5.42001V0H0V14H10.2C10.3 13.6585 10.4236 13.3244 10.5699 13H1Z" fill="white"/>
<path opacity="0.5" d="M12.75 9.56995L11.5 7.42993L8.27002 12.9999H10.5699C11.1601 11.7754 11.8918 10.6242 12.75 9.56995V9.56995Z" fill="white"/>
<path opacity="0.5" d="M1.27002 13.0001H5.94002L8.00002 9.76005L5.55002 5.68005L1.27002 13.0001Z" fill="white"/>
<path d="M9.99998 5.76998C10.9775 5.76998 11.77 4.97752 11.77 3.99998C11.77 3.02244 10.9775 2.22998 9.99998 2.22998C9.02244 2.22998 8.22998 3.02244 8.22998 3.99998C8.22998 4.97752 9.02244 5.76998 9.99998 5.76998Z" fill="white"/>
</svg>
