<svg width="20" height="20" viewBox="0 0 20 20" fill="none" xmlns="http://www.w3.org/2000/svg">
<path d="M4 10.4999L10 14.0799V4.9299L4 2.2699V10.4999Z" fill="white"/>
<path opacity="0.5" d="M4.32996 2.16996L8.24996 0.579956L13.83 2.54996" stroke="white" stroke-miterlimit="10"/>
<path opacity="0.5" d="M14 11.14L10 14.08V4.93L14 2.62V11.14Z" fill="white"/>
<path d="M3.81995 11.33C2.97995 12.02 2.11 12.64 1.25 13.33V12.53C2.07 13.01 2.84001 13.5999 3.64001 14.1199L6.02002 15.74L10.78 18.97H10.2L17.97 13.21L18.04 14.05L17.04 13.5399L16.11 12.88C15.49 12.43 14.86 12 14.26 11.53C14.99 11.76 15.7101 12.0099 16.4301 12.2599L17.5 12.64L18.5 13.16L19.21 13.53L18.5699 14.0099L10.8 19.78L10.51 19.99L10.22 19.7899L5.45996 16.56L3.07996 14.94C2.29996 14.39 1.46996 13.94 0.709961 13.3L0.0300293 12.77L0.75 12.5C1.8 12.09 2.78995 11.67 3.81995 11.33Z" fill="white"/>
<path d="M11.1801 14.2L14.9201 16L14.3801 16.84L11.1801 14.2Z" fill="white"/>
<path d="M5.46997 15.6399L8.88997 14.0599L6.00997 16.4799L5.46997 15.6399Z" fill="white"/>
<path d="M17 10H18V6H20L17.5 2L15 6H17V10Z" fill="white"/>
</svg>
