<svg width="20" height="20" viewBox="0 0 20 20" fill="none" xmlns="http://www.w3.org/2000/svg">
<path opacity="0.5" d="M6.10001 0L0 1.9V9.2L6.10001 11L11 5.5L6.10001 0ZM4 5.5L1 7.8V3.2L4 5.5ZM1.60001 2.4L5.29999 1.3L4.60001 4.6L1.60001 2.4ZM4.5 6.3L5.20001 9.6L1.5 8.5L4.5 6.3ZM5.5 6H9.20001L6.20001 9.4L5.5 6ZM5.5 5L6.20001 1.6L9.20001 5H5.5Z" fill="white"/>
<path opacity="0.5" d="M15.1 9L9 10.8V18.1L15.1 19.9L20 14.4L15.1 9ZM13 14.5L10 16.8V12.2L13 14.5ZM10.6 11.4L14.3 10.3L13.6 13.6L10.6 11.4ZM13.5 15.3L14.2 18.6L10.5 17.5L13.5 15.3ZM14.5 15H18.2L15.2 18.4L14.5 15ZM14.5 14L15.2 10.6L18.2 14H14.5Z" fill="white"/>
<path d="M14 2H11V3H14V2Z" fill="white"/>
<path d="M19 7H18V10H19V7Z" fill="white"/>
<path d="M19 2H16V3H18V5H19V2Z" fill="white"/>
<path d="M6 20H9V19H6V20Z" fill="white"/>
<path d="M1 15H2V12H1V15Z" fill="white"/>
<path d="M1 20H4V19H2V17H1V20Z" fill="white"/>
</svg>
