<svg width="20" height="20" viewBox="0 0 20 20" fill="none" xmlns="http://www.w3.org/2000/svg">
<path d="M9.5 5.5C10.8807 5.5 12 4.38071 12 3C12 1.61929 10.8807 0.5 9.5 0.5C8.11929 0.5 7 1.61929 7 3C7 4.38071 8.11929 5.5 9.5 5.5Z" fill="white"/>
<path d="M4 15.5C5.38071 15.5 6.5 14.3807 6.5 13C6.5 11.6193 5.38071 10.5 4 10.5C2.61929 10.5 1.5 11.6193 1.5 13C1.5 14.3807 2.61929 15.5 4 15.5Z" fill="white"/>
<path d="M15 15.5C16.3807 15.5 17.5 14.3807 17.5 13C17.5 11.6193 16.3807 10.5 15 10.5C13.6193 10.5 12.5 11.6193 12.5 13C12.5 14.3807 13.6193 15.5 15 15.5Z" fill="white"/>
<path d="M5.60999 5.90002L7.03003 7.32004L6.31995 8.02003L4.90002 6.61003L5.60999 5.90002ZM2.07996 3.78003L3.48999 5.20003L4.19995 4.49004L2.78003 3.08003L2.07996 3.78003ZM0.150024 1.85004L0.660034 2.37003L1.37 1.66003L0.849976 1.15002L0.150024 1.85004ZM10.5601 8.73003L9.5 9.79002L8.43994 8.73003L7.72998 9.44003L9 10.71V12H10V10.71L11.27 9.44003L10.5601 8.73003ZM18.15 1.15002L17.63 1.66003L18.34 2.37003L18.85 1.85004L18.15 1.15002ZM11.97 7.32004L12.6801 8.02003L14.1 6.61003L13.39 5.90002L11.97 7.32004ZM14.8 4.49004L15.51 5.20003L16.92 3.78003L16.22 3.08003L14.8 4.49004ZM9 16H10V14H9V16ZM9 20H10V18H9V20Z" fill="white"/>
</svg>
