<svg width="20" height="20" viewBox="0 0 20 20" fill="none" xmlns="http://www.w3.org/2000/svg">
<path opacity="0.5" d="M0.800049 2.5L6.20005 6.5L7.50005 0.5L0.800049 2.5Z" fill="white"/>
<path d="M5.6001 7.50002L0.100098 3.40002V11.6L5.6001 7.50002Z" fill="white"/>
<path d="M6.20005 8.40002L0.800049 12.5L7.50005 14.5L6.20005 8.40002Z" fill="white"/>
<path opacity="0.5" d="M7.19995 8L8.49995 14.1L13.9 8H7.19995Z" fill="white"/>
<path opacity="0.5" d="M7.19995 6.90005H13.9L8.49995 0.800049L7.19995 6.90005Z" fill="white"/>
<path opacity="0.5" d="M11.7 15.4001L10.5 14.2C10.5 14.2 12.4 11.9 13.5 10.8C14.6 9.70005 19.3 6.00005 19.3 6.00005C19.4 5.90005 19.7 5.90005 19.8 6.00005C19.9 6.10005 19.9 6.40005 19.8 6.50005C19.8 6.50005 16.1 11.3001 15 12.4001C14 13.6001 11.7 15.4001 11.7 15.4001Z" fill="white"/>
<path d="M10.7 15.7L10 14.9C10 14.9 8.1 14.6 7.3 17.2C6.8 18.9 4.5 19.9999 4.5 19.9999C4.5 19.9999 6.6 19.9999 7.4 19.9999C8.2 19.9999 9.7 19.5999 10.5 17.9999C11.2 16.6999 10.7 15.7 10.7 15.7Z" fill="white"/>
</svg>
