<svg width="20" height="20" viewBox="0 0 20 20" fill="none" xmlns="http://www.w3.org/2000/svg">
<path fill-rule="evenodd" clip-rule="evenodd" d="M17.1001 11C18.5001 13.2 18.0001 15.3 18.0001 15.3C18.0001 15.3 19.5001 13.6 19.6001 10.5C19.7001 7.40002 18.4001 4.50002 16.5001 3.10002C14.8001 1.90002 12.7001 2.40002 12.7001 2.40002C12.7001 2.40002 9.7001 0.300017 5.9001 1.90002C3.0001 3.20002 0.100098 5.30002 0.400098 11C0.700098 16.7 4.6001 19.5 4.6001 19.5C4.6001 19.5 3.8001 18.3 3.3001 17C2.8001 15.7 2.8001 14 3.3001 13.5C3.8001 13 5.6001 13.3 9.3001 11.9C13.0001 10.6 12.7001 8.10002 12.7001 8.10002C12.7001 8.10002 15.7001 8.80002 17.1001 11Z" fill="white"/>
</svg>
