<svg width="20" height="20" viewBox="0 0 20 20" fill="none" xmlns="http://www.w3.org/2000/svg">
<path d="M12.0001 18.6L11.6001 19.1L11.0001 18.5V13.2L5.2001 6.9L0.100098 3.8L0.500098 3L5.9001 6.1L12.0001 12.3V18.6Z" fill="white"/>
<path d="M11.5 12.5V18" stroke="white" stroke-miterlimit="10"/>
<path d="M11.9001 13.2L11.1001 12.2L15.2001 7.09998L19.2001 4.09998L19.8001 4.69998L15.9001 7.89998L11.9001 13.2Z" fill="white"/>
<path opacity="0.5" d="M7 0L0 3V14.3L11.6 19.5L20 14.2V3.2L7 0ZM12 2.3L9.2 3.8L4.8 2.1L6.9 1.1L12 2.3ZM1 3.8L3.8 2.5L8.1 4.4L4.9 6.2L5 6.3V15.3L1 13.7V3.8ZM11.6 18L6 15.7V6.8L9.2 5L15 8.1L15.9 7.1L10.3 4.3L13.3 2.6L19 4.1V13.7L11.6 18Z" fill="white"/>
</svg>
