<svg width="20" height="20" viewBox="0 0 20 20" fill="none" xmlns="http://www.w3.org/2000/svg">
<path d="M18.0999 9.5C18.0999 9.5 14.2999 9.5 9.4999 9.5C4.6999 9.5 0.899902 9.5 0.899902 9.5" stroke="white" stroke-width="0.5" stroke-miterlimit="10"/>
<path d="M18.0999 8.29999C18.0999 8.29999 15.1999 5 9.4999 5C3.7999 5 0.899902 8.29999 0.899902 8.29999" stroke="white" stroke-width="0.5" stroke-miterlimit="10"/>
<path d="M0.899902 10.7001C0.899902 10.7001 3.7999 14.0001 9.4999 14.0001C15.1999 14.0001 18.0999 10.7001 18.0999 10.7001" stroke="white" stroke-width="0.5" stroke-miterlimit="10"/>
<path d="M9.5 0.900024C9.5 0.900024 9.5 4.70003 9.5 9.50003C9.5 14.3 9.5 18.1 9.5 18.1" stroke="white" stroke-width="0.5" stroke-miterlimit="10"/>
<path d="M8.3 0.900024C8.3 0.900024 5 3.80003 5 9.50003C5 15.2 8.3 18.1 8.3 18.1" stroke="white" stroke-width="0.5" stroke-miterlimit="10"/>
<path d="M10.7 18.1C10.7 18.1 14 15.2 14 9.50003C14 3.80003 10.7 0.900024 10.7 0.900024" stroke="white" stroke-width="0.5" stroke-miterlimit="10"/>
<path fill-rule="evenodd" clip-rule="evenodd" d="M18.5 9.5C18.5 14.5 14.5 18.5 9.5 18.5C4.5 18.5 0.5 14.5 0.5 9.5C0.5 4.5 4.5 0.5 9.5 0.5C14.5 0.5 18.5 4.5 18.5 9.5Z" fill="white" fill-opacity="0.5" stroke="white" stroke-miterlimit="10"/>
</svg>
