<svg width="22" height="20" viewBox="0 0 22 20" fill="none" xmlns="http://www.w3.org/2000/svg">
<path d="M3.30002 2.30002C5.60002 -0.0999808 9.00002 -0.399981 9.80002 0.400019L20.6 11.2C20.9 11.5 21 11.9 21 12.4C21 12 20.8 11.6 20.6 11.3C19.6 10.3 16.5 10.9 14.3 13.2C12 15.5 11.4 18.5 12.4 19.5C12.6 19.7 13 19.9 13.5 19.9C13 19.9 12.6 19.8 12.3 19.5L1.40002 8.80002C0.600019 8.00002 0.900019 4.60002 3.30002 2.30002Z" fill="white"/>
<path opacity="0.5" d="M20.4999 11.3C19.4999 10.3 16.3999 10.9 14.1999 13.2C11.9999 15.5 11.2999 18.5 12.2999 19.5C13.2999 20.5 16.2999 19.8 18.5999 17.5C20.8999 15.2 21.5999 12.3 20.4999 11.3Z" fill="white"/>
</svg>
