<svg width="20" height="20" viewBox="0 0 20 20" fill="none" xmlns="http://www.w3.org/2000/svg">
<path opacity="0.5" d="M11.7818 11.7922C14.5155 9.05857 16.0667 6.1777 15.2466 5.35761C14.4265 4.53751 11.5456 6.08875 8.812 8.82239C6.07836 11.556 4.52712 14.4369 5.34721 15.257C6.16731 16.0771 9.04818 14.5259 11.7818 11.7922Z" fill="white"/>
<path d="M8.8 8.8C6.2 11.4 4.7 14.1 5.2 15.1C5.1 15.1 5.1 15 5 15L0.5 0.5L15 5C15.1 5.1 15.1 5.1 15.1 5.2C14.1 4.7 11.4 6.3 8.8 8.8Z" fill="white"/>
<path d="M10.2999 10.3C11.2999 9.3 12.6999 9.2 12.9999 9.5L19.3999 15.9C19.4999 16 19.5999 16.2 19.5999 16.4C19.5999 16.2 19.4999 16.1 19.3999 16C18.9999 15.6 17.6999 15.8 16.7999 16.8C15.8999 17.7 15.5999 19 15.9999 19.4C16.0999 19.5 16.2999 19.6 16.3999 19.6C16.1999 19.6 15.9999 19.6 15.8999 19.4L9.49988 13C9.19988 12.7 9.29988 11.2 10.2999 10.3Z" fill="white"/>
<path opacity="0.5" d="M19.2999 16C18.8999 15.6 17.5999 15.8 16.6999 16.8C15.7999 17.7 15.4999 19 15.8999 19.4C16.2999 19.8 17.4999 19.5 18.4999 18.6C19.4999 17.7 19.6999 16.4 19.2999 16Z" fill="white"/>
</svg>
