<svg xmlns="http://www.w3.org/2000/svg" viewBox="0 0 20 20"><defs><style>.cls-1,.cls-2{fill:#fff;}.cls-1{opacity:0.5;}.cls-3{fill:none;}</style></defs><g id="Layer_2" data-name="Layer 2"><g id="Layer_3" data-name="Layer 3"><g id="ModelingSubD"><polygon class="cls-1" points="12 20 20 16 20 4 12 0 12 1.5 19 4.58 19 15.42 12 18.5 12 20"/><path class="cls-1" d="M10,3.5A6.27,6.27,0,0,0,4,10a6.27,6.27,0,0,0,6,6.5A6.27,6.27,0,0,0,16,10a6.27,6.27,0,0,0-6-6.5Z"/><path class="cls-2" d="M0,3V17l12,3V0ZM1,8l10-.85v5.75L1,12ZM11,1.49V6L1,7V3.78ZM1,16.22V13.05L11,14v4.6Z"/><rect class="cls-3" width="20" height="20"/><polygon class="cls-2" points="19 7.63 11.93 5.93 11.9 6.99 19 7.93 19 7.63"/><polygon class="cls-2" points="19 12.07 11.9 13.01 11.95 14.1 19 12.41 19 12.07"/></g></g></g></svg>