<svg width="20" height="20" viewBox="0 0 20 20" fill="none" xmlns="http://www.w3.org/2000/svg">
<path d="M10.9297 5.06982C12.0343 5.06982 12.9297 4.17439 12.9297 3.06982C12.9297 1.96525 12.0343 1.06982 10.9297 1.06982C9.82512 1.06982 8.92969 1.96525 8.92969 3.06982C8.92969 4.17439 9.82512 5.06982 10.9297 5.06982Z" fill="white"/>
<path d="M4.92969 10.0698C6.03426 10.0698 6.92969 9.17439 6.92969 8.06982C6.92969 6.96525 6.03426 6.06982 4.92969 6.06982C3.82512 6.06982 2.92969 6.96525 2.92969 8.06982C2.92969 9.17439 3.82512 10.0698 4.92969 10.0698Z" fill="white"/>
<path d="M6.92969 17.0698C8.03426 17.0698 8.92969 16.1744 8.92969 15.0698C8.92969 13.9653 8.03426 13.0698 6.92969 13.0698C5.82512 13.0698 4.92969 13.9653 4.92969 15.0698C4.92969 16.1744 5.82512 17.0698 6.92969 17.0698Z" fill="white"/>
<path d="M14.9297 17.0698C16.0343 17.0698 16.9297 16.1744 16.9297 15.0698C16.9297 13.9653 16.0343 13.0698 14.9297 13.0698C13.8251 13.0698 12.9297 13.9653 12.9297 15.0698C12.9297 16.1744 13.8251 17.0698 14.9297 17.0698Z" fill="white"/>
<path opacity="0.5" d="M10 7.5C11.933 7.5 13.5 5.933 13.5 4C13.5 2.067 11.933 0.5 10 0.5C8.067 0.5 6.5 2.067 6.5 4C6.5 5.933 8.067 7.5 10 7.5Z" fill="white"/>
<path opacity="0.5" d="M4 12.5C5.933 12.5 7.5 10.933 7.5 9C7.5 7.067 5.933 5.5 4 5.5C2.067 5.5 0.5 7.067 0.5 9C0.5 10.933 2.067 12.5 4 12.5Z" fill="white"/>
<path opacity="0.5" d="M6 19.5C7.933 19.5 9.5 17.933 9.5 16C9.5 14.067 7.933 12.5 6 12.5C4.067 12.5 2.5 14.067 2.5 16C2.5 17.933 4.067 19.5 6 19.5Z" fill="white"/>
<path opacity="0.5" d="M14 19.5C15.933 19.5 17.5 17.933 17.5 16C17.5 14.067 15.933 12.5 14 12.5C12.067 12.5 10.5 14.067 10.5 16C10.5 17.933 12.067 19.5 14 19.5Z" fill="white"/>
<path opacity="0.5" d="M16 12.5C17.933 12.5 19.5 10.933 19.5 9C19.5 7.067 17.933 5.5 16 5.5C14.067 5.5 12.5 7.067 12.5 9C12.5 10.933 14.067 12.5 16 12.5Z" fill="white"/>
<path d="M16.9297 10.0698C18.0343 10.0698 18.9297 9.17439 18.9297 8.06982C18.9297 6.96525 18.0343 6.06982 16.9297 6.06982C15.8251 6.06982 14.9297 6.96525 14.9297 8.06982C14.9297 9.17439 15.8251 10.0698 16.9297 10.0698Z" fill="white"/>
</svg>
