<svg xmlns="http://www.w3.org/2000/svg" viewBox="0 0 20 20"><defs><style>.cls-1,.cls-2{fill:#fff;}.cls-1{fill-rule:evenodd;}.cls-2{opacity:0.5;}.cls-3{fill:none;}</style></defs><g id="Layer_2" data-name="Layer 2"><g id="Layer_3" data-name="Layer 3"><g id="ModelingLODManager"><path class="cls-1" d="M6,1V12h4.5c0-.72,1.63-2.48,3.83-2.48H15V1Z"/><polygon class="cls-2" points="3 6 3 14 9 14 9 13 5 13 5 6 3 6"/><polygon class="cls-2" points="0 10 0 16 5 16 5 15 2 15 2 10 0 10"/><path class="cls-1" d="M19.77,16a4.52,4.52,0,0,0,.06-.53,4.52,4.52,0,0,0-.06-.53l-1.33-.2a2.82,2.82,0,0,0-.35-.84l.81-1.08a4.49,4.49,0,0,0-.76-.75l-1.08.8a3.09,3.09,0,0,0-.84-.34L16,11.23a4.78,4.78,0,0,0-.53-.06,4.69,4.69,0,0,0-.54.06l-.2,1.33a3,3,0,0,0-.82.35l-1.09-.81a4.49,4.49,0,0,0-.75.76L12.9,14a2.84,2.84,0,0,0-.34.82L11.23,15a5,5,0,0,0-.06.54,5,5,0,0,0,.06.54l1.33.19a2.84,2.84,0,0,0,.34.82l-.8,1.09a4.49,4.49,0,0,0,.75.76l1.09-.81a2.86,2.86,0,0,0,.82.35l.2,1.33a4.69,4.69,0,0,0,.54.06,4.78,4.78,0,0,0,.53-.06l.19-1.33a3.09,3.09,0,0,0,.84-.34l1.08.8a4.49,4.49,0,0,0,.76-.75l-.81-1.08a2.82,2.82,0,0,0,.35-.84ZM15.5,17.38a1.88,1.88,0,1,1,1.87-1.88A1.88,1.88,0,0,1,15.5,17.38Z"/><rect class="cls-3" width="20" height="20"/></g></g></g></svg>