<svg width="20" height="20" viewBox="0 0 20 20" fill="none" xmlns="http://www.w3.org/2000/svg">
<path d="M19 10.1V8.91003L9 13.71L1 8.91003V10.1L9 14.9L19 10.1Z" fill="white"/>
<path opacity="0.5" fill-rule="evenodd" clip-rule="evenodd" d="M19 4.5L10.8494 0.265747L1 4.5V8.90999L9 13.71L19 8.90999V4.5ZM17.8909 5.05899L10.8106 1.35427L2.00685 5.13431L9 9.53998L17.8909 5.05899ZM19 10.0648V13.9648L9 19.4648L1 14.1848V10.0848L9 14.8848L19 10.0648Z" fill="white"/>
<path fill-rule="evenodd" clip-rule="evenodd" d="M10.8537 3.9425L15.0546 6.5L14.0546 7L10.8062 5.05759L5.65698 7.43035L4.55719 6.73614L10.8537 3.9425Z" fill="white"/>
</svg>
