<svg width="20" height="20" viewBox="0 0 20 20" fill="none" xmlns="http://www.w3.org/2000/svg">
<path opacity="0.5" d="M10 1.5C3.7 1.5 0 5.8 0 9.4C0 14.6 3.7 18 10 18C16.3 18 20 14.6 20 9.3C20 5.8 16.3 1.5 10 1.5ZM10 10.9C7.5 10.9 5.4 9.6 5.4 7.9C5.4 6.2 7.5 4.9 10 4.9C12.5 4.9 14.6 6.2 14.6 7.9C14.6 9.6 12.5 10.9 10 10.9Z" fill="white"/>
<path d="M10 2.19995C4.5 2.19995 1.5 5.39995 1.5 8.39995C1.5 12 4.5 14.9 10 14.9C15.5 14.9 18.6 11.9 18.6 8.39995C18.6 5.39995 15.5 2.19995 10 2.19995ZM10 12C5.1 12 4.1 9.49995 4.1 7.79995C4.1 6.09995 6.1 3.09995 10 3.09995C14 3.09995 15.9 6.19995 15.9 7.79995C15.9 9.39995 14.9 12 10 12Z" fill="white"/>
</svg>
