<svg width="20" height="20" viewBox="0 0 20 20" fill="none" xmlns="http://www.w3.org/2000/svg">
<path opacity="0.5" d="M9.5 18.5C14.4706 18.5 18.5 14.4706 18.5 9.5C18.5 4.52944 14.4706 0.5 9.5 0.5C4.52944 0.5 0.5 4.52944 0.5 9.5C0.5 14.4706 4.52944 18.5 9.5 18.5Z" fill="white"/>
<path d="M9.5 1.20001C14 1.20001 17.7 4.89999 17.7 9.39999C17.7 13.9 14 17.6 9.5 17.6C5 17.6 1.3 13.9 1.3 9.39999C1.3 4.89999 5 1.20001 9.5 1.20001ZM9.5 0.5C4.5 0.5 0.5 4.5 0.5 9.5C0.5 14.5 4.5 18.5 9.5 18.5C14.5 18.5 18.5 14.5 18.5 9.5C18.5 4.5 14.5 0.5 9.5 0.5Z" fill="white"/>
<path d="M5.3 6.20004C5.3 6.20004 7.4 5.90002 9.5 5.90002C11.6 5.90002 13.7 6.20004 13.7 6.20004C13.7 6.20004 14 7.50003 14 9.50003C14 11.5 13.7 12.8 13.7 12.8C13.7 12.8 11.6 13.1 9.5 13.1C7.4 13.1 5.3 12.8 5.3 12.8C5.3 12.8 5 11.5 5 9.50003C5 7.50003 5.3 6.20004 5.3 6.20004Z" stroke="white" stroke-width="0.75" stroke-miterlimit="10"/>
<path d="M3 4L4.9 5.89999" stroke="white" stroke-width="0.5" stroke-miterlimit="10"/>
<path d="M14.1001 13.3L16.0001 15.1001" stroke="white" stroke-width="0.5" stroke-miterlimit="10"/>
<path d="M14.1001 5.89999L16.0001 4" stroke="white" stroke-width="0.5" stroke-miterlimit="10"/>
<path d="M3 15.1001L4.9 13.3" stroke="white" stroke-width="0.5" stroke-miterlimit="10"/>
</svg>
