<svg width="20" height="20" viewBox="0 0 20 20" fill="none" xmlns="http://www.w3.org/2000/svg">
<path fill-rule="evenodd" clip-rule="evenodd" d="M10 17.5C8.01088 17.5 6.10318 16.7098 4.69666 15.3033C3.29013 13.8968 2.5 11.9891 2.5 10C2.5 8.01088 3.29013 6.10322 4.69666 4.6967C6.10318 3.29018 8.01088 2.5 10 2.5C11.9891 2.5 13.8968 3.29018 15.3033 4.6967C16.7099 6.10322 17.5 8.01088 17.5 10C17.5 11.9891 16.7099 13.8968 15.3033 15.3033C13.8968 16.7098 11.9891 17.5 10 17.5ZM10 3.62C8.30792 3.62 6.68513 4.29218 5.48865 5.48866C4.29217 6.68514 3.62 8.30792 3.62 10C3.62 11.6921 4.29217 13.3149 5.48865 14.5113C6.68513 15.7078 8.30792 16.38 10 16.38C11.6903 16.3773 13.3106 15.704 14.5049 14.5078C15.6992 13.3116 16.37 11.6904 16.37 10C16.37 8.30965 15.6992 6.68838 14.5049 5.49219C13.3106 4.29599 11.6903 3.62264 10 3.62Z" fill="white"/>
<path opacity="0.5" d="M9.99998 13.77C12.0821 13.77 13.77 12.0821 13.77 9.99998C13.77 7.91787 12.0821 6.22998 9.99998 6.22998C7.91787 6.22998 6.22998 7.91787 6.22998 9.99998C6.22998 12.0821 7.91787 13.77 9.99998 13.77Z" fill="white"/>
<path fill-rule="evenodd" clip-rule="evenodd" d="M20 11H11V20H9V11H0V9H9V0H11V9H20V11Z" fill="white"/>
</svg>
