<svg width="20" height="20" viewBox="0 0 20 20" fill="none" xmlns="http://www.w3.org/2000/svg">
<path d="M13 0H10V3H13V0Z" fill="white"/>
<path d="M11 8H8V11H11V8Z" fill="white"/>
<path d="M3 2H0V5H3V2Z" fill="white"/>
<path d="M3 14H0V17H3V14Z" fill="white"/>
<path opacity="0.5" d="M13 17H10V20H13V17Z" fill="white"/>
<path opacity="0.5" d="M20 8H17V11H20V8Z" fill="white"/>
<path opacity="0.5" d="M13 17.19V17H12.5L17.83 11H18.5L13 17.19ZM10 17.7899L1.75 15.31V3.68996L11.42 0.789948L17.83 7.99995H18.5L11.58 0.209961L1.25 3.30995V15.69L10 18.31V17.7899Z" fill="white"/>
<path opacity="0.5" d="M11.42 17L9.80998 9.74995H17V9.24995H9.80998L11.74 0.559951L11.26 0.449951L9.33998 9.06995L1.64998 3.29995L1.34998 3.69995L9.07998 9.49995L1.34998 15.3L1.64998 15.7L9.33998 9.92995L10.91 17H11.42Z" fill="white"/>
</svg>
