<svg width="20" height="20" viewBox="0 0 20 20" fill="none" xmlns="http://www.w3.org/2000/svg">
<path d="M2.84998 3.81L9.01998 8.43L10.56 1.5L2.84998 3.81Z" fill="white"/>
<path d="M10.1801 8.88003H17.9201L11.7301 1.91003L10.1801 8.88003Z" fill="white"/>
<path d="M10.1801 10.12L11.7301 17.09L17.9201 10.12H10.1801Z" fill="white"/>
<path opacity="0.5" d="M11.55 0L1 3.19V15.81L11.55 18.97L19.97 9.5L11.55 0ZM9.08008 9.47L2 14.78V4.19L9.08008 9.47ZM2.36011 3.8L11.0901 1.17999L9.34009 9.03999L2.36011 3.8ZM9.36011 9.89999L11.1101 17.76L2.37988 15.14L9.36011 9.89999ZM9.83008 9.72H18.4299L11.55 17.46L9.83008 9.72ZM9.83008 9.22L11.55 1.48L18.4299 9.22H9.83008Z" fill="white"/>
</svg>
