<?xml version="1.0" encoding="UTF-8" standalone="no"?>
<svg
   width="20"
   height="20"
   viewBox="0 0 20 20"
   fill="none"
   version="1.1"
   id="svg17"
   sodipodi:docname="SelectionToolbar_Edits.svg"
   inkscape:version="1.2.1 (9c6d41e410, 2022-07-14)"
   xmlns:inkscape="http://www.inkscape.org/namespaces/inkscape"
   xmlns:sodipodi="http://sodipodi.sourceforge.net/DTD/sodipodi-0.dtd"
   xmlns="http://www.w3.org/2000/svg"
   xmlns:svg="http://www.w3.org/2000/svg">
  <defs
     id="defs21" />
  <sodipodi:namedview
     id="namedview19"
     pagecolor="#a8a8a8"
     bordercolor="#000000"
     borderopacity="0.25"
     inkscape:showpageshadow="2"
     inkscape:pageopacity="0"
     inkscape:pagecheckerboard="0"
     inkscape:deskcolor="#d1d1d1"
     showgrid="false"
     inkscape:zoom="47.075"
     inkscape:cx="7.6792353"
     inkscape:cy="15.177908"
     inkscape:window-width="3643"
     inkscape:window-height="2126"
     inkscape:window-x="186"
     inkscape:window-y="-11"
     inkscape:window-maximized="1"
     inkscape:current-layer="svg17" />
  <path
     style="color:#000000;fill:#ececec;stroke-width:0.627434;stroke-linecap:round;stroke-linejoin:round;-inkscape-stroke:none"
     d="m 15.708975,11.035326 a 0.575184,0.575184 0 0 0 -0.412979,0.153182 0.575184,0.575184 0 0 0 -0.02941,0.812478 l 2.395766,2.579585 -2.406795,2.746247 a 0.575184,0.575184 0 0 0 0.05269,0.811252 0.575184,0.575184 0 0 0 0.811253,-0.05269 l 2.749923,-3.135942 a 0.57524152,0.57524152 0 0 0 -0.01103,-0.770815 L 16.10847,11.219147 a 0.575184,0.575184 0 0 0 -0.399499,-0.183819 z"
     id="path21505" />
  <g
     id="g1831"
     transform="matrix(-1.0309816,-0.47678505,0.47678505,-1.0309816,9.1644709,21.997299)">
    <rect
       style="fill:#f2f2f2;stroke:none;stroke-width:2.75223;stroke-linecap:round;stroke-linejoin:miter;stroke-dasharray:none"
       id="rect1738"
       width="4.3979998"
       height="8.709506"
       x="2.1081443"
       y="6.0541687" />
    <g
       id="g1824">
      <path
         sodipodi:type="star"
         style="fill:#f2f2f2;stroke:none;stroke-width:2.69858;stroke-linecap:round;stroke-linejoin:miter;stroke-dasharray:none"
         id="path1632"
         inkscape:flatsided="false"
         sodipodi:sides="3"
         sodipodi:cx="4.0148697"
         sodipodi:cy="10.387679"
         sodipodi:r1="1.8523827"
         sodipodi:r2="0.92619139"
         sodipodi:arg1="0.52359878"
         sodipodi:arg2="1.5707963"
         inkscape:rounded="0"
         inkscape:randomized="0"
         d="m 5.6190801,11.31387 -1.6042104,0 -1.6042105,0 0.8021052,-1.3892866 0.8021053,-1.389287 0.8021052,1.389287 z"
         inkscape:transform-center-y="-0.63479858"
         transform="matrix(1.3707715,0,0,1.3707715,-1.1963247,-9.6294694)" />
      <path
         id="rect1738-7"
         style="fill:#f2f2f2;stroke:none;stroke-width:2.75223;stroke-linecap:round;stroke-linejoin:miter;stroke-dasharray:none"
         d="m 2.1079253,14.954224 v 0.791603 c 0,0.997199 0.8035823,1.800782 1.8007813,1.800782 h 0.7968746 c 0.997199,0 1.800782,-0.803583 1.800782,-1.800782 v -0.791603 z"
         sodipodi:nodetypes="csssscc" />
      <rect
         style="fill:#f2f2f2;stroke:none;stroke-width:2.69858;stroke-linecap:round;stroke-linejoin:miter;stroke-dasharray:none"
         id="rect1740"
         width="0.67976636"
         height="1.3595327"
         x="4.3122678"
         y="9.7369766" />
    </g>
  </g>
</svg>
