<svg xmlns="http://www.w3.org/2000/svg" viewBox="0 0 20 20"><defs><style>.cls-1,.cls-2{fill:#fff;}.cls-2{opacity:0.5;}.cls-3{fill:none;}</style></defs><g id="Layer_2" data-name="Layer 2"><g id="Layer_4" data-name="Layer 4"><path class="cls-1" d="M3,3c0,.35-.08,2.68,0,3H4.19A.81.81,0,0,1,5,6.81V7.7a3.9,3.9,0,0,0,3,0V6.81A.81.81,0,0,1,8.81,6H10c.08-.32,0-2.65,0-3C10,.79,8.71,0,6.5,0S3,.79,3,3ZM7,3H9V5H8.11A1.11,1.11,0,0,1,7,3.89ZM7,6H6l.5-1ZM4,3H6v.89A1.11,1.11,0,0,1,4.89,5H4ZM2,10V9h9v.88l-.13.12H7v1H9.81c-.35.34-.67.67-1,1H7v1H8a3.67,3.67,0,0,0-3,1H3V13H6V12H3V11H6V10Zm9.11-.22L11,9l1,0h0ZM4.37,15c-.14.32-.26.66-.37,1H3V15ZM1,16H0L1,9,2,9Z"/><path class="cls-2" d="M10.94,15,9.65,13.71s2-2.5,3.26-3.72,6.41-5.23,6.41-5.23a.39.39,0,0,1,.56,0h0a.39.39,0,0,1,0,.56s-4,5.23-5.26,6.45S10.94,15,10.94,15Z"/><path class="cls-1" d="M9.8,15.33l-.8-.9s-2.13-.36-2.92,2.51C5.57,18.78,3,20,3,20H6.18a3.9,3.9,0,0,0,3.41-2.15A2.93,2.93,0,0,0,9.8,15.33Z"/><rect class="cls-3" width="20" height="20"/></g></g></svg>