<svg width="16" height="16" viewBox="0 0 16 16" fill="none" xmlns="http://www.w3.org/2000/svg">
<g clip-path="url(#clip0_9615_25552)">
<path d="M8 8H10.29C10.45 8 10.48 8.12998 10.51 8.28998L11.43 13.73L14.55 8.16998C14.583 8.12006 14.6276 8.07889 14.68 8.04999C14.739 8.0343 14.801 8.0343 14.86 8.04999H16V8.62C16 8.62 15.32 8.53001 15.15 8.82001L10.92 15.82C10.8827 15.8873 10.8273 15.9427 10.76 15.98C10.6934 16.0194 10.6174 16.0401 10.54 16.04H10C10 16.04 9 9.04 9 8.81C9 8.58 8 8.60999 8 8.60999V8Z" fill="white"/>
<path opacity="0.5" d="M15 12.33L16 11V14H13.75L14.5 13H15V12.33ZM15 1H0V14H8V13H1V4H15V7H16V1H15Z" fill="white"/>
<path opacity="0.5" d="M3 6.2L6.7 8L3 9.8V11L7 9V7L3 5V6.2Z" fill="white"/>
</g>
<defs>
<clipPath id="clip0_9615_25552">
<rect width="16" height="16" fill="white"/>
</clipPath>
</defs>
</svg>
