<svg width="16" height="16" viewBox="0 0 16 16" fill="none" xmlns="http://www.w3.org/2000/svg">
<path fill-rule="evenodd" clip-rule="evenodd" d="M9.59003 13.3099L6.90002 15.9999C6.67581 15.964 6.47278 15.8465 6.33002 15.6699C5.99002 15.3399 6.00003 15.0999 6.00003 15.0999L8.69003 12.4099L9.59003 13.3099Z" fill="white"/>
<path d="M12 6.89999C12.4071 6.89999 12.8102 6.9802 13.1863 7.13599C13.5624 7.29178 13.9042 7.52012 14.192 7.80798C14.4799 8.09585 14.7082 8.43758 14.864 8.81369C15.0198 9.1898 15.1 9.5929 15.1 10C15.1 10.4071 15.0198 10.8102 14.864 11.1863C14.7082 11.5624 14.4799 11.9042 14.192 12.192C13.9042 12.4799 13.5624 12.7082 13.1863 12.864C12.8102 13.0198 12.4071 13.1 12 13.1C11.1778 13.1 10.3893 12.7734 9.80798 12.192C9.22662 11.6107 8.89999 10.8222 8.89999 10C8.89999 9.5929 8.9802 9.1898 9.13599 8.81369C9.29178 8.43758 9.52012 8.09585 9.80798 7.80798C10.0958 7.52012 10.4376 7.29178 10.8137 7.13599C11.1898 6.9802 11.5929 6.89999 12 6.89999V6.89999ZM12 6C10.9391 6 9.92172 6.42142 9.17157 7.17157C8.42142 7.92172 8 8.93913 8 10C8 11.0609 8.42142 12.0783 9.17157 12.8284C9.92172 13.5786 10.9391 14 12 14C13.0609 14 14.0783 13.5786 14.8284 12.8284C15.5786 12.0783 16 11.0609 16 10C16 8.93913 15.5786 7.92172 14.8284 7.17157C14.0783 6.42142 13.0609 6 12 6Z" fill="white"/>
<path opacity="0.5" fill-rule="evenodd" clip-rule="evenodd" d="M0 6C0 7.5913 0.632136 9.11743 1.75735 10.2426C2.88257 11.3679 4.4087 12 6 12C6.37596 11.9985 6.75093 11.9617 7.12 11.89C6.85819 11.2934 6.71554 10.6513 6.70001 10C6.66909 9.30484 6.77852 8.61058 7.02182 7.95865C7.26512 7.30672 7.63729 6.7105 8.11609 6.20557C8.59489 5.70063 9.1705 5.29735 9.80859 5.01978C10.4467 4.7422 11.1342 4.59603 11.83 4.59C11.5137 3.28195 10.7669 2.1182 9.70959 1.28574C8.65224 0.453274 7.34573 0.000442364 6 0C4.4087 0 2.88257 0.632136 1.75735 1.75735C0.632136 2.88257 0 4.4087 0 6Z" fill="white"/>
<path fill-rule="evenodd" clip-rule="evenodd" d="M8.70999 1.12991C7.88429 0.658003 6.95102 0.406592 6 0.399902C4.9595 0.400564 3.93993 0.692143 3.0564 1.2417C2.17287 1.79126 1.46058 2.57691 1 3.50992C1.33 4.35992 2.31 4.8299 2.53 5.2999C2.75 5.7699 4.41 6.77991 4.41 6.77991C4.41 6.77991 3.63 6.71991 3.41 7.93991C3.28 8.69991 4.34 10.4899 5.31 11.5299C5.53154 11.568 5.75537 11.5914 5.98001 11.5999C6.31522 11.5968 6.64963 11.5667 6.98001 11.5099C6.80828 11.0247 6.71705 10.5146 6.70999 9.99991C6.69686 8.89093 7.00981 7.80253 7.60999 6.8699C7.28647 6.61464 6.89933 6.45269 6.49042 6.40158C6.0815 6.35047 5.66641 6.41212 5.29001 6.5799C3.88001 6.9499 3.28999 4.31992 4.98999 4.22992C5.49999 4.22992 6.24 4.0799 6.5 4.5199C6.85 5.1299 7.12999 5.8299 7.54999 5.3299C7.96999 4.8299 6.48 3.8299 7.19 3.2099C7.82099 2.61657 8.33637 1.91131 8.70999 1.12991V1.12991Z" fill="white"/>
</svg>
