<svg width="16" height="16" viewBox="0 0 16 16" fill="none" xmlns="http://www.w3.org/2000/svg">
<path fill-rule="evenodd" clip-rule="evenodd" d="M9.59006 13.31L6.90006 16C6.67584 15.9641 6.47281 15.8465 6.33005 15.67C5.99005 15.34 6.00003 15.1 6.00003 15.1L8.69003 12.41L9.59006 13.31Z" fill="white"/>
<path d="M12 7.29999C12.5341 7.29999 13.0561 7.45834 13.5001 7.75502C13.9441 8.0517 14.2901 8.47338 14.4945 8.96674C14.6988 9.4601 14.7524 10.003 14.6482 10.5267C14.544 11.0505 14.2868 11.5316 13.9092 11.9092C13.5316 12.2868 13.0505 12.5439 12.5268 12.6481C12.003 12.7523 11.4601 12.6988 10.9668 12.4945C10.4734 12.2901 10.0517 11.944 9.75505 11.5C9.45837 11.056 9.30003 10.534 9.30003 9.99999C9.30003 9.2839 9.58452 8.59715 10.0909 8.0908C10.5972 7.58445 11.284 7.29999 12 7.29999ZM12 6.29999C11.2683 6.29999 10.5529 6.51699 9.94444 6.92355C9.33598 7.33011 8.86176 7.90797 8.58171 8.58406C8.30167 9.26015 8.22837 10.0041 8.37114 10.7218C8.51391 11.4396 8.86632 12.0988 9.38377 12.6163C9.90123 13.1337 10.5605 13.4861 11.2782 13.6289C11.9959 13.7717 12.7399 13.6984 13.416 13.4183C14.0921 13.1383 14.6699 12.6641 15.0765 12.0556C15.483 11.4471 15.7001 10.7318 15.7001 9.99999C15.7001 9.01869 15.3102 8.07758 14.6163 7.38369C13.9224 6.68981 12.9813 6.29999 12 6.29999V6.29999Z" fill="white"/>
<path fill-rule="evenodd" clip-rule="evenodd" d="M11.0599 2.92002C10.6099 2.47002 11.5199 0.600019 9.57994 0.480019C8.47994 0.410019 8.57991 2.39002 8.92991 3.36002L3.33995 9.00002C2.33995 8.67002 0.429919 8.57002 0.499919 9.65002C0.619919 11.6 2.49992 10.65 2.93992 11.13C3.37992 11.61 2.4799 13.45 4.4199 13.57C5.5199 13.64 5.41993 11.66 5.06993 10.69L10.6599 5.10002C11.6599 5.43002 13.5699 5.53002 13.4999 4.45002C13.3799 2.45002 11.5099 3.36002 11.0599 2.92002Z" fill="white"/>
</svg>
