<svg width="16" height="16" viewBox="0 0 16 16" fill="none" xmlns="http://www.w3.org/2000/svg">
<path fill-rule="evenodd" clip-rule="evenodd" d="M14.83 9L12.5 11.33L10.17 9L9 10.17L11.33 12.5L9 14.83L10.17 16L12.5 13.67L14.83 16L16 14.83L13.67 12.5L16 10.17L14.83 9Z" fill="white"/>
<path fill-rule="evenodd" clip-rule="evenodd" d="M11.0599 2.92002C10.6099 2.47002 11.5199 0.600019 9.57994 0.480019C8.47994 0.410019 8.57991 2.39002 8.92991 3.36002L3.33995 9.00002C2.33995 8.67002 0.429919 8.57002 0.499919 9.65002C0.619919 11.6 2.49992 10.65 2.93992 11.13C3.37992 11.61 2.4799 13.45 4.4199 13.57C5.5199 13.64 5.41993 11.66 5.06993 10.69L10.6599 5.10002C11.6599 5.43002 13.5699 5.53002 13.4999 4.45002C13.3799 2.45002 11.5099 3.36002 11.0599 2.92002Z" fill="white"/>
</svg>
