<svg width="16" height="16" viewBox="0 0 16 16" fill="none" xmlns="http://www.w3.org/2000/svg">
<g clip-path="url(#clip0)">
<path d="M13.9 11.2C13.9 13.133 12.333 14.7 10.4 14.7C8.467 14.7 6.9 13.133 6.9 11.2C6.9 9.267 8.467 7.7 10.4 7.7C12.333 7.7 13.9 9.267 13.9 11.2Z" stroke="#F2F2F2"/>
<path d="M11.9723 8.76211C11.9723 8.86628 11.9365 8.95417 11.8648 9.02578C11.7932 9.09414 11.7053 9.12832 11.6012 9.12832C11.497 9.12832 11.4042 9.09414 11.3229 9.02578C11.2447 8.95742 11.2057 8.8679 11.2057 8.75723C11.2057 8.64655 11.2496 8.5554 11.3375 8.48379C11.3147 8.40892 11.2757 8.34707 11.2203 8.29824C11.165 8.24616 11.0966 8.22012 11.0152 8.22012C10.9111 8.22012 10.8281 8.25592 10.7662 8.32754C10.7076 8.3959 10.6637 8.48053 10.6344 8.58145C10.6051 8.6791 10.5872 8.78164 10.5807 8.88906C10.5742 8.99648 10.5709 9.086 10.5709 9.15762C10.5709 9.31387 10.5774 9.47012 10.5904 9.62637C10.6035 9.77936 10.6181 9.93398 10.6344 10.0902H11.5914V10.5346H10.7076L10.9664 12.7709C10.9729 12.8458 10.9794 12.9206 10.9859 12.9955C10.9957 13.0736 11.0006 13.1501 11.0006 13.225C11.0006 13.3943 10.9778 13.5603 10.9322 13.723C10.8867 13.8891 10.8167 14.0355 10.7223 14.1625C10.6311 14.2927 10.5139 14.3969 10.3707 14.475C10.2307 14.5564 10.0663 14.5971 9.87754 14.5971C9.74733 14.5971 9.62201 14.5727 9.50156 14.5238C9.38438 14.4783 9.27858 14.4132 9.18418 14.3285C9.09304 14.2439 9.01979 14.143 8.96445 14.0258C8.90912 13.9118 8.88145 13.7882 8.88145 13.6547C8.88145 13.5473 8.91725 13.4594 8.98887 13.391C9.06048 13.3227 9.14837 13.2885 9.25254 13.2885C9.30137 13.2885 9.34857 13.2966 9.39414 13.3129C9.44297 13.3324 9.48529 13.3585 9.5211 13.391C9.56016 13.4236 9.58945 13.461 9.60899 13.5033C9.63177 13.5489 9.64317 13.5977 9.64317 13.6498C9.64317 13.754 9.6041 13.8451 9.52598 13.9232C9.54876 13.9949 9.58783 14.0551 9.64317 14.1039C9.6985 14.156 9.76361 14.182 9.83848 14.182C9.92637 14.182 9.99798 14.1544 10.0533 14.099C10.1119 14.0469 10.1575 13.9818 10.19 13.9037C10.2226 13.8288 10.2438 13.7475 10.2535 13.6596C10.2665 13.5749 10.273 13.5001 10.273 13.435C10.273 13.3113 10.2649 13.1876 10.2486 13.0639C10.2356 12.9402 10.2193 12.8165 10.1998 12.6928L10.1949 12.6879L9.93125 10.5346H9.20371V10.0902H9.88242C9.86615 9.96654 9.85313 9.84447 9.84336 9.72402C9.83685 9.60358 9.8336 9.48151 9.8336 9.35781C9.8336 9.17552 9.8515 8.9916 9.88731 8.80605C9.92311 8.62051 9.98496 8.45449 10.0729 8.30801C10.1607 8.15827 10.2763 8.0362 10.4195 7.9418C10.566 7.8474 10.7483 7.8002 10.9664 7.8002C11.0999 7.8002 11.2268 7.82461 11.3473 7.87344C11.4677 7.92227 11.5735 7.99062 11.6647 8.07852C11.7591 8.16315 11.8339 8.26406 11.8893 8.38125C11.9446 8.49844 11.9723 8.62539 11.9723 8.76211Z" fill="white"/>
<path d="M15.2 0.8H12C11.5582 0.8 11.2 1.15817 11.2 1.6V4C11.2 4.44183 11.5582 4.8 12 4.8H15.2C15.6418 4.8 16 4.44183 16 4V1.6C16 1.15817 15.6418 0.8 15.2 0.8Z" fill="white"/>
<path d="M0 5.6L0 8C0 8.44183 0.358172 8.8 0.8 8.8H4C4.44183 8.8 4.8 8.44183 4.8 8V5.6C4.8 5.15817 4.44183 4.8 4 4.8H0.8C0.358172 4.8 0 5.15817 0 5.6Z" fill="white"/>
<path opacity="0.5" d="M12 2.4H8.2C7.93478 2.4 7.68043 2.50536 7.49289 2.69289C7.30536 2.88043 7.2 3.13478 7.2 3.4V6.4H4V7.2H7.2V9.808C7.40748 9.3569 7.67673 8.93688 8 8.56V3.76C8.0062 3.60931 8.07045 3.46686 8.17931 3.36248C8.28817 3.2581 8.43318 3.19987 8.584 3.2H12V2.4Z" fill="white"/>
</g>
<defs>
<clipPath id="clip0">
<rect width="16" height="16" fill="white"/>
</clipPath>
</defs>
</svg>
