<svg width="16" height="16" viewBox="0 0 16 16" fill="none" xmlns="http://www.w3.org/2000/svg">
<path d="M8 0C3.54286 0 0 3.54286 0 8C0 12.4571 3.54286 16 8 16C12.4571 16 16 12.4571 16 8C16 3.54286 12.4571 0 8 0ZM6.5143 3.2C6.5143 2.4 7.2 1.71429 8 1.71429C8.8 1.71429 9.4857 2.4 9.4857 3.2V8.11429C9.4857 8.91429 8.8 9.6 8 9.6C7.2 9.6 6.5143 8.91429 6.5143 8.11429V3.2ZM8 13.7143C7.08571 13.7143 6.28571 12.9143 6.28571 12C6.28571 11.0857 7.08571 10.2857 8 10.2857C8.91429 10.2857 9.71429 11.0857 9.71429 12C9.71429 12.9143 8.91429 13.7143 8 13.7143Z" fill="white"/>
</svg>
