<svg width="16" height="16" viewBox="0 0 16 16" fill="none" xmlns="http://www.w3.org/2000/svg">
<path d="M14.0698 12H13.8398L13.0999 9.66003L12.8198 8.77002C12.6698 9.21002 11.9399 11.31 11.4999 12.55C11.0599 11.3 10.3199 9.19002 10.1799 8.77002C10.0099 9.32002 9.40993 11.19 9.17993 12H8.93982C8.30587 12.0159 7.67694 12.1169 7.06982 12.3C7.67332 12.5009 8.30386 12.6088 8.93982 12.62C9.08982 12.62 9.47988 12.62 9.62988 12.62L9.69983 12.41L10.2299 10.73C10.6599 11.98 11.3899 14.0401 11.5199 14.4301L12.8099 10.73L13.3398 12.4L13.4099 12.61H14.3298C14.886 12.5658 15.4359 12.4619 15.9698 12.3C15.3568 12.0985 14.7152 11.9972 14.0698 12V12Z" fill="white"/>
<path opacity="0.5" d="M11.5 7.50001C12.5609 7.50001 13.5782 7.9215 14.3284 8.67164C15.0785 9.42179 15.5 10.4391 15.5 11.5C15.5 12.5609 15.0785 13.5782 14.3284 14.3284C13.5782 15.0785 12.5609 15.5 11.5 15.5C10.4391 15.5 9.42179 15.0785 8.67164 14.3284C7.9215 13.5782 7.50001 12.5609 7.50001 11.5C7.50001 10.4391 7.9215 9.42179 8.67164 8.67164C9.42179 7.9215 10.4391 7.50001 11.5 7.50001ZM11.5 7.00001C10.9087 6.99869 10.3229 7.11418 9.77638 7.33985C9.22982 7.56553 8.7332 7.89695 8.31507 8.31507C7.89695 8.7332 7.56553 9.22982 7.33985 9.77638C7.11418 10.3229 6.99869 10.9087 7.00001 11.5C6.99869 12.0913 7.11418 12.6771 7.33985 13.2236C7.56553 13.7702 7.89695 14.2668 8.31507 14.6849C8.7332 15.1031 9.22982 15.4345 9.77638 15.6602C10.3229 15.8858 10.9087 16.0013 11.5 16C12.0913 16.0013 12.6771 15.8858 13.2236 15.6602C13.7702 15.4345 14.2668 15.1031 14.6849 14.6849C15.1031 14.2668 15.4345 13.7702 15.6602 13.2236C15.8858 12.6771 16.0013 12.0913 16 11.5C16.0013 10.9087 15.8858 10.3229 15.6602 9.77638C15.4345 9.22982 15.1031 8.7332 14.6849 8.31507C14.2668 7.89695 13.7702 7.56553 13.2236 7.33985C12.6771 7.11418 12.0913 6.99869 11.5 7.00001V7.00001Z" fill="white"/>
<path opacity="0.5" d="M12.25 5C12.2378 5.33938 12.1806 5.67565 12.08 6C11.8868 5.98969 11.6932 5.98969 11.5 6C11.1644 6.00377 10.8297 6.03721 10.5 6.09998C10.5794 5.73868 10.6196 5.36991 10.62 5C10.5764 4.02762 10.3213 3.07647 9.87219 2.21289C9.42313 1.34931 8.79104 0.594098 8.02002 0C10.81 1.22 12.24 3.14 12.25 5ZM9.42004 5C9.39874 4.55085 9.25524 4.11603 9.005 3.74243C8.75477 3.36884 8.40724 3.07065 8 2.88C8.59 3.55 8.59 6.45 8 7.12C8.4086 6.93117 8.75732 6.63338 9.00781 6.2594C9.25831 5.88542 9.40094 5.44971 9.42004 5V5Z" fill="white"/>
<path d="M6 10V0L3 3H0V7H3L6 10Z" fill="white"/>
</svg>
