<svg width="64" height="64" viewBox="0 0 64 64" fill="none" xmlns="http://www.w3.org/2000/svg">
<path d="M17 6C14.3478 6 11.8044 7.05362 9.92899 8.92898C8.05363 10.8043 7 13.3478 7 16C7.00322 17.8871 7.54191 19.7346 8.55343 21.3278C9.56495 22.9209 11.0078 24.1943 12.7143 25V22.5715C11.6198 21.8592 10.72 20.8851 10.0964 19.7377C9.47283 18.5904 9.14518 17.3058 9.14286 16C9.14286 13.9161 9.97056 11.9175 11.4441 10.444C12.9176 8.97055 14.9162 8.14285 17 8.14285C19.0838 8.14285 21.0824 8.97055 22.5559 10.444C24.0294 11.9175 24.8571 13.9161 24.8571 16C24.8548 17.3058 24.5272 18.5904 23.9036 19.7377C23.28 20.8851 22.3802 21.8592 21.2857 22.5715V25C22.9922 24.1943 24.435 22.9209 25.4466 21.3278C26.4581 19.7346 26.9968 17.8871 27 16C27 13.3478 25.9464 10.8043 24.071 8.92898C22.1956 7.05362 19.6522 6 17 6Z" fill="url(#paint0_linear_263_27)"/>
<path d="M17 22C20.3137 22 23 19.3137 23 16C23 12.6863 20.3137 10 17 10C13.6863 10 11 12.6863 11 16C11 19.3137 13.6863 22 17 22Z" fill="#505050"/>
<g filter="url(#filter0_i_263_27)">
<path fill-rule="evenodd" clip-rule="evenodd" d="M36.296 13.7011C35.3826 14.9696 34.8611 16.9133 34.8611 19.4286V22.5714C34.8611 25.1696 33.9221 27.9047 32.2754 30.0147C30.6155 32.1417 28.131 33.75 25.0556 33.75C22.2462 33.75 19.7182 32.8241 17.9126 30.8115C16.129 28.8232 15.25 25.9969 15.25 22.5714V16.2857C15.25 15.3192 16.0335 14.5357 17 14.5357C17.9665 14.5357 18.75 15.3192 18.75 16.2857V22.5714C18.75 25.4317 19.4821 27.3197 20.5179 28.4743C21.5318 29.6045 23.0316 30.25 25.0556 30.25C26.8134 30.25 28.3567 29.3471 29.5162 27.8614C30.689 26.3586 31.3611 24.3794 31.3611 22.5714V19.4286C31.3611 16.5152 31.9518 13.7446 33.4557 11.656C35.0225 9.47996 37.4349 8.25 40.5556 8.25C43.7516 8.25 46.1444 9.66638 47.6729 11.8681C49.1477 13.9927 49.75 16.7363 49.75 19.4286C49.75 19.4286 49.75 27.0684 49.75 30L46.25 29V19.4286C46.25 17.1923 45.7401 15.2216 44.7977 13.864C43.9089 12.5836 42.5795 11.75 40.5556 11.75C38.4562 11.75 37.1464 12.52 36.296 13.7011Z" fill="#D2D2D2"/>
</g>
<path opacity="0.2" d="M43.1903 57C51.1984 57 57.6903 50.5081 57.6903 42.5C57.6903 34.4919 51.1984 28 43.1903 28C35.1822 28 28.6903 34.4919 28.6903 42.5C28.6903 50.5081 35.1822 57 43.1903 57Z" fill="url(#paint1_linear_263_27)"/>
<path d="M43.1904 29.1508C46.7294 29.1554 50.1222 30.5632 52.6247 33.0657C55.1271 35.5682 56.535 38.9609 56.5396 42.5C56.535 46.039 55.1271 49.4318 52.6247 51.9342C50.1222 54.4367 46.7294 55.8446 43.1904 55.8491C39.6514 55.8446 36.2586 54.4367 33.7561 51.9342C31.2537 49.4318 29.8458 46.039 29.8412 42.5C29.8458 38.9609 31.2537 35.5682 33.7561 33.0657C36.2586 30.5632 39.6514 29.1554 43.1904 29.1508ZM43.1904 28C39.3448 28 35.6566 29.5276 32.9374 32.2469C30.2181 34.9662 28.6904 38.6543 28.6904 42.5C28.6904 46.3456 30.2181 50.0337 32.9374 52.753C35.6566 55.4723 39.3448 56.9999 43.1904 56.9999C47.036 56.9999 50.7242 55.4723 53.4434 52.753C56.1627 50.0337 57.6904 46.3456 57.6904 42.5C57.6904 38.6543 56.1627 34.9662 53.4434 32.2469C50.7242 29.5276 47.036 28 43.1904 28Z" fill="url(#paint2_linear_263_27)"/>
<path d="M61.7504 45.8024C58.3122 46.1285 54.8622 46.3123 51.4122 46.4308C50.5645 43.8581 48.5254 37.5805 48.5254 37.5805L43.1903 53.3367L37.8553 37.5865C37.8553 37.5865 36.0769 43.1823 34.9566 46.4782C31.5066 46.3419 28.0685 46.1462 24.6304 45.8024C27.7662 45.5179 34.0555 45.2571 34.0555 45.2571L37.7782 32.5242L43.1844 48.2684L48.5906 32.5301L52.3014 45.2215C52.3014 45.2215 58.4426 45.4942 61.7385 45.8143L61.7504 45.8024Z" fill="white"/>
<defs>
<filter id="filter0_i_263_27" x="15.25" y="8.25" width="34.5" height="25.5" filterUnits="userSpaceOnUse" color-interpolation-filters="sRGB">
<feFlood flood-opacity="0" result="BackgroundImageFix"/>
<feBlend mode="normal" in="SourceGraphic" in2="BackgroundImageFix" result="shape"/>
<feColorMatrix in="SourceAlpha" type="matrix" values="0 0 0 0 0 0 0 0 0 0 0 0 0 0 0 0 0 0 127 0" result="hardAlpha"/>
<feOffset/>
<feGaussianBlur stdDeviation="1"/>
<feComposite in2="hardAlpha" operator="arithmetic" k2="-1" k3="1"/>
<feColorMatrix type="matrix" values="0 0 0 0 0 0 0 0 0 0 0 0 0 0 0 0 0 0 0.8 0"/>
<feBlend mode="normal" in2="shape" result="effect1_innerShadow_263_27"/>
</filter>
<linearGradient id="paint0_linear_263_27" x1="17" y1="6" x2="17" y2="25" gradientUnits="userSpaceOnUse">
<stop stop-color="#D1D1D1"/>
<stop offset="1" stop-color="#D1D1D1" stop-opacity="0.5"/>
</linearGradient>
<linearGradient id="paint1_linear_263_27" x1="43.1903" y1="57" x2="43.1903" y2="28" gradientUnits="userSpaceOnUse">
<stop offset="0.12" stop-color="#C4C4C4"/>
<stop offset="0.2" stop-color="#B3B3B3"/>
<stop offset="0.36" stop-color="#979797"/>
<stop offset="0.45" stop-color="#8C8C8C"/>
<stop offset="0.84" stop-color="#4A4A4A"/>
</linearGradient>
<linearGradient id="paint2_linear_263_27" x1="43.1904" y1="56.9999" x2="43.1904" y2="28" gradientUnits="userSpaceOnUse">
<stop stop-color="#D4D4D4"/>
<stop offset="0.05" stop-color="#CACACA"/>
<stop offset="0.28" stop-color="#9C9C9C"/>
<stop offset="0.47" stop-color="#808080"/>
<stop offset="0.57" stop-color="#757575"/>
<stop offset="1" stop-color="#4B4B4B"/>
</linearGradient>
</defs>
</svg>
