<svg width="64" height="64" viewBox="0 0 64 64" fill="none" xmlns="http://www.w3.org/2000/svg">
<path opacity="0.2" d="M32 56.1799C45.8071 56.1799 57 44.987 57 31.1799C57 17.3728 45.8071 6.17993 32 6.17993C18.1929 6.17993 7 17.3728 7 31.1799C7 44.987 18.1929 56.1799 32 56.1799Z" fill="url(#paint0_linear_209_18)"/>
<path d="M32.0001 8.16406C38.1018 8.17193 43.9514 10.5993 48.266 14.9139C52.5806 19.2285 55.008 25.0781 55.0159 31.1799C55.008 37.2816 52.5806 43.1312 48.266 47.4459C43.9514 51.7605 38.1018 54.1878 32.0001 54.1957C25.8983 54.1878 20.0487 51.7605 15.7341 47.4459C11.4195 43.1312 8.99212 37.2816 8.98425 31.1799C8.99212 25.0781 11.4195 19.2285 15.7341 14.9139C20.0487 10.5993 25.8983 8.17193 32.0001 8.16406ZM32.0001 6.17993C25.3697 6.17993 19.0108 8.8138 14.3224 13.5022C9.63399 18.1906 7.00012 24.5495 7.00012 31.1799C7.00012 37.8103 9.63399 44.1691 14.3224 48.8575C19.0108 53.5459 25.3697 56.1798 32.0001 56.1798C38.6305 56.1798 44.9893 53.5459 49.6777 48.8575C54.3661 44.1691 57 37.8103 57 31.1799C57 24.5495 54.3661 18.1906 49.6777 13.5022C44.9893 8.8138 38.6305 6.17993 32.0001 6.17993Z" fill="url(#paint1_linear_209_18)"/>
<path d="M64 36.8735C58.0722 37.4356 52.1239 37.7525 46.1756 37.9569C44.7141 33.5213 41.1983 22.6979 41.1983 22.6979L31.9999 49.8637L22.8016 22.7081C22.8016 22.7081 19.7355 32.3561 17.8038 38.0387C11.8556 37.8036 5.92782 37.4663 0 36.8735C5.40658 36.3829 16.2503 35.9333 16.2503 35.9333L22.6687 13.98L31.9897 41.1252L41.3107 13.9902L47.7087 35.8719C47.7087 35.8719 58.297 36.3421 63.9795 36.894L64 36.8735Z" fill="white"/>
<defs>
<linearGradient id="paint0_linear_209_18" x1="32" y1="56.1799" x2="32" y2="6.17993" gradientUnits="userSpaceOnUse">
<stop offset="0.12" stop-color="#C4C4C4"/>
<stop offset="0.2" stop-color="#B3B3B3"/>
<stop offset="0.36" stop-color="#979797"/>
<stop offset="0.45" stop-color="#8C8C8C"/>
<stop offset="0.84" stop-color="#4A4A4A"/>
</linearGradient>
<linearGradient id="paint1_linear_209_18" x1="32.0001" y1="56.1798" x2="32.0001" y2="6.17993" gradientUnits="userSpaceOnUse">
<stop stop-color="#D4D4D4"/>
<stop offset="0.05" stop-color="#CACACA"/>
<stop offset="0.28" stop-color="#9C9C9C"/>
<stop offset="0.47" stop-color="#808080"/>
<stop offset="0.57" stop-color="#757575"/>
<stop offset="1" stop-color="#4B4B4B"/>
</linearGradient>
</defs>
</svg>
