<svg width="8" height="16" viewBox="0 0 8 16" fill="none" xmlns="http://www.w3.org/2000/svg">
<path d="M7.14453 3.32422C7.14453 3.53255 7.07292 3.70833 6.92969 3.85156C6.78646 3.98828 6.61068 4.05664 6.40234 4.05664C6.19401 4.05664 6.00846 3.98828 5.8457 3.85156C5.68945 3.71484 5.61133 3.53581 5.61133 3.31445C5.61133 3.0931 5.69922 2.91081 5.875 2.76758C5.82943 2.61784 5.7513 2.49414 5.64063 2.39648C5.52995 2.29232 5.39323 2.24023 5.23047 2.24023C5.02214 2.24023 4.85612 2.31185 4.73242 2.45508C4.61523 2.5918 4.52734 2.76107 4.46875 2.96289C4.41016 3.1582 4.37435 3.36328 4.36133 3.57812C4.34831 3.79297 4.3418 3.972 4.3418 4.11523C4.3418 4.42773 4.35482 4.74023 4.38086 5.05273C4.4069 5.35872 4.4362 5.66797 4.46875 5.98047H6.38281V6.86914H4.61523L5.13281 11.3418C5.14583 11.4915 5.15885 11.6413 5.17188 11.791C5.19141 11.9473 5.20117 12.1003 5.20117 12.25C5.20117 12.5885 5.1556 12.9206 5.06445 13.2461C4.97331 13.5781 4.83333 13.8711 4.64453 14.125C4.46224 14.3854 4.22786 14.5937 3.94141 14.75C3.66146 14.9128 3.33268 14.9941 2.95508 14.9941C2.69466 14.9941 2.44401 14.9453 2.20313 14.8477C1.96875 14.7565 1.75716 14.6263 1.56836 14.457C1.38607 14.2878 1.23958 14.0859 1.12891 13.8516C1.01823 13.6237 0.962891 13.3763 0.962891 13.1094C0.962891 12.8945 1.03451 12.7187 1.17773 12.582C1.32096 12.4453 1.49675 12.377 1.70508 12.377C1.80273 12.377 1.89714 12.3932 1.98828 12.4258C2.08594 12.4648 2.17057 12.5169 2.24219 12.582C2.32031 12.6471 2.37891 12.722 2.41797 12.8066C2.46354 12.8978 2.48633 12.9954 2.48633 13.0996C2.48633 13.3079 2.4082 13.4902 2.25195 13.6465C2.29753 13.7897 2.37565 13.9102 2.48633 14.0078C2.59701 14.112 2.72721 14.1641 2.87695 14.1641C3.05273 14.1641 3.19596 14.1087 3.30664 13.998C3.42383 13.8939 3.51497 13.7637 3.58008 13.6074C3.64518 13.4577 3.6875 13.2949 3.70703 13.1191C3.73307 12.9499 3.74609 12.8001 3.74609 12.6699C3.74609 12.4225 3.72982 12.1751 3.69727 11.9277C3.67122 11.6803 3.63867 11.4329 3.59961 11.1855L3.58984 11.1758L3.0625 6.86914H1.60742V5.98047H2.96484C2.93229 5.73307 2.90625 5.48893 2.88672 5.24805C2.8737 5.00716 2.86719 4.76302 2.86719 4.51562C2.86719 4.15104 2.903 3.7832 2.97461 3.41211C3.04622 3.04102 3.16992 2.70898 3.3457 2.41602C3.52148 2.11654 3.7526 1.8724 4.03906 1.68359C4.33203 1.49479 4.69661 1.40039 5.13281 1.40039C5.39974 1.40039 5.65365 1.44922 5.89453 1.54687C6.13542 1.64453 6.34701 1.78125 6.5293 1.95703C6.7181 2.1263 6.86784 2.32812 6.97852 2.5625C7.08919 2.79687 7.14453 3.05078 7.14453 3.32422Z" fill="white"/>
</svg>
