<svg width="20" height="20" viewBox="0 0 20 20" fill="none" xmlns="http://www.w3.org/2000/svg">
<path fill-rule="evenodd" clip-rule="evenodd" d="M0 0L14 9L0 18V0Z" fill="#575757"/>
<path d="M15.5 11C12.9929 11 11 12.9929 11 15.5C11 18.0071 12.9929 20 15.5 20C18.0071 20 20 18.0071 20 15.5C20 12.9929 18.0071 11 15.5 11ZM14.6643 12.8C14.6643 12.35 15.05 11.9643 15.5 11.9643C15.95 11.9643 16.3357 12.35 16.3357 12.8V15.5643C16.3357 16.0143 15.95 16.4 15.5 16.4C15.05 16.4 14.6643 16.0143 14.6643 15.5643V12.8ZM15.5 18.7143C14.9857 18.7143 14.5357 18.2643 14.5357 17.75C14.5357 17.2357 14.9857 16.7857 15.5 16.7857C16.0143 16.7857 16.4643 17.2357 16.4643 17.75C16.4643 18.2643 16.0143 18.7143 15.5 18.7143Z" fill="#FFB800"/>
</svg>
