<svg width="20" height="20" viewBox="0 0 20 20" fill="none" xmlns="http://www.w3.org/2000/svg">
<path opacity="0.5" fill-rule="evenodd" clip-rule="evenodd" d="M0 0L14 9L0 18V0Z" fill="#C0C0C0"/>
<path d="M18.5462 12.182C16.7734 10.4092 13.9551 10.4092 12.1823 12.182C10.4095 13.9548 10.4095 16.7731 12.1823 18.5459C13.9551 20.3188 16.7734 20.3188 18.5462 18.5459C20.3191 16.7731 20.3191 13.9548 18.5462 12.182ZM16.5007 17.4095L15.3643 16.2731L14.2278 17.4095C13.9551 17.6823 13.5914 17.6823 13.3187 17.4095C13.046 17.1368 13.046 16.7731 13.3187 16.5004L14.4551 15.364L13.3187 14.2275C13.046 13.9548 13.046 13.5911 13.3187 13.3184C13.5914 13.0457 13.9551 13.0457 14.2278 13.3184L15.3643 14.4548L16.5007 13.3184C16.7734 13.0457 17.1371 13.0457 17.4098 13.3184C17.6826 13.5911 17.6826 13.9548 17.4098 14.2275L16.2734 15.364L17.4098 16.5004C17.6826 16.7731 17.6826 17.1368 17.4098 17.4095C17.1371 17.6823 16.7734 17.6823 16.5007 17.4095Z" fill="#EF3535"/>
</svg>
