<svg width="64" height="64" viewBox="0 0 64 64" fill="none" xmlns="http://www.w3.org/2000/svg">
<g filter="url(#filter0_d_12612_11490)">
<path d="M22.0021 45.7962L47.2503 33.1049C47.4752 33.0025 47.6647 32.8435 47.7972 32.6461C47.9298 32.4487 48 32.2207 48 31.988C48 31.7554 47.9298 31.5274 47.7972 31.33C47.6647 31.1325 47.4752 30.9736 47.2503 30.8712L22.0021 18.1798C21.7972 18.0631 21.5617 18.0009 21.3214 18C21.081 17.9991 20.845 18.0597 20.6392 18.1749C20.4333 18.2902 20.2655 18.4558 20.1541 18.6536C20.0427 18.8514 19.9919 19.0739 20.0074 19.2967V44.6794C19.9812 44.9054 20.0251 45.1337 20.1338 45.3373C20.2426 45.5409 20.4117 45.7114 20.6213 45.8287C20.8309 45.9461 21.0722 46.0054 21.3168 45.9996C21.5614 45.9939 21.7992 45.9233 22.0021 45.7962V45.7962Z" fill="url(#paint0_linear_12612_11490)" shape-rendering="crispEdges"/>
<path d="M47.9029 29.5204L22.7042 16.8539C22.2803 16.6215 21.8052 16.5018 21.3268 16.5C20.833 16.4982 20.342 16.6222 19.9064 16.8661C19.47 17.1104 19.0992 17.47 18.8471 17.9175C18.6045 18.3483 18.4847 18.839 18.5074 19.3378V44.6111C18.4698 45.11 18.5767 45.6058 18.8108 46.044C19.0604 46.5113 19.4395 46.8861 19.8885 47.1376C20.3369 47.3886 20.8441 47.5112 21.3521 47.4992C21.8325 47.4879 22.3072 47.3564 22.7266 47.1109L47.9029 34.4557C48.3575 34.2422 48.7555 33.9099 49.0427 33.4821C49.3373 33.0432 49.5 32.5253 49.5 31.988C49.5 31.4508 49.3373 30.9329 49.0427 30.494C48.7555 30.0662 48.3575 29.7339 47.9029 29.5204Z" stroke="black" stroke-opacity="0.75" stroke-width="3" shape-rendering="crispEdges"/>
</g>
<g filter="url(#filter1_i_12612_11490)">
<path d="M22.0021 45.7962L47.2503 33.1049C47.4752 33.0025 47.6647 32.8435 47.7972 32.6461C47.9298 32.4487 48 32.2207 48 31.988C48 31.7554 47.9298 31.5274 47.7972 31.33C47.6647 31.1325 47.4752 30.9736 47.2503 30.8712L22.0021 18.1798C21.7972 18.0631 21.5617 18.0009 21.3214 18C21.081 17.9991 20.845 18.0597 20.6392 18.1749C20.4333 18.2902 20.2655 18.4558 20.1541 18.6536C20.0427 18.8514 19.9919 19.0739 20.0074 19.2967V44.6794C19.9812 44.9054 20.0251 45.1337 20.1338 45.3373C20.2426 45.5409 20.4117 45.7114 20.6213 45.8287C20.8309 45.9461 21.0722 46.0054 21.3168 45.9996C21.5614 45.9939 21.7992 45.9233 22.0021 45.7962V45.7962Z" fill="url(#paint1_linear_12612_11490)"/>
</g>
<defs>
<filter id="filter0_d_12612_11490" x="9" y="11" width="50" height="50" filterUnits="userSpaceOnUse" color-interpolation-filters="sRGB">
<feFlood flood-opacity="0" result="BackgroundImageFix"/>
<feColorMatrix in="SourceAlpha" type="matrix" values="0 0 0 0 0 0 0 0 0 0 0 0 0 0 0 0 0 0 127 0" result="hardAlpha"/>
<feOffset dy="4"/>
<feGaussianBlur stdDeviation="4"/>
<feComposite in2="hardAlpha" operator="out"/>
<feColorMatrix type="matrix" values="0 0 0 0 0 0 0 0 0 0 0 0 0 0 0 0 0 0 0.75 0"/>
<feBlend mode="normal" in2="BackgroundImageFix" result="effect1_dropShadow_12612_11490"/>
<feBlend mode="normal" in="SourceGraphic" in2="effect1_dropShadow_12612_11490" result="shape"/>
</filter>
<filter id="filter1_i_12612_11490" x="20" y="17" width="28" height="29" filterUnits="userSpaceOnUse" color-interpolation-filters="sRGB">
<feFlood flood-opacity="0" result="BackgroundImageFix"/>
<feBlend mode="normal" in="SourceGraphic" in2="BackgroundImageFix" result="shape"/>
<feColorMatrix in="SourceAlpha" type="matrix" values="0 0 0 0 0 0 0 0 0 0 0 0 0 0 0 0 0 0 127 0" result="hardAlpha"/>
<feOffset dy="-1"/>
<feGaussianBlur stdDeviation="1.5"/>
<feComposite in2="hardAlpha" operator="arithmetic" k2="-1" k3="1"/>
<feColorMatrix type="matrix" values="0 0 0 0 1 0 0 0 0 1 0 0 0 0 1 0 0 0 0.8 0"/>
<feBlend mode="normal" in2="shape" result="effect1_innerShadow_12612_11490"/>
</filter>
<linearGradient id="paint0_linear_12612_11490" x1="34" y1="18" x2="34" y2="46" gradientUnits="userSpaceOnUse">
<stop stop-color="white"/>
<stop offset="1" stop-color="#808080"/>
</linearGradient>
<linearGradient id="paint1_linear_12612_11490" x1="34" y1="18" x2="34" y2="46" gradientUnits="userSpaceOnUse">
<stop stop-color="white"/>
<stop offset="1" stop-color="#808080"/>
</linearGradient>
</defs>
</svg>
