<svg width="64" height="64" viewBox="0 0 64 64" fill="none" xmlns="http://www.w3.org/2000/svg">
<path opacity="0.7" d="M32 62C48.5685 62 62 48.5685 62 32C62 15.4315 48.5685 2 32 2C15.4315 2 2 15.4315 2 32C2 48.5685 15.4315 62 32 62Z" fill="#3F3F3F"/>
<g filter="url(#filter0_i_261_10)">
<path d="M47.2503 33.1049L45.3858 29.0093L45.3068 29.0453L45.2293 29.0843L47.2503 33.1049ZM48 31.988H43.5H48ZM47.2503 30.8712L45.2293 34.8918L45.3068 34.9308L45.3858 34.9668L47.2503 30.8712ZM22.0021 18.1798L19.7741 22.0896L19.8761 22.1477L19.9811 22.2005L22.0021 18.1798ZM20.0074 19.2967H24.5074V19.1409L24.4966 18.9854L20.0074 19.2967ZM20.0074 44.6794L24.4775 45.197L24.5074 44.9391V44.6794H20.0074ZM24.0231 49.8169L49.2714 37.1255L45.2293 29.0843L19.9811 41.7756L24.0231 49.8169ZM49.1148 37.2004C50.0676 36.7667 50.9175 36.0718 51.5335 35.1541L44.061 30.1381C44.4119 29.6153 44.8829 29.2383 45.3858 29.0093L49.1148 37.2004ZM51.5335 35.1541C52.1524 34.2322 52.5 33.1345 52.5 31.988H43.5C43.5 31.3069 43.7072 30.6652 44.061 30.1381L51.5335 35.1541ZM52.5 31.988C52.5 30.8416 52.1524 29.7439 51.5335 28.8219L44.061 33.838C43.7072 33.3109 43.5 32.6691 43.5 31.988H52.5ZM51.5335 28.8219C50.9175 27.9043 50.0676 27.2094 49.1148 26.7756L45.3858 34.9668C44.8829 34.7378 44.4119 34.3608 44.061 33.838L51.5335 28.8219ZM49.2714 26.8506L24.0231 14.1592L19.9811 22.2005L45.2293 34.8918L49.2714 26.8506ZM24.23 14.2701C23.3377 13.7616 22.3381 13.5037 21.3377 13.5L21.305 22.5C20.7853 22.4981 20.2567 22.3646 19.7741 22.0896L24.23 14.2701ZM21.3377 13.5C20.3369 13.4964 19.336 13.7472 18.4408 14.2485L22.8376 22.1014C22.354 22.3721 21.8251 22.5019 21.305 22.5L21.3377 13.5ZM18.4408 14.2485C17.5434 14.7509 16.7664 15.4985 16.2332 16.4453L24.075 20.8619C23.7646 21.413 23.3232 21.8294 22.8376 22.1014L18.4408 14.2485ZM16.2332 16.4453C15.6978 17.3959 15.4408 18.4925 15.5181 19.6079L24.4966 18.9854C24.543 19.6552 24.3876 20.3069 24.075 20.8619L16.2332 16.4453ZM15.5074 19.2967V44.6794H24.5074V19.2967H15.5074ZM15.5372 44.1617C15.4041 45.3114 15.631 46.4585 16.1646 47.4575L24.103 43.2171C24.4192 43.8088 24.5583 44.4994 24.4775 45.197L15.5372 44.1617ZM16.1646 47.4575C16.6959 48.4522 17.4949 49.2356 18.4229 49.7552L22.8197 41.9023C23.3286 42.1872 23.7892 42.6296 24.103 43.2171L16.1646 47.4575ZM18.4229 49.7552C19.3489 50.2737 20.3881 50.5227 21.4227 50.4984L21.2109 41.5009C21.7562 41.488 22.3128 41.6185 22.8197 41.9023L18.4229 49.7552ZM21.4227 50.4984C22.4572 50.474 23.4863 50.1762 24.3902 49.6103L19.614 41.9822C20.112 41.6703 20.6656 41.5137 21.2109 41.5009L21.4227 50.4984Z" fill="#4F4C4C"/>
</g>
<path d="M47.2503 33.1049L46.0073 30.3745L45.9547 30.3985L45.903 30.4245L47.2503 33.1049ZM48 31.988H45H48ZM47.2503 30.8712L45.903 33.5516L45.9547 33.5776L46.0073 33.6016L47.2503 30.8712ZM22.0021 18.1798L20.5168 20.7863L20.5848 20.8251L20.6547 20.8603L22.0021 18.1798ZM20.0074 19.2967H23.0074V19.1928L23.0002 19.0892L20.0074 19.2967ZM20.0074 44.6794L22.9875 45.0245L23.0074 44.8525V44.6794H20.0074ZM23.3494 48.4767L48.5977 35.7853L45.903 30.4245L20.6547 43.1158L23.3494 48.4767ZM48.4933 35.8353C49.2035 35.512 49.8333 34.9957 50.2881 34.3181L45.3064 30.9741C45.4962 30.6914 45.747 30.493 46.0073 30.3745L48.4933 35.8353ZM50.2881 34.3181C50.7448 33.6377 51 32.8299 51 31.988H45C45 31.6115 45.1147 31.2597 45.3064 30.9741L50.2881 34.3181ZM51 31.988C51 31.1462 50.7448 30.3384 50.2881 29.6579L45.3064 33.002C45.1147 32.7164 45 32.3645 45 31.988H51ZM50.2881 29.6579C49.8333 28.9804 49.2035 28.4641 48.4933 28.1408L46.0073 33.6016C45.747 33.483 45.4962 33.2847 45.3064 33.002L50.2881 29.6579ZM48.5977 28.1908L23.3494 15.4994L20.6547 20.8603L45.903 33.5516L48.5977 28.1908ZM23.4874 15.5733C22.8242 15.1954 22.0793 15.0027 21.3323 15L21.3105 21C21.0441 20.999 20.7702 20.9308 20.5168 20.7863L23.4874 15.5733ZM21.3323 15C20.585 14.9973 19.839 15.1847 19.1736 15.5573L22.1048 20.7926C21.851 20.9346 21.5771 21.001 21.3105 21L21.3323 15ZM19.1736 15.5573C18.5067 15.9307 17.9328 16.4843 17.5402 17.1814L22.768 20.1258C22.5982 20.4272 22.3599 20.6497 22.1048 20.7926L19.1736 15.5573ZM17.5402 17.1814C17.1461 17.8811 16.9578 18.6863 17.0146 19.5042L23.0002 19.0892C23.026 19.4615 22.9393 19.8218 22.768 20.1258L17.5402 17.1814ZM17.0074 19.2967V44.6794H23.0074V19.2967H17.0074ZM17.0273 44.3343C16.9298 45.1761 17.0957 46.0169 17.4877 46.7508L22.78 43.9238C22.9545 44.2504 23.0326 44.6347 22.9875 45.0245L17.0273 44.3343ZM17.4877 46.7508C17.8782 47.4818 18.4672 48.0609 19.1557 48.4464L22.0869 43.2111C22.3563 43.3619 22.607 43.6 22.78 43.9238L17.4877 46.7508ZM19.1557 48.4464C19.8429 48.8311 20.6161 49.0169 21.3874 48.9988L21.2462 43.0004C21.5282 42.9938 21.8189 43.061 22.0869 43.2111L19.1557 48.4464ZM21.3874 48.9988C22.1586 48.9806 22.9239 48.7586 23.5941 48.3389L20.41 43.2535C20.6744 43.088 20.9642 43.0071 21.2462 43.0004L21.3874 48.9988Z" fill="#0F0F0F"/>
<path d="M22.0021 45.7962L47.2503 33.1049C47.4752 33.0025 47.6647 32.8435 47.7972 32.6461C47.9298 32.4487 48 32.2207 48 31.988C48 31.7554 47.9298 31.5274 47.7972 31.33C47.6647 31.1325 47.4752 30.9736 47.2503 30.8712L22.0021 18.1798C21.7972 18.0631 21.5617 18.0009 21.3214 18C21.081 17.9991 20.845 18.0597 20.6392 18.1749C20.4333 18.2902 20.2655 18.4558 20.1541 18.6536C20.0427 18.8514 19.9919 19.0739 20.0074 19.2967V44.6794C19.9812 44.9054 20.0251 45.1337 20.1338 45.3373C20.2426 45.5409 20.4117 45.7114 20.6213 45.8287C20.8309 45.9461 21.0722 46.0054 21.3168 45.9996C21.5614 45.9939 21.7992 45.9233 22.0021 45.7962Z" fill="url(#paint0_linear_261_10)"/>
<defs>
<filter id="filter0_i_261_10" x="15.4999" y="13.5" width="37.0001" height="41.0001" filterUnits="userSpaceOnUse" color-interpolation-filters="sRGB">
<feFlood flood-opacity="0" result="BackgroundImageFix"/>
<feBlend mode="normal" in="SourceGraphic" in2="BackgroundImageFix" result="shape"/>
<feColorMatrix in="SourceAlpha" type="matrix" values="0 0 0 0 0 0 0 0 0 0 0 0 0 0 0 0 0 0 127 0" result="hardAlpha"/>
<feOffset dy="4"/>
<feGaussianBlur stdDeviation="4"/>
<feComposite in2="hardAlpha" operator="arithmetic" k2="-1" k3="1"/>
<feColorMatrix type="matrix" values="0 0 0 0 0 0 0 0 0 0 0 0 0 0 0 0 0 0 0.4 0"/>
<feBlend mode="normal" in2="shape" result="effect1_innerShadow_261_10"/>
</filter>
<linearGradient id="paint0_linear_261_10" x1="34" y1="18" x2="34" y2="46" gradientUnits="userSpaceOnUse">
<stop stop-color="white"/>
<stop offset="1" stop-color="#808080"/>
</linearGradient>
</defs>
</svg>
