<svg width="16" height="16" viewBox="0 0 16 16" fill="none" xmlns="http://www.w3.org/2000/svg">
<path d="M1.03027 8.26758C1.2334 6.75684 1.68408 5.4069 2.38232 4.21777C3.0848 3.02441 3.96501 2.19287 5.02295 1.72314L5.32764 2.74512C3.88037 3.84961 2.96419 5.62484 2.5791 8.0708C2.44792 8.90023 2.37809 9.64502 2.36963 10.3052C2.34847 12.0444 2.74626 13.2526 3.56299 13.9297L3.16309 14.8882C2.24902 14.3804 1.61003 13.5023 1.24609 12.2539C1.00488 11.416 0.896973 10.5189 0.922363 9.5625C0.930827 9.16048 0.958333 8.77962 1.00488 8.41992L1.03027 8.26758ZM8.07617 7.16943L9.51709 5.13184H11.5293L9.04102 8.58496L10.4312 12H8.61572L7.77148 9.85449L6.25439 12H4.22949L6.81934 8.40723L5.49268 5.13184H7.30811L8.07617 7.16943ZM10.8818 14.9072L10.5771 13.9043C12.0286 12.7829 12.9448 10.9886 13.3257 8.52148C13.4484 7.73014 13.514 7.00016 13.5225 6.33154C13.5436 4.59229 13.1501 3.382 12.3418 2.70068L12.7417 1.74219C13.241 2.01302 13.6685 2.40869 14.0239 2.9292C14.3836 3.44548 14.6481 4.06966 14.8174 4.80176C14.9909 5.53385 15.0734 6.28711 15.0649 7.06152C15.0396 8.23796 14.8364 9.38265 14.4556 10.4956C14.0747 11.6043 13.5754 12.5353 12.9575 13.2886C12.3439 14.0418 11.652 14.5814 10.8818 14.9072Z" fill="white"/>
</svg>
