<svg width="20" height="20" viewBox="0 0 20 20" fill="none" xmlns="http://www.w3.org/2000/svg">
<path d="M6.66998 19.4299L15.06 14.9002C15.1334 14.8623 15.1951 14.8049 15.2381 14.7344C15.2811 14.6638 15.3038 14.5826 15.3038 14.5C15.3038 14.4174 15.2811 14.3364 15.2381 14.2659C15.1951 14.1953 15.1334 14.138 15.06 14.1001L6.66998 9.57008C6.60148 9.52789 6.52277 9.5052 6.44232 9.50465C6.36187 9.5041 6.28282 9.52567 6.21374 9.5669C6.14467 9.60814 6.08822 9.66746 6.05054 9.73854C6.01285 9.80961 5.99536 9.88967 6 9.96998V19.1001C6.00463 19.1758 6.02922 19.2489 6.07123 19.312C6.11324 19.3752 6.17116 19.426 6.23919 19.4595C6.30723 19.493 6.3829 19.5079 6.45856 19.5027C6.53421 19.4975 6.60715 19.4724 6.66998 19.4299V19.4299Z" fill="#8BC24A"/>
<path d="M20 12.86L11 6.43V0L20 5.14V12.86Z" fill="white"/>
<path opacity="0.5" d="M9 0L0 5.14V12.86L9 6.43V0Z" fill="white"/>
</svg>
