<svg width="20" height="21" viewBox="0 0 20 21" fill="none" xmlns="http://www.w3.org/2000/svg">
<path d="M20 12.91L11 6.48005V0.0500488L20 5.19005V12.91Z" fill="white"/>
<path opacity="0.5" d="M9 0.0500488L0 5.19005V12.91L9 6.48005V0.0500488Z" fill="white"/>
<path d="M10 10.05C8.67392 10.05 7.40216 10.5767 6.46448 11.5144C5.5268 12.4521 5 13.724 5 15.05C5 16.3761 5.5268 17.648 6.46448 18.5857C7.40216 19.5234 8.67392 20.05 10 20.05C11.3261 20.05 12.5978 19.5234 13.5355 18.5857C14.4732 17.648 15 16.3761 15 15.05C15 13.724 14.4732 12.4521 13.5355 11.5144C12.5978 10.5767 11.3261 10.05 10 10.05V10.05ZM12.77 16.71C12.8435 16.7825 12.9018 16.8691 12.9416 16.9644C12.9814 17.0596 13.002 17.1619 13.002 17.2651C13.002 17.3684 12.9814 17.4706 12.9416 17.5659C12.9018 17.6612 12.8435 17.7475 12.77 17.8201C12.6244 17.9665 12.4265 18.0492 12.22 18.05C12.0108 18.0476 11.8105 17.9654 11.66 17.8201L10 16.1602L8.34003 17.8201C8.18953 17.9654 7.9892 18.0476 7.78003 18.05C7.57347 18.0492 7.37563 17.9665 7.22998 17.8201C7.15651 17.7475 7.09822 17.6612 7.05841 17.5659C7.0186 17.4706 6.99805 17.3684 6.99805 17.2651C6.99805 17.1619 7.0186 17.0596 7.05841 16.9644C7.09822 16.8691 7.15651 16.7825 7.22998 16.71L8.89001 15.05L7.22998 13.3901C7.15651 13.3176 7.09822 13.231 7.05841 13.1357C7.0186 13.0405 6.99805 12.9382 6.99805 12.835C6.99805 12.7317 7.0186 12.6295 7.05841 12.5342C7.09822 12.4389 7.15651 12.3526 7.22998 12.28C7.30253 12.2066 7.38898 12.1482 7.48425 12.1084C7.57952 12.0686 7.68172 12.0481 7.78497 12.0481C7.88823 12.0481 7.99048 12.0686 8.08575 12.1084C8.18103 12.1482 8.26747 12.2066 8.34003 12.28L10 13.9399L11.66 12.28C11.7325 12.2066 11.819 12.1482 11.9142 12.1084C12.0095 12.0686 12.1118 12.0481 12.215 12.0481C12.3183 12.0481 12.4205 12.0686 12.5157 12.1084C12.611 12.1482 12.6975 12.2066 12.77 12.28C12.8435 12.3526 12.9018 12.4389 12.9416 12.5342C12.9814 12.6295 13.002 12.7317 13.002 12.835C13.002 12.9382 12.9814 13.0405 12.9416 13.1357C12.9018 13.231 12.8435 13.3176 12.77 13.3901L11.11 15.05L12.77 16.71Z" fill="white"/>
</svg>
