<svg width="20" height="20" viewBox="0 0 20 20" fill="none" xmlns="http://www.w3.org/2000/svg">
<g clip-path="url(#clip0_11935_10011)">
<path fill-rule="evenodd" clip-rule="evenodd" d="M4.26 2.82999H4.2L0 3.43998V7.34L2.56 7.71L3.16 5.92997L3.89 4.92997L4.68 6.00998L5.46 8.16996L9.85 8.81998C9.99332 8.84173 10.1397 8.83208 10.2789 8.79166C10.4181 8.75124 10.5469 8.68103 10.6562 8.58591C10.7656 8.49079 10.853 8.37301 10.9124 8.24076C10.9717 8.1085 11.0016 7.96494 11 7.81998V2.99997C11.0016 2.85502 10.9717 2.71145 10.9124 2.5792C10.853 2.44694 10.7656 2.32917 10.6562 2.23404C10.5469 2.13892 10.4181 2.06871 10.2789 2.02829C10.1397 1.98788 9.99332 1.97822 9.85 1.99997L4.26 2.82999ZM0.44 6.60996V4.18998L3.09 3.99997L2.19 6.79996L0.44 6.60996ZM9.64 7.40995L6 7.09995L4.76 3.80997L9.63 3.38999L9.64 7.40995Z" fill="white"/>
<path opacity="0.5" d="M13.78 2.07999L10.18 1.99997H9.84998C9.9933 1.97822 10.1396 1.98788 10.2789 2.02829C10.4181 2.06871 10.5468 2.13892 10.6562 2.23404C10.7656 2.32917 10.853 2.44694 10.9124 2.5792C10.9717 2.71145 11.0016 2.85502 11 2.99997V7.81998C10.9936 8.08027 10.886 8.32781 10.7 8.50998L14.27 6.99997C14.4893 6.88532 14.6732 6.71296 14.8019 6.5015C14.9305 6.29004 14.999 6.04748 15 5.79996V3.38999C15.0082 3.0555 14.8851 2.73109 14.6571 2.48624C14.429 2.24139 14.1142 2.09557 13.78 2.07999V2.07999Z" fill="white"/>
<path opacity="0.5" d="M10.94 15L9.65002 13.72C9.65002 13.72 11.65 11.22 12.91 10C14.17 8.78 19.32 4.77002 19.32 4.77002C19.3564 4.73252 19.3999 4.70267 19.448 4.68231C19.4961 4.66195 19.5478 4.65149 19.6 4.65149C19.6523 4.65149 19.704 4.66195 19.7521 4.68231C19.8001 4.70267 19.8437 4.73252 19.88 4.77002V4.77002C19.9175 4.80638 19.9473 4.84985 19.9677 4.89795C19.9881 4.94605 19.9985 4.99776 19.9985 5.04999C19.9985 5.10222 19.9881 5.15393 19.9677 5.20203C19.9473 5.25012 19.9175 5.29366 19.88 5.33002C19.88 5.33002 15.83 10.56 14.62 11.78C13.41 13 10.94 15 10.94 15Z" fill="white"/>
<path d="M9.8 15.33L9 14.43C9 14.43 6.87 14.07 6.08 16.94C5.57 18.78 3 20 3 20H6.18C6.89031 19.9862 7.58336 19.7786 8.18433 19.3997C8.7853 19.0208 9.27134 18.485 9.59 17.85C9.81096 17.4723 9.94451 17.0499 9.98085 16.6138C10.0172 16.1778 9.9554 15.7391 9.8 15.33V15.33Z" fill="white"/>
</g>
<defs>
<clipPath id="clip0_11935_10011">
<rect width="20" height="20" fill="white"/>
</clipPath>
</defs>
</svg>
