<svg width="16" height="16" viewBox="0 0 16 16" fill="none" xmlns="http://www.w3.org/2000/svg">
<path d="M3 11L5.5 7H4V1H2V7H0.5L3 11Z" fill="white"/>
<path opacity="0.5" d="M8 1L5.5 5H7V9L9 7V5H10.5L8 1Z" fill="white"/>
<path opacity="0.5" d="M12 8C12.8846 8.00287 13.7432 8.29898 14.4417 8.8418C15.1401 9.38462 15.639 10.1435 15.8601 11H14.8601C14.6538 10.4165 14.272 9.91104 13.7671 9.55298C13.2622 9.19492 12.659 9.00174 12.04 9C11.4211 9.00174 10.8179 9.19492 10.313 9.55298C9.80812 9.91104 9.42628 10.4165 9.21997 11H8.21997C8.43749 10.1566 8.92444 9.40719 9.60669 8.86572C10.2889 8.32425 11.1292 8.02031 12 8ZM15.8601 13H14.8601C14.6538 13.5835 14.272 14.089 13.7671 14.447C13.2622 14.8051 12.659 14.9983 12.04 15C11.4211 14.9983 10.8179 14.8051 10.313 14.447C9.80812 14.089 9.42628 13.5835 9.21997 13H8.21997C8.44111 13.8565 8.94 14.6154 9.63843 15.1582C10.3369 15.701 11.1955 15.9971 12.0801 16C12.9508 15.9797 13.7911 15.6757 14.4734 15.1343C15.1556 14.5928 15.6426 13.8434 15.8601 13V13Z" fill="white"/>
<path d="M12 13.75C12.9665 13.75 13.75 12.9665 13.75 12C13.75 11.0335 12.9665 10.25 12 10.25C11.0335 10.25 10.25 11.0335 10.25 12C10.25 12.9665 11.0335 13.75 12 13.75Z" fill="white"/>
</svg>
