<svg width="16" height="16" viewBox="0 0 16 16" fill="none" xmlns="http://www.w3.org/2000/svg">
<path opacity="0.5" d="M0 2V14C0 14.2652 0.105432 14.5195 0.292969 14.707C0.480505 14.8946 0.734784 15 1 15H15C15.2652 15 15.5195 14.8946 15.707 14.707C15.8946 14.5195 16 14.2652 16 14V2C16 1.73478 15.8946 1.48051 15.707 1.29297C15.5195 1.10543 15.2652 1 15 1H1C0.734784 1 0.480505 1.10543 0.292969 1.29297C0.105432 1.48051 0 1.73478 0 2ZM4 13H2V8H1V5H2V3H4V5H5V8H4V13ZM9 13H7V12H6V9H7V3H9V9H10V12H9V13ZM14 13H12V9H11V6H12V3H14V6H15V9H14V13Z" fill="white"/>
<path d="M5 6H1V7H5V6Z" fill="white"/>
<path d="M10 10H6V11H10V10Z" fill="white"/>
<path d="M15 7H11V8H15V7Z" fill="white"/>
</svg>
