<svg width="16" height="16" viewBox="0 0 16 16" fill="none" xmlns="http://www.w3.org/2000/svg">
<path opacity="0.5" d="M9.00001 2.89001V4.99011H7.00001V2.89001C5.8184 3.12203 4.75416 3.75768 3.98975 4.68811C3.22534 5.61854 2.80838 6.78594 2.81006 7.99011C2.81006 9.36659 3.35677 10.6865 4.33008 11.6598C5.3034 12.6331 6.62353 13.1801 8.00001 13.1801C9.37648 13.1801 10.6966 12.6331 11.6699 11.6598C12.6432 10.6865 13.1899 9.36659 13.1899 7.99011C13.1916 6.78594 12.7747 5.61854 12.0103 4.68811C11.2458 3.75768 10.1816 3.12203 9.00001 2.89001ZM5.12012 10.7301C4.85491 10.7301 4.60063 10.6247 4.41309 10.4371C4.22555 10.2496 4.12012 9.99532 4.12012 9.7301C4.12012 9.46489 4.22555 9.21036 4.41309 9.02283C4.60063 8.83529 4.85491 8.7301 5.12012 8.7301C5.38534 8.7301 5.63962 8.83529 5.82715 9.02283C6.01469 9.21036 6.12012 9.46489 6.12012 9.7301C6.12144 9.86226 6.09654 9.99336 6.04688 10.1158C5.99722 10.2383 5.92356 10.3496 5.83057 10.4435C5.73758 10.5374 5.62687 10.6121 5.50489 10.663C5.38291 10.7138 5.25229 10.7401 5.12012 10.7401V10.7301ZM5.12012 7.26013C4.85491 7.26013 4.60063 7.1547 4.41309 6.96716C4.22555 6.77963 4.12012 6.52535 4.12012 6.26013C4.12012 5.99492 4.22555 5.74039 4.41309 5.55286C4.60063 5.36532 4.85491 5.26013 5.12012 5.26013C5.38534 5.26013 5.63962 5.36532 5.82715 5.55286C6.01469 5.74039 6.12012 5.99492 6.12012 6.26013C6.12144 6.39229 6.09654 6.52339 6.04688 6.64587C5.99722 6.76836 5.92356 6.87959 5.83057 6.97351C5.73758 7.06743 5.62687 7.14211 5.50489 7.19299C5.38291 7.24387 5.25229 7.2699 5.12012 7.2699V7.26013ZM8.00001 11.89C7.73479 11.89 7.48051 11.7846 7.29297 11.597C7.10544 11.4095 7.00001 11.1552 7.00001 10.89C7.00001 10.6248 7.10544 10.3705 7.29297 10.183C7.48051 9.99545 7.73479 9.89001 8.00001 9.89001C8.26522 9.89001 8.5195 9.99545 8.70704 10.183C8.89457 10.3705 9.00001 10.6248 9.00001 10.89C9.00001 11.1552 8.89457 11.4095 8.70704 11.597C8.5195 11.7846 8.26522 11.89 8.00001 11.89ZM10.8799 10.7401C10.6147 10.7401 10.3604 10.6347 10.1729 10.4471C9.98532 10.2596 9.87989 10.0053 9.87989 9.74011C9.87989 9.4749 9.98532 9.22037 10.1729 9.03284C10.3604 8.8453 10.6147 8.74011 10.8799 8.74011C11.1451 8.74011 11.3994 8.8453 11.5869 9.03284C11.7745 9.22037 11.8799 9.4749 11.8799 9.74011C11.8799 10.0053 11.7745 10.2596 11.5869 10.4471C11.3994 10.6347 11.1451 10.7401 10.8799 10.7401ZM10.8799 7.2699C10.6147 7.2699 10.3604 7.16471 10.1729 6.97717C9.98532 6.78964 9.87989 6.53511 9.87989 6.2699C9.87989 6.00468 9.98532 5.7504 10.1729 5.56287C10.3604 5.37533 10.6147 5.2699 10.8799 5.2699C11.1451 5.2699 11.3994 5.37533 11.5869 5.56287C11.7745 5.7504 11.8799 6.00468 11.8799 6.2699C11.8799 6.53511 11.7745 6.78964 11.5869 6.97717C11.3994 7.16471 11.1451 7.2699 10.8799 7.2699Z" fill="white"/>
<path d="M8 15.5C12.1421 15.5 15.5 12.1421 15.5 8C15.5 3.85786 12.1421 0.5 8 0.5C3.85786 0.5 0.5 3.85786 0.5 8C0.5 12.1421 3.85786 15.5 8 15.5Z" stroke="white" stroke-miterlimit="10"/>
</svg>
