<svg width="20" height="20" viewBox="0 0 20 20" fill="none" xmlns="http://www.w3.org/2000/svg">
<path d="M10 1.12012C12.3535 1.1254 14.6093 2.06263 16.2734 3.72681C17.9376 5.39099 18.8746 7.6465 18.8799 10C18.8746 12.3535 17.9376 14.609 16.2734 16.2732C14.6093 17.9374 12.3535 18.8746 10 18.8799C7.6465 18.8746 5.39074 17.9374 3.72656 16.2732C2.06238 14.609 1.1254 12.3535 1.12012 10C1.1254 7.6465 2.06238 5.39099 3.72656 3.72681C5.39074 2.06263 7.6465 1.1254 10 1.12012ZM10 0.120117C7.38047 0.122765 4.86889 1.16432 3.0166 3.0166C1.16432 4.86889 0.122765 7.38047 0.120117 10C0.122765 12.6195 1.16432 15.1311 3.0166 16.9834C4.86889 18.8357 7.38047 19.8772 10 19.8799C12.6195 19.8772 15.1311 18.8357 16.9834 16.9834C18.8357 15.1311 19.8772 12.6195 19.8799 10C19.8772 7.38047 18.8357 4.86889 16.9834 3.0166C15.1311 1.16432 12.6195 0.122765 10 0.120117V0.120117Z" fill="white"/>
<path opacity="0.5" d="M12 2.80005V6H8V2.80005C6.41943 3.2391 5.0259 4.18343 4.03271 5.48901C3.03953 6.7946 2.50132 8.38961 2.5 10.03C2.5 12.0192 3.29025 13.9267 4.69678 15.3333C6.1033 16.7398 8.01088 17.53 10 17.53C11.9891 17.53 13.8967 16.7398 15.3032 15.3333C16.7097 13.9267 17.5 12.0192 17.5 10.03C17.4987 8.38961 16.9605 6.7946 15.9673 5.48901C14.9741 4.18343 13.5806 3.2391 12 2.80005V2.80005ZM6 13.5C5.60218 13.5 5.22076 13.3419 4.93945 13.0605C4.65815 12.7792 4.5 12.3978 4.5 12C4.5 11.6022 4.65815 11.2208 4.93945 10.9395C5.22076 10.6581 5.60218 10.5 6 10.5C6.39782 10.5 6.77924 10.6581 7.06055 10.9395C7.34185 11.2208 7.5 11.6022 7.5 12C7.5 12.3978 7.34185 12.7792 7.06055 13.0605C6.77924 13.3419 6.39782 13.5 6 13.5ZM6 9.5C5.60218 9.5 5.22076 9.34185 4.93945 9.06055C4.65815 8.77924 4.5 8.39782 4.5 8C4.5 7.60218 4.65815 7.22076 4.93945 6.93945C5.22076 6.65815 5.60218 6.5 6 6.5C6.39782 6.5 6.77924 6.65815 7.06055 6.93945C7.34185 7.22076 7.5 7.60218 7.5 8C7.5 8.39782 7.34185 8.77924 7.06055 9.06055C6.77924 9.34185 6.39782 9.5 6 9.5ZM10 15.5C9.60218 15.5 9.22076 15.3419 8.93945 15.0605C8.65815 14.7792 8.5 14.3978 8.5 14C8.5 13.6022 8.65815 13.2208 8.93945 12.9395C9.22076 12.6581 9.60218 12.5 10 12.5C10.3978 12.5 10.7792 12.6581 11.0605 12.9395C11.3419 13.2208 11.5 13.6022 11.5 14C11.5 14.3978 11.3419 14.7792 11.0605 15.0605C10.7792 15.3419 10.3978 15.5 10 15.5ZM14 6.5C14.3978 6.5 14.7792 6.65815 15.0605 6.93945C15.3419 7.22076 15.5 7.60218 15.5 8C15.5 8.39782 15.3419 8.77924 15.0605 9.06055C14.7792 9.34185 14.3978 9.5 14 9.5C13.6022 9.5 13.2208 9.34185 12.9395 9.06055C12.6581 8.77924 12.5 8.39782 12.5 8C12.5 7.60218 12.6581 7.22076 12.9395 6.93945C13.2208 6.65815 13.6022 6.5 14 6.5ZM14 13.5C13.6022 13.5 13.2208 13.3419 12.9395 13.0605C12.6581 12.7792 12.5 12.3978 12.5 12C12.5 11.6022 12.6581 11.2208 12.9395 10.9395C13.2208 10.6581 13.6022 10.5 14 10.5C14.3978 10.5 14.7792 10.6581 15.0605 10.9395C15.3419 11.2208 15.5 11.6022 15.5 12C15.5 12.3978 15.3419 12.7792 15.0605 13.0605C14.7792 13.3419 14.3978 13.5 14 13.5Z" fill="white"/>
</svg>
