<svg width="64" height="64" viewBox="0 0 64 64" fill="none" xmlns="http://www.w3.org/2000/svg">
<path d="M32 3C24.3087 3 16.9324 6.05529 11.4938 11.4938C6.05529 16.9324 3 24.3087 3 32C3 39.6913 6.05529 47.0676 11.4938 52.5062C16.9324 57.9447 24.3087 61 32 61C39.6913 61 47.0676 57.9447 52.5062 52.5062C57.9447 47.0676 61 39.6913 61 32C61 24.3087 57.9447 16.9324 52.5062 11.4938C47.0676 6.05529 39.6913 3 32 3Z" fill="url(#paint0_linear_9586_23269)"/>
<path d="M31.9058 7.44404C38.3912 7.45152 44.6087 10.0313 49.1946 14.6171C53.7804 19.2029 56.3601 25.4205 56.3676 31.9058C56.3601 38.3912 53.7804 44.6087 49.1946 49.1946C44.6087 53.7804 38.3912 56.3601 31.9058 56.3676C25.4205 56.3601 19.2029 53.7804 14.6171 49.1946C10.0313 44.6087 7.45152 38.3912 7.44404 31.9058C7.45152 25.4205 10.0313 19.2029 14.6171 14.6171C19.2029 10.0313 25.4205 7.45152 31.9058 7.44404V7.44404ZM31.9058 5.07141C24.7889 5.07141 17.9634 7.89856 12.931 12.931C7.89856 17.9634 5.07141 24.7889 5.07141 31.9058C5.07141 39.0228 7.89856 45.8482 12.931 50.8807C17.9634 55.9131 24.7889 58.7402 31.9058 58.7402C39.0228 58.7402 45.8482 55.9131 50.8807 50.8807C55.9131 45.8482 58.7402 39.0228 58.7402 31.9058C58.7402 24.7889 55.9131 17.9634 50.8807 12.931C45.8482 7.89856 39.0228 5.07141 31.9058 5.07141V5.07141Z" fill="url(#paint1_linear_9586_23269)"/>
<path d="M37.5552 11.5684H36.1429V19.901H27.6689V11.5684H26.2565C21.7919 12.8037 17.8551 15.4682 15.0492 19.1542C12.2433 22.8401 10.7229 27.3442 10.7208 31.9766C10.7208 37.5952 12.9527 42.9835 16.9257 46.9565C20.8986 50.9294 26.2873 53.1616 31.9059 53.1616C37.5245 53.1616 42.9131 50.9294 46.8861 46.9565C50.8591 42.9835 53.091 37.5952 53.091 31.9766C53.0888 27.3442 51.5685 22.8401 48.7626 19.1542C45.9567 15.4682 42.0199 12.8037 37.5552 11.5684ZM20.6072 41.7922C19.4835 41.7922 18.4057 41.3459 17.6111 40.5513C16.8165 39.7567 16.3702 38.679 16.3702 37.5552C16.3702 36.4315 16.8165 35.3538 17.6111 34.5592C18.4057 33.7646 19.4835 33.3182 20.6072 33.3182C21.7309 33.3182 22.8086 33.7646 23.6032 34.5592C24.3978 35.3538 24.8442 36.4315 24.8442 37.5552C24.8442 38.679 24.3978 39.7567 23.6032 40.5513C22.8086 41.3459 21.7309 41.7922 20.6072 41.7922ZM20.6072 30.4935C19.4835 30.4935 18.4057 30.0472 17.6111 29.2526C16.8165 28.458 16.3702 27.3803 16.3702 26.2565C16.3702 25.1328 16.8165 24.0551 17.6111 23.2605C18.4057 22.4659 19.4835 22.0195 20.6072 22.0195C21.7309 22.0195 22.8086 22.4659 23.6032 23.2605C24.3978 24.0551 24.8442 25.1328 24.8442 26.2565C24.8442 27.3803 24.3978 28.458 23.6032 29.2526C22.8086 30.0472 21.7309 30.4935 20.6072 30.4935ZM31.9059 47.4416C30.7822 47.4416 29.7044 46.9952 28.9098 46.2006C28.1153 45.406 27.6689 44.3283 27.6689 43.2046C27.6689 42.0809 28.1153 41.0031 28.9098 40.2085C29.7044 39.4139 30.7822 38.9676 31.9059 38.9676C33.0296 38.9676 34.1073 39.4139 34.9019 40.2085C35.6965 41.0031 36.1429 42.0809 36.1429 43.2046C36.1429 44.3283 35.6965 45.406 34.9019 46.2006C34.1073 46.9952 33.0296 47.4416 31.9059 47.4416ZM43.2046 22.0195C44.3283 22.0195 45.406 22.4659 46.2006 23.2605C46.9952 24.0551 47.4416 25.1328 47.4416 26.2565C47.4416 27.3803 46.9952 28.458 46.2006 29.2526C45.406 30.0472 44.3283 30.4935 43.2046 30.4935C42.0809 30.4935 41.0031 30.0472 40.2085 29.2526C39.414 28.458 38.9676 27.3803 38.9676 26.2565C38.9676 25.1328 39.414 24.0551 40.2085 23.2605C41.0031 22.4659 42.0809 22.0195 43.2046 22.0195V22.0195ZM43.2046 41.7922C42.0809 41.7922 41.0031 41.3459 40.2085 40.5513C39.414 39.7567 38.9676 38.679 38.9676 37.5552C38.9676 36.4315 39.414 35.3538 40.2085 34.5592C41.0031 33.7646 42.0809 33.3182 43.2046 33.3182C44.3283 33.3182 45.406 33.7646 46.2006 34.5592C46.9952 35.3538 47.4416 36.4315 47.4416 37.5552C47.4416 38.679 46.9952 39.7567 46.2006 40.5513C45.406 41.3459 44.3283 41.7922 43.2046 41.7922V41.7922Z" fill="#CDCDCD"/>
<defs>
<linearGradient id="paint0_linear_9586_23269" x1="32" y1="3" x2="32" y2="61" gradientUnits="userSpaceOnUse">
<stop stop-color="#333333"/>
<stop offset="1" stop-color="#1A1A1A"/>
</linearGradient>
<linearGradient id="paint1_linear_9586_23269" x1="31.9058" y1="5.07141" x2="31.9058" y2="58.7402" gradientUnits="userSpaceOnUse">
<stop stop-color="#DADADA"/>
<stop offset="0.54" stop-color="#A6A6A6"/>
<stop offset="1" stop-color="#8F8F8F"/>
</linearGradient>
</defs>
</svg>
