<svg width="16" height="16" viewBox="0 0 16 16" fill="none" xmlns="http://www.w3.org/2000/svg">
<path opacity="0.5" d="M2.89999 15.8999C3.19999 15.0999 3.79999 14.1999 3.29999 13.2999C2.89999 12.4999 1.59999 11.7 0.699991 10.5C-0.400009 8.99995 -9.47714e-06 7.19996 0.799991 6.29996C1.29999 5.69996 2.29999 5.19995 2.79999 5.19995C2.79999 5.19995 3.39999 5.29996 3.39999 5.79996C3.39999 6.29996 2.79999 6.59996 2.79999 6.59996C2.49999 6.59996 1.89999 6.79995 1.49999 7.49995C1.09999 8.19995 0.999991 9.19996 1.79999 10.3C2.59999 11.4 3.39999 12 3.79999 13C4.29999 14.3 2.89999 15.8999 2.89999 15.8999Z" fill="white"/>
<path opacity="0.5" d="M8.00002 6C8.00002 7.5 7.10002 8.69999 5.90002 8.89999V9C5.90002 9 9.70002 9 10.4 9C11.8 9 13 7.7 13 6C13 4.3 11.8 3 10.4 3C9.80002 3 5.90002 3 5.90002 3V3.10001C7.10002 3.30001 8.00002 4.5 8.00002 6Z" fill="white"/>
<path d="M5.50001 3.09998C4.50001 3.09998 3.60001 3.79997 3.20001 4.79997C3.50001 4.39997 3.90001 4.19997 4.30001 4.19997C5.10001 4.19997 5.80001 4.99997 5.80001 5.99997C5.80001 6.99997 5.10001 7.79997 4.30001 7.79997C3.90001 7.79997 3.50001 7.59997 3.20001 7.19997C3.60001 8.19997 4.50001 8.89996 5.50001 8.89996C6.90001 8.89996 8.00001 7.59997 8.00001 5.99997C8.00001 4.39997 6.90001 3.09998 5.50001 3.09998Z" fill="white"/>
<path d="M11.5 0C10.4 0 9.3 0.6 8.5 1.5H9.2C9.7 1.1 10.4 0.899994 11 0.899994C13.1 0.899994 14.9 3.2 14.9 6C14.9 8.8 13.2 11.1 11 11.1C10.3 11.1 9.7 10.9 9.2 10.5H8.5C9.3 11.4 10.3 12 11.5 12C14 12 16 9.3 16 6C16 2.7 14 0 11.5 0Z" fill="white"/>
</svg>
