<svg width="16" height="16" viewBox="0 0 16 16" fill="none" xmlns="http://www.w3.org/2000/svg">
<path d="M15.5 8.1001C15.5 8.1001 10.9102 7.6501 10.9102 7.6001C10.8302 7.7401 10.7599 7.89002 10.6699 8.02002C10.5799 8.15002 10.5002 8.25988 10.4102 8.37988L14.1201 14.1299L8.3999 10.3999L8.02002 10.6799C7.88002 10.7699 7.73008 10.8399 7.58008 10.9199C7.64008 10.9199 8.22998 15.5 8.22998 15.5L6.12012 11.4299L8.74023 8.73999L10.9199 6.61011L11.3901 6.15991L15.5 8.1001Z" fill="white"/>
<path opacity="0.5" d="M4.62988 10.72L10.7202 4.62988L4.7998 0.5L0.5 4.81006L4.62988 10.72Z" fill="white"/>
</svg>
