<svg width="20" height="20" viewBox="0 0 20 20" fill="none" xmlns="http://www.w3.org/2000/svg">
<path d="M9 0.25C6.68017 0.252647 4.45629 1.1753 2.81592 2.81567C1.17555 4.45604 0.252647 6.68017 0.25 9C0.254442 11.0416 0.971151 13.0177 2.27637 14.5876C3.58158 16.1576 5.39342 17.223 7.3999 17.6001L6.33008 16C4.91098 15.4594 3.68911 14.5007 2.82666 13.2507C1.96421 12.0008 1.50175 10.5186 1.5 9C1.5 7.01088 2.29025 5.1033 3.69678 3.69678C5.1033 2.29025 7.01088 1.5 9 1.5C10.9891 1.5 12.8967 2.29025 14.3032 3.69678C15.7097 5.1033 16.5 7.01088 16.5 9C16.5002 10.8486 15.812 12.631 14.5698 14H16.1699C17.1977 12.5352 17.7494 10.7894 17.75 9C17.7474 6.68017 16.8245 4.45604 15.1841 2.81567C13.5437 1.1753 11.3198 0.252647 9 0.25V0.25Z" fill="white"/>
<path opacity="0.5" d="M13 13C14.0404 11.9489 14.6229 10.529 14.6201 9.05005C14.62 7.73303 14.1574 6.45773 13.313 5.44702C12.4686 4.43631 11.296 3.75436 10 3.52002V6.05005H8V3.52002C6.704 3.75436 5.5314 4.43631 4.68701 5.44702C3.84262 6.45773 3.37996 7.73303 3.37988 9.05005C3.37951 10.0833 3.66407 11.0967 4.20215 11.9788C4.74023 12.8609 5.51128 13.5775 6.43018 14.05H9V13.27C8.85601 13.27 8.71347 13.2414 8.58057 13.186C8.44767 13.1306 8.32693 13.0495 8.22559 12.9473C8.12424 12.845 8.04442 12.7235 7.99023 12.5901C7.93605 12.4567 7.90884 12.3139 7.91016 12.1699C7.89914 12.0202 7.91893 11.8699 7.96875 11.7283C8.01857 11.5867 8.09737 11.4568 8.19971 11.3469C8.30204 11.2371 8.42573 11.1496 8.56348 11.0898C8.70122 11.0301 8.84987 10.9996 9 11V7H11.0601C11.08 6.73107 11.1998 6.47924 11.396 6.29419C11.5922 6.10914 11.8505 6.00426 12.1201 6C12.2641 5.99868 12.4066 6.02589 12.54 6.08008C12.6734 6.13426 12.7952 6.21433 12.8975 6.31567C12.9997 6.41702 13.0808 6.53775 13.1362 6.67065C13.1916 6.80356 13.2202 6.9461 13.2202 7.09009C13.2159 7.31817 13.1386 7.53879 13 7.71997V10.22C13.1386 10.4011 13.2159 10.622 13.2202 10.8501C13.2145 11.0749 13.1372 11.2919 13 11.47V13ZM5.87988 12C5.7359 12.0013 5.59336 11.9741 5.45996 11.9199C5.32656 11.8657 5.20482 11.7857 5.10254 11.6843C5.00026 11.583 4.91917 11.4622 4.86377 11.3293C4.80837 11.1964 4.77978 11.0539 4.77979 10.9099C4.77979 10.6182 4.89576 10.3384 5.10205 10.1321C5.30834 9.92579 5.58815 9.81006 5.87988 9.81006C6.02387 9.81005 6.16642 9.8384 6.29932 9.8938C6.43222 9.9492 6.55295 10.0305 6.6543 10.1328C6.75564 10.2351 6.83595 10.3563 6.89014 10.4897C6.94432 10.6231 6.97154 10.7659 6.97022 10.9099C6.97022 11.199 6.85529 11.4762 6.65088 11.6807C6.44646 11.8851 6.16897 12 5.87988 12ZM5.87988 8.25C5.58815 8.25 5.30834 8.13402 5.10205 7.92773C4.89576 7.72144 4.77979 7.44164 4.77979 7.1499C4.77978 7.00592 4.80837 6.86337 4.86377 6.73047C4.91917 6.59757 5.00026 6.47708 5.10254 6.37573C5.20482 6.27438 5.32656 6.19432 5.45996 6.14014C5.59336 6.08595 5.7359 6.05874 5.87988 6.06006C6.16897 6.06006 6.44646 6.17474 6.65088 6.37915C6.85529 6.58357 6.97022 6.86082 6.97022 7.1499C6.96497 7.43551 6.8474 7.70785 6.64356 7.90796C6.43971 8.10807 6.16554 8.22002 5.87988 8.21997V8.25Z" fill="white"/>
<path d="M11 20L8 15H10V9H12V15H14L11 20Z" fill="#8BC24A"/>
</svg>
