<svg width="20" height="20" viewBox="0 0 20 20" fill="none" xmlns="http://www.w3.org/2000/svg">
<path d="M9 0.25C6.68017 0.252647 4.45629 1.1753 2.81592 2.81567C1.17555 4.45604 0.252647 6.68017 0.25 9C0.254442 11.0416 0.971151 13.0177 2.27637 14.5876C3.58158 16.1576 5.39342 17.223 7.3999 17.6001L6.33008 16C4.91098 15.4594 3.68911 14.5007 2.82666 13.2507C1.96421 12.0008 1.50175 10.5186 1.5 9C1.5 7.01088 2.29025 5.1033 3.69678 3.69678C5.1033 2.29025 7.01088 1.5 9 1.5C10.6387 1.5035 12.2311 2.04287 13.5347 3.03589C14.8382 4.02891 15.7816 5.42107 16.2202 7H17L17.6001 7.3999C17.223 5.39342 16.1573 3.58158 14.5874 2.27637C13.0175 0.971151 11.0416 0.254442 9 0.25V0.25Z" fill="white"/>
<path opacity="0.5" d="M10 3.46997V6H8V3.46997C6.704 3.70432 5.5314 4.38651 4.68701 5.39722C3.84262 6.40793 3.37996 7.68298 3.37988 9C3.37951 10.0333 3.66407 11.0466 4.20215 11.9287C4.74023 12.8108 5.51128 13.5275 6.43018 14H9V13.22C8.85601 13.22 8.71347 13.1914 8.58057 13.136C8.44767 13.0806 8.32693 12.9995 8.22559 12.8972C8.12424 12.7949 8.04442 12.6737 7.99023 12.5403C7.93605 12.4069 7.90884 12.2641 7.91016 12.1201C7.90615 11.9745 7.9314 11.8293 7.98438 11.6936C8.03735 11.5579 8.11664 11.4342 8.21826 11.3298C8.31988 11.2254 8.44145 11.1423 8.57568 11.0857C8.70992 11.029 8.8543 10.9999 9 11V7H11.0601C11.08 6.73107 11.1998 6.47924 11.396 6.29419C11.5922 6.10914 11.8505 6.00426 12.1201 6C12.2641 5.99868 12.4066 6.02589 12.54 6.08008C12.6734 6.13426 12.7952 6.21433 12.8975 6.31567C12.9997 6.41702 13.0808 6.53775 13.1362 6.67065C13.1916 6.80356 13.2202 6.9461 13.2202 7.09009C13.2159 7.31817 13.1386 7.53879 13 7.71997V10.22C13.1386 10.4011 13.2159 10.622 13.2202 10.8501C13.2145 11.0749 13.1372 11.2919 13 11.47V11.97L14.6099 9.29004C14.6099 9.18004 14.6099 9.07997 14.6099 8.96997C14.6032 7.65955 14.1392 6.39274 13.2974 5.38843C12.4556 4.38412 11.2891 3.70546 10 3.46997ZM5.87988 11.97C5.7359 11.9713 5.59336 11.9441 5.45996 11.8899C5.32656 11.8357 5.20482 11.7556 5.10254 11.6543C5.00026 11.5529 4.91917 11.4325 4.86377 11.2996C4.80837 11.1667 4.77978 11.0239 4.77979 10.8799C4.77979 10.5881 4.89576 10.3086 5.10205 10.1023C5.30834 9.896 5.58815 9.78003 5.87988 9.78003C6.02387 9.78002 6.16642 9.80861 6.29932 9.86401C6.43222 9.91942 6.55295 10.0005 6.6543 10.1028C6.75564 10.2051 6.83595 10.3263 6.89014 10.4597C6.94432 10.5931 6.97154 10.7359 6.97022 10.8799C6.97423 11.0255 6.94898 11.1707 6.896 11.3064C6.84302 11.4421 6.76324 11.5658 6.66162 11.6702C6.56 11.7746 6.43844 11.8577 6.3042 11.9143C6.16996 11.971 6.02558 12.0001 5.87988 12V11.97ZM5.87988 8.21997C5.58815 8.21997 5.30834 8.104 5.10205 7.89771C4.89576 7.69142 4.77979 7.41186 4.77979 7.12012C4.77978 6.97613 4.80837 6.83334 4.86377 6.70044C4.91917 6.56754 5.00026 6.44705 5.10254 6.3457C5.20482 6.24436 5.32656 6.16429 5.45996 6.11011C5.59336 6.05592 5.7359 6.02871 5.87988 6.03003C6.16897 6.03003 6.44646 6.14495 6.65088 6.34937C6.85529 6.55378 6.97022 6.83103 6.97022 7.12012C6.97154 7.2641 6.94432 7.40688 6.89014 7.54028C6.83595 7.67368 6.75564 7.79494 6.6543 7.89722C6.55295 7.99949 6.43222 8.08058 6.29932 8.13599C6.16642 8.19139 6.02387 8.21998 5.87988 8.21997Z" fill="white"/>
<path d="M11 20L8 15H10V9H12V15H14L11 20Z" fill="#8BC24A"/>
<path d="M17 9L14 14H16V20H18V14H20L17 9Z" fill="#8BC24A"/>
</svg>
