<svg width="20" height="20" viewBox="0 0 20 20" fill="none" xmlns="http://www.w3.org/2000/svg">
<path d="M17 9L14 14H16V20H18V14H20L17 9Z" fill="#8BC24A"/>
<path d="M9 0.25C6.68017 0.252647 4.45629 1.1753 2.81592 2.81567C1.17555 4.45604 0.252647 6.68017 0.25 9C0.252647 11.3198 1.17555 13.544 2.81592 15.1843C4.45629 16.8247 6.68017 17.7474 9 17.75C10.8747 17.75 12.6992 17.1431 14.2002 16.02L14 15.02H13.48C12.1896 15.9941 10.6168 16.5208 9 16.52C7.01088 16.52 5.1033 15.7298 3.69678 14.3232C2.29025 12.9167 1.5 11.0091 1.5 9.02002C1.5 7.0309 2.29025 5.12332 3.69678 3.7168C5.1033 2.31027 7.01088 1.52002 9 1.52002C10.6387 1.52352 12.2311 2.06289 13.5347 3.05591C14.8382 4.04893 15.7816 5.44109 16.2202 7.02002H17.5098C17.0614 5.09787 15.9772 3.38333 14.4326 2.15454C12.888 0.925756 10.9737 0.254727 9 0.25V0.25Z" fill="white"/>
<path opacity="0.5" d="M10 3.46997V6H8.00001V3.46997C6.70401 3.70432 5.53141 4.38651 4.68702 5.39722C3.84263 6.40793 3.37997 7.68298 3.37989 9C3.37857 9.7384 3.52322 10.4699 3.80518 11.1523C4.08715 11.8348 4.50083 12.4547 5.02296 12.9768C5.54509 13.4989 6.16522 13.9129 6.84767 14.1948C7.53011 14.4768 8.26161 14.6214 9.00001 14.6201C9.92417 14.6213 10.8343 14.3945 11.6499 13.96L14.6499 9.21997C14.6547 9.14671 14.6547 9.07326 14.6499 9C14.6486 7.67867 14.1819 6.39999 13.3316 5.38867C12.4812 4.37735 11.3015 3.69803 10 3.46997ZM5.87989 11.97C5.73591 11.9713 5.59337 11.9441 5.45997 11.8899C5.32657 11.8357 5.20483 11.7556 5.10255 11.6543C5.00027 11.5529 4.91918 11.4325 4.86378 11.2996C4.80838 11.1667 4.77979 11.0239 4.77979 10.8799C4.77979 10.5881 4.89577 10.3086 5.10206 10.1023C5.30835 9.896 5.58815 9.78003 5.87989 9.78003C6.02388 9.78002 6.16642 9.80861 6.29933 9.86401C6.43223 9.91942 6.55296 10.0005 6.65431 10.1028C6.75565 10.2051 6.83596 10.3263 6.89015 10.4597C6.94433 10.5931 6.97154 10.7359 6.97022 10.8799C6.97423 11.0255 6.94898 11.1707 6.896 11.3064C6.84303 11.4421 6.76325 11.5658 6.66163 11.6702C6.56001 11.7746 6.43845 11.8577 6.30421 11.9143C6.16997 11.971 6.02559 12.0001 5.87989 12V11.97ZM5.87989 8.21997C5.58815 8.21997 5.30835 8.104 5.10206 7.89771C4.89577 7.69142 4.77979 7.41186 4.77979 7.12012C4.77979 6.97613 4.80838 6.83334 4.86378 6.70044C4.91918 6.56754 5.00027 6.44705 5.10255 6.3457C5.20483 6.24436 5.32657 6.16429 5.45997 6.11011C5.59337 6.05592 5.73591 6.02871 5.87989 6.03003C6.16898 6.03003 6.44647 6.14495 6.65089 6.34937C6.8553 6.55378 6.97022 6.83103 6.97022 7.12012C6.97154 7.2641 6.94433 7.40688 6.89015 7.54028C6.83596 7.67368 6.75565 7.79494 6.65431 7.89722C6.55296 7.99949 6.43223 8.08058 6.29933 8.13599C6.16642 8.19139 6.02388 8.21998 5.87989 8.21997V8.21997ZM9.00001 13.22C8.85602 13.22 8.71348 13.1914 8.58058 13.136C8.44767 13.0806 8.32694 12.9995 8.22559 12.8972C8.12425 12.7949 8.04443 12.6737 7.99024 12.5403C7.93606 12.4069 7.90884 12.2641 7.91017 12.1201C7.90616 11.9745 7.9314 11.8293 7.98438 11.6936C8.03736 11.5579 8.11665 11.4342 8.21827 11.3298C8.31989 11.2254 8.44145 11.1423 8.57569 11.0857C8.70993 11.029 8.85431 10.9999 9.00001 11C9.2891 11 9.5661 11.1149 9.77052 11.3193C9.97493 11.5238 10.0899 11.801 10.0899 12.0901C10.0952 12.2366 10.0709 12.3826 10.0186 12.5195C9.9662 12.6564 9.88692 12.7812 9.78517 12.8867C9.68341 12.9922 9.56169 13.076 9.42677 13.1333C9.29185 13.1906 9.14658 13.2201 9.00001 13.22V13.22ZM12.1201 11.97C11.831 11.97 11.5535 11.855 11.3491 11.6506C11.1447 11.4462 11.0298 11.169 11.0298 10.8799C11.0285 10.7359 11.0557 10.5931 11.1099 10.4597C11.1641 10.3263 11.2444 10.2051 11.3457 10.1028C11.4471 10.0005 11.5678 9.91942 11.7007 9.86401C11.8336 9.80861 11.9761 9.78002 12.1201 9.78003C12.4119 9.78003 12.6917 9.896 12.898 10.1023C13.1042 10.3086 13.2202 10.5881 13.2202 10.8799C13.2243 11.0264 13.1986 11.1722 13.145 11.3086C13.0914 11.445 13.0109 11.5693 12.9082 11.6738C12.8055 11.7784 12.6828 11.8612 12.5474 11.9172C12.412 11.9733 12.2667 12.0014 12.1201 12V11.97ZM12.1201 8.21997C11.9761 8.21998 11.8336 8.19139 11.7007 8.13599C11.5678 8.08058 11.4471 7.99949 11.3457 7.89722C11.2444 7.79494 11.1641 7.67368 11.1099 7.54028C11.0557 7.40688 11.0285 7.2641 11.0298 7.12012C11.0298 6.83103 11.1447 6.55378 11.3491 6.34937C11.5535 6.14495 11.831 6.03003 12.1201 6.03003C12.2641 6.02871 12.4066 6.05592 12.54 6.11011C12.6734 6.16429 12.7952 6.24436 12.8975 6.3457C12.9997 6.44705 13.0808 6.56754 13.1362 6.70044C13.1916 6.83334 13.2202 6.97613 13.2202 7.12012C13.2202 7.41186 13.1042 7.69142 12.898 7.89771C12.6917 8.104 12.4119 8.21997 12.1201 8.21997Z" fill="white"/>
</svg>
