<svg width="20" height="20" viewBox="0 0 20 20" fill="none" xmlns="http://www.w3.org/2000/svg">
<path d="M9 0.25C6.68017 0.252647 4.45629 1.1753 2.81592 2.81567C1.17555 4.45604 0.252647 6.68017 0.25 9C0.252647 11.3198 1.17555 13.544 2.81592 15.1843C4.45629 16.8247 6.68017 17.7474 9 17.75H9.3999C9.2674 17.3459 9.17032 16.931 9.10986 16.51H9C7.01088 16.51 5.1033 15.7198 3.69678 14.3132C2.29025 12.9067 1.5 10.9991 1.5 9.01001C1.5 7.02089 2.29025 5.11331 3.69678 3.70679C5.1033 2.30026 7.01088 1.51001 9 1.51001C10.9891 1.51001 12.8967 2.30026 14.3032 3.70679C15.7097 5.11331 16.5 7.02089 16.5 9.01001C16.5049 9.04651 16.5049 9.08362 16.5 9.12012C16.921 9.18058 17.3361 9.27741 17.7402 9.40991C17.7402 9.26991 17.7402 9.14001 17.7402 9.01001C17.7402 6.69017 16.8196 4.465 15.1812 2.82275C13.5427 1.18051 11.3198 0.255296 9 0.25V0.25Z" fill="white"/>
<path opacity="0.5" d="M10 3.46997V6H8.00001V3.46997C6.70401 3.70432 5.53141 4.38651 4.68702 5.39722C3.84263 6.40793 3.37997 7.68298 3.37989 9C3.37857 9.7384 3.52322 10.4699 3.80518 11.1523C4.08715 11.8348 4.50083 12.4547 5.02296 12.9768C5.54509 13.4989 6.16522 13.9129 6.84767 14.1948C7.53011 14.4768 8.26161 14.6214 9.00001 14.6201V14.6201C9.02298 14.1291 9.10377 13.6422 9.24024 13.1699C9.15389 13.1803 9.06635 13.1803 8.97999 13.1699C8.836 13.1699 8.69346 13.1416 8.56056 13.0862C8.42766 13.0308 8.30692 12.9494 8.20558 12.8472C8.10423 12.7449 8.02441 12.6236 7.97022 12.4902C7.91604 12.3568 7.88882 12.214 7.89015 12.0701C7.89275 11.9269 7.92328 11.7855 7.98048 11.6543C8.03767 11.523 8.12008 11.4045 8.22315 11.3052C8.32623 11.2058 8.44829 11.1275 8.58155 11.0752C8.71481 11.0229 8.85686 10.9973 9.00001 11C9.2064 10.995 9.40989 11.0488 9.58692 11.155C9.76396 11.2612 9.90726 11.4156 10 11.6001C10.3563 11.0642 10.799 10.591 11.3101 10.2C11.4502 10.0044 11.6562 9.86606 11.8901 9.81006C12.7314 9.3118 13.6832 9.02998 14.6602 8.98999V8.98999C14.6561 7.66893 14.1867 6.39153 13.3345 5.38208C12.4823 4.37263 11.3017 3.69563 10 3.46997V3.46997ZM5.87989 11.97C5.73591 11.9713 5.59337 11.9441 5.45997 11.8899C5.32657 11.8357 5.20483 11.7556 5.10255 11.6543C5.00027 11.5529 4.91918 11.4325 4.86378 11.2996C4.80838 11.1667 4.77979 11.0239 4.77979 10.8799C4.77979 10.5881 4.89577 10.3086 5.10206 10.1023C5.30835 9.896 5.58815 9.78003 5.87989 9.78003C6.02388 9.78002 6.16642 9.80861 6.29933 9.86401C6.43223 9.91942 6.55296 10.0005 6.65431 10.1028C6.75565 10.2051 6.83596 10.3263 6.89015 10.4597C6.94433 10.5931 6.97154 10.7359 6.97022 10.8799C6.97423 11.0255 6.94898 11.1707 6.896 11.3064C6.84303 11.4421 6.76325 11.5658 6.66163 11.6702C6.56001 11.7746 6.43845 11.8577 6.30421 11.9143C6.16997 11.971 6.02559 12.0001 5.87989 12V11.97ZM5.87989 8.21997C5.58815 8.21997 5.30835 8.104 5.10206 7.89771C4.89577 7.69142 4.77979 7.41186 4.77979 7.12012C4.77979 6.97613 4.80838 6.83334 4.86378 6.70044C4.91918 6.56754 5.00027 6.44705 5.10255 6.3457C5.20483 6.24436 5.32657 6.16429 5.45997 6.11011C5.59337 6.05592 5.73591 6.02871 5.87989 6.03003C6.16898 6.03003 6.44647 6.14495 6.65089 6.34937C6.8553 6.55378 6.97022 6.83103 6.97022 7.12012C6.97154 7.2641 6.94433 7.40688 6.89015 7.54028C6.83596 7.67368 6.75565 7.79494 6.65431 7.89722C6.55296 7.99949 6.43223 8.08058 6.29933 8.13599C6.16642 8.19139 6.02388 8.21998 5.87989 8.21997ZM12.1201 8.21997C11.9761 8.21998 11.8336 8.19139 11.7007 8.13599C11.5678 8.08058 11.4471 7.99949 11.3457 7.89722C11.2444 7.79494 11.1641 7.67368 11.1099 7.54028C11.0557 7.40688 11.0285 7.2641 11.0298 7.12012C11.0298 6.83103 11.1447 6.55378 11.3491 6.34937C11.5535 6.14495 11.831 6.03003 12.1201 6.03003C12.2641 6.02871 12.4066 6.05592 12.54 6.11011C12.6734 6.16429 12.7952 6.24436 12.8975 6.3457C12.9997 6.44705 13.0808 6.56754 13.1362 6.70044C13.1916 6.83334 13.2202 6.97613 13.2202 7.12012C13.2202 7.41186 13.1042 7.69142 12.898 7.89771C12.6917 8.104 12.4119 8.21997 12.1201 8.21997Z" fill="white"/>
<path fill-rule="evenodd" clip-rule="evenodd" d="M15 10.5C14.4087 10.4987 13.8229 10.6142 13.2764 10.8399C12.7298 11.0655 12.2331 11.3971 11.815 11.8152C11.3968 12.2333 11.0655 12.7298 10.8399 13.2764C10.6142 13.8229 10.4987 14.4087 10.5 15C10.4987 15.5913 10.6142 16.1771 10.8399 16.7236C11.0655 17.2702 11.3968 17.7667 11.815 18.1848C12.2331 18.603 12.7298 18.9345 13.2764 19.1602C13.8229 19.3858 14.4087 19.5013 15 19.5C15.5913 19.5013 16.1771 19.3858 16.7236 19.1602C17.2702 18.9345 17.7669 18.603 18.1851 18.1848C18.6032 17.7667 18.9345 17.2702 19.1602 16.7236C19.3858 16.1771 19.5013 15.5913 19.5 15C19.5013 14.4087 19.3858 13.8229 19.1602 13.2764C18.9345 12.7298 18.6032 12.2333 18.1851 11.8152C17.7669 11.3971 17.2702 11.0655 16.7236 10.8399C16.1771 10.6142 15.5913 10.4987 15 10.5ZM17.6499 16.5901C17.7904 16.7307 17.8692 16.9214 17.8692 17.1201C17.8692 17.3189 17.7904 17.5093 17.6499 17.6499C17.5093 17.7904 17.3189 17.8694 17.1201 17.8694C16.9214 17.8694 16.7305 17.7904 16.5899 17.6499L15 16.0601L13.4102 17.6499C13.2695 17.7904 13.0786 17.8694 12.8799 17.8694C12.6811 17.8694 12.4907 17.7904 12.3501 17.6499C12.2097 17.5093 12.1309 17.3189 12.1309 17.1201C12.1309 16.9214 12.2097 16.7307 12.3501 16.5901L13.94 15L12.3501 13.4099C12.2097 13.2693 12.1309 13.0786 12.1309 12.8799C12.1309 12.6811 12.2097 12.4907 12.3501 12.3501C12.4907 12.2097 12.6811 12.1306 12.8799 12.1306C13.0786 12.1306 13.2695 12.2097 13.4102 12.3501L15 13.94L16.5899 12.3501C16.7305 12.2097 16.9214 12.1306 17.1201 12.1306C17.3189 12.1306 17.5093 12.2097 17.6499 12.3501C17.7904 12.4907 17.8692 12.6811 17.8692 12.8799C17.8692 13.0786 17.7904 13.2693 17.6499 13.4099L16.0601 15L17.6499 16.5901Z" fill="white"/>
</svg>
