<svg width="16" height="16" viewBox="0 0 16 16" fill="none" xmlns="http://www.w3.org/2000/svg">
<path d="M13 7L10 11H12V16H14V11H16L13 7Z" fill="white"/>
<path opacity="0.5" d="M8.00001 2.62012V5H6.00001V2.62012C5.00708 2.84643 4.12013 3.40265 3.48439 4.19824C2.84864 4.99383 2.5017 5.98161 2.50001 7C2.49869 7.59132 2.61418 8.17707 2.83985 8.72363C3.06553 9.27019 3.39683 9.76669 3.81495 10.1848C4.23308 10.6029 4.72982 10.9345 5.27638 11.1602C5.82294 11.3858 6.40869 11.5013 7.00001 11.5C7.33667 11.4958 7.67191 11.4554 8.00001 11.3799V11L9.14015 9.29004C8.98726 9.22152 8.85677 9.11065 8.76466 8.9707C8.67254 8.83076 8.62261 8.66752 8.62013 8.5C8.62273 8.26742 8.7164 8.04509 8.88087 7.88062C9.04534 7.71614 9.26743 7.62272 9.50001 7.62012C9.71975 7.62364 9.93005 7.70924 10.0899 7.86011L11.3599 5.95996C11.1669 5.14535 10.75 4.40098 10.1563 3.81079C9.56254 3.2206 8.81576 2.80825 8.00001 2.62012V2.62012ZM4.50001 9.37988C4.26743 9.37728 4.04534 9.28386 3.88087 9.11938C3.7164 8.95491 3.62273 8.73258 3.62013 8.5C3.62273 8.26742 3.7164 8.04509 3.88087 7.88062C4.04534 7.71614 4.26743 7.62272 4.50001 7.62012C4.7326 7.62272 4.95468 7.71614 5.11915 7.88062C5.28362 8.04509 5.3773 8.26742 5.37989 8.5C5.3773 8.73258 5.28362 8.95491 5.11915 9.11938C4.95468 9.28386 4.7326 9.37728 4.50001 9.37988V9.37988ZM4.50001 6.37988C4.26743 6.37728 4.04534 6.28386 3.88087 6.11938C3.7164 5.95491 3.62273 5.73258 3.62013 5.5C3.62273 5.26742 3.7164 5.04509 3.88087 4.88062C4.04534 4.71614 4.26743 4.62272 4.50001 4.62012C4.7326 4.62272 4.95468 4.71614 5.11915 4.88062C5.28362 5.04509 5.3773 5.26742 5.37989 5.5C5.3773 5.73258 5.28362 5.95491 5.11915 6.11938C4.95468 6.28386 4.7326 6.37728 4.50001 6.37988V6.37988ZM7.00001 10.3799C6.76743 10.3773 6.54534 10.2839 6.38087 10.1194C6.2164 9.95491 6.12273 9.73258 6.12013 9.5C6.12273 9.26742 6.2164 9.04509 6.38087 8.88062C6.54534 8.71614 6.76743 8.62272 7.00001 8.62012C7.23259 8.62272 7.45468 8.71614 7.61915 8.88062C7.78362 9.04509 7.87729 9.26742 7.87989 9.5C7.87729 9.73258 7.78362 9.95491 7.61915 10.1194C7.45468 10.2839 7.23259 10.3773 7.00001 10.3799ZM9.50001 6.37988C9.26743 6.37728 9.04534 6.28386 8.88087 6.11938C8.7164 5.95491 8.62273 5.73258 8.62013 5.5C8.62273 5.26742 8.7164 5.04509 8.88087 4.88062C9.04534 4.71614 9.26743 4.62272 9.50001 4.62012C9.73259 4.62272 9.95468 4.71614 10.1192 4.88062C10.2836 5.04509 10.3773 5.26742 10.3799 5.5C10.3773 5.73258 10.2836 5.95491 10.1192 6.11938C9.95468 6.28386 9.73259 6.37728 9.50001 6.37988V6.37988Z" fill="white"/>
<path d="M7 14C8.03928 13.9995 9.06495 13.7637 10 13.3101V12.1899C9.08848 12.7187 8.05378 12.9981 7 13C5.4087 13 3.88254 12.3679 2.75732 11.2427C1.63211 10.1175 1 8.5913 1 7C1 5.4087 1.63211 3.88254 2.75732 2.75732C3.88254 1.63211 5.4087 1 7 1C8.2396 1.00142 9.44824 1.38677 10.46 2.10303C11.4717 2.81929 12.2367 3.8313 12.6499 5H13.71C13.2792 3.55509 12.3936 2.28787 11.1846 1.38696C9.97555 0.486056 8.50777 -0.000386619 7 2.30556e-07C5.14348 2.30557e-07 3.36305 0.737539 2.05029 2.05029C0.737538 3.36305 0 5.14348 0 7C0 8.85652 0.737538 10.637 2.05029 11.9497C3.36305 13.2625 5.14348 14 7 14V14Z" fill="white"/>
</svg>
