<svg width="16" height="16" viewBox="0 0 16 16" fill="none" xmlns="http://www.w3.org/2000/svg">
<path d="M12 1C13.7 1 15 2.3 15 4C15 5.7 13.7 7 12 7C10.3 7 9 5.7 9 4C9 2.3 10.3 1 12 1ZM12 0C9.8 0 8 1.8 8 4C8 6.2 9.8 8 12 8C14.2 8 16 6.2 16 4C16 1.8 14.2 0 12 0Z" fill="white"/>
<path d="M12 5.79993C12.9941 5.79993 13.8 4.99405 13.8 3.99994C13.8 3.00583 12.9941 2.19995 12 2.19995C11.0058 2.19995 10.2 3.00583 10.2 3.99994C10.2 4.99405 11.0058 5.79993 12 5.79993Z" fill="white"/>
<path opacity="0.5" d="M8 16H2C1.4 16 1 15.6 1 15V9C1 8.4 1.4 8 2 8H8C8.6 8 9 8.4 9 9V15C9 15.6 8.6 16 8 16Z" fill="white"/>
<path opacity="0.5" d="M9.90002 11.4001V12.6001L14 15.4001V8.6001L9.90002 11.4001Z" fill="white"/>
</svg>
