<svg width="16" height="16" viewBox="0 0 16 16" fill="none" xmlns="http://www.w3.org/2000/svg">
<path fill-rule="evenodd" clip-rule="evenodd" d="M2 15C1.4 15 1 14.6 1 14V8C1 7.4 1.4 7 2 7H13V6H2C0.9 6 0 6.9 0 8V14C0 15.1 0.9 16 2 16H13V15H2Z" fill="white"/>
<path d="M8.5 6.5L11.5 0.5" stroke="white" stroke-miterlimit="10"/>
<path d="M6.5 6.5L3.5 0.5" stroke="white" stroke-miterlimit="10"/>
<path fill-rule="evenodd" clip-rule="evenodd" d="M14 6H12V16H14C15.1 16 16 15.1 16 14V8C16 6.9 15.1 6 14 6ZM14 14.5C13.2 14.5 12.5 13.8 12.5 13C12.5 12.2 13.2 11.5 14 11.5C14.8 11.5 15.5 12.2 15.5 13C15.5 13.8 14.8 14.5 14 14.5ZM14 10.5C13.2 10.5 12.5 9.8 12.5 9C12.5 8.2 13.2 7.5 14 7.5C14.8 7.5 15.5 8.2 15.5 9C15.5 9.8 14.8 10.5 14 10.5Z" fill="white"/>
<path d="M4 14.2001L10 11.0001L4 7.80005V14.2001Z" fill="white"/>
</svg>
