<svg width="20" height="20" viewBox="0 0 20 20" fill="none" xmlns="http://www.w3.org/2000/svg">
<g clip-path="url(#clip0_11078_29904)">
<path opacity="0.5" d="M11.8 7H3C2.73478 7 2.48051 7.10537 2.29297 7.29291C2.10543 7.48044 2 7.73478 2 8V15C2 15.2652 2.10543 15.5196 2.29297 15.7071C2.48051 15.8946 2.73478 16 3 16H8.34009C8.91378 14.693 9.90092 13.6108 11.1499 12.92C10.8025 12.4892 10.5436 11.994 10.3882 11.4628C10.2327 10.9317 10.184 10.375 10.2444 9.82489C10.3048 9.27475 10.4733 8.74193 10.7402 8.25714C11.0072 7.77235 11.3674 7.34514 11.8 7V7Z" fill="white"/>
<path fill-rule="evenodd" clip-rule="evenodd" d="M17.5001 5H2.50008C1.8246 5.01575 1.18274 5.29793 0.714435 5.78497C0.246126 6.27202 -0.0106611 6.9244 7.97381e-05 7.59998V15.4C-0.0106611 16.0756 0.246126 16.728 0.714435 17.215C1.18274 17.7021 1.8246 17.9842 2.50008 18H8.00008C8.00564 17.6653 8.03244 17.3313 8.08016 17H2.49007C2.28649 16.9935 2.08631 16.947 1.90071 16.8631C1.71512 16.7792 1.54784 16.6595 1.40853 16.5109C1.26922 16.3623 1.16049 16.1877 1.0887 15.9971C1.01691 15.8065 0.983397 15.6036 0.99007 15.4V7.59998C0.983397 7.3964 1.01691 7.19354 1.0887 7.00293C1.16049 6.81232 1.26922 6.63773 1.40853 6.48914C1.54784 6.34054 1.71512 6.22083 1.90071 6.1369C2.08631 6.05298 2.28649 6.00646 2.49007 6H17.4901C17.8879 6 18.2696 6.15803 18.5509 6.43933C18.8322 6.72064 18.9901 7.10218 18.9901 7.5V13L19.9901 14V7.59998C20.0009 6.92608 19.7455 6.27515 19.2794 5.78839C18.8132 5.30163 18.1738 5.01834 17.5001 5V5Z" fill="white"/>
<path opacity="0.5" d="M10.63 5.50012L14.38 0.620117" stroke="white" stroke-width="1.25" stroke-miterlimit="10"/>
<path opacity="0.5" d="M8.12 5.50012L4.38 0.620117" stroke="white" stroke-width="1.25" stroke-miterlimit="10"/>
<path d="M10 20.0001V18.8501C9.96553 18.1844 10.0713 17.5189 10.3103 16.8966C10.5494 16.2744 10.9164 15.7093 11.3877 15.2379C11.8591 14.7666 12.4242 14.3995 13.0464 14.1604C13.6687 13.9213 14.3343 13.8156 15 13.8501C15.6657 13.8156 16.3314 13.9213 16.9536 14.1604C17.5759 14.3995 18.141 14.7666 18.6123 15.2379C19.0837 15.7093 19.4507 16.2744 19.6897 16.8966C19.9288 17.5189 20.0345 18.1844 20 18.8501V20.0001H10ZM15 7.62012C14.6468 7.62012 14.2971 7.6897 13.9707 7.82489C13.6444 7.96008 13.3477 8.15823 13.0979 8.40802C12.8481 8.65781 12.6499 8.95433 12.5147 9.2807C12.3795 9.60707 12.3101 9.95686 12.3101 10.3101C12.3088 10.6637 12.3773 11.0142 12.512 11.3411C12.6467 11.6681 12.8449 11.9652 13.095 12.2152C13.3451 12.4653 13.6421 12.6633 13.969 12.798C14.296 12.9328 14.6464 13.0014 15 13.0001C15.3537 13.0014 15.7041 12.9328 16.031 12.798C16.358 12.6633 16.655 12.4653 16.9051 12.2152C17.1551 11.9652 17.3534 11.6681 17.4881 11.3411C17.6228 11.0142 17.6913 10.6637 17.69 10.3101C17.69 9.59669 17.4066 8.91249 16.9021 8.40802C16.3977 7.90355 15.7135 7.62012 15 7.62012Z" fill="white"/>
</g>
<defs>
<clipPath id="clip0_11078_29904">
<rect width="20" height="20" fill="white"/>
</clipPath>
</defs>
</svg>
