<svg width="16" height="16" viewBox="0 0 16 16" fill="none" xmlns="http://www.w3.org/2000/svg">
<path d="M7.02011 11.1199L6.02011 10.1199C4.02011 8.11988 3.62011 5.9498 5.02011 4.5398C6.42011 3.1298 8.47009 3.39969 10.5001 5.41969L11.6102 6.52955L13.5501 4.58961L12.5501 3.58961C9.55014 0.589609 5.9601 0.07955 3.2601 2.77955C0.560099 5.47955 1.04016 9.03959 4.07016 12.0696L5.07016 13.0696L7.02011 11.1199Z" fill="white"/>
<path d="M14.5735 5.58058L12.4521 7.7019L13.8664 9.11612L15.9877 6.9948L14.5735 5.58058Z" fill="white"/>
<path d="M8.20433 11.949L6.08301 14.0703L7.49722 15.4845L9.61854 13.3632L8.20433 11.949Z" fill="white"/>
</svg>
