<svg width="16" height="16" viewBox="0 0 16 16" fill="none" xmlns="http://www.w3.org/2000/svg">
<path opacity="0.5" d="M1.50013 8.5V3.8999C1.4988 3.84868 1.50763 3.79783 1.52601 3.75C1.54439 3.70217 1.57202 3.65824 1.60731 3.62109C1.6426 3.58395 1.68475 3.5545 1.73158 3.53369C1.7784 3.51288 1.82891 3.5013 1.88014 3.5H7.50013V8.5H1.50013Z" fill="white"/>
<path d="M7.00006 4V8H2.00006V4H7.00006ZM8.00006 3H1.88006C1.76318 3.00131 1.6477 3.02584 1.54022 3.07178C1.43274 3.11771 1.33531 3.184 1.2536 3.26758C1.17188 3.35115 1.10753 3.45011 1.06402 3.55859C1.02051 3.66708 0.998736 3.78302 1.00006 3.8999V9H8.00006V3Z" fill="white"/>
<path opacity="0.5" d="M7.5 10V13" stroke="white" stroke-miterlimit="10"/>
<path opacity="0.5" d="M9 8.5H13" stroke="white" stroke-miterlimit="10"/>
<path opacity="0.5" d="M9 3.5H12.75C12.9481 3.50259 13.1374 3.58256 13.2775 3.72266C13.4176 3.86275 13.4974 4.05189 13.5 4.25V12.75C13.4974 12.9481 13.4176 13.1372 13.2775 13.2773C13.1374 13.4174 12.9481 13.4974 12.75 13.5H2.25C2.05189 13.4974 1.86263 13.4174 1.72253 13.2773C1.58244 13.1372 1.50259 12.9481 1.5 12.75V10" stroke="white" stroke-miterlimit="10"/>
</svg>
