<svg width="16" height="16" viewBox="0 0 16 16" fill="none" xmlns="http://www.w3.org/2000/svg">
<path d="M7.50899 4.25003C7.67389 4.24883 7.83739 4.28042 7.99009 4.34269C8.14278 4.40496 8.28166 4.4969 8.39869 4.61308C8.51571 4.72927 8.6086 4.86755 8.67198 5.01979C8.73536 5.17203 8.76798 5.3351 8.76797 5.5C8.76798 5.6649 8.73536 5.82797 8.67198 5.98021C8.6086 6.13245 8.51571 6.27073 8.39869 6.38692C8.28166 6.5031 8.14278 6.59504 7.99009 6.65731C7.83739 6.71958 7.67389 6.75117 7.50899 6.74997C7.34409 6.75117 7.18058 6.71958 7.02789 6.65731C6.87519 6.59504 6.73632 6.5031 6.61929 6.38692C6.50226 6.27073 6.40938 6.13245 6.346 5.98021C6.28262 5.82797 6.25 5.6649 6.25 5.5C6.25 5.3351 6.28262 5.17203 6.346 5.01979C6.40938 4.86755 6.50226 4.72927 6.61929 4.61308C6.73632 4.4969 6.87519 4.40496 7.02789 4.34269C7.18058 4.28042 7.34409 4.24883 7.50899 4.25003V4.25003Z" fill="white"/>
<path d="M7.5 8.00001C7.24966 7.99899 7.00803 8.09177 6.82288 8.26026C6.63772 8.42875 6.52253 8.66084 6.5 8.91016V12.0899C6.52253 12.3392 6.63772 12.5713 6.82288 12.7398C7.00803 12.9082 7.24966 13.001 7.5 13C7.75034 13.001 7.99197 12.9082 8.17712 12.7398C8.36228 12.5713 8.47747 12.3392 8.5 12.0899V8.91016C8.47747 8.66084 8.36228 8.42875 8.17712 8.26026C7.99197 8.09177 7.75034 7.99899 7.5 8.00001Z" fill="white"/>
<path fill-rule="evenodd" clip-rule="evenodd" d="M7.5 2.25C9.1576 2.25 10.7473 2.90846 11.9194 4.08057C13.0915 5.25267 13.75 6.8424 13.75 8.5C13.75 10.1576 13.0915 11.7473 11.9194 12.9194C10.7473 14.0915 9.1576 14.75 7.5 14.75C5.8424 14.75 4.25267 14.0915 3.08057 12.9194C1.90846 11.7473 1.25 10.1576 1.25 8.5C1.25 6.8424 1.90846 5.25267 3.08057 4.08057C4.25267 2.90846 5.8424 2.25 7.5 2.25V2.25Z" stroke="white" stroke-miterlimit="10"/>
</svg>
