<svg width="64" height="64" viewBox="0 0 64 64" fill="none" xmlns="http://www.w3.org/2000/svg">
<path fill-rule="evenodd" clip-rule="evenodd" d="M19.5 13C19.5 11.7144 19.8812 10.4577 20.5955 9.3888C21.3097 8.31988 22.3249 7.48676 23.5126 6.99479C24.7003 6.50282 26.0072 6.37409 27.2681 6.6249C28.5289 6.8757 29.6872 7.49477 30.5962 8.40381C31.5052 9.31286 32.1243 10.471 32.3751 11.7319C32.6259 12.9928 32.4972 14.2997 32.0052 15.4874C31.5133 16.6752 30.6801 17.6903 29.6112 18.4046C28.5423 19.1188 27.2856 19.5 26 19.5C24.2761 19.5 22.6228 18.8152 21.4038 17.5962C20.1848 16.3772 19.5 14.7239 19.5 13V13ZM46.5 21H16C14.6739 21 13.4022 21.5268 12.4645 22.4645C11.5268 23.4021 11 24.6739 11 26V37.5C11 38.163 11.2633 38.7989 11.7322 39.2678C12.201 39.7366 12.837 40 13.5 40C14.163 40 14.799 39.7366 15.2678 39.2678C15.7367 38.7989 16 38.163 16 37.5V27H19V55.5C19 56.163 19.2633 56.7989 19.7322 57.2678C20.201 57.7366 20.837 58 21.5 58C22.163 58 22.799 57.7366 23.2678 57.2678C23.7367 56.7989 24 56.163 24 55.5V41H28V55.5C28 56.163 28.2633 56.7989 28.7322 57.2678C29.201 57.7366 29.837 58 30.5 58C31.163 58 31.799 57.7366 32.2678 57.2678C32.7367 56.7989 33 56.163 33 55.5V26H46.5C47.163 26 47.799 25.7366 48.2678 25.2678C48.7367 24.7989 49 24.163 49 23.5C49 22.837 48.7367 22.2011 48.2678 21.7322C47.799 21.2634 47.163 21 46.5 21V21Z" fill="url(#paint0_linear_11342_30262)"/>
<path opacity="0.5" d="M46.87 14.37C45.2731 14.3709 43.7046 14.7929 42.3229 15.5935C40.9411 16.3941 39.7949 17.545 39 18.93H46.87C48.082 18.93 49.2444 19.4115 50.1014 20.2685C50.9585 21.1256 51.4399 22.288 51.4399 23.5C51.4399 24.7121 50.9585 25.8744 50.1014 26.7315C49.2444 27.5885 48.082 28.07 46.87 28.07H39C39.8038 29.4542 40.9578 30.6024 42.3459 31.3993C43.7341 32.1962 45.3075 32.6137 46.9081 32.61C48.5087 32.6062 50.0801 32.1812 51.4645 31.3778C52.8488 30.5743 53.9974 29.4207 54.7947 28.0328C55.592 26.6449 56.0099 25.0716 56.0066 23.471C56.0033 21.8704 55.5787 20.2988 54.7756 18.9142C53.9726 17.5297 52.8192 16.3808 51.4315 15.5832C50.0438 14.7855 48.4706 14.3671 46.87 14.37Z" fill="white"/>
<path fill-rule="evenodd" clip-rule="evenodd" d="M36 51H45V57L57 48L45 39V45H36V51Z" fill="url(#paint1_linear_11342_30262)"/>
<defs>
<linearGradient id="paint0_linear_11342_30262" x1="30" y1="58" x2="30" y2="6.5" gradientUnits="userSpaceOnUse">
<stop stop-color="#CCCCCC"/>
<stop offset="1" stop-color="#F2F2F2"/>
</linearGradient>
<linearGradient id="paint1_linear_11342_30262" x1="36" y1="48" x2="57" y2="48" gradientUnits="userSpaceOnUse">
<stop stop-color="#4F4F4F"/>
<stop offset="1" stop-color="#F2F2F2"/>
</linearGradient>
</defs>
</svg>
