<svg width="16" height="16" viewBox="0 0 16 16" fill="none" xmlns="http://www.w3.org/2000/svg">
<g clip-path="url(#clip0_11342_30265)">
<path d="M5.5 4.75C6.74264 4.75 7.75 3.74264 7.75 2.5C7.75 1.25736 6.74264 0.25 5.5 0.25C4.25736 0.25 3.25 1.25736 3.25 2.5C3.25 3.74264 4.25736 4.75 5.5 4.75Z" fill="white"/>
<path fill-rule="evenodd" clip-rule="evenodd" d="M11.54 5H1.54004C1.14221 5 0.760736 5.15803 0.479431 5.43934C0.198127 5.72064 0.0400391 6.10218 0.0400391 6.5V9.72C0.0400391 9.98522 0.14541 10.2396 0.332947 10.4271C0.520483 10.6146 0.774823 10.72 1.04004 10.72C1.30526 10.72 1.55966 10.6146 1.74719 10.4271C1.93473 10.2396 2.04004 9.98522 2.04004 9.72V7H3.04004V15C3.04004 15.2652 3.14541 15.5196 3.33295 15.7071C3.52048 15.8946 3.77482 16 4.04004 16C4.30526 16 4.55966 15.8946 4.74719 15.7071C4.93473 15.5196 5.04004 15.2652 5.04004 15V11H6.04004V15C6.04004 15.2652 6.14541 15.5196 6.33295 15.7071C6.52048 15.8946 6.77482 16 7.04004 16C7.30526 16 7.55966 15.8946 7.74719 15.7071C7.93473 15.5196 8.04004 15.2652 8.04004 15V7H11.5801C11.8453 7 12.0996 6.89464 12.2872 6.70711C12.4747 6.51957 12.5801 6.26522 12.5801 6C12.5801 5.73478 12.4747 5.48043 12.2872 5.29289C12.0996 5.10536 11.8453 5 11.5801 5H11.54Z" fill="white"/>
<path opacity="0.5" d="M12.0001 2.00002C11.3003 2.00249 10.6134 2.18849 10.0081 2.53944C9.40267 2.89039 8.89992 3.39401 8.55005 4.00002H12.0001C12.5305 4.00002 13.0392 4.21074 13.4142 4.58581C13.7893 4.96088 14.0001 5.46959 14.0001 6.00002C14.0001 6.53046 13.7893 7.03917 13.4142 7.41424C13.0392 7.78931 12.5305 8.00002 12.0001 8.00002H8.55005C8.90142 8.60862 9.40694 9.11389 10.0157 9.46499C10.6244 9.81609 11.315 10.0006 12.0177 10C12.7204 9.99938 13.4106 9.81363 14.0187 9.46145C14.6269 9.10927 15.1315 8.6031 15.4818 7.99388C15.832 7.38467 16.0157 6.69392 16.0142 5.99118C16.0126 5.28844 15.8259 4.59852 15.473 3.99085C15.12 3.38319 14.6132 2.87924 14.0035 2.52975C13.3938 2.18026 12.7028 1.99755 12.0001 2.00002Z" fill="white"/>
</g>
<defs>
<clipPath id="clip0_11342_30265">
<rect width="16" height="16" fill="white"/>
</clipPath>
</defs>
</svg>
