<svg width="20" height="20" viewBox="0 0 20 20" fill="none" xmlns="http://www.w3.org/2000/svg">
<path fill-rule="evenodd" clip-rule="evenodd" d="M8.50021 1.25002C7.26567 1.24723 6.04628 1.52156 4.93185 2.05276C3.81743 2.58395 2.83651 3.35846 2.06125 4.31923C1.28599 5.28001 0.736077 6.40252 0.45236 7.60402C0.168643 8.80553 0.158008 10.0554 0.421598 11.2615C0.685189 12.4676 1.21622 13.5991 1.97531 14.5727C2.7344 15.5463 3.70244 16.3371 4.80783 16.8869C5.91322 17.4366 7.1281 17.7313 8.36252 17.7492C9.59693 17.767 10.8193 17.5076 11.9402 16.99L12.4704 15.56C11.2276 16.3711 9.76532 16.7812 8.28195 16.735C6.79858 16.6888 5.36544 16.1884 4.1755 15.3015C2.98557 14.4147 2.09633 13.184 1.62814 11.7757C1.15996 10.3674 1.13524 8.84927 1.55734 7.42647C1.97944 6.00368 2.82805 4.74475 3.98849 3.8196C5.14893 2.89446 6.56552 2.34768 8.0466 2.25319C9.52767 2.15871 11.0021 2.52103 12.2707 3.29122C13.5393 4.06141 14.5409 5.20239 15.1403 6.56002L15.8903 5.80001C15.2029 4.42993 14.1473 3.27849 12.842 2.47481C11.5367 1.67113 10.0331 1.24701 8.50021 1.25002V1.25002Z" fill="white"/>
<path opacity="0.5" fill-rule="evenodd" clip-rule="evenodd" d="M8.5001 5.37999C7.41006 5.34551 6.35092 5.74547 5.55577 6.49186C4.76061 7.23826 4.29435 8.26993 4.25987 9.35997C4.22539 10.45 4.62578 11.5091 5.37217 12.3042C6.11857 13.0994 7.1503 13.5655 8.24034 13.6L12.5899 9.17998C12.5142 8.14712 12.0503 7.18121 11.2916 6.4763C10.5329 5.77139 9.53573 5.37974 8.5001 5.37999V5.37999Z" fill="white"/>
<path d="M18.1201 6L14.6201 12H19.6201L13.1201 20L15.6201 14H10.6201L18.1201 6Z" fill="white"/>
</svg>
