<svg width="20" height="20" viewBox="0 0 20 20" fill="none" xmlns="http://www.w3.org/2000/svg">
<path d="M9.73001 11.9201L18.97 6.92009C19.0523 6.87976 19.1217 6.81713 19.1702 6.73935C19.2187 6.66157 19.2444 6.57175 19.2444 6.48009C19.2444 6.38843 19.2187 6.29861 19.1702 6.22083C19.1217 6.14305 19.0523 6.08043 18.97 6.04009L9.73001 1.04009C9.65503 0.994093 9.56885 0.969586 9.48089 0.969242C9.39293 0.968898 9.30656 0.992743 9.23123 1.03815C9.15589 1.08356 9.09448 1.14879 9.05371 1.22673C9.01293 1.30467 8.99436 1.39231 9.00001 1.48009V11.4801C8.99043 11.5691 9.00649 11.6591 9.04629 11.7393C9.0861 11.8195 9.148 11.8867 9.2247 11.9329C9.30139 11.9791 9.38969 12.0025 9.47921 12.0002C9.56874 11.9979 9.65575 11.9701 9.73001 11.9201V11.9201Z" fill="white"/>
<path d="M7 13H1V19H7V13Z" fill="white"/>
<path opacity="0.5" d="M13 13H7V19H13V13Z" fill="white"/>
<path opacity="0.5" d="M7 7H1V13H7V7Z" fill="white"/>
</svg>
