<svg width="16" height="16" viewBox="0 0 16 16" fill="none" xmlns="http://www.w3.org/2000/svg">
<path d="M8.57202 8.93451L15.7858 4.85514C15.8501 4.82223 15.9042 4.77114 15.9421 4.70768C15.9799 4.64422 16 4.57094 16 4.49616C16 4.42137 15.9799 4.34809 15.9421 4.28463C15.9042 4.22117 15.8501 4.17008 15.7858 4.13717L8.57202 0.0578048C8.51349 0.0202782 8.44621 0.000283568 8.37753 2.99254e-06C8.30886 -0.000277583 8.24143 0.0191767 8.18262 0.0562237C8.1238 0.0932708 8.07586 0.146495 8.04403 0.210084C8.01219 0.273673 7.99769 0.345173 8.00211 0.416791V8.57552C7.99463 8.64816 8.00716 8.72153 8.03824 8.78698C8.06931 8.85243 8.11764 8.90723 8.17752 8.94495C8.2374 8.98267 8.30633 9.00173 8.37622 8.99988C8.44612 8.99803 8.51405 8.97534 8.57202 8.93451V8.93451Z" fill="white"/>
<path d="M6 10H1V15H6V10Z" fill="white"/>
<path opacity="0.5" d="M11 10H6V15H11V10Z" fill="white"/>
<path opacity="0.5" d="M6 5H1V10H6V5Z" fill="white"/>
</svg>
