<svg width="16" height="16" viewBox="0 0 16 16" fill="none" xmlns="http://www.w3.org/2000/svg">
<path d="M12 0.5C13.3807 0.5 14.5 1.61929 14.5 3C14.5 4.38071 13.3807 5.5 12 5.5C10.6193 5.5 9.5 4.38071 9.5 3C9.5 1.61929 10.6193 0.5 12 0.5Z" fill="white"/>
<path d="M4 10.5C5.38071 10.5 6.5 11.6193 6.5 13C6.5 14.3807 5.38071 15.5 4 15.5C2.61929 15.5 1.5 14.3807 1.5 13C1.5 11.6193 2.61929 10.5 4 10.5Z" fill="white"/>
<path d="M4 0.5C5.38071 0.5 6.5 1.61929 6.5 3C6.5 4.38071 5.38071 5.5 4 5.5C2.61929 5.5 1.5 4.38071 1.5 3C1.5 1.61929 2.61929 0.5 4 0.5Z" fill="white"/>
<path d="M3.5 8.5L8.5 8.5C9.29565 8.5 10.0587 8.18393 10.6213 7.62132C11.1839 7.05871 11.5 6.29565 11.5 5.5L11.5 5" stroke="white" stroke-width="0.75" stroke-miterlimit="10"/>
<path d="M3.5 4.5598L3.5 10.5498" stroke="white" stroke-width="0.75" stroke-miterlimit="10"/>
</svg>
