<svg width="16" height="16" viewBox="0 0 16 16" fill="none" xmlns="http://www.w3.org/2000/svg">
<g opacity="0.5">
<path d="M9 3L13 0V7L9 4V3Z" fill="white"/>
<path d="M8 0H1C0.734784 0 0.480505 0.10531 0.292969 0.292847C0.105432 0.480383 0 0.734784 0 1V6C0 6.26522 0.105432 6.51962 0.292969 6.70715C0.480505 6.89469 0.734784 7 1 7H8C8.26522 7 8.51949 6.89469 8.70703 6.70715C8.89457 6.51962 9 6.26522 9 6V1C9 0.734784 8.89457 0.480383 8.70703 0.292847C8.51949 0.10531 8.26522 0 8 0ZM3 6.5V0.5L7.80005 3.5L3 6.5Z" fill="white"/>
</g>
<path d="M12 12L16 9V16L12 13V12Z" fill="white"/>
<path d="M11 9H4C3.73478 9 3.48051 9.10531 3.29297 9.29285C3.10543 9.48038 3 9.73478 3 10V15C3 15.2652 3.10543 15.5196 3.29297 15.7072C3.48051 15.8947 3.73478 16 4 16H11C11.2652 16 11.5195 15.8947 11.707 15.7072C11.8946 15.5196 12 15.2652 12 15V10C12 9.73478 11.8946 9.48038 11.707 9.29285C11.5195 9.10531 11.2652 9 11 9ZM6 15.5V9.5L10.8 12.5L6 15.5Z" fill="white"/>
</svg>
