<svg width="16" height="16" viewBox="0 0 16 16" fill="none" xmlns="http://www.w3.org/2000/svg">
<path opacity="0.5" fill-rule="evenodd" clip-rule="evenodd" d="M15 15L13 11L16 15V16H0V15L3 11L1 15H15Z" fill="white"/>
<path d="M9 13L6.5 7L3 14H13L10.5 9L9 13Z" fill="white"/>
<path d="M10 0.109985C7 0.109985 4 3.5 4 3.5C4 3.5 7 6.89001 10 6.89001C13 6.89001 16 3.5 16 3.5C16 3.5 13 0.109985 10 0.109985ZM10 6.37C9.23883 6.37 8.50893 6.06765 7.9707 5.52942C7.43247 4.99119 7.12988 4.26117 7.12988 3.5C7.13252 2.73964 7.43597 2.01117 7.97363 1.47351C8.51129 0.935852 9.23964 0.63264 10 0.630005C10.7612 0.630005 11.4911 0.932352 12.0293 1.47058C12.5675 2.00881 12.8701 2.73883 12.8701 3.5C12.8714 3.87726 12.7981 4.25105 12.6543 4.59985C12.5105 4.94865 12.299 5.26558 12.0322 5.53235C11.7655 5.79912 11.4487 6.01041 11.0999 6.15417C10.7511 6.29794 10.3773 6.37132 10 6.37V6.37Z" fill="white"/>
<path fill-rule="evenodd" clip-rule="evenodd" d="M8.70996 1.80011C8.82111 1.79879 8.93135 1.81952 9.03442 1.86114C9.13749 1.90276 9.23148 1.96441 9.31055 2.04254C9.38961 2.12067 9.45228 2.21365 9.49512 2.31622C9.53796 2.41879 9.56007 2.52892 9.56006 2.64007C9.56006 2.86551 9.47044 3.08174 9.31104 3.24115C9.15163 3.40055 8.93539 3.49005 8.70996 3.49005C8.48626 3.48742 8.27273 3.39673 8.11548 3.23761C7.95823 3.07849 7.8701 2.86379 7.87012 2.64007C7.87012 2.41729 7.95844 2.20361 8.11597 2.04608C8.2735 1.88855 8.48718 1.80011 8.70996 1.80011V1.80011Z" fill="white"/>
</svg>
