<svg width="16" height="16" viewBox="0 0 16 16" fill="none" xmlns="http://www.w3.org/2000/svg">
<path opacity="0.5" d="M5.49991 3.06003L6.99991 3.11997V13.12C6.93815 13.1714 6.86358 13.205 6.78409 13.217C6.70461 13.229 6.62319 13.219 6.54899 13.1881C6.47478 13.1572 6.4104 13.1065 6.36295 13.0416C6.31551 12.9767 6.28689 12.9 6.27994 12.8199L4.89982 3.56003C4.88256 3.48132 4.88737 3.39932 4.91349 3.32309C4.93961 3.24687 4.98611 3.17924 5.04801 3.12766C5.10991 3.07607 5.18488 3.04256 5.26456 3.03061C5.34425 3.01867 5.42561 3.02886 5.49991 3.06003V3.06003Z" fill="white"/>
<path opacity="0.5" d="M2.48973 4.88L3.78978 4.67004L5.47972 13.23C5.43831 13.2875 5.38131 13.3319 5.31542 13.3579C5.24953 13.3839 5.17764 13.3904 5.10814 13.3767C5.03864 13.363 4.97443 13.3297 4.92333 13.2806C4.87222 13.2316 4.83633 13.1689 4.81981 13.1L2.03978 5.38C2.01922 5.3152 2.0159 5.24614 2.03026 5.17969C2.04462 5.11324 2.07609 5.05175 2.12157 5.00122C2.16705 4.95069 2.22496 4.91286 2.28954 4.8916C2.35411 4.87035 2.42313 4.86636 2.48973 4.88V4.88Z" fill="white"/>
<path opacity="0.5" d="M0.290147 8L1.23009 7.56006L4.23009 13.6801C4.2073 13.7313 4.17019 13.7749 4.12316 13.8054C4.07612 13.836 4.02129 13.8522 3.9652 13.8522C3.9091 13.8522 3.85403 13.836 3.80699 13.8054C3.75996 13.7749 3.72284 13.7313 3.70006 13.6801L0.0701765 8.42004C0.0511582 8.37843 0.0418448 8.33297 0.0430769 8.28723C0.044309 8.24149 0.0560254 8.19666 0.0772566 8.15613C0.0984878 8.1156 0.128736 8.0804 0.165635 8.05334C0.202535 8.02629 0.245107 8.00806 0.290147 8V8Z" fill="white"/>
<path d="M8.57029 2.92008L15.7903 7.60001C15.8545 7.64848 15.9065 7.71123 15.9424 7.78324C15.9782 7.85525 15.9968 7.9346 15.9968 8.01505C15.9968 8.0955 15.9782 8.17485 15.9424 8.24686C15.9065 8.31887 15.8545 8.38162 15.7903 8.43009L8.57029 13.11C8.29029 13.32 8.00022 13.04 8.00022 12.7V3.27005C7.99262 3.20039 8.00503 3.12997 8.03587 3.06705C8.06671 3.00413 8.11482 2.95125 8.17454 2.91459C8.23425 2.87792 8.30296 2.85894 8.37303 2.8599C8.44309 2.86086 8.5116 2.88179 8.57029 2.92008V2.92008Z" fill="white"/>
</svg>
