<svg width="16" height="16" viewBox="0 0 16 16" fill="none" xmlns="http://www.w3.org/2000/svg">
<g clip-path="url(#clip0_9712_27441)">
<path d="M14.5 0L11 7H16L8.5 16L11 9H6L14.5 0Z" fill="white"/>
<path opacity="0.5" d="M0.860175 14.35L8.93 10H3.00007L7.68 5.32002L0.860175 1.65004C0.772815 1.59428 0.671562 1.56385 0.567939 1.56215C0.464315 1.56045 0.362158 1.58753 0.273017 1.6404C0.183875 1.69326 0.111267 1.76978 0.0630558 1.86153C0.0148449 1.95327 -0.0069569 2.05659 6.74812e-05 2.15999V13.92C0.0043392 14.018 0.0348371 14.113 0.0882022 14.1953C0.141567 14.2776 0.215815 14.3442 0.303534 14.388C0.391254 14.4319 0.489136 14.4515 0.586982 14.4448C0.684827 14.4381 0.779228 14.4054 0.860175 14.35Z" fill="white"/>
</g>
<defs>
<clipPath id="clip0_9712_27441">
<rect width="16" height="16" fill="white"/>
</clipPath>
</defs>
</svg>
