<svg width="16" height="16" viewBox="0 0 16 16" fill="none" xmlns="http://www.w3.org/2000/svg">
<path opacity="0.5" fill-rule="evenodd" clip-rule="evenodd" d="M13.15 0H6.84991C6.44043 0.00059076 6.03602 0.0903393 5.66473 0.263031C5.29345 0.435723 4.96423 0.687214 4.69995 1H12.9999C13.5304 1 14.0391 1.21071 14.4141 1.58578C14.7892 1.96086 14.9999 2.46957 14.9999 3V10H15.8499C15.9459 9.72672 15.9965 9.4396 15.9999 9.14999V2.85001C15.9973 2.09495 15.6962 1.37155 15.1623 0.837646C14.6284 0.303738 13.905 0.00263547 13.15 0Z" fill="white"/>
<path opacity="0.5" fill-rule="evenodd" clip-rule="evenodd" d="M11.15 2H4.84991C4.44043 2.00059 4.03602 2.09034 3.66473 2.26303C3.29345 2.43572 2.96423 2.68721 2.69995 3H10.9999C11.5304 3 12.0391 3.21071 12.4141 3.58578C12.7892 3.96086 12.9999 4.46957 12.9999 5V6H13.9999V4.85001C13.9973 4.09495 13.6962 3.37155 13.1623 2.83765C12.6284 2.30374 11.905 2.00264 11.15 2Z" fill="white"/>
<path fill-rule="evenodd" clip-rule="evenodd" d="M8.78003 15H3.21997C2.92807 15.0013 2.63884 14.9448 2.3689 14.8337C2.09896 14.7226 1.85369 14.5591 1.64728 14.3527C1.44087 14.1463 1.27742 13.9011 1.16632 13.6311C1.05522 13.3612 0.998676 13.0719 1 12.78V7.22C0.998676 6.9281 1.05522 6.63881 1.16632 6.36887C1.27742 6.09893 1.44087 5.85369 1.64728 5.64728C1.85369 5.44087 2.09896 5.27739 2.3689 5.16629C2.63884 5.05519 2.92807 4.99868 3.21997 5H8.78003C9.14686 5.00167 9.50756 5.09378 9.83026 5.26822C10.153 5.44265 10.4277 5.69401 10.63 6H11.79C11.5655 5.4125 11.1682 4.90686 10.6505 4.5498C10.1327 4.19275 9.51893 4.00105 8.89001 4H3.10999C2.28516 4 1.49413 4.32765 0.910889 4.91089C0.327651 5.49413 0 6.28516 0 7.10999V12.89C0 13.7148 0.327651 14.5059 0.910889 15.0891C1.49413 15.6723 2.28516 16 3.10999 16H8.89001C9.06673 15.9989 9.24275 15.9829 9.41621 15.9523L8.78003 15Z" fill="white"/>
<path fill-rule="evenodd" clip-rule="evenodd" d="M3 9.25V10.75V13L6.29 11.36L6 11L7 10H9L3 7V9.25Z" fill="white"/>
<path fill-rule="evenodd" clip-rule="evenodd" d="M16 11L12.01 16L8 11H11V7H13V11H16Z" fill="white"/>
</svg>
