<svg width="16" height="16" viewBox="0 0 16 16" fill="none" xmlns="http://www.w3.org/2000/svg">
<path d="M8 8.5C9.38071 8.5 10.5 7.38071 10.5 6C10.5 4.61929 9.38071 3.5 8 3.5C6.61929 3.5 5.5 4.61929 5.5 6C5.5 7.38071 6.61929 8.5 8 8.5Z" fill="white"/>
<path opacity="0.5" d="M13 1.05078L11.53 2.47078C12.4643 3.40801 12.989 4.67741 12.989 6.00078C12.989 7.32415 12.4643 8.59355 11.53 9.53078L13 11.0008C13.6501 10.3508 14.1658 9.57906 14.5176 8.72973C14.8695 7.8804 15.0505 6.97009 15.0505 6.05078C15.0505 5.13147 14.8695 4.22116 14.5176 3.37183C14.1658 2.52251 13.6501 1.7508 13 1.10078V1.05078Z" fill="white"/>
<path opacity="0.5" d="M3.00002 6.00078C3.00295 4.67582 3.53166 3.4062 4.47002 2.47078L3.05002 1.05078C2.39993 1.7008 1.88425 2.47251 1.53242 3.32183C1.1806 4.17116 0.999512 5.08147 0.999512 6.00078C0.999512 6.92009 1.1806 7.8304 1.53242 8.67973C1.88425 9.52906 2.39993 10.3008 3.05002 10.9508L4.47002 9.53078C3.53166 8.59536 3.00295 7.32574 3.00002 6.00078V6.00078Z" fill="white"/>
<path d="M9 10H7V15H9V10Z" fill="white"/>
</svg>
