<svg width="64" height="64" viewBox="0 0 64 64" fill="none" xmlns="http://www.w3.org/2000/svg">
<path d="M35 3.5L61 18.5701V44.8301L35 26.76V3.5ZM30 3.5V26.76L4 44.8301V18.5701L30 3.5ZM32 35.6299C44.55 35.6299 52.9301 48.1899 52.9301 48.1899C52.9301 48.1899 44.55 60.75 32 60.75C19.45 60.75 11.0699 48.1899 11.0699 48.1899C11.0699 48.1899 19.43 35.6299 32 35.6299ZM33 0.0300293V27.8L33.86 28.3999L59.86 46.47L63 48.6599V17.4199L62 16.8401L36 1.77002L33 0.0300293V0.0300293ZM32 0.0300293L29 1.77002L3 16.8401L2 17.4199V48.6599L5.14001 46.47L31.14 28.3999L32 27.8V0V0.0300293ZM32 33.6299C18.52 33.6299 9.77002 46.5301 9.40002 47.0801L8.67004 48.1899L9.40002 49.3C9.77002 49.85 18.52 62.75 32 62.75C45.48 62.75 54.23 49.85 54.59 49.3L55.33 48.1899L54.59 47.0801C54.23 46.5301 45.46 33.6299 32 33.6299Z" fill="#333333"/>
<path d="M32 59.35C38.1635 59.35 43.16 54.3535 43.16 48.19C43.16 42.0265 38.1635 37.03 32 37.03C25.8365 37.03 20.84 42.0265 20.84 48.19C20.84 54.3535 25.8365 59.35 32 59.35Z" fill="url(#paint0_linear_9353_25211)"/>
<path d="M32 35.6299C19.43 35.6299 11.0699 48.1899 11.0699 48.1899C11.0699 48.1899 19.43 60.75 32 60.75C44.57 60.75 52.9301 48.1899 52.9301 48.1899C52.9301 48.1899 44.56 35.6299 32 35.6299ZM32 59.3501C30.5344 59.3501 29.0832 59.0613 27.7292 58.5005C26.3753 57.9396 25.1449 57.1176 24.1086 56.0813C23.0723 55.045 22.2503 53.8147 21.6895 52.4607C21.1286 51.1067 20.84 49.6555 20.84 48.1899C20.836 46.7219 21.1218 45.2676 21.6809 43.9102C22.24 42.5527 23.0613 41.3188 24.098 40.2793C25.1347 39.2398 26.3663 38.415 27.7223 37.8523C29.0782 37.2896 30.5319 37 32 37C34.9598 37 37.7985 38.1759 39.8914 40.2688C41.9843 42.3617 43.16 45.2001 43.16 48.1599C43.164 49.628 42.8782 51.0825 42.3191 52.4399C41.76 53.7974 40.9387 55.0313 39.902 56.0708C38.8653 57.1103 37.6337 57.9348 36.2777 58.4976C34.9218 59.0603 33.4681 59.3501 32 59.3501V59.3501Z" fill="url(#paint1_radial_9353_25211)"/>
<path opacity="0.7" d="M32 37C29.0402 37 26.2016 38.1759 24.1086 40.2688C22.0157 42.3617 20.84 45.2001 20.84 48.1599C20.8387 49.6258 21.1264 51.0778 21.6868 52.4324C22.2471 53.787 23.0692 55.0176 24.1057 56.0542C25.1423 57.0908 26.3731 57.9128 27.7277 58.4731C29.0823 59.0335 30.5341 59.3214 32 59.3201C33.4659 59.3214 34.9178 59.0335 36.2723 58.4731C37.6269 57.9128 38.8577 57.0908 39.8943 56.0542C40.9309 55.0176 41.7529 53.787 42.3132 52.4324C42.8736 51.0778 43.1614 49.6258 43.16 48.1599C43.16 45.2001 41.9843 42.3617 39.8914 40.2688C37.7985 38.1759 34.9598 37 32 37ZM32 54.1599C30.4087 54.1599 28.8825 53.5278 27.7573 52.4026C26.6321 51.2774 26 49.7512 26 48.1599C26 46.5686 26.6321 45.0427 27.7573 43.9175C28.8825 42.7923 30.4087 42.1599 32 42.1599C33.5913 42.1599 35.1175 42.7923 36.2427 43.9175C37.3679 45.0427 38 46.5686 38 48.1599C38.004 48.9504 37.8516 49.7339 37.5519 50.4653C37.2521 51.1968 36.8108 51.8618 36.2533 52.4221C35.6958 52.9825 35.033 53.4271 34.3031 53.7305C33.5732 54.0339 32.7905 54.19 32 54.1899V54.1599Z" fill="url(#paint2_linear_9353_25211)"/>
<path opacity="0.6" d="M35.79 46.6499C37.0327 46.6499 38.04 45.6425 38.04 44.3999C38.04 43.1573 37.0327 42.1499 35.79 42.1499C34.5474 42.1499 33.54 43.1573 33.54 44.3999C33.54 45.6425 34.5474 46.6499 35.79 46.6499Z" fill="white"/>
<path d="M61 44.83L35 26.76V3.5L61 18.57V44.83Z" fill="url(#paint3_linear_9353_25211)"/>
<path d="M4 44.83L30 26.76V3.5L4 18.57V44.83Z" fill="url(#paint4_linear_9353_25211)"/>
<path d="M37 7L59 19.76V41L37 25.7V7ZM35 3.53003V26.79L61 44.8601V18.6001L35 3.53003Z" fill="#CCCCCC"/>
<path d="M28 7V25.74L6 41.04V19.76L28 7V7ZM30 3.53003L4 18.6001V44.8601L30 26.79V3.53003Z" fill="#CCCCCC"/>
<defs>
<linearGradient id="paint0_linear_9353_25211" x1="32" y1="59.35" x2="32" y2="37.03" gradientUnits="userSpaceOnUse">
<stop stop-color="#808080"/>
<stop offset="1" stop-color="#1A1A1A"/>
</linearGradient>
<radialGradient id="paint1_radial_9353_25211" cx="0" cy="0" r="1" gradientUnits="userSpaceOnUse" gradientTransform="translate(32.01 47.2801) scale(20.3101 13.7199)">
<stop stop-color="#919191"/>
<stop offset="0.05" stop-color="#9E9E9E"/>
<stop offset="0.22" stop-color="#CBCBCB"/>
<stop offset="0.36" stop-color="#E7E7E7"/>
<stop offset="0.44" stop-color="#F2F2F2"/>
<stop offset="0.58" stop-color="#EFEFEF"/>
<stop offset="0.69" stop-color="#E5E5E5"/>
<stop offset="0.79" stop-color="#D4D4D4"/>
<stop offset="0.88" stop-color="#BCBCBC"/>
<stop offset="0.97" stop-color="#9E9E9E"/>
<stop offset="1" stop-color="#949494"/>
</radialGradient>
<linearGradient id="paint2_linear_9353_25211" x1="32" y1="37.03" x2="32" y2="59.3501" gradientUnits="userSpaceOnUse">
<stop stop-color="#4D4D4D"/>
<stop offset="0.5" stop-color="#808080"/>
<stop offset="1" stop-color="#B3B3B3"/>
</linearGradient>
<linearGradient id="paint3_linear_9353_25211" x1="53.7" y1="14.3" x2="42.3" y2="34.04" gradientUnits="userSpaceOnUse">
<stop stop-color="#4D4D4D"/>
<stop offset="1" stop-color="#B3B3B3"/>
</linearGradient>
<linearGradient id="paint4_linear_9353_25211" x1="11.3" y1="14.3" x2="22.7" y2="34.04" gradientUnits="userSpaceOnUse">
<stop stop-color="#4D4D4D"/>
<stop offset="1" stop-color="#B3B3B3"/>
</linearGradient>
</defs>
</svg>
