<svg width="16" height="16" viewBox="0 0 16 16" fill="none" xmlns="http://www.w3.org/2000/svg">
<path d="M16 10L9 5V0L16 4V10Z" fill="white"/>
<path opacity="0.5" d="M7 0L0 4V10L7 5V0Z" fill="white"/>
<path d="M8.00012 6.5C7.1806 6.5 6.39467 6.82554 5.81519 7.40503C5.2357 7.98452 4.91016 8.77057 4.91016 9.59009C4.91016 11.3001 6.59012 12.12 8.00012 15.5C9.41012 12.12 11.0901 11.3001 11.0901 9.59009C11.0901 8.77057 10.7645 7.98452 10.1851 7.40503C9.60557 6.82554 8.81964 6.5 8.00012 6.5V6.5ZM8.00012 11C7.81496 11 7.63164 10.9634 7.46057 10.8926C7.2895 10.8217 7.13398 10.7178 7.00305 10.5869C6.87212 10.456 6.76837 10.3007 6.69751 10.1296C6.62665 9.95857 6.59009 9.77525 6.59009 9.59009C6.59273 9.21787 6.74245 8.86163 7.00659 8.59937C7.27073 8.3371 7.62789 8.18993 8.00012 8.18994C8.37235 8.18993 8.72951 8.3371 8.99365 8.59937C9.25779 8.86163 9.40752 9.21787 9.41016 9.59009C9.41016 9.96404 9.26162 10.3225 8.99719 10.5869C8.73277 10.8513 8.37408 11 8.00012 11V11Z" fill="white"/>
</svg>
