<svg width="16" height="16" viewBox="0 0 16 16" fill="none" xmlns="http://www.w3.org/2000/svg">
<path d="M16 10L9 5V0L16 4V10Z" fill="white"/>
<path opacity="0.5" d="M7 0L0 4V10L7 5V0Z" fill="white"/>
<path d="M8 7.8999C4.4 7.8999 2 11.5 2 11.5C2 11.5 4.4 15.1001 8 15.1001C11.6 15.1001 14 11.5 14 11.5C14 11.5 11.6 7.8999 8 7.8999ZM8 14.7C7.15131 14.7 6.33742 14.3628 5.7373 13.7627C5.13719 13.1626 4.80005 12.3487 4.80005 11.5C4.80005 10.6513 5.13719 9.83742 5.7373 9.2373C6.33742 8.63719 7.15131 8.30005 8 8.30005C8.84869 8.30005 9.66258 8.63719 10.2627 9.2373C10.8628 9.83742 11.2 10.6513 11.2 11.5C11.2 12.3487 10.8628 13.1626 10.2627 13.7627C9.66258 14.3628 8.84869 14.7 8 14.7Z" fill="white"/>
<path d="M8.8 11.4999C9.24183 11.4999 9.6 11.1417 9.6 10.6999C9.6 10.2581 9.24183 9.8999 8.8 9.8999C8.35817 9.8999 8 10.2581 8 10.6999C8 11.1417 8.35817 11.4999 8.8 11.4999Z" fill="white"/>
</svg>
