<svg width="16" height="16" viewBox="0 0 16 16" fill="none" xmlns="http://www.w3.org/2000/svg">
<path fill-rule="evenodd" clip-rule="evenodd" d="M12.9 9C12.4367 11.2822 10.419 13 8 13C5.23858 13 3 10.7614 3 8C3 5.23858 5.23858 3 8 3V1C4.13401 1 1 4.13401 1 8C1 11.866 4.13401 15 8 15C11.5265 15 14.4439 12.3923 14.9291 9H12.9Z" fill="white"/>
<path fill-rule="evenodd" clip-rule="evenodd" d="M13 8C13 5.23858 10.7614 3 8 3C5.23858 3 3 5.23858 3 8C3 10.7614 5.23858 13 8 13C10.7614 13 13 10.7614 13 8ZM15 8C15 4.13401 11.866 1 8 1C4.13401 1 1 4.13401 1 8C1 11.866 4.13401 15 8 15C11.866 15 15 11.866 15 8Z" fill="white" fill-opacity="0.5"/>
<path d="M11 2L8 4V0L11 2Z" fill="white"/>
</svg>
