<svg xmlns="http://www.w3.org/2000/svg" xmlns:xlink="http://www.w3.org/1999/xlink" viewBox="0 0 64 64"><defs><style>.cls-1{fill:none;}.cls-2,.cls-3,.cls-4{stroke:#bfbfbf;stroke-miterlimit:10;}.cls-2{stroke-width:1.05px;fill:url(#linear-gradient);}.cls-3{fill:url(#linear-gradient-2);}.cls-4{fill:url(#linear-gradient-3);}.cls-5{fill:#3f3f3f;opacity:0.8;}.cls-6{fill:#bfbfbf;}</style><linearGradient id="linear-gradient" x1="32.03" y1="21.4" x2="32.03" y2="56.42" gradientUnits="userSpaceOnUse"><stop offset="0" stop-color="#333"/><stop offset="0.03" stop-color="#525252"/><stop offset="0.08" stop-color="#757575"/><stop offset="0.12" stop-color="#909090"/><stop offset="0.17" stop-color="#a4a4a4"/><stop offset="0.22" stop-color="#afafaf"/><stop offset="0.26" stop-color="#b3b3b3"/></linearGradient><linearGradient id="linear-gradient-2" x1="22.25" y1="7.38" x2="22.25" y2="22.18" gradientUnits="userSpaceOnUse"><stop offset="0" stop-color="#ccc"/><stop offset="1" stop-color="#e6e6e6"/></linearGradient><linearGradient id="linear-gradient-3" x1="60.9" y1="31.62" x2="60.9" y2="46.42" gradientTransform="translate(-11.35 -24.24)" gradientUnits="userSpaceOnUse"><stop offset="0" stop-color="#333"/><stop offset="1" stop-color="#4d4d4d"/></linearGradient></defs><g id="Layer_2" data-name="Layer 2"><g id="_64x64_EmptyBg" data-name="64x64_EmptyBg"><rect class="cls-1" width="64" height="64"/></g><g id="Icons_64"><g id="Widget_ComboBox"><path class="cls-2" d="M4.71,20.69H59.35a0,0,0,0,1,0,0V54a4.11,4.11,0,0,1-4.11,4.11H8.82A4.11,4.11,0,0,1,4.71,54V20.69a0,0,0,0,1,0,0Z"/><path class="cls-3" d="M7.56,7.08H39.8a0,0,0,0,1,0,0V22.9a0,0,0,0,1,0,0H7.56A2.86,2.86,0,0,1,4.7,20V9.94A2.86,2.86,0,0,1,7.56,7.08Z"/><path class="cls-4" d="M42.58,7.08H59.39a0,0,0,0,1,0,0V22.91a0,0,0,0,1,0,0H42.58A2.86,2.86,0,0,1,39.71,20V9.95a2.86,2.86,0,0,1,2.86-2.86Z" transform="translate(99.1 29.99) rotate(180)"/><rect class="cls-5" x="9.82" y="12.59" width="26.57" height="4.01"/><rect class="cls-5" x="9.81" y="28.39" width="34.88" height="3.97"/><rect class="cls-5" x="9.81" y="39.16" width="27.68" height="3.97"/><rect class="cls-5" x="9.81" y="49.93" width="37.7" height="3.97"/><polygon class="cls-6" points="46.11 11.94 53.54 11.94 49.84 18.3 46.11 11.94 46.11 11.94"/></g></g></g></svg>