<svg xmlns="http://www.w3.org/2000/svg" xmlns:xlink="http://www.w3.org/1999/xlink" viewBox="0 0 64 64"><defs><style>.cls-1{isolation:isolate;}.cls-2{fill:none;}.cls-3{fill:url(#linear-gradient);}.cls-4{mix-blend-mode:multiply;opacity:0.3;}.cls-5{fill:url(#linear-gradient-2);}.cls-6{fill:url(#linear-gradient-3);}.cls-7{fill:url(#linear-gradient-4);}</style><linearGradient id="linear-gradient" x1="29.23" y1="11.41" x2="29.23" y2="47.37" gradientUnits="userSpaceOnUse"><stop offset="0" stop-color="#333"/><stop offset="1" stop-color="#4d4d4d"/></linearGradient><linearGradient id="linear-gradient-2" x1="32.62" y1="10.54" x2="32.62" y2="53.82" gradientUnits="userSpaceOnUse"><stop offset="0" stop-color="#999"/><stop offset="0.33" stop-color="#ababab"/><stop offset="1" stop-color="#ccc"/></linearGradient><linearGradient id="linear-gradient-3" x1="29.85" y1="18.06" x2="29.85" y2="23.46" gradientUnits="userSpaceOnUse"><stop offset="0" stop-color="#b3b3b3"/><stop offset="1" stop-color="#ccc"/></linearGradient><linearGradient id="linear-gradient-4" x1="29.85" y1="26.13" x2="29.85" y2="40.37" xlink:href="#linear-gradient-3"/></defs><g class="cls-1"><g id="Layer_2" data-name="Layer 2"><g id="_64x64_EmptyBg" data-name="64x64_EmptyBg"><rect class="cls-2" width="64" height="64"/></g><g id="Icons_64"><g id="Widget_DetailsView"><circle class="cls-3" cx="29.23" cy="29.39" r="17.98"/><g class="cls-4"><path d="M46.08,41.85a18.82,18.82,0,1,0-3.78,3.79l9.18,9.18A5.05,5.05,0,0,0,55.26,51ZM14.68,30.47a16.24,16.24,0,0,1,32.47,0,16.11,16.11,0,0,1-3.43,9.92l-2.89,2.89a16.07,16.07,0,0,1-9.91,3.42A16.28,16.28,0,0,1,14.68,30.47Z"/></g><path class="cls-5" d="M45.08,40.85a18.82,18.82,0,1,0-3.78,3.79l9.18,9.18a3.87,3.87,0,0,0,2.43-1.35A3.9,3.9,0,0,0,54.26,50ZM13.68,29.47a16.24,16.24,0,0,1,32.47,0,16.11,16.11,0,0,1-3.43,9.92l-2.89,2.89a16.07,16.07,0,0,1-9.91,3.42A16.28,16.28,0,0,1,13.68,29.47Z"/><g class="cls-4"><circle cx="30.85" cy="21.76" r="2.7"/><path d="M30.88,41.37h-.05a2.48,2.48,0,0,1-2.48-2.48v-11a.72.72,0,0,1,.72-.72h3.57a.72.72,0,0,1,.72.72v11A2.48,2.48,0,0,1,30.88,41.37Z"/></g><circle class="cls-6" cx="29.85" cy="20.76" r="2.7"/><path class="cls-7" d="M29.88,40.37h-.05a2.48,2.48,0,0,1-2.48-2.48v-11a.72.72,0,0,1,.72-.72h3.57a.72.72,0,0,1,.72.72v11A2.48,2.48,0,0,1,29.88,40.37Z"/></g></g></g></g></svg>