<svg xmlns="http://www.w3.org/2000/svg" xmlns:xlink="http://www.w3.org/1999/xlink" viewBox="0 0 64 64"><defs><style>.cls-1{fill:none;}.cls-2{fill:url(#linear-gradient);}.cls-3{opacity:0.5;}.cls-4,.cls-5{fill:#fff;}.cls-5{opacity:0.9;}</style><linearGradient id="linear-gradient" x1="32.17" y1="45.79" x2="32.17" y2="18.79" gradientUnits="userSpaceOnUse"><stop offset="0" stop-color="#333"/><stop offset="0.22" stop-color="#3e3e3e"/><stop offset="0.6" stop-color="#494949"/><stop offset="1" stop-color="#4d4d4d"/></linearGradient></defs><g id="Layer_2" data-name="Layer 2"><g id="_64x64_EmptyBg" data-name="64x64_EmptyBg"><rect class="cls-1" width="64" height="64"/></g><g id="Icons_64"><g id="Widget_EditbaleTextBox"><rect class="cls-2" x="1.86" y="18.79" width="60.62" height="27" rx="2.22"/><g class="cls-3"><polygon class="cls-4" points="60.88 43.52 58.88 43.52 58.88 42.52 59.88 42.52 59.88 41.52 60.88 41.52 60.88 43.52"/><path class="cls-4" d="M55.74,43.51H52.59v-1h3.15Zm-6.29,0H46.31v-1h3.14Zm-6.28,0H40v-1h3.14Zm-6.29,0H33.74v-1h3.14Zm-6.28,0H27.46v-1H30.6Zm-6.28,0H21.17v-1h3.15Zm-6.29,0H14.89v-1H18Zm-6.28,0H8.61v-1h3.14Z"/><polygon class="cls-4" points="5.46 43.52 3.46 43.52 3.46 41.52 4.46 41.52 4.46 42.52 5.46 42.52 5.46 43.52"/><path class="cls-4" d="M4.47,38.88h-1V36.25h1Zm0-5.27h-1V31h1Zm0-5.27h-1V25.71h1Z"/><polygon class="cls-4" points="4.46 23.07 3.46 23.07 3.46 21.07 5.46 21.07 5.46 22.07 4.46 22.07 4.46 23.07"/><path class="cls-4" d="M55.74,22.07H52.59v-1h3.15Zm-6.29,0H46.31v-1h3.14Zm-6.28,0H40v-1h3.14Zm-6.29,0H33.74v-1h3.14Zm-6.28,0H27.46v-1H30.6Zm-6.28,0H21.18v-1h3.14Zm-6.29,0H14.89v-1H18Zm-6.28,0H8.61v-1h3.14Z"/><polygon class="cls-4" points="60.88 23.07 59.88 23.07 59.88 22.07 58.88 22.07 58.88 21.07 60.88 21.07 60.88 23.07"/><path class="cls-4" d="M60.88,38.88h-1V36.25h1Zm0-5.27h-1V31h1Zm0-5.27h-1V25.71h1Z"/></g><rect class="cls-5" x="7.86" y="24.34" width="3.93" height="15.59"/></g></g></g></svg>