<svg xmlns="http://www.w3.org/2000/svg" xmlns:xlink="http://www.w3.org/1999/xlink" viewBox="0 0 64 64"><defs><style>.cls-1{fill:none;}.cls-2{fill:url(#linear-gradient);}.cls-3{opacity:0.5;}.cls-4,.cls-5{fill:#fff;}.cls-5{opacity:0.9;}</style><linearGradient id="linear-gradient" x1="32.17" y1="52.56" x2="32.17" y2="8.67" gradientUnits="userSpaceOnUse"><stop offset="0" stop-color="#333"/><stop offset="0.22" stop-color="#3e3e3e"/><stop offset="0.6" stop-color="#494949"/><stop offset="1" stop-color="#4d4d4d"/></linearGradient></defs><g id="Layer_2" data-name="Layer 2"><g id="_64x64_EmptyBg" data-name="64x64_EmptyBg"><rect class="cls-1" width="64" height="64"/></g><g id="Icons_64"><g id="Widget_EditableTextBoxMultiline"><rect class="cls-2" x="1.86" y="8.67" width="60.62" height="43.89" rx="2.22"/><g class="cls-3"><polygon class="cls-4" points="60.06 49.54 57.48 49.54 57.48 48.25 58.77 48.25 58.77 46.95 60.06 46.95 60.06 49.54"/><path class="cls-4" d="M53.6,49.54H49.72V48.25H53.6Zm-7.77,0H42V48.25h3.88Zm-7.76,0H34.19V48.25h3.88Zm-7.76,0H26.43V48.25h3.88Zm-7.76,0H18.66V48.25h3.89Zm-7.77,0H10.9V48.25h3.88Z"/><polygon class="cls-4" points="7.02 49.54 4.44 49.54 4.44 46.95 5.73 46.95 5.73 48.25 7.02 48.25 7.02 49.54"/><path class="cls-4" d="M5.73,43.26H4.44V39.57H5.73Zm0-7.39H4.44V32.18H5.73Zm0-7.38H4.44v-3.7H5.73Zm0-7.39H4.44V17.41H5.73Z"/><polygon class="cls-4" points="5.73 13.71 4.44 13.71 4.44 11.13 7.02 11.13 7.02 12.42 5.73 12.42 5.73 13.71"/><path class="cls-4" d="M53.6,12.42H49.72V11.13H53.6Zm-7.77,0H42V11.13h3.88Zm-7.76,0H34.19V11.13h3.88Zm-7.76,0H26.43V11.13h3.88Zm-7.77,0H18.66V11.13h3.88Zm-7.76,0H10.9V11.13h3.88Z"/><polygon class="cls-4" points="60.06 13.71 58.77 13.71 58.77 12.42 57.48 12.42 57.48 11.13 60.06 11.13 60.06 13.71"/><path class="cls-4" d="M60.06,43.26H58.77V39.57h1.29Zm0-7.39H58.77V32.18h1.29Zm0-7.38H58.77v-3.7h1.29Zm0-7.39H58.77V17.41h1.29Z"/></g><rect class="cls-5" x="9.06" y="17.85" width="39.84" height="4.94"/><rect class="cls-5" x="9.06" y="27.8" width="26.31" height="4.94"/><rect class="cls-5" x="9.06" y="37.74" width="35.99" height="4.94"/></g></g></g></svg>