<svg xmlns="http://www.w3.org/2000/svg" xmlns:xlink="http://www.w3.org/1999/xlink" viewBox="0 0 64 64"><defs><style>.cls-1{fill:none;}.cls-2{stroke:#bfbfbf;stroke-miterlimit:10;stroke-width:2px;fill:url(#linear-gradient);}.cls-3{opacity:0.3;}.cls-4{fill:url(#linear-gradient-2);}.cls-5{fill:url(#linear-gradient-3);}.cls-6{fill:url(#linear-gradient-4);}.cls-7{fill:url(#linear-gradient-5);}.cls-8{fill:url(#linear-gradient-6);}</style><linearGradient id="linear-gradient" x1="31.77" y1="8.81" x2="31.77" y2="53.01" gradientUnits="userSpaceOnUse"><stop offset="0" stop-color="#1a1a1a"/><stop offset="1" stop-color="#333"/></linearGradient><linearGradient id="linear-gradient-2" x1="24.98" y1="22.37" x2="54.82" y2="22.37" gradientUnits="userSpaceOnUse"><stop offset="0" stop-color="gray"/><stop offset="1" stop-color="#ccc"/></linearGradient><linearGradient id="linear-gradient-3" x1="41.13" y1="44.15" x2="54.78" y2="44.15" xlink:href="#linear-gradient-2"/><linearGradient id="linear-gradient-4" x1="24.72" y1="44.15" x2="38.37" y2="44.15" xlink:href="#linear-gradient-2"/><linearGradient id="linear-gradient-5" x1="8.86" y1="38.04" x2="22.51" y2="38.04" xlink:href="#linear-gradient-2"/><linearGradient id="linear-gradient-6" x1="8.87" y1="16.06" x2="22.5" y2="16.06" xlink:href="#linear-gradient-2"/></defs><g id="Layer_2" data-name="Layer 2"><g id="_64x64_EmptyBg" data-name="64x64_EmptyBg"><rect class="cls-1" width="64" height="64"/></g><g id="Icons_64"><g id="Widget_GridPanel"><rect class="cls-2" x="5.81" y="7.86" width="51.92" height="46.68"/><g class="cls-3"><rect x="25.74" y="11.21" width="29.84" height="23.79" rx="1.3"/><rect x="41.89" y="36.86" width="13.65" height="16.04" rx="1.3"/><rect x="25.48" y="36.86" width="13.65" height="16.04" rx="1.3"/><rect x="9.62" y="24.65" width="13.65" height="28.25" rx="1.3"/><rect x="9.63" y="11.21" width="13.63" height="11.17" rx="1.3"/></g><rect class="cls-4" x="24.98" y="10.48" width="29.84" height="23.79" rx="1.3"/><rect class="cls-5" x="41.13" y="36.13" width="13.65" height="16.04" rx="1.3"/><rect class="cls-6" x="24.72" y="36.13" width="13.65" height="16.04" rx="1.3"/><rect class="cls-7" x="8.86" y="23.92" width="13.65" height="28.25" rx="1.3"/><rect class="cls-8" x="8.87" y="10.48" width="13.63" height="11.17" rx="1.3"/></g></g></g></svg>