<svg xmlns="http://www.w3.org/2000/svg" xmlns:xlink="http://www.w3.org/1999/xlink" viewBox="0 0 64 64"><defs><style>.cls-1{fill:none;}.cls-2{fill:url(#radial-gradient);}.cls-3{fill:url(#radial-gradient-2);}.cls-4{fill:#d8d8d8;}.cls-5,.cls-6,.cls-7{fill:#fff;}.cls-6,.cls-7{isolation:isolate;}.cls-7{fill-rule:evenodd;}</style><radialGradient id="radial-gradient" cx="25.84" cy="23.83" r="45.45" gradientTransform="translate(-2.78 -1.19) scale(1.08 1.02)" gradientUnits="userSpaceOnUse"><stop offset="0" stop-color="#999"/><stop offset="1" stop-color="#333"/></radialGradient><radialGradient id="radial-gradient-2" cx="43.24" cy="23.04" r="11.47" gradientUnits="userSpaceOnUse"><stop offset="0" stop-color="#fff"/><stop offset="1" stop-color="#fff" stop-opacity="0"/></radialGradient></defs><g id="Layer_2" data-name="Layer 2"><g id="_64x64_EmptyBg" data-name="64x64_EmptyBg"><rect class="cls-1" width="64" height="64"/></g><g id="Icons_64"><g id="Widget_Image"><rect class="cls-2" x="10.43" y="9.88" width="46.2" height="43.9"/><path class="cls-3" d="M43.24,34.51A11.47,11.47,0,1,0,31.77,23,11.46,11.46,0,0,0,43.24,34.51Z"/><path class="cls-4" d="M55.35,10.67V52.53H10.48V10.67Zm3.29-3H7.19V55.52H58.64Z"/><path class="cls-5" d="M43.43,30.05a7.18,7.18,0,1,1,7.17-7.18A7.18,7.18,0,0,1,43.43,30.05Z"/><path class="cls-6" d="M16.5,25.69h3.35v4.22L16.5,32Z"/><path class="cls-6" d="M26.55,25.69,40,35.74H13.15Z"/><path class="cls-7" d="M36.6,35.74H16.5V52.5h6.7V44.12h6.7V52.5h6.7Z"/></g></g></g></svg>