<svg xmlns="http://www.w3.org/2000/svg" xmlns:xlink="http://www.w3.org/1999/xlink" viewBox="0 0 64 64"><defs><style>.cls-1{fill:none;}.cls-2{stroke-width:3px;fill:url(#radial-gradient);stroke:url(#linear-gradient);}.cls-3{fill:#020202;opacity:0.3;}.cls-4{fill:url(#linear-gradient-2);}</style><radialGradient id="radial-gradient" cx="32.39" cy="31.99" r="24.08" gradientUnits="userSpaceOnUse"><stop offset="0" stop-color="gray"/><stop offset="1" stop-color="#333"/></radialGradient><linearGradient id="linear-gradient" x1="8.68" y1="8.28" x2="56.1" y2="55.7" gradientUnits="userSpaceOnUse"><stop offset="0" stop-color="#fff"/><stop offset="1" stop-color="#999"/></linearGradient><linearGradient id="linear-gradient-2" x1="32.01" y1="15.99" x2="32.43" y2="48.33" gradientUnits="userSpaceOnUse"><stop offset="0" stop-color="#f2f2f2"/><stop offset="0.52" stop-color="#d3d3d3"/><stop offset="1" stop-color="#b3b3b3"/></linearGradient></defs><g id="Layer_2" data-name="Layer 2"><g id="_64x64_EmptyBg" data-name="64x64_EmptyBg"><rect class="cls-1" width="64" height="64"/></g><g id="Icons_64"><g id="Widget_NamedSlot"><path class="cls-2" d="M10.54,10h43.7c2.31,0,4.19,2.28,4.19,5.1V48.85c0,2.81-1.88,5.1-4.19,5.1H10.54c-2.31,0-4.18-2.29-4.18-5.1V15.14C6.36,12.32,8.23,10,10.54,10Z"/><path class="cls-3" d="M48.52,25.06l2,5.51a1.17,1.17,0,0,1-.73,1.5l-9.46,3.16a1.16,1.16,0,0,0-.57,1.8l5.82,7.76a1.17,1.17,0,0,1-.2,1.61l-4.69,3.8A1.16,1.16,0,0,1,39,50l-5.8-8.21a1.17,1.17,0,0,0-1.9,0L25.46,50a1.16,1.16,0,0,1-1.64.27L18.89,46.7a1.16,1.16,0,0,1-.25-1.64l5.79-7.73a1.16,1.16,0,0,0-.55-1.8L14.7,32.39a1.17,1.17,0,0,1-.72-1.5l2-5.52a1.19,1.19,0,0,1,1.54-.69l8.78,3.56a1.16,1.16,0,0,0,1.6-1.08V17.31a1.17,1.17,0,0,1,1.17-1.17h5.76A1.16,1.16,0,0,1,36,17.31v9.84a1.16,1.16,0,0,0,1.61,1.08L47,24.38A1.17,1.17,0,0,1,48.52,25.06Z"/><path class="cls-4" d="M48.46,23.06l2,5.5a1.15,1.15,0,0,1-.73,1.5l-9.46,3.16A1.17,1.17,0,0,0,39.69,35l5.82,7.75a1.17,1.17,0,0,1-.2,1.61l-4.69,3.8A1.17,1.17,0,0,1,38.93,48l-5.79-8.2a1.17,1.17,0,0,0-1.91,0L25.4,48a1.17,1.17,0,0,1-1.64.27l-4.93-3.59a1.17,1.17,0,0,1-.24-1.64l5.79-7.72a1.18,1.18,0,0,0-.56-1.81l-9.18-3.14a1.17,1.17,0,0,1-.72-1.5l2-5.52a1.17,1.17,0,0,1,1.54-.68l8.77,3.56a1.17,1.17,0,0,0,1.61-1.09V15.3A1.17,1.17,0,0,1,29,14.13h5.75a1.18,1.18,0,0,1,1.17,1.17v9.85a1.17,1.17,0,0,0,1.61,1.08l9.39-3.86A1.16,1.16,0,0,1,48.46,23.06Z"/></g></g></g></svg>