<svg xmlns="http://www.w3.org/2000/svg" xmlns:xlink="http://www.w3.org/1999/xlink" viewBox="0 0 64 64"><defs><style>.cls-1{isolation:isolate;}.cls-2{fill:none;}.cls-3{stroke-miterlimit:10;stroke-width:2px;fill:url(#linear-gradient);stroke:url(#linear-gradient-2);}.cls-4{mix-blend-mode:multiply;opacity:0.3;}.cls-5{fill:#bfbfbf;}</style><linearGradient id="linear-gradient" x1="31.92" y1="3.77" x2="31.92" y2="59.63" gradientUnits="userSpaceOnUse"><stop offset="0" stop-color="#333"/><stop offset="1" stop-color="#4d4d4d"/></linearGradient><linearGradient id="linear-gradient-2" x1="31.92" y1="2.77" x2="31.92" y2="60.63" gradientUnits="userSpaceOnUse"><stop offset="0" stop-color="#999"/><stop offset="0.41" stop-color="#afafaf"/><stop offset="1" stop-color="#ccc"/></linearGradient></defs><g class="cls-1"><g id="Layer_2" data-name="Layer 2"><g id="_64x64_EmptyBg" data-name="64x64_EmptyBg"><rect class="cls-2" width="64" height="64"/></g><g id="Icons_64"><g id="Widget_NativeHostWidget"><rect class="cls-3" x="3.99" y="3.77" width="55.86" height="55.86"/><g class="cls-4"><path d="M54.62,16.29H26.28a.82.82,0,0,0-.87.76v5.7a.83.83,0,0,0,.87.77H54.62a.83.83,0,0,0,.87-.77v-5.7A.82.82,0,0,0,54.62,16.29Z"/><path d="M19.53,16.29H13.2a.85.85,0,0,0-.85.85V50.27a.85.85,0,0,0,.85.85h6.33a.85.85,0,0,0,.85-.85V17.14A.85.85,0,0,0,19.53,16.29Z"/><path d="M54.65,29.31H48.42a.85.85,0,0,0-.84.86V50.25a.86.86,0,0,0,.84.87h6.23a.86.86,0,0,0,.84-.87V30.17A.85.85,0,0,0,54.65,29.31Z"/><path d="M38.54,37.79q5.67.95,5.7,5.9v.6q0,5.9-5.65,6.58H26a.73.73,0,0,1-.72-.73V47a.72.72,0,0,1,.72-.73H37.26a1.86,1.86,0,0,0,1.65-2.08c0-1-.59-1.67-1.76-1.87H30.68C26.9,41.66,25,39.71,25,36.42v-.6q0-5.66,5.66-6.37H42.78a.73.73,0,0,1,.73.73v3.15a.72.72,0,0,1-.73.73H31.88a1.73,1.73,0,0,0-1.57,2c0,1,.59,1.63,1.76,1.76Z"/></g><path class="cls-5" d="M52.62,14.29H24.28a.82.82,0,0,0-.87.76v5.7a.83.83,0,0,0,.87.77H52.62a.83.83,0,0,0,.87-.77v-5.7A.82.82,0,0,0,52.62,14.29Z"/><path class="cls-5" d="M17.53,14.29H11.2a.85.85,0,0,0-.85.85V48.27a.85.85,0,0,0,.85.85h6.33a.85.85,0,0,0,.85-.85V15.14A.85.85,0,0,0,17.53,14.29Z"/><path class="cls-5" d="M52.65,27.31H46.42a.85.85,0,0,0-.84.86V48.25a.86.86,0,0,0,.84.87h6.23a.86.86,0,0,0,.84-.87V28.17A.85.85,0,0,0,52.65,27.31Z"/><path class="cls-5" d="M36.54,35.79q5.67.95,5.7,5.9v.6q0,5.9-5.65,6.58H24a.73.73,0,0,1-.72-.73V45a.72.72,0,0,1,.72-.73H35.26a1.86,1.86,0,0,0,1.65-2.08c0-1-.59-1.67-1.76-1.87H28.68C24.9,39.66,23,37.71,23,34.42v-.6q0-5.66,5.66-6.37H40.78a.73.73,0,0,1,.73.73v3.15a.72.72,0,0,1-.73.73H29.88a1.73,1.73,0,0,0-1.57,2c0,1,.59,1.63,1.76,1.76Z"/></g></g></g></g></svg>