<svg xmlns="http://www.w3.org/2000/svg" xmlns:xlink="http://www.w3.org/1999/xlink" viewBox="0 0 64 64"><defs><style>.cls-1{fill:none;}.cls-2{stroke:#bfbfbf;stroke-miterlimit:10;stroke-width:2px;fill:url(#linear-gradient);}.cls-3{opacity:0.3;}.cls-4{fill:#fff;}</style><linearGradient id="linear-gradient" x1="32.21" y1="11.83" x2="31.93" y2="56.23" gradientUnits="userSpaceOnUse"><stop offset="0" stop-color="#333"/><stop offset="1" stop-color="gray"/></linearGradient></defs><g id="Layer_2" data-name="Layer 2"><g id="_64x64_EmptyBg" data-name="64x64_EmptyBg"><rect class="cls-1" width="64" height="64"/></g><g id="Icons_64"><g id="Widget_RichText"><rect class="cls-2" x="9.58" y="9.22" width="45" height="45"/><g class="cls-3"><path d="M33.26,19.24H40L33.26,49.55H26.49Z"/><path d="M46.65,23.3H43l5.45,10.79L43,44.88h3.63L52.1,34.09Z"/><path d="M19.82,23.3h3.63L18,34.09l5.44,10.79H19.82L14.38,34.09Z"/></g><path class="cls-4" d="M31.75,16.35h6.78L31.75,46.66H25Z"/><path class="cls-4" d="M45.14,20.4H41.51L47,31.2,41.51,42h3.63L50.58,31.2Z"/><path class="cls-4" d="M18.31,20.4h3.63L16.49,31.2,21.94,42H18.31L12.86,31.2Z"/></g></g></g></svg>