<svg xmlns="http://www.w3.org/2000/svg" xmlns:xlink="http://www.w3.org/1999/xlink" viewBox="0 0 64 64"><defs><style>.cls-1{fill:none;}.cls-2{fill:#3f3f3f;stroke:#bfbfbf;stroke-miterlimit:10;stroke-width:2px;}.cls-3{fill:url(#linear-gradient);}.cls-4{fill:#fff;}</style><linearGradient id="linear-gradient" x1="32.59" y1="14.77" x2="32.59" y2="49.73" gradientUnits="userSpaceOnUse"><stop offset="0" stop-color="#1a1a1a"/><stop offset="1" stop-color="#333"/></linearGradient></defs><g id="Layer_2" data-name="Layer 2"><g id="_64x64_EmptyBg" data-name="64x64_EmptyBg"><rect class="cls-1" width="64" height="64"/></g><g id="Icons_64"><g id="Widget_SafeZone"><rect class="cls-2" x="6.63" y="9.14" width="51.92" height="46.68"/><rect class="cls-3" x="11.62" y="14.02" width="41.94" height="36.92"/><polygon class="cls-4" points="53.96 51.34 47.56 51.34 47.56 50.54 53.16 50.54 53.16 44.94 53.96 44.94 53.96 51.34"/><rect class="cls-4" x="27.6" y="50.54" width="9.98" height="0.8"/><polygon class="cls-4" points="17.62 51.34 11.22 51.34 11.22 44.94 12.02 44.94 12.02 50.54 17.62 50.54 17.62 51.34"/><rect class="cls-4" x="11.22" y="28.33" width="0.8" height="8.31"/><polygon class="cls-4" points="12.02 20.02 11.22 20.02 11.22 13.62 17.62 13.62 17.62 14.42 12.02 14.42 12.02 20.02"/><rect class="cls-4" x="27.6" y="13.62" width="9.98" height="0.8"/><polygon class="cls-4" points="53.96 20.02 53.16 20.02 53.16 14.42 47.56 14.42 47.56 13.62 53.96 13.62 53.96 20.02"/><rect class="cls-4" x="53.16" y="28.33" width="0.8" height="8.31"/></g></g></g></svg>