<svg xmlns="http://www.w3.org/2000/svg" xmlns:xlink="http://www.w3.org/1999/xlink" viewBox="0 0 64 64"><defs><style>.cls-1{fill:none;}.cls-2{stroke:#bfbfbf;stroke-miterlimit:10;fill:url(#linear-gradient);}.cls-3{fill:#3f3f3f;opacity:0.8;}.cls-4{fill:url(#linear-gradient-2);}.cls-5{fill:#bfbfbf;}.cls-6{opacity:0.3;}</style><linearGradient id="linear-gradient" x1="27.87" y1="8.82" x2="27.87" y2="55.65" gradientUnits="userSpaceOnUse"><stop offset="0" stop-color="#666"/><stop offset="0.09" stop-color="#757575"/><stop offset="0.28" stop-color="#909090"/><stop offset="0.48" stop-color="#a4a4a4"/><stop offset="0.67" stop-color="#afafaf"/><stop offset="0.88" stop-color="#b3b3b3"/></linearGradient><linearGradient id="linear-gradient-2" x1="51.52" y1="8.25" x2="51.52" y2="56.19" gradientUnits="userSpaceOnUse"><stop offset="0" stop-color="#4d4d4d"/><stop offset="0.22" stop-color="#424242"/><stop offset="0.6" stop-color="#373737"/><stop offset="1" stop-color="#333"/></linearGradient></defs><g id="Layer_2" data-name="Layer 2"><g id="_64x64_EmptyBg" data-name="64x64_EmptyBg"><rect class="cls-1" width="64" height="64"/></g><g id="Icons_64"><g id="Widget_Scrollbox"><path class="cls-2" d="M10.72,7.87H48.58a0,0,0,0,1,0,0V57.94a0,0,0,0,1,0,0H10.72a3.56,3.56,0,0,1-3.56-3.56V11.43a3.56,3.56,0,0,1,3.56-3.56Z"/><rect class="cls-3" x="10.7" y="15.25" width="29.83" height="4.01"/><rect class="cls-3" x="10.7" y="47.46" width="23.81" height="3.97"/><path class="cls-4" d="M46.24,7.27h8.46A2.09,2.09,0,0,1,56.8,9.36V56.45a2.09,2.09,0,0,1-2.09,2.09H46.24a0,0,0,0,1,0,0V7.27A0,0,0,0,1,46.24,7.27Z"/><polygon class="cls-5" points="47.97 49.99 55.4 49.99 51.7 56.35 47.97 49.99 47.97 49.99"/><polygon class="cls-5" points="55.4 15.53 47.97 15.53 51.67 9.17 55.4 15.53 55.4 15.53"/><rect class="cls-3" x="10.7" y="25.98" width="29.83" height="4.01"/><rect class="cls-3" x="10.7" y="36.71" width="29.83" height="4.01"/><rect class="cls-6" x="49.22" y="18.91" width="6.35" height="13.6" rx="1.24"/><rect class="cls-5" x="48.29" y="17.98" width="6.35" height="13.6" rx="1.24"/></g></g></g></svg>