<svg xmlns="http://www.w3.org/2000/svg" xmlns:xlink="http://www.w3.org/1999/xlink" viewBox="0 0 64 64"><defs><style>.cls-1{fill:none;}.cls-2{stroke:#bfbfbf;stroke-width:2px;fill:url(#linear-gradient);}.cls-3{fill:url(#linear-gradient-2);}.cls-4{fill:url(#linear-gradient-3);}</style><linearGradient id="linear-gradient" x1="27.26" y1="17.38" x2="27.26" y2="53.61" gradientUnits="userSpaceOnUse"><stop offset="0" stop-color="#1a1a1a"/><stop offset="1" stop-color="#333"/></linearGradient><linearGradient id="linear-gradient-2" x1="27.44" y1="5.22" x2="27.44" y2="13.65" gradientUnits="userSpaceOnUse"><stop offset="0" stop-color="#e6e6e6"/><stop offset="1" stop-color="gray"/></linearGradient><linearGradient id="linear-gradient-3" x1="59.3" y1="32.36" x2="59.3" y2="40.79" gradientTransform="translate(90.43 -23.67) rotate(90)" xlink:href="#linear-gradient-2"/></defs><g id="Layer_2" data-name="Layer 2"><g id="_64x64_EmptyBg" data-name="64x64_EmptyBg"><rect class="cls-1" width="64" height="64"/></g><g id="Icons_64"><g id="Widget_Sizebox"><rect class="cls-2" x="8.12" y="16.6" width="38.27" height="38.27"/><polygon class="cls-3" points="47.39 5.22 45.11 5.22 45.11 11.67 38.02 11.67 38.02 9.56 35.74 9.56 35.74 11.67 28.6 11.67 28.6 7.05 26.32 7.05 26.32 11.67 19.18 11.67 19.18 9.56 16.91 9.56 16.91 11.67 9.76 11.67 9.76 5.22 7.49 5.22 7.49 11.67 7.49 11.68 7.49 13.65 47.38 13.65 47.38 11.68 47.39 11.68 47.39 5.22"/><polygon class="cls-4" points="58.07 55.58 58.07 53.3 51.62 53.3 51.62 46.21 53.73 46.21 53.73 43.93 51.62 43.93 51.62 36.79 56.24 36.79 56.24 34.51 51.62 34.51 51.62 27.37 53.73 27.37 53.73 25.09 51.62 25.09 51.62 17.95 58.07 17.95 58.07 15.68 51.62 15.68 51.61 15.68 49.65 15.68 49.65 55.58 51.61 55.58 51.61 55.58 58.07 55.58"/></g></g></g></svg>