<svg width="16" height="16" viewBox="0 0 16 16" fill="none" xmlns="http://www.w3.org/2000/svg">
<rect x="1.5" y="5.5" width="9" height="9" stroke="white"/>
<g opacity="0.5">
<rect x="1" y="3" width="10" height="1" fill="white"/>
<rect x="10" y="1" width="1" height="2" fill="white"/>
<rect x="7" y="2" width="1" height="1" fill="white"/>
<rect x="4" y="2" width="1" height="1" fill="white"/>
<rect x="1" y="1" width="1" height="2" fill="white"/>
</g>
<g opacity="0.5">
<rect x="13" y="5" width="10" height="1" transform="rotate(90 13 5)" fill="white"/>
<rect x="15" y="14" width="1" height="2" transform="rotate(90 15 14)" fill="white"/>
<rect x="14" y="11" width="1" height="1" transform="rotate(90 14 11)" fill="white"/>
<rect x="14" y="8" width="1" height="1" transform="rotate(90 14 8)" fill="white"/>
<rect x="15" y="5" width="1" height="2" transform="rotate(90 15 5)" fill="white"/>
</g>
</svg>
