<svg xmlns="http://www.w3.org/2000/svg" xmlns:xlink="http://www.w3.org/1999/xlink" viewBox="0 0 64 64"><defs><style>.cls-1,.cls-6{fill:none;}.cls-2,.cls-3{fill-opacity:0.5;}.cls-2{fill:url(#linear-gradient);}.cls-3{fill:url(#linear-gradient-2);}.cls-4{opacity:0.3;}.cls-5{fill:url(#linear-gradient-3);}.cls-6{stroke:#b3b3b3;stroke-miterlimit:10;}</style><linearGradient id="linear-gradient" x1="32.13" y1="27.56" x2="32.13" y2="38.87" gradientUnits="userSpaceOnUse"><stop offset="0.01" stop-color="#333"/><stop offset="0.26" stop-color="#424242"/><stop offset="0.75" stop-color="#696969"/><stop offset="1" stop-color="gray"/></linearGradient><linearGradient id="linear-gradient-2" x1="16.85" y1="27.6" x2="16.85" y2="38.91" gradientUnits="userSpaceOnUse"><stop offset="0.01" stop-color="#b3b3b3"/><stop offset="0.36" stop-color="#c2c2c2"/><stop offset="1" stop-color="#e6e6e6"/></linearGradient><linearGradient id="linear-gradient-3" x1="28.37" y1="32.93" x2="20.46" y2="32.93" gradientUnits="userSpaceOnUse"><stop offset="0.01" stop-color="#ccc"/><stop offset="0.21" stop-color="#e6e6e6"/><stop offset="0.77" stop-color="#e6e6e6"/><stop offset="1" stop-color="#ccc"/></linearGradient></defs><g id="Layer_2" data-name="Layer 2"><g id="_64x64_EmptyBg" data-name="64x64_EmptyBg"><rect class="cls-1" width="64" height="64"/></g><g id="Icons_64"><g id="Widget_Slider"><path class="cls-2" d="M7.15,27.06h50a1.16,1.16,0,0,1,1.06,1.24v9.08a1.16,1.16,0,0,1-1.06,1.24h-50a1.15,1.15,0,0,1-1.06-1.24V28.3A1.15,1.15,0,0,1,7.15,27.06Z"/><path class="cls-3" d="M6.62,27.1H27.08c.24,0,.44.55.44,1.24v9.08c0,.69-.2,1.24-.44,1.24H6.62c-.24,0-.43-.55-.43-1.24V28.34C6.19,27.65,6.38,27.1,6.62,27.1Z"/><rect class="cls-4" x="20.8" y="27.01" width="10.25" height="11.61"/><path class="cls-5" d="M24.59,15.56h0a4,4,0,0,1,4.11,3.86v27a4,4,0,0,1-4.11,3.86h0a4,4,0,0,1-4.1-3.86v-27A4,4,0,0,1,24.59,15.56Z"/><path class="cls-6" d="M24.59,15.56h0a4,4,0,0,1,4.11,3.86v27a4,4,0,0,1-4.11,3.86h0a4,4,0,0,1-4.1-3.86v-27A4,4,0,0,1,24.59,15.56Z"/></g></g></g></svg>