<svg xmlns="http://www.w3.org/2000/svg" xmlns:xlink="http://www.w3.org/1999/xlink" viewBox="0 0 64 64"><defs><style>.cls-1{fill:none;}.cls-2{fill:#ccc;}.cls-3{fill:url(#linear-gradient);}.cls-4{fill:url(#linear-gradient-2);}</style><linearGradient id="linear-gradient" x1="4.45" y1="31.93" x2="20.76" y2="31.93" gradientUnits="userSpaceOnUse"><stop offset="0" stop-color="gray"/><stop offset="1" stop-color="#ccc"/></linearGradient><linearGradient id="linear-gradient-2" x1="45.22" y1="31.93" x2="61.52" y2="31.93" gradientUnits="userSpaceOnUse"><stop offset="0" stop-color="#ccc"/><stop offset="1" stop-color="gray"/></linearGradient></defs><g id="Layer_2" data-name="Layer 2"><g id="_64x64_EmptyBg" data-name="64x64_EmptyBg"><rect class="cls-1" width="64" height="64"/></g><g id="Icons_64"><g id="Widget_Spacer"><rect class="cls-2" x="28.91" y="27.86" width="8.15" height="8.15" rx="0.68"/><path class="cls-3" d="M16.68,27.86V19.7L4.45,31.93,16.68,44.16V36h3.4a.69.69,0,0,0,.68-.68v-6.8a.68.68,0,0,0-.68-.67Z"/><path class="cls-4" d="M61.52,31.93,49.29,19.7v8.16H45.9a.67.67,0,0,0-.68.67v6.8a.68.68,0,0,0,.68.68h3.39v8.15Z"/></g></g></g></svg>