<svg width="16" height="16" viewBox="0 0 16 16" fill="none" xmlns="http://www.w3.org/2000/svg">
<rect x="15" y="11" width="4" height="14" transform="rotate(90 15 11)" fill="#C4C4C4" fill-opacity="0.5"/>
<rect x="8" y="11" width="4" height="7" transform="rotate(90 8 11)" fill="white"/>
<path fill-rule="evenodd" clip-rule="evenodd" d="M1.99902 2H13.999V10H14.999V2V1H13.999H1.99902H0.999023V2V10H1.99902V2Z" fill="white" fill-opacity="0.5"/>
<path d="M7.6271 5.90107H8.38872C8.7514 5.90107 9.02011 5.81529 9.19486 5.64372C9.3696 5.47215 9.45697 5.24443 9.45697 4.96056C9.45697 4.68605 9.3696 4.47237 9.19486 4.31952C9.02341 4.16667 8.78602 4.09024 8.48269 4.09024C8.20903 4.09024 7.97989 4.16199 7.79525 4.30548C7.61062 4.44586 7.5183 4.6299 7.5183 4.85762H6.08902C6.08902 4.50201 6.18958 4.18382 6.3907 3.90307C6.59512 3.61921 6.87867 3.39773 7.24135 3.23864C7.60732 3.07955 8.00956 3 8.44807 3C9.20969 3 9.80646 3.17313 10.2384 3.51939C10.6703 3.86252 10.8863 4.33668 10.8863 4.94184C10.8863 5.25379 10.7857 5.54078 10.5846 5.80281C10.3834 6.06484 10.1197 6.26604 9.79327 6.40642C10.1988 6.54367 10.5005 6.74955 10.6983 7.02406C10.8994 7.29857 11 7.62299 11 7.99733C11 8.6025 10.7659 9.08757 10.2977 9.45254C9.83284 9.81751 9.21629 10 8.44807 10C7.72931 10 7.14078 9.82063 6.68249 9.4619C6.2275 9.10316 6 8.62901 6 8.03944H7.42928C7.42928 8.29523 7.52984 8.50423 7.73096 8.66644C7.93538 8.82865 8.18595 8.90976 8.48269 8.90976C8.82229 8.90976 9.0877 8.82553 9.27893 8.65709C9.47346 8.48552 9.57072 8.25936 9.57072 7.97861C9.57072 7.29857 9.17507 6.95856 8.38378 6.95856H7.6271V5.90107Z" fill="white"/>
</svg>
