<svg xmlns="http://www.w3.org/2000/svg" xmlns:xlink="http://www.w3.org/1999/xlink" viewBox="0 0 64 64"><defs><style>.cls-1{fill:none;}.cls-2,.cls-3,.cls-4,.cls-5,.cls-6,.cls-7,.cls-8{stroke:#bfbfbf;stroke-miterlimit:10;}.cls-2{fill:url(#linear-gradient);}.cls-3{fill:url(#linear-gradient-2);}.cls-4{fill:url(#linear-gradient-3);}.cls-5{fill:url(#linear-gradient-4);}.cls-6{fill:url(#linear-gradient-5);}.cls-7{fill:url(#linear-gradient-6);}.cls-8{fill:url(#linear-gradient-7);}.cls-9{opacity:0.5;}.cls-10{fill:url(#linear-gradient-8);}.cls-11{fill:url(#linear-gradient-9);}</style><linearGradient id="linear-gradient" x1="14.58" y1="19.54" x2="14.58" y2="6.06" gradientUnits="userSpaceOnUse"><stop offset="0" stop-color="#b3b3b3"/><stop offset="0.09" stop-color="#c1c1c1"/><stop offset="0.31" stop-color="#dcdcdc"/><stop offset="0.54" stop-color="#f0f0f0"/><stop offset="0.77" stop-color="#fbfbfb"/><stop offset="1" stop-color="#fff"/></linearGradient><linearGradient id="linear-gradient-2" x1="32.52" y1="19.54" x2="32.52" y2="6.06" xlink:href="#linear-gradient"/><linearGradient id="linear-gradient-3" x1="50.17" y1="19.54" x2="50.17" y2="6.06" xlink:href="#linear-gradient"/><linearGradient id="linear-gradient-4" x1="14.3" y1="37.85" x2="14.3" y2="24.38" xlink:href="#linear-gradient"/><linearGradient id="linear-gradient-5" x1="32.23" y1="37.85" x2="32.23" y2="24.38" xlink:href="#linear-gradient"/><linearGradient id="linear-gradient-6" x1="50.17" y1="37.85" x2="50.17" y2="24.38" xlink:href="#linear-gradient"/><linearGradient id="linear-gradient-7" x1="14.3" y1="56.16" x2="14.3" y2="42.69" xlink:href="#linear-gradient"/><linearGradient id="linear-gradient-8" x1="32.23" y1="56.16" x2="32.23" y2="42.69" gradientUnits="userSpaceOnUse"><stop offset="0" stop-color="gray"/><stop offset="0.09" stop-color="#8e8e8e"/><stop offset="0.31" stop-color="#a9a9a9"/><stop offset="0.54" stop-color="#bdbdbd"/><stop offset="0.77" stop-color="#c8c8c8"/><stop offset="1" stop-color="#ccc"/></linearGradient><linearGradient id="linear-gradient-9" x1="50.17" y1="56.16" x2="50.17" y2="42.69" xlink:href="#linear-gradient-8"/></defs><g id="Layer_2" data-name="Layer 2"><g id="_64x64_EmptyBg" data-name="64x64_EmptyBg"><rect class="cls-1" width="64" height="64"/></g><g id="Icons_64"><g id="Widget_TileView"><rect class="cls-2" x="7.84" y="6.06" width="13.47" height="13.47" rx="1.5"/><rect class="cls-3" x="25.78" y="6.06" width="13.47" height="13.47" rx="1.5"/><rect class="cls-4" x="43.43" y="6.06" width="13.47" height="13.47" rx="1.5"/><rect class="cls-5" x="7.56" y="24.38" width="13.47" height="13.47" rx="1.5"/><rect class="cls-6" x="25.49" y="24.38" width="13.47" height="13.47" rx="1.5"/><rect class="cls-7" x="43.43" y="24.38" width="13.47" height="13.47" rx="1.5"/><rect class="cls-8" x="7.56" y="42.69" width="13.47" height="13.47" rx="1.5"/><g class="cls-9"><path class="cls-10" d="M37,44.69v9.47H27.49V44.69H37m.5-2H27a1.5,1.5,0,0,0-1.5,1.5V54.66a1.5,1.5,0,0,0,1.5,1.5H37.47a1.5,1.5,0,0,0,1.5-1.5V44.19a1.5,1.5,0,0,0-1.5-1.5Z"/></g><g class="cls-9"><path class="cls-11" d="M54.9,44.69v9.47H45.43V44.69H54.9m.51-2H44.93a1.5,1.5,0,0,0-1.5,1.5V54.66a1.5,1.5,0,0,0,1.5,1.5H55.41a1.5,1.5,0,0,0,1.49-1.5V44.19a1.5,1.5,0,0,0-1.49-1.5Z"/></g></g></g></g></svg>