<svg xmlns="http://www.w3.org/2000/svg" xmlns:xlink="http://www.w3.org/1999/xlink" viewBox="0 0 64 64"><defs><style>.cls-1{fill:none;}.cls-2{stroke:#bfbfbf;stroke-miterlimit:10;stroke-width:2px;fill:url(#linear-gradient);}.cls-3{opacity:0.3;}.cls-4{fill:url(#linear-gradient-2);}.cls-5{fill:url(#linear-gradient-3);}.cls-6{fill:url(#linear-gradient-4);}.cls-7{fill:url(#linear-gradient-5);}.cls-8{fill:url(#linear-gradient-6);}.cls-9{fill:url(#linear-gradient-7);}.cls-10{fill:url(#linear-gradient-8);}.cls-11{fill:url(#linear-gradient-9);}.cls-12{fill:url(#linear-gradient-10);}</style><linearGradient id="linear-gradient" x1="32.43" y1="9.82" x2="32.43" y2="54.02" gradientUnits="userSpaceOnUse"><stop offset="0" stop-color="#1a1a1a"/><stop offset="1" stop-color="#333"/></linearGradient><linearGradient id="linear-gradient-2" x1="10.07" y1="18.31" x2="23.86" y2="18.31" gradientUnits="userSpaceOnUse"><stop offset="0" stop-color="gray"/><stop offset="1" stop-color="#ccc"/></linearGradient><linearGradient id="linear-gradient-3" x1="25.58" y1="18.31" x2="39.37" y2="18.31" xlink:href="#linear-gradient-2"/><linearGradient id="linear-gradient-4" x1="41.09" y1="18.31" x2="54.88" y2="18.31" xlink:href="#linear-gradient-2"/><linearGradient id="linear-gradient-5" x1="10.07" y1="31.97" x2="23.86" y2="31.97" xlink:href="#linear-gradient-2"/><linearGradient id="linear-gradient-6" x1="25.58" y1="31.97" x2="39.37" y2="31.97" xlink:href="#linear-gradient-2"/><linearGradient id="linear-gradient-7" x1="41.09" y1="31.97" x2="54.88" y2="31.97" xlink:href="#linear-gradient-2"/><linearGradient id="linear-gradient-8" x1="10.07" y1="45.63" x2="23.86" y2="45.63" xlink:href="#linear-gradient-2"/><linearGradient id="linear-gradient-9" x1="25.58" y1="45.63" x2="39.37" y2="45.63" xlink:href="#linear-gradient-2"/><linearGradient id="linear-gradient-10" x1="41.09" y1="45.63" x2="54.88" y2="45.63" xlink:href="#linear-gradient-2"/></defs><g id="Layer_2" data-name="Layer 2"><g id="_64x64_EmptyBg" data-name="64x64_EmptyBg"><rect class="cls-1" width="64" height="64"/></g><g id="Icons_64"><g id="Widget_UniformGridPanel"><rect class="cls-2" x="6.47" y="8.87" width="51.92" height="46.68"/><g class="cls-3"><rect x="10.84" y="13.39" width="13.79" height="11.96" rx="1.3"/><rect x="26.35" y="13.39" width="13.79" height="11.96" rx="1.3"/><rect x="41.86" y="13.39" width="13.79" height="11.96" rx="1.3"/><rect x="10.84" y="27.05" width="13.79" height="11.96" rx="1.3"/><rect x="26.35" y="27.05" width="13.79" height="11.96" rx="1.3"/><rect x="41.86" y="27.05" width="13.79" height="11.96" rx="1.3"/><rect x="10.84" y="40.71" width="13.79" height="11.96" rx="1.3"/><rect x="26.35" y="40.71" width="13.79" height="11.96" rx="1.3"/><rect x="41.86" y="40.71" width="13.79" height="11.96" rx="1.3"/></g><rect class="cls-4" x="10.07" y="12.33" width="13.79" height="11.96" rx="1.3"/><rect class="cls-5" x="25.58" y="12.33" width="13.79" height="11.96" rx="1.3"/><rect class="cls-6" x="41.09" y="12.33" width="13.79" height="11.96" rx="1.3"/><rect class="cls-7" x="10.07" y="25.99" width="13.79" height="11.96" rx="1.3"/><rect class="cls-8" x="25.58" y="25.99" width="13.79" height="11.96" rx="1.3"/><rect class="cls-9" x="41.09" y="25.99" width="13.79" height="11.96" rx="1.3"/><rect class="cls-10" x="10.07" y="39.65" width="13.79" height="11.96" rx="1.3"/><rect class="cls-11" x="25.58" y="39.65" width="13.79" height="11.96" rx="1.3"/><rect class="cls-12" x="41.09" y="39.65" width="13.79" height="11.96" rx="1.3"/></g></g></g></svg>