<svg xmlns="http://www.w3.org/2000/svg" xmlns:xlink="http://www.w3.org/1999/xlink" viewBox="0 0 64 64"><defs><style>.cls-1{isolation:isolate;}.cls-2{fill:none;}.cls-3{stroke-miterlimit:10;stroke-width:1.93px;fill:url(#linear-gradient);stroke:url(#linear-gradient-2);}.cls-4{mix-blend-mode:multiply;opacity:0.3;}.cls-5{fill:#7f7f7f;}</style><linearGradient id="linear-gradient" x1="32.08" y1="13.03" x2="32.08" y2="50.27" gradientUnits="userSpaceOnUse"><stop offset="0" stop-color="#4d4d4d"/><stop offset="0.22" stop-color="#424242"/><stop offset="0.6" stop-color="#373737"/><stop offset="1" stop-color="#333"/></linearGradient><linearGradient id="linear-gradient-2" x1="32.08" y1="53.06" x2="32.08" y2="11.31" gradientUnits="userSpaceOnUse"><stop offset="0" stop-color="#ccc"/><stop offset="0.17" stop-color="#bcbcbc"/><stop offset="0.44" stop-color="#a8a8a8"/><stop offset="0.71" stop-color="#9d9d9d"/><stop offset="1" stop-color="#999"/></linearGradient></defs><g class="cls-1"><g id="Layer_2" data-name="Layer 2"><g id="_64x64_EmptyBg" data-name="64x64_EmptyBg"><rect class="cls-2" width="64" height="64"/></g><g id="Icons_64"><g id="Widget_Viewport"><rect class="cls-3" x="5.73" y="12.28" width="52.7" height="39.82" rx="2.36"/><g class="cls-4"><polygon points="19.85 17.69 14.55 17.69 11.84 17.69 11.84 20.39 11.84 25.7 14.55 25.7 14.55 20.39 19.85 20.39 19.85 17.69"/><polygon points="54.32 25.7 54.32 20.39 54.32 17.69 51.62 17.69 46.31 17.69 46.31 20.39 51.62 20.39 51.62 25.7 54.32 25.7"/></g><polygon class="cls-5" points="18.85 16.69 13.55 16.69 10.84 16.69 10.84 19.39 10.84 24.7 13.55 24.7 13.55 19.39 18.85 19.39 18.85 16.69"/><polygon class="cls-5" points="53.32 24.7 53.32 19.39 53.32 16.69 50.62 16.69 45.31 16.69 45.31 19.39 50.62 19.39 50.62 24.7 53.32 24.7"/><g class="cls-4"><polygon points="46.31 48.68 51.62 48.68 54.32 48.68 54.32 45.98 54.32 40.67 51.62 40.67 51.62 45.98 46.31 45.98 46.31 48.68"/><polygon points="11.84 40.67 11.84 45.98 11.84 48.68 14.55 48.68 19.85 48.68 19.85 45.98 14.55 45.98 14.55 40.67 11.84 40.67"/></g><polygon class="cls-5" points="45.31 47.68 50.62 47.68 53.32 47.68 53.32 44.98 53.32 39.67 50.62 39.67 50.62 44.98 45.31 44.98 45.31 47.68"/><polygon class="cls-5" points="10.84 39.67 10.84 44.98 10.84 47.68 13.55 47.68 18.85 47.68 18.85 44.98 13.55 44.98 13.55 39.67 10.84 39.67"/></g></g></g></g></svg>