<svg xmlns="http://www.w3.org/2000/svg" xmlns:xlink="http://www.w3.org/1999/xlink" viewBox="0 0 64 64"><defs><style>.cls-1{fill:none;}.cls-2{fill:#7f7f7f;}.cls-3{fill:url(#linear-gradient);}.cls-4{fill:url(#linear-gradient-2);}</style><linearGradient id="linear-gradient" x1="31.75" y1="52.1" x2="31.75" y2="12.12" gradientUnits="userSpaceOnUse"><stop offset="0" stop-color="gray"/><stop offset="1" stop-color="#ccc"/></linearGradient><linearGradient id="linear-gradient-2" x1="19.33" y1="29.07" x2="14.54" y2="29.07" gradientUnits="userSpaceOnUse"><stop offset="0" stop-opacity="0.3"/><stop offset="1" stop-opacity="0"/></linearGradient></defs><g id="Layer_2" data-name="Layer 2"><g id="_64x64_EmptyBg" data-name="64x64_EmptyBg"><rect class="cls-1" width="64" height="64"/></g><g id="Icons_64"><g id="Widget_WidgetSwitcher"><rect class="cls-2" x="10.16" y="22.99" width="23.65" height="12.16" rx="1.3"/><path class="cls-3" d="M51.93,9.5H11.58a1.31,1.31,0,0,0-1.3,1.31v9.55a1.3,1.3,0,0,0,1.3,1.3h7.8V52.15a1.3,1.3,0,0,0,1.3,1.3H51.93a1.3,1.3,0,0,0,1.3-1.3V10.81A1.31,1.31,0,0,0,51.93,9.5Z"/><rect class="cls-4" x="14.54" y="22.98" width="4.79" height="12.17"/></g></g></g></svg>