<svg width="16" height="16" viewBox="0 0 16 16" fill="none" xmlns="http://www.w3.org/2000/svg">
<path d="M4 15.1H3.59998C2.6452 15.1 1.72957 14.7207 1.05444 14.0456C0.379312 13.3705 0 12.4548 0 11.5C0 10.5452 0.379312 9.62957 1.05444 8.95444C1.72957 8.27931 2.6452 7.90002 3.59998 7.90002H4V15.1Z" fill="white"/>
<path d="M12 7.90002H12.4C13.3548 7.90002 14.2704 8.27931 14.9456 8.95444C15.6207 9.62957 16 10.5452 16 11.5C16 12.4548 15.6207 13.3705 14.9456 14.0456C14.2704 14.7207 13.3548 15.1 12.4 15.1H12V7.90002Z" fill="white"/>
<path opacity="0.5" d="M3 8.25V7.62C3 4.52 5.24 2 8 2C10.76 2 13 4.52 13 7.62V8.25" stroke="white" stroke-width="2" stroke-miterlimit="10" stroke-linecap="square"/>
</svg>
