<svg xmlns="http://www.w3.org/2000/svg" viewBox="0 0 16 16"><defs><style>.cls-1,.cls-2,.cls-3,.cls-4{fill:#fff;}.cls-1{fill-opacity:0.5;}.cls-3{opacity:0.5;}.cls-4{fill-rule:evenodd;}.cls-5{fill:none;}</style></defs><g id="Layer_2" data-name="Layer 2"><g id="Layer_3" data-name="Layer 3"><g id="Statistics"><rect class="cls-1" x="1.5" y="6.5" width="2" height="5" transform="translate(11.5 6.5) rotate(90)"/><rect class="cls-1" x="2.5" y="1.5" width="2" height="7" transform="translate(8.5 1.5) rotate(90)"/><rect class="cls-2" x="4.5" y="-4.5" width="2" height="11" transform="translate(6.5 -4.5) rotate(90)"/><path class="cls-3" d="M15.05,10.15H13.12l-.89-1.56a1.55,1.55,0,0,1,0,1l-.34.58.45.79a.59.59,0,0,0,.56.29h2.16a.54.54,0,1,0,0-1.07Z"/><path class="cls-3" d="M8.42,12.31a1.32,1.32,0,0,1-.57-.71L7,13H5.13a.54.54,0,1,0,0,1.07H7.29a.57.57,0,0,0,.54-.28l.79-1.35Z"/><path class="cls-4" d="M7.36,9.07,8.59,7.7l1.18.61L8.25,10.9A1,1,0,0,0,8.75,12l.09.05h0l2.22,1.26v1.86a.54.54,0,0,0,1.08,0V13a.5.5,0,0,0-.19-.4l0,0h0l-.05,0-1.38-.8,1.16-2h0L12,9.17a.81.81,0,0,0-.12-1L11,7.69l-.18-.09-.12-.06-1.93-1A.61.61,0,0,0,8,6.74L6.56,8.35a.54.54,0,1,0,.8.72Z"/><circle class="cls-2" cx="12.86" cy="6.54" r="1.42"/><rect class="cls-5" width="16" height="16"/></g></g></g></svg>