<?xml version="1.0" encoding="utf-8"?>
<!-- Generator: Adobe Illustrator 24.3.0, SVG Export Plug-In . SVG Version: 6.00 Build 0)  -->
<svg version="1.1" id="ChaosSolver_x5F_64" xmlns="http://www.w3.org/2000/svg" xmlns:xlink="http://www.w3.org/1999/xlink" x="0px"
	 y="0px" viewBox="0 0 64 64" style="enable-background:new 0 0 64 64;" xml:space="preserve">
<style type="text/css">
	.st0{opacity:0.5;}
	.st1{fill:url(#SVGID_1_);}
	.st2{fill:#E6E6E6;}
	.st3{fill:none;}
</style>
<g>
	<g class="st0">
		<path d="M52,26.7V10.5H13v5.9l15,16.9L13,50.2V56h39V39.7h-3.6V45l-3.9,4.6H25.7l14-16.3L25.7,17h17.9l4.9,4.2v5.5H52z"/>
	</g>
	<g>
		<linearGradient id="SVGID_1_" gradientUnits="userSpaceOnUse" x1="32.4116" y1="52.3518" x2="32.5933" y2="10.4562">
			<stop  offset="0" style="stop-color:#999999"/>
			<stop  offset="1" style="stop-color:#CCCCCC"/>
		</linearGradient>
		<path class="st1" d="M52,24.3V8H13v5.9l15,16.9L13,47.7v5.9h39V37.3h-3.6v5.2L44.5,47H25.7l14-16.3l-14-16.3h17.9l4.9,4.2v5.5H52z
			"/>
	</g>
	<rect x="13" y="8" class="st2" width="39" height="0.9"/>
	<rect x="0" class="st3" width="64" height="64"/>
</g>
</svg>
